<?xml version="1.0" encoding="UTF-8" standalone="no"?>
<!DOCTYPE svg PUBLIC "-//W3C//DTD SVG 1.1//EN"
 "http://www.w3.org/Graphics/SVG/1.1/DTD/svg11.dtd">
<!-- Generated by graphviz version 11.0.0 (20240428.1522)
 -->
<!-- Title: dashViews Pages: 1 -->
<svg width="1200pt" height="304pt"
 viewBox="20.16 20.16 880.16 207.56" xmlns="http://www.w3.org/2000/svg" xmlns:xlink="http://www.w3.org/1999/xlink">
<g id="graph0" class="graph" transform="scale(1.33333 1.33333) rotate(0) translate(81.36 146.36)">
<title>dashViews</title>
<polygon fill="white" stroke="none" points="-61.2,61.2 -61.2,-126.2 798.8,-126.2 798.8,61.2 -61.2,61.2"/>
<g id="clust1" class="cluster">
<title>cluster_sc</title>
<path fill="white" stroke="#93c5fd" stroke-dasharray="5,2" d="M20,-8C20,-8 215.2,-8 215.2,-8 221.2,-8 227.2,-14 227.2,-20 227.2,-20 227.2,-45 227.2,-45 227.2,-51 221.2,-57 215.2,-57 215.2,-57 20,-57 20,-57 14,-57 8,-51 8,-45 8,-45 8,-20 8,-20 8,-14 14,-8 20,-8"/>
<text text-anchor="middle" x="117.6" y="-43.5" font-family="Segoe UI" font-size="10.00" fill="#1e3a5f">Sales Cockpit</text>
</g>
<g id="clust2" class="cluster">
<title>cluster_qa</title>
<path fill="white" stroke="#c4b5fd" stroke-dasharray="5,2" d="M271.2,-8C271.2,-8 466.4,-8 466.4,-8 472.4,-8 478.4,-14 478.4,-20 478.4,-20 478.4,-45 478.4,-45 478.4,-51 472.4,-57 466.4,-57 466.4,-57 271.2,-57 271.2,-57 265.2,-57 259.2,-51 259.2,-45 259.2,-45 259.2,-20 259.2,-20 259.2,-14 265.2,-8 271.2,-8"/>
<text text-anchor="middle" x="368.8" y="-43.5" font-family="Segoe UI" font-size="10.00" fill="#4c1d95">QA Module</text>
</g>
<g id="clust3" class="cluster">
<title>cluster_cc</title>
<path fill="white" stroke="#fdba74" stroke-dasharray="5,2" d="M522.4,-8C522.4,-8 717.6,-8 717.6,-8 723.6,-8 729.6,-14 729.6,-20 729.6,-20 729.6,-45 729.6,-45 729.6,-51 723.6,-57 717.6,-57 717.6,-57 522.4,-57 522.4,-57 516.4,-57 510.4,-51 510.4,-45 510.4,-45 510.4,-20 510.4,-20 510.4,-14 516.4,-8 522.4,-8"/>
<text text-anchor="middle" x="620" y="-43.5" font-family="Segoe UI" font-size="10.00" fill="#7c2d12">Command Center</text>
</g>
<!-- sc1 -->
<g id="node1" class="node">
<title>sc1</title>
<path fill="#f0fdf4" stroke="#16a34a" stroke-width="1.4" d="M92,-36.4C92,-36.4 17.6,-36.4 17.6,-36.4 12.8,-36.4 8,-31.6 8,-26.8 8,-26.8 8,-17.2 8,-17.2 8,-12.4 12.8,-7.6 17.6,-7.6 17.6,-7.6 92,-7.6 92,-7.6 96.8,-7.6 101.6,-12.4 101.6,-17.2 101.6,-17.2 101.6,-26.8 101.6,-26.8 101.6,-31.6 96.8,-36.4 92,-36.4"/>
<text text-anchor="middle" x="54.8" y="-19.07" font-family="Segoe UI" font-size="9.00" fill="#14532d">Focus Mode</text>
</g>
<!-- sc2 -->
<g id="node2" class="node">
<title>sc2</title>
<path fill="#f0fdf4" stroke="#16a34a" stroke-width="1.4" d="M217.6,-36.4C217.6,-36.4 143.2,-36.4 143.2,-36.4 138.4,-36.4 133.6,-31.6 133.6,-26.8 133.6,-26.8 133.6,-17.2 133.6,-17.2 133.6,-12.4 138.4,-7.6 143.2,-7.6 143.2,-7.6 217.6,-7.6 217.6,-7.6 222.4,-7.6 227.2,-12.4 227.2,-17.2 227.2,-17.2 227.2,-26.8 227.2,-26.8 227.2,-31.6 222.4,-36.4 217.6,-36.4"/>
<text text-anchor="middle" x="180.4" y="-19.07" font-family="Segoe UI" font-size="9.00" fill="#14532d">Auto Follow&#45;up</text>
</g>
<!-- sc1&#45;&gt;sc2 -->
<g id="edge1" class="edge">
<title>sc1&#45;&gt;sc2</title>
<path fill="none" stroke="#94a3b8" stroke-width="1.4" d="M101.82,-22C109.55,-22 117.62,-22 125.52,-22"/>
<polygon fill="#94a3b8" stroke="#94a3b8" stroke-width="1.4" points="125.22,-24.1 131.22,-22 125.22,-19.9 125.22,-24.1"/>
</g>
<!-- qa1 -->
<g id="node3" class="node">
<title>qa1</title>
<path fill="#f5f3ff" stroke="#7c3aed" stroke-width="1.4" d="M343.2,-36.4C343.2,-36.4 268.8,-36.4 268.8,-36.4 264,-36.4 259.2,-31.6 259.2,-26.8 259.2,-26.8 259.2,-17.2 259.2,-17.2 259.2,-12.4 264,-7.6 268.8,-7.6 268.8,-7.6 343.2,-7.6 343.2,-7.6 348,-7.6 352.8,-12.4 352.8,-17.2 352.8,-17.2 352.8,-26.8 352.8,-26.8 352.8,-31.6 348,-36.4 343.2,-36.4"/>
<text text-anchor="middle" x="306" y="-19.07" font-family="Segoe UI" font-size="9.00" fill="#4c1d95">AI Scorecard</text>
</g>
<!-- sc2&#45;&gt;qa1 -->
<g id="edge4" class="edge">
<title>sc2&#45;&gt;qa1</title>
<path fill="none" stroke="#94a3b8" stroke-width="1.4" stroke-dasharray="5,2" d="M227.42,-22C235.15,-22 243.22,-22 251.12,-22"/>
<polygon fill="#94a3b8" stroke="#94a3b8" stroke-width="1.4" points="250.82,-24.1 256.82,-22 250.82,-19.9 250.82,-24.1"/>
</g>
<!-- qa2 -->
<g id="node4" class="node">
<title>qa2</title>
<path fill="#f5f3ff" stroke="#7c3aed" stroke-width="1.4" d="M468.8,-36.4C468.8,-36.4 394.4,-36.4 394.4,-36.4 389.6,-36.4 384.8,-31.6 384.8,-26.8 384.8,-26.8 384.8,-17.2 384.8,-17.2 384.8,-12.4 389.6,-7.6 394.4,-7.6 394.4,-7.6 468.8,-7.6 468.8,-7.6 473.6,-7.6 478.4,-12.4 478.4,-17.2 478.4,-17.2 478.4,-26.8 478.4,-26.8 478.4,-31.6 473.6,-36.4 468.8,-36.4"/>
<text text-anchor="middle" x="431.6" y="-19.07" font-family="Segoe UI" font-size="9.00" fill="#4c1d95">AI Coaching</text>
</g>
<!-- qa1&#45;&gt;qa2 -->
<g id="edge2" class="edge">
<title>qa1&#45;&gt;qa2</title>
<path fill="none" stroke="#94a3b8" stroke-width="1.4" d="M353.02,-22C360.75,-22 368.82,-22 376.72,-22"/>
<polygon fill="#94a3b8" stroke="#94a3b8" stroke-width="1.4" points="376.42,-24.1 382.42,-22 376.42,-19.9 376.42,-24.1"/>
</g>
<!-- cc1 -->
<g id="node5" class="node">
<title>cc1</title>
<path fill="#fff7ed" stroke="#ea580c" stroke-width="1.4" d="M594.4,-36.4C594.4,-36.4 520,-36.4 520,-36.4 515.2,-36.4 510.4,-31.6 510.4,-26.8 510.4,-26.8 510.4,-17.2 510.4,-17.2 510.4,-12.4 515.2,-7.6 520,-7.6 520,-7.6 594.4,-7.6 594.4,-7.6 599.2,-7.6 604,-12.4 604,-17.2 604,-17.2 604,-26.8 604,-26.8 604,-31.6 599.2,-36.4 594.4,-36.4"/>
<text text-anchor="middle" x="557.2" y="-19.07" font-family="Segoe UI" font-size="9.00" fill="#7c2d12">Live P&amp;L</text>
</g>
<!-- qa2&#45;&gt;cc1 -->
<g id="edge5" class="edge">
<title>qa2&#45;&gt;cc1</title>
<path fill="none" stroke="#94a3b8" stroke-width="1.4" stroke-dasharray="5,2" d="M478.62,-22C486.35,-22 494.42,-22 502.32,-22"/>
<polygon fill="#94a3b8" stroke="#94a3b8" stroke-width="1.4" points="502.02,-24.1 508.02,-22 502.02,-19.9 502.02,-24.1"/>
</g>
<!-- cc2 -->
<g id="node6" class="node">
<title>cc2</title>
<path fill="#fff7ed" stroke="#ea580c" stroke-width="1.4" d="M720,-36.4C720,-36.4 645.6,-36.4 645.6,-36.4 640.8,-36.4 636,-31.6 636,-26.8 636,-26.8 636,-17.2 636,-17.2 636,-12.4 640.8,-7.6 645.6,-7.6 645.6,-7.6 720,-7.6 720,-7.6 724.8,-7.6 729.6,-12.4 729.6,-17.2 729.6,-17.2 729.6,-26.8 729.6,-26.8 729.6,-31.6 724.8,-36.4 720,-36.4"/>
<text text-anchor="middle" x="682.8" y="-19.07" font-family="Segoe UI" font-size="9.00" fill="#7c2d12">Anomaly Detect</text>
</g>
<!-- cc1&#45;&gt;cc2 -->
<g id="edge3" class="edge">
<title>cc1&#45;&gt;cc2</title>
<path fill="none" stroke="#94a3b8" stroke-width="1.4" d="M604.22,-22C611.95,-22 620.02,-22 627.92,-22"/>
<polygon fill="#94a3b8" stroke="#94a3b8" stroke-width="1.4" points="627.62,-24.1 633.62,-22 627.62,-19.9 627.62,-24.1"/>
</g>
</g>
</svg>
