<?xml version="1.0" encoding="UTF-8" standalone="no"?>
<!DOCTYPE svg PUBLIC "-//W3C//DTD SVG 1.1//EN"
 "http://www.w3.org/Graphics/SVG/1.1/DTD/svg11.dtd">
<!-- Generated by graphviz version 11.0.0 (20240428.1522)
 -->
<!-- Title: deliveryUpsell Pages: 1 -->
<svg width="1394pt" height="469pt"
 viewBox="20.16 20.16 1025.06 331.56" xmlns="http://www.w3.org/2000/svg" xmlns:xlink="http://www.w3.org/1999/xlink">
<g id="graph0" class="graph" transform="scale(1.33333 1.33333) rotate(0) translate(81.36 270.36)">
<title>deliveryUpsell</title>
<polygon fill="white" stroke="none" points="-61.2,61.2 -61.2,-250.2 943.7,-250.2 943.7,61.2 -61.2,61.2"/>
<g id="clust1" class="cluster">
<title>cluster_del</title>
<path fill="white" stroke="#16a34a" stroke-dasharray="5,2" d="M20,-8C20,-8 118.4,-8 118.4,-8 124.4,-8 130.4,-14 130.4,-20 130.4,-20 130.4,-169 130.4,-169 130.4,-175 124.4,-181 118.4,-181 118.4,-181 20,-181 20,-181 14,-181 8,-175 8,-169 8,-169 8,-20 8,-20 8,-14 14,-8 20,-8"/>
<text text-anchor="middle" x="69.2" y="-167.5" font-family="Segoe UI" font-size="10.00" fill="#14532d">Delivery (Mantas)</text>
</g>
<!-- wk -->
<g id="node1" class="node">
<title>wk</title>
<path fill="#f0fdf4" stroke="#16a34a" stroke-width="1.4" d="M118.54,-159.79C118.54,-159.79 19.86,-159.79 19.86,-159.79 13.93,-159.79 8,-153.86 8,-147.93 8,-147.93 8,-136.07 8,-136.07 8,-130.14 13.93,-124.21 19.86,-124.21 19.86,-124.21 118.54,-124.21 118.54,-124.21 124.47,-124.21 130.4,-130.14 130.4,-136.07 130.4,-136.07 130.4,-147.93 130.4,-147.93 130.4,-153.86 124.47,-159.79 118.54,-159.79"/>
<text text-anchor="middle" x="69.2" y="-145.25" font-family="Segoe UI" font-size="10.00" fill="#14532d">Workshopai</text>
<text text-anchor="middle" x="69.2" y="-132.5" font-family="Segoe UI" font-size="10.00" fill="#14532d">+ dirbtuvės</text>
</g>
<!-- dossier -->
<g id="node4" class="node">
<title>dossier</title>
<path fill="#fff7ed" stroke="#ea580c" stroke-width="1.4" d="M281.94,-98.79C281.94,-98.79 183.26,-98.79 183.26,-98.79 177.33,-98.79 171.4,-92.86 171.4,-86.93 171.4,-86.93 171.4,-75.07 171.4,-75.07 171.4,-69.14 177.33,-63.21 183.26,-63.21 183.26,-63.21 281.94,-63.21 281.94,-63.21 287.87,-63.21 293.8,-69.14 293.8,-75.07 293.8,-75.07 293.8,-86.93 293.8,-86.93 293.8,-92.86 287.87,-98.79 281.94,-98.79"/>
<text text-anchor="middle" x="232.6" y="-84.25" font-family="Segoe UI" font-size="10.00" fill="#7c2d12">Kliento dosjė</text>
<text text-anchor="middle" x="232.6" y="-71.5" font-family="Segoe UI" font-size="10.00" fill="#7c2d12">(CustomerHealth)</text>
</g>
<!-- wk&#45;&gt;dossier -->
<g id="edge1" class="edge">
<title>wk&#45;&gt;dossier</title>
<path fill="none" stroke="#94a3b8" stroke-width="1.4" d="M118.19,-123.86C136.32,-117.01 157.1,-109.16 175.88,-102.06"/>
<polygon fill="#94a3b8" stroke="#94a3b8" stroke-width="1.4" points="176.39,-104.11 181.26,-100.03 174.9,-100.18 176.39,-104.11"/>
</g>
<!-- hw -->
<g id="node2" class="node">
<title>hw</title>
<path fill="#f0fdf4" stroke="#16a34a" stroke-width="1.4" d="M118.54,-101.79C118.54,-101.79 19.86,-101.79 19.86,-101.79 13.93,-101.79 8,-95.86 8,-89.93 8,-89.93 8,-78.07 8,-78.07 8,-72.14 13.93,-66.21 19.86,-66.21 19.86,-66.21 118.54,-66.21 118.54,-66.21 124.47,-66.21 130.4,-72.14 130.4,-78.07 130.4,-78.07 130.4,-89.93 130.4,-89.93 130.4,-95.86 124.47,-101.79 118.54,-101.79"/>
<text text-anchor="middle" x="69.2" y="-87.25" font-family="Segoe UI" font-size="10.00" fill="#14532d">Namų darbai</text>
<text text-anchor="middle" x="69.2" y="-74.5" font-family="Segoe UI" font-size="10.00" fill="#14532d">+ anketos</text>
</g>
<!-- hw&#45;&gt;dossier -->
<g id="edge2" class="edge">
<title>hw&#45;&gt;dossier</title>
<path fill="none" stroke="#94a3b8" stroke-width="1.4" d="M130.76,-82.87C141.24,-82.68 152.2,-82.48 162.87,-82.28"/>
<polygon fill="#94a3b8" stroke="#94a3b8" stroke-width="1.4" points="162.89,-84.38 168.85,-82.17 162.81,-80.18 162.89,-84.38"/>
</g>
<!-- call -->
<g id="node3" class="node">
<title>call</title>
<path fill="#f0fdf4" stroke="#16a34a" stroke-width="1.4" d="M118.54,-43.79C118.54,-43.79 19.86,-43.79 19.86,-43.79 13.93,-43.79 8,-37.86 8,-31.93 8,-31.93 8,-20.07 8,-20.07 8,-14.14 13.93,-8.21 19.86,-8.21 19.86,-8.21 118.54,-8.21 118.54,-8.21 124.47,-8.21 130.4,-14.14 130.4,-20.07 130.4,-20.07 130.4,-31.93 130.4,-31.93 130.4,-37.86 124.47,-43.79 118.54,-43.79"/>
<text text-anchor="middle" x="69.2" y="-29.25" font-family="Segoe UI" font-size="10.00" fill="#14532d">Delivery</text>
<text text-anchor="middle" x="69.2" y="-16.5" font-family="Segoe UI" font-size="10.00" fill="#14532d">pokalbiai</text>
</g>
<!-- call&#45;&gt;dossier -->
<g id="edge3" class="edge">
<title>call&#45;&gt;dossier</title>
<path fill="none" stroke="#94a3b8" stroke-width="1.4" d="M123.5,-44.16C138.57,-49.3 155.09,-54.93 170.57,-60.2"/>
<polygon fill="#94a3b8" stroke="#94a3b8" stroke-width="1.4" points="169.72,-62.13 176.08,-62.08 171.08,-58.16 169.72,-62.13"/>
</g>
<!-- ai -->
<g id="node5" class="node">
<title>ai</title>
<path fill="#f5f3ff" stroke="#7c3aed" stroke-width="1.4" d="M445.34,-97.79C445.34,-97.79 346.66,-97.79 346.66,-97.79 340.73,-97.79 334.8,-91.86 334.8,-85.93 334.8,-85.93 334.8,-74.07 334.8,-74.07 334.8,-68.14 340.73,-62.21 346.66,-62.21 346.66,-62.21 445.34,-62.21 445.34,-62.21 451.27,-62.21 457.2,-68.14 457.2,-74.07 457.2,-74.07 457.2,-85.93 457.2,-85.93 457.2,-91.86 451.27,-97.79 445.34,-97.79"/>
<text text-anchor="middle" x="396" y="-83.25" font-family="Segoe UI" font-size="10.00" fill="#4c1d95">AI analizė</text>
<text text-anchor="middle" x="396" y="-70.5" font-family="Segoe UI" font-size="10.00" fill="#4c1d95">(signalai · NPS)</text>
</g>
<!-- dossier&#45;&gt;ai -->
<g id="edge4" class="edge">
<title>dossier&#45;&gt;ai</title>
<path fill="none" stroke="#94a3b8" stroke-width="1.4" d="M294.16,-80.62C304.64,-80.56 315.6,-80.49 326.27,-80.43"/>
<polygon fill="#94a3b8" stroke="#94a3b8" stroke-width="1.4" points="326.26,-82.53 332.25,-80.39 326.24,-78.33 326.26,-82.53"/>
</g>
<!-- up -->
<g id="node6" class="node">
<title>up</title>
<path fill="#ecfdf5" stroke="#059669" stroke-width="1.4" d="M663.99,-105.79C663.99,-105.79 565.31,-105.79 565.31,-105.79 559.38,-105.79 553.45,-99.86 553.45,-93.93 553.45,-93.93 553.45,-82.07 553.45,-82.07 553.45,-76.14 559.38,-70.21 565.31,-70.21 565.31,-70.21 663.99,-70.21 663.99,-70.21 669.92,-70.21 675.85,-76.14 675.85,-82.07 675.85,-82.07 675.85,-93.93 675.85,-93.93 675.85,-99.86 669.92,-105.79 663.99,-105.79"/>
<text text-anchor="middle" x="614.65" y="-91.25" font-family="Segoe UI" font-size="10.00" fill="#064e3b">Upsell / Cross&#45;sell</text>
<text text-anchor="middle" x="614.65" y="-78.5" font-family="Segoe UI" font-size="10.00" fill="#064e3b">pasiūlymas</text>
</g>
<!-- ai&#45;&gt;up -->
<g id="edge5" class="edge">
<title>ai&#45;&gt;up</title>
<path fill="none" stroke="#94a3b8" stroke-width="1.4" d="M457.64,-82.24C484.87,-83.24 517.13,-84.44 545.22,-85.47"/>
<polygon fill="#94a3b8" stroke="#94a3b8" stroke-width="1.4" points="544.84,-87.56 550.91,-85.68 544.99,-83.36 544.84,-87.56"/>
<text text-anchor="middle" x="505.33" y="-86.15" font-family="Segoe UI" font-size="8.00" fill="#64748b">signalas rastas</text>
</g>
<!-- sales -->
<g id="node7" class="node">
<title>sales</title>
<path fill="#f0fdfa" stroke="#0f766e" stroke-width="1.4" d="M870.64,-133.79C870.64,-133.79 771.96,-133.79 771.96,-133.79 766.03,-133.79 760.1,-127.86 760.1,-121.93 760.1,-121.93 760.1,-110.07 760.1,-110.07 760.1,-104.14 766.03,-98.21 771.96,-98.21 771.96,-98.21 870.64,-98.21 870.64,-98.21 876.57,-98.21 882.5,-104.14 882.5,-110.07 882.5,-110.07 882.5,-121.93 882.5,-121.93 882.5,-127.86 876.57,-133.79 870.64,-133.79"/>
<text text-anchor="middle" x="821.3" y="-119.25" font-family="Segoe UI" font-size="10.00" fill="#134e4a">Sales pipeline</text>
<text text-anchor="middle" x="821.3" y="-106.5" font-family="Segoe UI" font-size="10.00" fill="#134e4a">(Monday)</text>
</g>
<!-- up&#45;&gt;sales -->
<g id="edge6" class="edge">
<title>up&#45;&gt;sales</title>
<path fill="none" stroke="#94a3b8" stroke-width="1.4" d="M676.22,-96.29C700.04,-99.55 727.51,-103.3 752.03,-106.66"/>
<polygon fill="#94a3b8" stroke="#94a3b8" stroke-width="1.4" points="751.56,-108.71 757.78,-107.45 752.12,-104.55 751.56,-108.71"/>
<text text-anchor="middle" x="717.98" y="-106.15" font-family="Segoe UI" font-size="8.00" fill="#64748b">naujas deal</text>
</g>
<!-- sales&#45;&gt;wk -->
<g id="edge7" class="edge">
<title>sales&#45;&gt;wk</title>
<path fill="none" stroke="#94a3b8" stroke-width="1.4" stroke-dasharray="5,2" d="M759.66,-127.78C719.07,-134.66 664.36,-142 615.65,-142 231.6,-142 231.6,-142 231.6,-142 201.12,-142 167.4,-142 138.7,-142"/>
<polygon fill="#94a3b8" stroke="#94a3b8" stroke-width="1.4" points="138.87,-139.9 132.87,-142 138.87,-144.1 138.87,-139.9"/>
<text text-anchor="middle" x="396" y="-153.9" font-family="Segoe UI" font-size="8.00" fill="#64748b">pakartotinis</text>
<text text-anchor="middle" x="396" y="-144.15" font-family="Segoe UI" font-size="8.00" fill="#64748b">delivery</text>
</g>
</g>
</svg>
