<?xml version="1.0" encoding="UTF-8" standalone="no"?>
<!DOCTYPE svg PUBLIC "-//W3C//DTD SVG 1.1//EN"
 "http://www.w3.org/Graphics/SVG/1.1/DTD/svg11.dtd">
<!-- Generated by graphviz version 11.0.0 (20240428.1522)
 -->
<!-- Title: e2e11 Pages: 1 -->
<svg width="1574pt" height="255pt"
 viewBox="20.16 20.16 1160.27 171.36" xmlns="http://www.w3.org/2000/svg" xmlns:xlink="http://www.w3.org/1999/xlink">
<g id="graph0" class="graph" transform="scale(1.33333 1.33333) rotate(0) translate(81.36 110.16)">
<title>e2e11</title>
<polygon fill="white" stroke="none" points="-61.2,61.2 -61.2,-90 1078.91,-90 1078.91,61.2 -61.2,61.2"/>
<!-- a -->
<g id="node1" class="node">
<title>a</title>
<path fill="#eff6ff" stroke="#3b82f6" stroke-width="1.4" d="M44.4,-28.8C44.4,-28.8 9.6,-28.8 9.6,-28.8 4.8,-28.8 0,-24 0,-19.2 0,-19.2 0,-9.6 0,-9.6 0,-4.8 4.8,0 9.6,0 9.6,0 44.4,0 44.4,0 49.2,0 54,-4.8 54,-9.6 54,-9.6 54,-19.2 54,-19.2 54,-24 49.2,-28.8 44.4,-28.8"/>
<text text-anchor="middle" x="27" y="-11.27" font-family="Segoe UI" font-size="10.00" fill="#1e3a5f">LEAD</text>
</g>
<!-- b -->
<g id="node2" class="node">
<title>b</title>
<path fill="#f0fdfa" stroke="#0f766e" stroke-width="1.4" d="M130.4,-28.8C130.4,-28.8 95.6,-28.8 95.6,-28.8 90.8,-28.8 86,-24 86,-19.2 86,-19.2 86,-9.6 86,-9.6 86,-4.8 90.8,0 95.6,0 95.6,0 130.4,0 130.4,0 135.2,0 140,-4.8 140,-9.6 140,-9.6 140,-19.2 140,-19.2 140,-24 135.2,-28.8 130.4,-28.8"/>
<text text-anchor="middle" x="113" y="-11.27" font-family="Segoe UI" font-size="10.00" fill="#134e4a">QUAL</text>
</g>
<!-- a&#45;&gt;b -->
<g id="edge1" class="edge">
<title>a&#45;&gt;b</title>
<path fill="none" stroke="#94a3b8" stroke-width="1.4" d="M54.12,-14.4C61.63,-14.4 69.94,-14.4 77.86,-14.4"/>
<polygon fill="#94a3b8" stroke="#94a3b8" stroke-width="1.4" points="77.49,-16.5 83.49,-14.4 77.49,-12.3 77.49,-16.5"/>
</g>
<!-- c -->
<g id="node3" class="node">
<title>c</title>
<path fill="#f0fdfa" stroke="#0f766e" stroke-width="1.4" d="M232.81,-28.8C232.81,-28.8 181.6,-28.8 181.6,-28.8 176.8,-28.8 172,-24 172,-19.2 172,-19.2 172,-9.6 172,-9.6 172,-4.8 176.8,0 181.6,0 181.6,0 232.81,0 232.81,0 237.61,0 242.41,-4.8 242.41,-9.6 242.41,-9.6 242.41,-19.2 242.41,-19.2 242.41,-24 237.61,-28.8 232.81,-28.8"/>
<text text-anchor="middle" x="207.21" y="-11.27" font-family="Segoe UI" font-size="10.00" fill="#134e4a">DISCOVERY</text>
</g>
<!-- b&#45;&gt;c -->
<g id="edge2" class="edge">
<title>b&#45;&gt;c</title>
<path fill="none" stroke="#94a3b8" stroke-width="1.4" d="M140.18,-14.4C147.52,-14.4 155.71,-14.4 163.74,-14.4"/>
<polygon fill="#94a3b8" stroke="#94a3b8" stroke-width="1.4" points="163.57,-16.5 169.57,-14.4 163.57,-12.3 163.57,-16.5"/>
</g>
<!-- d -->
<g id="node4" class="node">
<title>d</title>
<path fill="#f9fafb" stroke="#6b7280" stroke-width="1.4" d="M332.22,-28.8C332.22,-28.8 284.01,-28.8 284.01,-28.8 279.21,-28.8 274.41,-24 274.41,-19.2 274.41,-19.2 274.41,-9.6 274.41,-9.6 274.41,-4.8 279.21,0 284.01,0 284.01,0 332.22,0 332.22,0 337.02,0 341.82,-4.8 341.82,-9.6 341.82,-9.6 341.82,-19.2 341.82,-19.2 341.82,-24 337.02,-28.8 332.22,-28.8"/>
<text text-anchor="middle" x="308.12" y="-11.27" font-family="Segoe UI" font-size="10.00" fill="#1f2937">PROPOSAL</text>
</g>
<!-- c&#45;&gt;d -->
<g id="edge3" class="edge">
<title>c&#45;&gt;d</title>
<path fill="none" stroke="#94a3b8" stroke-width="1.4" d="M242.8,-14.4C250.4,-14.4 258.52,-14.4 266.35,-14.4"/>
<polygon fill="#94a3b8" stroke="#94a3b8" stroke-width="1.4" points="265.92,-16.5 271.92,-14.4 265.92,-12.3 265.92,-16.5"/>
</g>
<!-- e -->
<g id="node5" class="node">
<title>e</title>
<path fill="#ecfdf5" stroke="#059669" stroke-width="1.4" d="M424.13,-28.8C424.13,-28.8 383.42,-28.8 383.42,-28.8 378.62,-28.8 373.82,-24 373.82,-19.2 373.82,-19.2 373.82,-9.6 373.82,-9.6 373.82,-4.8 378.62,0 383.42,0 383.42,0 424.13,0 424.13,0 428.93,0 433.73,-4.8 433.73,-9.6 433.73,-9.6 433.73,-19.2 433.73,-19.2 433.73,-24 428.93,-28.8 424.13,-28.8"/>
<text text-anchor="middle" x="403.77" y="-11.27" font-family="Segoe UI" font-size="10.00" fill="#064e3b">CLOSING</text>
</g>
<!-- d&#45;&gt;e -->
<g id="edge4" class="edge">
<title>d&#45;&gt;e</title>
<path fill="none" stroke="#94a3b8" stroke-width="1.4" d="M342.14,-14.4C349.8,-14.4 358,-14.4 365.82,-14.4"/>
<polygon fill="#94a3b8" stroke="#94a3b8" stroke-width="1.4" points="365.36,-16.5 371.36,-14.4 365.36,-12.3 365.36,-16.5"/>
</g>
<!-- f -->
<g id="node6" class="node">
<title>f</title>
<path fill="#f0fdf4" stroke="#16a34a" stroke-width="1.4" d="M539.29,-28.8C539.29,-28.8 475.33,-28.8 475.33,-28.8 470.53,-28.8 465.73,-24 465.73,-19.2 465.73,-19.2 465.73,-9.6 465.73,-9.6 465.73,-4.8 470.53,0 475.33,0 475.33,0 539.29,0 539.29,0 544.09,0 548.89,-4.8 548.89,-9.6 548.89,-9.6 548.89,-19.2 548.89,-19.2 548.89,-24 544.09,-28.8 539.29,-28.8"/>
<text text-anchor="middle" x="507.31" y="-11.27" font-family="Segoe UI" font-size="10.00" fill="#14532d">ONBOARDING</text>
</g>
<!-- e&#45;&gt;f -->
<g id="edge5" class="edge">
<title>e&#45;&gt;f</title>
<path fill="none" stroke="#94a3b8" stroke-width="1.4" d="M434.14,-14.4C441.43,-14.4 449.45,-14.4 457.4,-14.4"/>
<polygon fill="#94a3b8" stroke="#94a3b8" stroke-width="1.4" points="457.18,-16.5 463.18,-14.4 457.18,-12.3 457.18,-16.5"/>
</g>
<!-- g -->
<g id="node7" class="node">
<title>g</title>
<path fill="#f0fdf4" stroke="#16a34a" stroke-width="1.4" d="M625.29,-28.8C625.29,-28.8 590.49,-28.8 590.49,-28.8 585.69,-28.8 580.89,-24 580.89,-19.2 580.89,-19.2 580.89,-9.6 580.89,-9.6 580.89,-4.8 585.69,0 590.49,0 590.49,0 625.29,0 625.29,0 630.09,0 634.89,-4.8 634.89,-9.6 634.89,-9.6 634.89,-19.2 634.89,-19.2 634.89,-24 630.09,-28.8 625.29,-28.8"/>
<text text-anchor="middle" x="607.89" y="-11.27" font-family="Segoe UI" font-size="10.00" fill="#14532d">PREP</text>
</g>
<!-- f&#45;&gt;g -->
<g id="edge6" class="edge">
<title>f&#45;&gt;g</title>
<path fill="none" stroke="#94a3b8" stroke-width="1.4" d="M549.26,-14.4C557.03,-14.4 565.08,-14.4 572.62,-14.4"/>
<polygon fill="#94a3b8" stroke="#94a3b8" stroke-width="1.4" points="572.44,-16.5 578.44,-14.4 572.44,-12.3 572.44,-16.5"/>
</g>
<!-- h -->
<g id="node8" class="node">
<title>h</title>
<path fill="#f0fdf4" stroke="#16a34a" stroke-width="1.4" d="M730.7,-28.8C730.7,-28.8 676.49,-28.8 676.49,-28.8 671.69,-28.8 666.89,-24 666.89,-19.2 666.89,-19.2 666.89,-9.6 666.89,-9.6 666.89,-4.8 671.69,0 676.49,0 676.49,0 730.7,0 730.7,0 735.5,0 740.3,-4.8 740.3,-9.6 740.3,-9.6 740.3,-19.2 740.3,-19.2 740.3,-24 735.5,-28.8 730.7,-28.8"/>
<text text-anchor="middle" x="703.59" y="-11.27" font-family="Segoe UI" font-size="10.00" fill="#14532d">WORKSHOP</text>
</g>
<!-- g&#45;&gt;h -->
<g id="edge7" class="edge">
<title>g&#45;&gt;h</title>
<path fill="none" stroke="#94a3b8" stroke-width="1.4" d="M634.99,-14.4C642.3,-14.4 650.46,-14.4 658.5,-14.4"/>
<polygon fill="#94a3b8" stroke="#94a3b8" stroke-width="1.4" points="658.36,-16.5 664.36,-14.4 658.36,-12.3 658.36,-16.5"/>
</g>
<!-- i -->
<g id="node9" class="node">
<title>i</title>
<path fill="#f9fafb" stroke="#6b7280" stroke-width="1.4" d="M836.11,-28.8C836.11,-28.8 781.9,-28.8 781.9,-28.8 777.1,-28.8 772.3,-24 772.3,-19.2 772.3,-19.2 772.3,-9.6 772.3,-9.6 772.3,-4.8 777.1,0 781.9,0 781.9,0 836.11,0 836.11,0 840.91,0 845.71,-4.8 845.71,-9.6 845.71,-9.6 845.71,-19.2 845.71,-19.2 845.71,-24 840.91,-28.8 836.11,-28.8"/>
<text text-anchor="middle" x="809" y="-11.27" font-family="Segoe UI" font-size="10.00" fill="#1f2937">FOLLOW&#45;UP</text>
</g>
<!-- h&#45;&gt;i -->
<g id="edge8" class="edge">
<title>h&#45;&gt;i</title>
<path fill="none" stroke="#94a3b8" stroke-width="1.4" d="M740.76,-14.4C748.36,-14.4 756.46,-14.4 764.3,-14.4"/>
<polygon fill="#94a3b8" stroke="#94a3b8" stroke-width="1.4" points="763.91,-16.5 769.91,-14.4 763.91,-12.3 763.91,-16.5"/>
</g>
<!-- j -->
<g id="node10" class="node">
<title>j</title>
<path fill="#ecfdf5" stroke="#059669" stroke-width="1.4" d="M922.11,-28.8C922.11,-28.8 887.31,-28.8 887.31,-28.8 882.51,-28.8 877.71,-24 877.71,-19.2 877.71,-19.2 877.71,-9.6 877.71,-9.6 877.71,-4.8 882.51,0 887.31,0 887.31,0 922.11,0 922.11,0 926.91,0 931.71,-4.8 931.71,-9.6 931.71,-9.6 931.71,-19.2 931.71,-19.2 931.71,-24 926.91,-28.8 922.11,-28.8"/>
<text text-anchor="middle" x="904.71" y="-11.27" font-family="Segoe UI" font-size="10.00" fill="#064e3b">ROI</text>
</g>
<!-- i&#45;&gt;j -->
<g id="edge9" class="edge">
<title>i&#45;&gt;j</title>
<path fill="none" stroke="#94a3b8" stroke-width="1.4" d="M845.97,-14.4C853.62,-14.4 861.69,-14.4 869.29,-14.4"/>
<polygon fill="#94a3b8" stroke="#94a3b8" stroke-width="1.4" points="869.18,-16.5 875.18,-14.4 869.18,-12.3 869.18,-16.5"/>
</g>
<!-- k -->
<g id="node11" class="node">
<title>k</title>
<path fill="#ecfdf5" stroke="#059669" stroke-width="1.4" d="M1008.11,-28.8C1008.11,-28.8 973.31,-28.8 973.31,-28.8 968.51,-28.8 963.71,-24 963.71,-19.2 963.71,-19.2 963.71,-9.6 963.71,-9.6 963.71,-4.8 968.51,0 973.31,0 973.31,0 1008.11,0 1008.11,0 1012.91,0 1017.71,-4.8 1017.71,-9.6 1017.71,-9.6 1017.71,-19.2 1017.71,-19.2 1017.71,-24 1012.91,-28.8 1008.11,-28.8"/>
<text text-anchor="middle" x="990.71" y="-11.27" font-family="Segoe UI" font-size="10.00" fill="#064e3b">UPSELL</text>
</g>
<!-- j&#45;&gt;k -->
<g id="edge10" class="edge">
<title>j&#45;&gt;k</title>
<path fill="none" stroke="#94a3b8" stroke-width="1.4" d="M931.83,-14.4C939.34,-14.4 947.65,-14.4 955.57,-14.4"/>
<polygon fill="#94a3b8" stroke="#94a3b8" stroke-width="1.4" points="955.2,-16.5 961.2,-14.4 955.2,-12.3 955.2,-16.5"/>
</g>
</g>
</svg>
