<?xml version="1.0" encoding="UTF-8" standalone="no"?>
<!DOCTYPE svg PUBLIC "-//W3C//DTD SVG 1.1//EN"
 "http://www.w3.org/Graphics/SVG/1.1/DTD/svg11.dtd">
<!-- Generated by graphviz version 11.0.0 (20240428.1522)
 -->
<!-- Title: extAuto Pages: 1 -->
<svg width="684pt" height="590pt"
 viewBox="20.16 20.16 493.04 422.14" xmlns="http://www.w3.org/2000/svg" xmlns:xlink="http://www.w3.org/1999/xlink">
<g id="graph0" class="graph" transform="scale(1.33333 1.33333) rotate(0) translate(81.36 360.94)">
<title>extAuto</title>
<polygon fill="white" stroke="none" points="-61.2,61.2 -61.2,-340.78 411.68,-340.78 411.68,61.2 -61.2,61.2"/>
<!-- p1 -->
<g id="node1" class="node">
<title>p1</title>
<path fill="#f5f3ff" stroke="#7c3aed" stroke-width="1.4" d="M70.92,-279.58C70.92,-279.58 18.98,-279.58 18.98,-279.58 13.05,-279.58 7.12,-273.65 7.12,-267.72 7.12,-267.72 7.12,-255.86 7.12,-255.86 7.12,-249.93 13.05,-244 18.98,-244 18.98,-244 70.92,-244 70.92,-244 76.85,-244 82.78,-249.93 82.78,-255.86 82.78,-255.86 82.78,-267.72 82.78,-267.72 82.78,-273.65 76.85,-279.58 70.92,-279.58"/>
<text text-anchor="middle" x="44.95" y="-265.04" font-family="Segoe UI" font-size="10.00" fill="#4c1d95">AI pasiūlymo</text>
<text text-anchor="middle" x="44.95" y="-252.29" font-family="Segoe UI" font-size="10.00" fill="#4c1d95">juodraštis</text>
</g>
<!-- hub -->
<g id="node6" class="node">
<title>hub</title>
<path fill="#f0fdfa" stroke="#0f766e" stroke-width="1.4" d="M211.71,-157.58C211.71,-157.58 159.77,-157.58 159.77,-157.58 153.84,-157.58 147.91,-151.65 147.91,-145.72 147.91,-145.72 147.91,-133.86 147.91,-133.86 147.91,-127.93 153.84,-122 159.77,-122 159.77,-122 211.71,-122 211.71,-122 217.64,-122 223.57,-127.93 223.57,-133.86 223.57,-133.86 223.57,-145.72 223.57,-145.72 223.57,-151.65 217.64,-157.58 211.71,-157.58"/>
<text text-anchor="middle" x="185.74" y="-143.04" font-family="Segoe UI" font-size="10.00" fill="#134e4a">n8n</text>
<text text-anchor="middle" x="185.74" y="-130.29" font-family="Segoe UI" font-size="10.00" fill="#134e4a">Orchestrator</text>
</g>
<!-- p1&#45;&gt;hub -->
<g id="edge1" class="edge">
<title>p1&#45;&gt;hub</title>
<path fill="none" stroke="#94a3b8" stroke-width="1.4" d="M72.93,-243.73C78.66,-239.63 84.58,-235.19 89.91,-230.79 115.76,-209.48 143.15,-182.68 161.81,-163.7"/>
<polygon fill="#94a3b8" stroke="#94a3b8" stroke-width="1.4" points="163.13,-165.35 165.83,-159.59 160.13,-162.41 163.13,-165.35"/>
</g>
<!-- p2 -->
<g id="node2" class="node">
<title>p2</title>
<path fill="#f9fafb" stroke="#6b7280" stroke-width="1.4" d="M70.92,-218.58C70.92,-218.58 18.98,-218.58 18.98,-218.58 13.05,-218.58 7.12,-212.65 7.12,-206.72 7.12,-206.72 7.12,-194.86 7.12,-194.86 7.12,-188.93 13.05,-183 18.98,-183 18.98,-183 70.92,-183 70.92,-183 76.85,-183 82.78,-188.93 82.78,-194.86 82.78,-194.86 82.78,-206.72 82.78,-206.72 82.78,-212.65 76.85,-218.58 70.92,-218.58"/>
<text text-anchor="middle" x="44.95" y="-204.04" font-family="Segoe UI" font-size="10.00" fill="#1f2937">E&#45;sign status</text>
<text text-anchor="middle" x="44.95" y="-191.29" font-family="Segoe UI" font-size="10.00" fill="#1f2937">į CRM</text>
</g>
<!-- p2&#45;&gt;hub -->
<g id="edge2" class="edge">
<title>p2&#45;&gt;hub</title>
<path fill="none" stroke="#94a3b8" stroke-width="1.4" d="M83.15,-184.44C100.73,-176.72 121.85,-167.43 140.27,-159.34"/>
<polygon fill="#94a3b8" stroke="#94a3b8" stroke-width="1.4" points="140.86,-161.37 145.51,-157.03 139.17,-157.53 140.86,-161.37"/>
</g>
<!-- p3 -->
<g id="node3" class="node">
<title>p3</title>
<path fill="#ecfdf5" stroke="#059669" stroke-width="1.4" d="M69.05,-157.58C69.05,-157.58 20.86,-157.58 20.86,-157.58 14.93,-157.58 9,-151.65 9,-145.72 9,-145.72 9,-133.86 9,-133.86 9,-127.93 14.93,-122 20.86,-122 20.86,-122 69.05,-122 69.05,-122 74.98,-122 80.91,-127.93 80.91,-133.86 80.91,-133.86 80.91,-145.72 80.91,-145.72 80.91,-151.65 74.98,-157.58 69.05,-157.58"/>
<text text-anchor="middle" x="44.95" y="-143.04" font-family="Segoe UI" font-size="10.00" fill="#064e3b">Post&#45;Won</text>
<text text-anchor="middle" x="44.95" y="-130.29" font-family="Segoe UI" font-size="10.00" fill="#064e3b">onboarding</text>
</g>
<!-- p3&#45;&gt;hub -->
<g id="edge3" class="edge">
<title>p3&#45;&gt;hub</title>
<path fill="none" stroke="#94a3b8" stroke-width="1.4" d="M81.34,-139.79C99.04,-139.79 120.68,-139.79 139.57,-139.79"/>
<polygon fill="#94a3b8" stroke="#94a3b8" stroke-width="1.4" points="139.36,-141.89 145.36,-139.79 139.36,-137.69 139.36,-141.89"/>
</g>
<!-- p4 -->
<g id="node4" class="node">
<title>p4</title>
<path fill="#fef2f2" stroke="#dc2626" stroke-width="1.4" d="M65.3,-96.58C65.3,-96.58 24.61,-96.58 24.61,-96.58 18.68,-96.58 12.75,-90.65 12.75,-84.72 12.75,-84.72 12.75,-72.86 12.75,-72.86 12.75,-66.93 18.68,-61 24.61,-61 24.61,-61 65.3,-61 65.3,-61 71.23,-61 77.16,-66.93 77.16,-72.86 77.16,-72.86 77.16,-84.72 77.16,-84.72 77.16,-90.65 71.23,-96.58 65.3,-96.58"/>
<text text-anchor="middle" x="44.95" y="-82.04" font-family="Segoe UI" font-size="10.00" fill="#7f1d1d">Ads CAC</text>
<text text-anchor="middle" x="44.95" y="-69.29" font-family="Segoe UI" font-size="10.00" fill="#7f1d1d">guardrails</text>
</g>
<!-- p4&#45;&gt;hub -->
<g id="edge4" class="edge">
<title>p4&#45;&gt;hub</title>
<path fill="none" stroke="#94a3b8" stroke-width="1.4" d="M77.45,-92.63C95.97,-100.77 119.68,-111.19 140.1,-120.17"/>
<polygon fill="#94a3b8" stroke="#94a3b8" stroke-width="1.4" points="139.18,-122.06 145.52,-122.55 140.87,-118.22 139.18,-122.06"/>
</g>
<!-- p5 -->
<g id="node5" class="node">
<title>p5</title>
<path fill="#f0fdf4" stroke="#16a34a" stroke-width="1.4" d="M78.05,-35.58C78.05,-35.58 11.86,-35.58 11.86,-35.58 5.93,-35.58 0,-29.65 0,-23.72 0,-23.72 0,-11.86 0,-11.86 0,-5.93 5.93,0 11.86,0 11.86,0 78.05,0 78.05,0 83.98,0 89.91,-5.93 89.91,-11.86 89.91,-11.86 89.91,-23.72 89.91,-23.72 89.91,-29.65 83.98,-35.58 78.05,-35.58"/>
<text text-anchor="middle" x="44.95" y="-21.04" font-family="Segoe UI" font-size="10.00" fill="#14532d">NPS /</text>
<text text-anchor="middle" x="44.95" y="-8.29" font-family="Segoe UI" font-size="10.00" fill="#14532d">CustomerHealth</text>
</g>
<!-- p5&#45;&gt;hub -->
<g id="edge5" class="edge">
<title>p5&#45;&gt;hub</title>
<path fill="none" stroke="#94a3b8" stroke-width="1.4" d="M72.93,-35.85C78.66,-39.95 84.58,-44.39 89.91,-48.79 115.76,-70.1 143.15,-96.9 161.81,-115.88"/>
<polygon fill="#94a3b8" stroke="#94a3b8" stroke-width="1.4" points="160.13,-117.17 165.83,-119.99 163.13,-114.23 160.13,-117.17"/>
</g>
<!-- dipa -->
<g id="node7" class="node">
<title>dipa</title>
<path fill="#f0fdf4" stroke="#16a34a" stroke-width="1.4" d="M338.62,-157.58C338.62,-157.58 293.43,-157.58 293.43,-157.58 287.5,-157.58 281.57,-151.65 281.57,-145.72 281.57,-145.72 281.57,-133.86 281.57,-133.86 281.57,-127.93 287.5,-122 293.43,-122 293.43,-122 338.62,-122 338.62,-122 344.55,-122 350.48,-127.93 350.48,-133.86 350.48,-133.86 350.48,-145.72 350.48,-145.72 350.48,-151.65 344.55,-157.58 338.62,-157.58"/>
<text text-anchor="middle" x="316.02" y="-143.04" font-family="Segoe UI" font-size="10.00" fill="#14532d">DIPA OS</text>
<text text-anchor="middle" x="316.02" y="-130.29" font-family="Segoe UI" font-size="10.00" fill="#14532d">Dashboard</text>
</g>
<!-- hub&#45;&gt;dipa -->
<g id="edge6" class="edge">
<title>hub&#45;&gt;dipa</title>
<path fill="none" stroke="#94a3b8" stroke-width="1.4" d="M223.85,-139.79C239.22,-139.79 257.13,-139.79 272.99,-139.79"/>
<polygon fill="#94a3b8" stroke="#94a3b8" stroke-width="1.4" points="272.95,-141.89 278.95,-139.79 272.95,-137.69 272.95,-141.89"/>
</g>
</g>
</svg>
