<?xml version="1.0" encoding="UTF-8" standalone="no"?>
<!DOCTYPE svg PUBLIC "-//W3C//DTD SVG 1.1//EN"
 "http://www.w3.org/Graphics/SVG/1.1/DTD/svg11.dtd">
<!-- Generated by graphviz version 11.0.0 (20240428.1522)
 -->
<!-- Title: handoff Pages: 1 -->
<svg width="546pt" height="690pt"
 viewBox="20.16 20.16 389.47 497.64" xmlns="http://www.w3.org/2000/svg" xmlns:xlink="http://www.w3.org/1999/xlink">
<g id="graph0" class="graph" transform="scale(1.33333 1.33333) rotate(0) translate(81.36 436.44)">
<title>handoff</title>
<polygon fill="white" stroke="none" points="-61.2,61.2 -61.2,-416.28 308.11,-416.28 308.11,61.2 -61.2,61.2"/>
<!-- sales -->
<g id="node1" class="node">
<title>sales</title>
<path fill="#f0fdfa" stroke="#0f766e" stroke-width="1.4" d="M179.92,-355.08C179.92,-355.08 92.73,-355.08 92.73,-355.08 86.8,-355.08 80.87,-349.15 80.87,-343.22 80.87,-343.22 80.87,-331.36 80.87,-331.36 80.87,-325.43 86.8,-319.5 92.73,-319.5 92.73,-319.5 179.92,-319.5 179.92,-319.5 185.85,-319.5 191.78,-325.43 191.78,-331.36 191.78,-331.36 191.78,-343.22 191.78,-343.22 191.78,-349.15 185.85,-355.08 179.92,-355.08"/>
<text text-anchor="middle" x="136.33" y="-340.54" font-family="Segoe UI" font-size="10.00" fill="#134e4a">Sales</text>
<text text-anchor="middle" x="136.33" y="-327.79" font-family="Segoe UI" font-size="10.00" fill="#134e4a">Discovery / Proposal</text>
</g>
<!-- gate -->
<g id="node2" class="node">
<title>gate</title>
<path fill="#fefce8" stroke="#ca8a04" stroke-width="1.4" d="M64.5,-281.33C64.5,-281.33 14.88,-257.65 14.88,-257.65 9.46,-255.06 9.46,-249.9 14.88,-247.31 14.88,-247.31 64.5,-223.63 64.5,-223.63 69.92,-221.04 80.74,-221.04 86.16,-223.63 86.16,-223.63 135.78,-247.31 135.78,-247.31 141.2,-249.9 141.2,-255.06 135.78,-257.65 135.78,-257.65 86.16,-281.33 86.16,-281.33 80.74,-283.92 69.92,-283.92 64.5,-281.33"/>
<text text-anchor="middle" x="75.33" y="-255.18" font-family="Segoe UI" font-size="9.00" fill="#713f12">Monday Won</text>
<text text-anchor="middle" x="75.33" y="-243.93" font-family="Segoe UI" font-size="9.00" fill="#713f12">+ GATE</text>
</g>
<!-- sales&#45;&gt;gate -->
<g id="edge1" class="edge">
<title>sales&#45;&gt;gate</title>
<path fill="none" stroke="#94a3b8" stroke-width="1.4" d="M123.69,-319.13C116.33,-309.14 106.83,-296.24 98.19,-284.52"/>
<polygon fill="#94a3b8" stroke="#94a3b8" stroke-width="1.4" points="100.01,-283.45 94.76,-279.86 96.63,-285.94 100.01,-283.45"/>
</g>
<!-- pack -->
<g id="node3" class="node">
<title>pack</title>
<path fill="#f9fafb" stroke="#6b7280" stroke-width="1.4" d="M108.66,-176.71C108.66,-176.71 12,-176.71 12,-176.71 6,-176.71 0,-170.71 0,-164.71 0,-164.71 0,-140.38 0,-140.38 0,-134.38 6,-128.38 12,-128.38 12,-128.38 108.66,-128.38 108.66,-128.38 114.66,-128.38 120.66,-134.38 120.66,-140.38 120.66,-140.38 120.66,-164.71 120.66,-164.71 120.66,-170.71 114.66,-176.71 108.66,-176.71"/>
<text text-anchor="middle" x="60.33" y="-162.17" font-family="Segoe UI" font-size="10.00" fill="#1f2937">Handoff paketas</text>
<text text-anchor="middle" x="60.33" y="-149.42" font-family="Segoe UI" font-size="10.00" fill="#1f2937">skausmas · pažadas ·</text>
<text text-anchor="middle" x="60.33" y="-136.67" font-family="Segoe UI" font-size="10.00" fill="#1f2937">tikslai · dalyviai · rizikos</text>
</g>
<!-- gate&#45;&gt;pack -->
<g id="edge2" class="edge">
<title>gate&#45;&gt;pack</title>
<path fill="none" stroke="#94a3b8" stroke-width="1.4" d="M70.54,-220.22C68.82,-208.96 66.87,-196.26 65.14,-184.98"/>
<polygon fill="#94a3b8" stroke="#94a3b8" stroke-width="1.4" points="67.24,-184.77 64.25,-179.16 63.09,-185.41 67.24,-184.77"/>
<text text-anchor="middle" x="76.2" y="-194.86" font-family="Segoe UI" font-size="8.00" fill="#64748b">Taip</text>
</g>
<!-- rej -->
<g id="node6" class="node">
<title>rej</title>
<path fill="#fef2f2" stroke="#dc2626" stroke-width="1.4" d="M235.05,-170.33C235.05,-170.33 157.61,-170.33 157.61,-170.33 151.68,-170.33 145.75,-164.4 145.75,-158.47 145.75,-158.47 145.75,-146.61 145.75,-146.61 145.75,-140.69 151.68,-134.75 157.61,-134.75 157.61,-134.75 235.05,-134.75 235.05,-134.75 240.98,-134.75 246.91,-140.69 246.91,-146.61 246.91,-146.61 246.91,-158.47 246.91,-158.47 246.91,-164.4 240.98,-170.33 235.05,-170.33"/>
<text text-anchor="middle" x="196.33" y="-155.79" font-family="Segoe UI" font-size="10.00" fill="#7f1d1d">Grąžinti į Sales</text>
<text text-anchor="middle" x="196.33" y="-143.04" font-family="Segoe UI" font-size="10.00" fill="#7f1d1d">+ priežastis audite</text>
</g>
<!-- gate&#45;&gt;rej -->
<g id="edge3" class="edge">
<title>gate&#45;&gt;rej</title>
<path fill="none" stroke="#94a3b8" stroke-width="1.4" d="M101.29,-230.47C121.3,-214.27 148.89,-191.94 169.2,-175.51"/>
<polygon fill="#94a3b8" stroke="#94a3b8" stroke-width="1.4" points="170.26,-177.35 173.6,-171.94 167.61,-174.09 170.26,-177.35"/>
<text text-anchor="middle" x="152.58" y="-194.86" font-family="Segoe UI" font-size="8.00" fill="#64748b">Ne</text>
</g>
<!-- onb -->
<g id="node4" class="node">
<title>onb</title>
<path fill="#f0fdf4" stroke="#16a34a" stroke-width="1.4" d="M101.68,-96.38C101.68,-96.38 18.97,-96.38 18.97,-96.38 14.17,-96.38 9.37,-91.58 9.37,-86.78 9.37,-86.78 9.37,-77.18 9.37,-77.18 9.37,-72.38 14.17,-67.58 18.97,-67.58 18.97,-67.58 101.69,-67.58 101.69,-67.58 106.49,-67.58 111.28,-72.38 111.28,-77.18 111.28,-77.18 111.28,-86.78 111.28,-86.78 111.28,-91.58 106.48,-96.38 101.68,-96.38"/>
<text text-anchor="middle" x="60.33" y="-78.85" font-family="Segoe UI" font-size="10.00" fill="#14532d">ONBOARDING SLA</text>
</g>
<!-- pack&#45;&gt;onb -->
<g id="edge5" class="edge">
<title>pack&#45;&gt;onb</title>
<path fill="none" stroke="#94a3b8" stroke-width="1.4" d="M60.33,-127.95C60.33,-120.32 60.33,-111.92 60.33,-104.46"/>
<polygon fill="#94a3b8" stroke="#94a3b8" stroke-width="1.4" points="62.43,-104.93 60.33,-98.93 58.23,-104.93 62.43,-104.93"/>
</g>
<!-- del -->
<g id="node5" class="node">
<title>del</title>
<path fill="#f0fdf4" stroke="#16a34a" stroke-width="1.4" d="M103.17,-35.58C103.17,-35.58 17.48,-35.58 17.48,-35.58 11.55,-35.58 5.62,-29.65 5.62,-23.72 5.62,-23.72 5.62,-11.86 5.62,-11.86 5.62,-5.93 11.55,0 17.48,0 17.48,0 103.18,0 103.18,0 109.11,0 115.03,-5.93 115.03,-11.86 115.03,-11.86 115.03,-23.72 115.03,-23.72 115.03,-29.65 109.1,-35.58 103.17,-35.58"/>
<text text-anchor="middle" x="60.33" y="-21.04" font-family="Segoe UI" font-size="10.00" fill="#14532d">PREP → WORKSHOP</text>
<text text-anchor="middle" x="60.33" y="-8.29" font-family="Segoe UI" font-size="10.00" fill="#14532d">→ FOLLOW&#45;UP</text>
</g>
<!-- onb&#45;&gt;del -->
<g id="edge6" class="edge">
<title>onb&#45;&gt;del</title>
<path fill="none" stroke="#94a3b8" stroke-width="1.4" d="M60.33,-67.18C60.33,-60.27 60.33,-51.7 60.33,-43.7"/>
<polygon fill="#94a3b8" stroke="#94a3b8" stroke-width="1.4" points="62.43,-43.77 60.33,-37.77 58.23,-43.77 62.43,-43.77"/>
</g>
<!-- rej&#45;&gt;sales -->
<g id="edge4" class="edge">
<title>rej&#45;&gt;sales</title>
<path fill="none" stroke="#94a3b8" stroke-width="1.4" stroke-dasharray="5,2" d="M192.51,-170.61C186.59,-196.19 174.29,-245.79 159.33,-286.5 156.21,-294.99 152.24,-304.02 148.48,-312.04"/>
<polygon fill="#94a3b8" stroke="#94a3b8" stroke-width="1.4" points="146.73,-310.84 146.04,-317.16 150.52,-312.65 146.73,-310.84"/>
<text text-anchor="middle" x="191.95" y="-249.76" font-family="Segoe UI" font-size="8.00" fill="#64748b">Taisyti</text>
</g>
</g>
</svg>
