<?xml version="1.0" encoding="UTF-8" standalone="no"?>
<!DOCTYPE svg PUBLIC "-//W3C//DTD SVG 1.1//EN"
 "http://www.w3.org/Graphics/SVG/1.1/DTD/svg11.dtd">
<!-- Generated by graphviz version 11.0.0 (20240428.1522)
 -->
<!-- Title: kpiDecomp Pages: 1 -->
<svg width="2344pt" height="532pt"
 viewBox="20.16 20.16 1737.56 378.52" xmlns="http://www.w3.org/2000/svg" xmlns:xlink="http://www.w3.org/1999/xlink">
<g id="graph0" class="graph" transform="scale(1.33333 1.33333) rotate(0) translate(81.36 317.32)">
<title>kpiDecomp</title>
<polygon fill="white" stroke="none" points="-61.2,61.2 -61.2,-297.16 1656.2,-297.16 1656.2,61.2 -61.2,61.2"/>
<g id="clust1" class="cluster">
<title>cluster_top</title>
<path fill="white" stroke="#dc2626" stroke-dasharray="5,2" d="M212,-8C212,-8 570,-8 570,-8 576,-8 582,-14 582,-20 582,-20 582,-52.33 582,-52.33 582,-58.33 576,-64.33 570,-64.33 570,-64.33 212,-64.33 212,-64.33 206,-64.33 200,-58.33 200,-52.33 200,-52.33 200,-20 200,-20 200,-14 206,-8 212,-8"/>
<text text-anchor="middle" x="391" y="-50.83" font-family="Segoe UI" font-size="10.00" fill="#7f1d1d">3 svarbiausi (vadovybei)</text>
</g>
<g id="clust2" class="cluster">
<title>cluster_mid</title>
<path fill="white" stroke="#ca8a04" stroke-dasharray="5,2" d="M20,-98.08C20,-98.08 777,-98.08 777,-98.08 783,-98.08 789,-104.08 789,-110.08 789,-110.08 789,-142.41 789,-142.41 789,-148.41 783,-154.41 777,-154.41 777,-154.41 20,-154.41 20,-154.41 14,-154.41 8,-148.41 8,-142.41 8,-142.41 8,-110.08 8,-110.08 8,-104.08 14,-98.08 20,-98.08"/>
<text text-anchor="middle" x="398.5" y="-140.91" font-family="Segoe UI" font-size="10.00" fill="#713f12">6 varikliai (vadovų)</text>
</g>
<g id="clust3" class="cluster">
<title>cluster_bot</title>
<path fill="white" stroke="#0f766e" stroke-dasharray="5,2" d="M20,-178.41C20,-178.41 1575,-178.41 1575,-178.41 1581,-178.41 1587,-184.41 1587,-190.41 1587,-190.41 1587,-215.96 1587,-215.96 1587,-221.96 1581,-227.96 1575,-227.96 1575,-227.96 20,-227.96 20,-227.96 14,-227.96 8,-221.96 8,-215.96 8,-215.96 8,-190.41 8,-190.41 8,-184.41 14,-178.41 20,-178.41"/>
<text text-anchor="middle" x="797.5" y="-214.46" font-family="Segoe UI" font-size="10.00" fill="#134e4a">12 operaciniai (komandos)</text>
</g>
<!-- t1 -->
<g id="node1" class="node">
<title>t1</title>
<path fill="#fef2f2" stroke="#dc2626" stroke-width="1.4" d="M572,-40.19C572,-40.19 476,-40.19 476,-40.19 471.2,-40.19 466.4,-35.39 466.4,-30.59 466.4,-30.59 466.4,-20.99 466.4,-20.99 466.4,-16.19 471.2,-11.39 476,-11.39 476,-11.39 572,-11.39 572,-11.39 576.8,-11.39 581.6,-16.19 581.6,-20.99 581.6,-20.99 581.6,-30.59 581.6,-30.59 581.6,-35.39 576.8,-40.19 572,-40.19"/>
<text text-anchor="middle" x="524" y="-22.66" font-family="Segoe UI" font-size="10.00" fill="#7f1d1d">ROAS</text>
</g>
<!-- t2 -->
<g id="node2" class="node">
<title>t2</title>
<path fill="#fef2f2" stroke="#dc2626" stroke-width="1.4" d="M306,-40.19C306,-40.19 210,-40.19 210,-40.19 205.2,-40.19 200.4,-35.39 200.4,-30.59 200.4,-30.59 200.4,-20.99 200.4,-20.99 200.4,-16.19 205.2,-11.39 210,-11.39 210,-11.39 306,-11.39 306,-11.39 310.8,-11.39 315.6,-16.19 315.6,-20.99 315.6,-20.99 315.6,-30.59 315.6,-30.59 315.6,-35.39 310.8,-40.19 306,-40.19"/>
<text text-anchor="middle" x="258" y="-22.66" font-family="Segoe UI" font-size="10.00" fill="#7f1d1d">Won Deals / sav.</text>
</g>
<!-- t3 -->
<g id="node3" class="node">
<title>t3</title>
<path fill="#fef2f2" stroke="#dc2626" stroke-width="1.4" d="M436.74,-43.58C436.74,-43.58 345.26,-43.58 345.26,-43.58 339.33,-43.58 333.4,-37.65 333.4,-31.72 333.4,-31.72 333.4,-19.86 333.4,-19.86 333.4,-13.93 339.33,-8 345.26,-8 345.26,-8 436.74,-8 436.74,-8 442.67,-8 448.6,-13.93 448.6,-19.86 448.6,-19.86 448.6,-31.72 448.6,-31.72 448.6,-37.65 442.67,-43.58 436.74,-43.58"/>
<text text-anchor="middle" x="391" y="-29.04" font-family="Segoe UI" font-size="10.00" fill="#7f1d1d">Bottleneck</text>
<text text-anchor="middle" x="391" y="-16.29" font-family="Segoe UI" font-size="10.00" fill="#7f1d1d">Index</text>
</g>
<!-- m1 -->
<g id="node4" class="node">
<title>m1</title>
<path fill="#fefce8" stroke="#ca8a04" stroke-width="1.4" d="M779,-130.27C779,-130.27 683,-130.27 683,-130.27 678.2,-130.27 673.4,-125.47 673.4,-120.67 673.4,-120.67 673.4,-111.07 673.4,-111.07 673.4,-106.27 678.2,-101.47 683,-101.47 683,-101.47 779,-101.47 779,-101.47 783.8,-101.47 788.6,-106.27 788.6,-111.07 788.6,-111.07 788.6,-120.67 788.6,-120.67 788.6,-125.47 783.8,-130.27 779,-130.27"/>
<text text-anchor="middle" x="731" y="-112.75" font-family="Segoe UI" font-size="10.00" fill="#713f12">CAC</text>
</g>
<!-- m1&#45;&gt;t1 -->
<g id="edge1" class="edge">
<title>m1&#45;&gt;t1</title>
<path fill="none" stroke="#94a3b8" stroke-width="1.4" d="M698.66,-101.11C662.15,-85.58 602.76,-60.3 563.54,-43.61"/>
<polygon fill="#94a3b8" stroke="#94a3b8" stroke-width="1.4" points="564.75,-41.85 558.41,-41.43 563.11,-45.71 564.75,-41.85"/>
<text text-anchor="middle" x="653.88" y="-74.48" font-family="Segoe UI" font-size="8.00" fill="#64748b">↑</text>
</g>
<!-- m2 -->
<g id="node5" class="node">
<title>m2</title>
<path fill="#fefce8" stroke="#ca8a04" stroke-width="1.4" d="M247,-130.27C247,-130.27 151,-130.27 151,-130.27 146.2,-130.27 141.4,-125.47 141.4,-120.67 141.4,-120.67 141.4,-111.07 141.4,-111.07 141.4,-106.27 146.2,-101.47 151,-101.47 151,-101.47 247,-101.47 247,-101.47 251.8,-101.47 256.6,-106.27 256.6,-111.07 256.6,-111.07 256.6,-120.67 256.6,-120.67 256.6,-125.47 251.8,-130.27 247,-130.27"/>
<text text-anchor="middle" x="199" y="-112.75" font-family="Segoe UI" font-size="10.00" fill="#713f12">LVR</text>
</g>
<!-- m2&#45;&gt;t2 -->
<g id="edge2" class="edge">
<title>m2&#45;&gt;t2</title>
<path fill="none" stroke="#94a3b8" stroke-width="1.4" d="M208.22,-101.11C217.92,-86.63 233.28,-63.69 244.38,-47.12"/>
<polygon fill="#94a3b8" stroke="#94a3b8" stroke-width="1.4" points="246.07,-48.37 247.67,-42.22 242.58,-46.03 246.07,-48.37"/>
</g>
<!-- m3 -->
<g id="node6" class="node">
<title>m3</title>
<path fill="#fefce8" stroke="#ca8a04" stroke-width="1.4" d="M114,-130.27C114,-130.27 18,-130.27 18,-130.27 13.2,-130.27 8.4,-125.47 8.4,-120.67 8.4,-120.67 8.4,-111.07 8.4,-111.07 8.4,-106.27 13.2,-101.47 18,-101.47 18,-101.47 114,-101.47 114,-101.47 118.8,-101.47 123.6,-106.27 123.6,-111.07 123.6,-111.07 123.6,-120.67 123.6,-120.67 123.6,-125.47 118.8,-130.27 114,-130.27"/>
<text text-anchor="middle" x="66" y="-112.75" font-family="Segoe UI" font-size="10.00" fill="#713f12">TTR</text>
</g>
<!-- m3&#45;&gt;t2 -->
<g id="edge3" class="edge">
<title>m3&#45;&gt;t2</title>
<path fill="none" stroke="#94a3b8" stroke-width="1.4" d="M96,-101.11C129.72,-85.64 184.49,-60.51 220.87,-43.82"/>
<polygon fill="#94a3b8" stroke="#94a3b8" stroke-width="1.4" points="221.39,-45.9 225.97,-41.48 219.64,-42.08 221.39,-45.9"/>
</g>
<!-- m4 -->
<g id="node7" class="node">
<title>m4</title>
<path fill="#fefce8" stroke="#ca8a04" stroke-width="1.4" d="M377.74,-133.66C377.74,-133.66 286.26,-133.66 286.26,-133.66 280.33,-133.66 274.4,-127.73 274.4,-121.8 274.4,-121.8 274.4,-109.94 274.4,-109.94 274.4,-104.01 280.33,-98.08 286.26,-98.08 286.26,-98.08 377.74,-98.08 377.74,-98.08 383.67,-98.08 389.6,-104.01 389.6,-109.94 389.6,-109.94 389.6,-121.8 389.6,-121.8 389.6,-127.73 383.67,-133.66 377.74,-133.66"/>
<text text-anchor="middle" x="332" y="-119.12" font-family="Segoe UI" font-size="10.00" fill="#713f12">Pipeline</text>
<text text-anchor="middle" x="332" y="-106.37" font-family="Segoe UI" font-size="10.00" fill="#713f12">Conversion</text>
</g>
<!-- m4&#45;&gt;t3 -->
<g id="edge4" class="edge">
<title>m4&#45;&gt;t3</title>
<path fill="none" stroke="#94a3b8" stroke-width="1.4" d="M343.38,-97.89C352.38,-84.45 365.06,-65.52 375.07,-50.57"/>
<polygon fill="#94a3b8" stroke="#94a3b8" stroke-width="1.4" points="376.68,-51.94 378.28,-45.78 373.19,-49.6 376.68,-51.94"/>
</g>
<!-- m5 -->
<g id="node8" class="node">
<title>m5</title>
<path fill="#fefce8" stroke="#ca8a04" stroke-width="1.4" d="M643.74,-133.66C643.74,-133.66 552.26,-133.66 552.26,-133.66 546.33,-133.66 540.4,-127.73 540.4,-121.8 540.4,-121.8 540.4,-109.94 540.4,-109.94 540.4,-104.01 546.33,-98.08 552.26,-98.08 552.26,-98.08 643.74,-98.08 643.74,-98.08 649.67,-98.08 655.6,-104.01 655.6,-109.94 655.6,-109.94 655.6,-121.8 655.6,-121.8 655.6,-127.73 649.67,-133.66 643.74,-133.66"/>
<text text-anchor="middle" x="598" y="-119.12" font-family="Segoe UI" font-size="10.00" fill="#713f12">AI vs Human</text>
<text text-anchor="middle" x="598" y="-106.37" font-family="Segoe UI" font-size="10.00" fill="#713f12">Qualification</text>
</g>
<!-- m5&#45;&gt;t3 -->
<g id="edge5" class="edge">
<title>m5&#45;&gt;t3</title>
<path fill="none" stroke="#94a3b8" stroke-width="1.4" d="M542.89,-97.58C516.47,-88.68 484.65,-77.03 457,-64.33 446.59,-59.55 435.64,-53.69 425.72,-48.03"/>
<polygon fill="#94a3b8" stroke="#94a3b8" stroke-width="1.4" points="426.78,-46.21 420.53,-45.03 424.67,-49.85 426.78,-46.21"/>
</g>
<!-- m6 -->
<g id="node9" class="node">
<title>m6</title>
<path fill="#fefce8" stroke="#ca8a04" stroke-width="1.4" d="M510.74,-133.66C510.74,-133.66 419.26,-133.66 419.26,-133.66 413.33,-133.66 407.4,-127.73 407.4,-121.8 407.4,-121.8 407.4,-109.94 407.4,-109.94 407.4,-104.01 413.33,-98.08 419.26,-98.08 419.26,-98.08 510.74,-98.08 510.74,-98.08 516.67,-98.08 522.6,-104.01 522.6,-109.94 522.6,-109.94 522.6,-121.8 522.6,-121.8 522.6,-127.73 516.67,-133.66 510.74,-133.66"/>
<text text-anchor="middle" x="465" y="-119.12" font-family="Segoe UI" font-size="10.00" fill="#713f12">Core Sales</text>
<text text-anchor="middle" x="465" y="-106.37" font-family="Segoe UI" font-size="10.00" fill="#713f12">Efficiency</text>
</g>
<!-- m6&#45;&gt;t3 -->
<g id="edge6" class="edge">
<title>m6&#45;&gt;t3</title>
<path fill="none" stroke="#94a3b8" stroke-width="1.4" d="M450.73,-97.89C439.34,-84.33 423.25,-65.18 410.64,-50.17"/>
<polygon fill="#94a3b8" stroke="#94a3b8" stroke-width="1.4" points="412.31,-48.89 406.84,-45.64 409.09,-51.59 412.31,-48.89"/>
</g>
<!-- b1 -->
<g id="node10" class="node">
<title>b1</title>
<path fill="#f0fdfa" stroke="#0f766e" stroke-width="1.4" d="M114,-207.21C114,-207.21 18,-207.21 18,-207.21 13.2,-207.21 8.4,-202.41 8.4,-197.61 8.4,-197.61 8.4,-188.01 8.4,-188.01 8.4,-183.21 13.2,-178.41 18,-178.41 18,-178.41 114,-178.41 114,-178.41 118.8,-178.41 123.6,-183.21 123.6,-188.01 123.6,-188.01 123.6,-197.61 123.6,-197.61 123.6,-202.41 118.8,-207.21 114,-207.21"/>
<text text-anchor="middle" x="66" y="-189.69" font-family="Segoe UI" font-size="10.00" fill="#134e4a">Lead Speed</text>
</g>
<!-- b1&#45;&gt;m2 -->
<g id="edge11" class="edge">
<title>b1&#45;&gt;m2</title>
<path fill="none" stroke="#94a3b8" stroke-width="1.4" d="M90.84,-178C103.48,-170.97 119.07,-162.26 133,-154.41 144.4,-147.99 156.88,-140.9 167.89,-134.63"/>
<polygon fill="#94a3b8" stroke="#94a3b8" stroke-width="1.4" points="168.87,-136.49 173.05,-131.69 166.79,-132.84 168.87,-136.49"/>
</g>
<!-- b2 -->
<g id="node11" class="node">
<title>b2</title>
<path fill="#f0fdfa" stroke="#0f766e" stroke-width="1.4" d="M380,-207.21C380,-207.21 284,-207.21 284,-207.21 279.2,-207.21 274.4,-202.41 274.4,-197.61 274.4,-197.61 274.4,-188.01 274.4,-188.01 274.4,-183.21 279.2,-178.41 284,-178.41 284,-178.41 380,-178.41 380,-178.41 384.8,-178.41 389.6,-183.21 389.6,-188.01 389.6,-188.01 389.6,-197.61 389.6,-197.61 389.6,-202.41 384.8,-207.21 380,-207.21"/>
<text text-anchor="middle" x="332" y="-189.69" font-family="Segoe UI" font-size="10.00" fill="#134e4a">QA Score</text>
</g>
<!-- b2&#45;&gt;m4 -->
<g id="edge7" class="edge">
<title>b2&#45;&gt;m4</title>
<path fill="none" stroke="#94a3b8" stroke-width="1.4" d="M332,-178.06C332,-167.97 332,-153.98 332,-141.92"/>
<polygon fill="#94a3b8" stroke="#94a3b8" stroke-width="1.4" points="334.1,-142.07 332,-136.07 329.9,-142.07 334.1,-142.07"/>
</g>
<!-- b3 -->
<g id="node12" class="node">
<title>b3</title>
<path fill="#f0fdfa" stroke="#0f766e" stroke-width="1.4" d="M513,-207.21C513,-207.21 417,-207.21 417,-207.21 412.2,-207.21 407.4,-202.41 407.4,-197.61 407.4,-197.61 407.4,-188.01 407.4,-188.01 407.4,-183.21 412.2,-178.41 417,-178.41 417,-178.41 513,-178.41 513,-178.41 517.8,-178.41 522.6,-183.21 522.6,-188.01 522.6,-188.01 522.6,-197.61 522.6,-197.61 522.6,-202.41 517.8,-207.21 513,-207.21"/>
<text text-anchor="middle" x="465" y="-189.69" font-family="Segoe UI" font-size="10.00" fill="#134e4a">Talk/Listen</text>
</g>
<!-- b3&#45;&gt;m6 -->
<g id="edge8" class="edge">
<title>b3&#45;&gt;m6</title>
<path fill="none" stroke="#94a3b8" stroke-width="1.4" d="M465,-178.06C465,-167.97 465,-153.98 465,-141.92"/>
<polygon fill="#94a3b8" stroke="#94a3b8" stroke-width="1.4" points="467.1,-142.07 465,-136.07 462.9,-142.07 467.1,-142.07"/>
</g>
<!-- b4 -->
<g id="node13" class="node">
<title>b4</title>
<path fill="#f0fdfa" stroke="#0f766e" stroke-width="1.4" d="M247,-207.21C247,-207.21 151,-207.21 151,-207.21 146.2,-207.21 141.4,-202.41 141.4,-197.61 141.4,-197.61 141.4,-188.01 141.4,-188.01 141.4,-183.21 146.2,-178.41 151,-178.41 151,-178.41 247,-178.41 247,-178.41 251.8,-178.41 256.6,-183.21 256.6,-188.01 256.6,-188.01 256.6,-197.61 256.6,-197.61 256.6,-202.41 251.8,-207.21 247,-207.21"/>
<text text-anchor="middle" x="199" y="-189.69" font-family="Segoe UI" font-size="10.00" fill="#134e4a">Obj. Win%</text>
</g>
<!-- b4&#45;&gt;m4 -->
<g id="edge9" class="edge">
<title>b4&#45;&gt;m4</title>
<path fill="none" stroke="#94a3b8" stroke-width="1.4" d="M223.84,-178C236.48,-170.97 252.07,-162.26 266,-154.41 275.33,-149.15 285.4,-143.45 294.78,-138.11"/>
<polygon fill="#94a3b8" stroke="#94a3b8" stroke-width="1.4" points="295.78,-139.95 299.96,-135.16 293.71,-136.3 295.78,-139.95"/>
</g>
<!-- b5 -->
<g id="node14" class="node">
<title>b5</title>
<path fill="#f0fdfa" stroke="#0f766e" stroke-width="1.4" d="M646,-207.21C646,-207.21 550,-207.21 550,-207.21 545.2,-207.21 540.4,-202.41 540.4,-197.61 540.4,-197.61 540.4,-188.01 540.4,-188.01 540.4,-183.21 545.2,-178.41 550,-178.41 550,-178.41 646,-178.41 646,-178.41 650.8,-178.41 655.6,-183.21 655.6,-188.01 655.6,-188.01 655.6,-197.61 655.6,-197.61 655.6,-202.41 650.8,-207.21 646,-207.21"/>
<text text-anchor="middle" x="598" y="-189.69" font-family="Segoe UI" font-size="10.00" fill="#134e4a">NPS</text>
</g>
<!-- b5&#45;&gt;m5 -->
<g id="edge10" class="edge">
<title>b5&#45;&gt;m5</title>
<path fill="none" stroke="#94a3b8" stroke-width="1.4" d="M598,-178.06C598,-167.97 598,-153.98 598,-141.92"/>
<polygon fill="#94a3b8" stroke="#94a3b8" stroke-width="1.4" points="600.1,-142.07 598,-136.07 595.9,-142.07 600.1,-142.07"/>
</g>
<!-- b6 -->
<g id="node15" class="node">
<title>b6</title>
<path fill="#f0fdfa" stroke="#0f766e" stroke-width="1.4" d="M779,-207.21C779,-207.21 683,-207.21 683,-207.21 678.2,-207.21 673.4,-202.41 673.4,-197.61 673.4,-197.61 673.4,-188.01 673.4,-188.01 673.4,-183.21 678.2,-178.41 683,-178.41 683,-178.41 779,-178.41 779,-178.41 783.8,-178.41 788.6,-183.21 788.6,-188.01 788.6,-188.01 788.6,-197.61 788.6,-197.61 788.6,-202.41 783.8,-207.21 779,-207.21"/>
<text text-anchor="middle" x="731" y="-189.69" font-family="Segoe UI" font-size="10.00" fill="#134e4a">Churn</text>
</g>
<!-- b7 -->
<g id="node16" class="node">
<title>b7</title>
<path fill="#f0fdfa" stroke="#0f766e" stroke-width="1.4" d="M912,-207.21C912,-207.21 816,-207.21 816,-207.21 811.2,-207.21 806.4,-202.41 806.4,-197.61 806.4,-197.61 806.4,-188.01 806.4,-188.01 806.4,-183.21 811.2,-178.41 816,-178.41 816,-178.41 912,-178.41 912,-178.41 916.8,-178.41 921.6,-183.21 921.6,-188.01 921.6,-188.01 921.6,-197.61 921.6,-197.61 921.6,-202.41 916.8,-207.21 912,-207.21"/>
<text text-anchor="middle" x="864" y="-189.69" font-family="Segoe UI" font-size="10.00" fill="#134e4a">Upsell €</text>
</g>
<!-- b8 -->
<g id="node17" class="node">
<title>b8</title>
<path fill="#f0fdfa" stroke="#0f766e" stroke-width="1.4" d="M1045,-207.21C1045,-207.21 949,-207.21 949,-207.21 944.2,-207.21 939.4,-202.41 939.4,-197.61 939.4,-197.61 939.4,-188.01 939.4,-188.01 939.4,-183.21 944.2,-178.41 949,-178.41 949,-178.41 1045,-178.41 1045,-178.41 1049.8,-178.41 1054.6,-183.21 1054.6,-188.01 1054.6,-188.01 1054.6,-197.61 1054.6,-197.61 1054.6,-202.41 1049.8,-207.21 1045,-207.21"/>
<text text-anchor="middle" x="997" y="-189.69" font-family="Segoe UI" font-size="10.00" fill="#134e4a">Sentiment</text>
</g>
<!-- b9 -->
<g id="node18" class="node">
<title>b9</title>
<path fill="#f0fdfa" stroke="#0f766e" stroke-width="1.4" d="M1178,-207.21C1178,-207.21 1082,-207.21 1082,-207.21 1077.2,-207.21 1072.4,-202.41 1072.4,-197.61 1072.4,-197.61 1072.4,-188.01 1072.4,-188.01 1072.4,-183.21 1077.2,-178.41 1082,-178.41 1082,-178.41 1178,-178.41 1178,-178.41 1182.8,-178.41 1187.6,-183.21 1187.6,-188.01 1187.6,-188.01 1187.6,-197.61 1187.6,-197.61 1187.6,-202.41 1182.8,-207.21 1178,-207.21"/>
<text text-anchor="middle" x="1130" y="-189.69" font-family="Segoe UI" font-size="10.00" fill="#134e4a">Followup%</text>
</g>
<!-- b10 -->
<g id="node19" class="node">
<title>b10</title>
<path fill="#f0fdfa" stroke="#0f766e" stroke-width="1.4" d="M1311,-207.21C1311,-207.21 1215,-207.21 1215,-207.21 1210.2,-207.21 1205.4,-202.41 1205.4,-197.61 1205.4,-197.61 1205.4,-188.01 1205.4,-188.01 1205.4,-183.21 1210.2,-178.41 1215,-178.41 1215,-178.41 1311,-178.41 1311,-178.41 1315.8,-178.41 1320.6,-183.21 1320.6,-188.01 1320.6,-188.01 1320.6,-197.61 1320.6,-197.61 1320.6,-202.41 1315.8,-207.21 1311,-207.21"/>
<text text-anchor="middle" x="1263" y="-189.69" font-family="Segoe UI" font-size="10.00" fill="#134e4a">RAG Hits</text>
</g>
<!-- b11 -->
<g id="node20" class="node">
<title>b11</title>
<path fill="#f0fdfa" stroke="#0f766e" stroke-width="1.4" d="M1444,-207.21C1444,-207.21 1348,-207.21 1348,-207.21 1343.2,-207.21 1338.4,-202.41 1338.4,-197.61 1338.4,-197.61 1338.4,-188.01 1338.4,-188.01 1338.4,-183.21 1343.2,-178.41 1348,-178.41 1348,-178.41 1444,-178.41 1444,-178.41 1448.8,-178.41 1453.6,-183.21 1453.6,-188.01 1453.6,-188.01 1453.6,-197.61 1453.6,-197.61 1453.6,-202.41 1448.8,-207.21 1444,-207.21"/>
<text text-anchor="middle" x="1396" y="-189.69" font-family="Segoe UI" font-size="10.00" fill="#134e4a">Ad CTR</text>
</g>
<!-- b11&#45;&gt;m1 -->
<g id="edge12" class="edge">
<title>b11&#45;&gt;m1</title>
<path fill="none" stroke="#94a3b8" stroke-width="1.4" d="M1338.11,-179.72C1335.37,-179.26 1332.66,-178.82 1330,-178.41 1137.43,-149.04 907.84,-129.82 797.15,-121.54"/>
<polygon fill="#94a3b8" stroke="#94a3b8" stroke-width="1.4" points="797.32,-119.44 791.18,-121.09 797,-123.63 797.32,-119.44"/>
</g>
<!-- b12 -->
<g id="node21" class="node">
<title>b12</title>
<path fill="#f0fdfa" stroke="#0f766e" stroke-width="1.4" d="M1577,-207.21C1577,-207.21 1481,-207.21 1481,-207.21 1476.2,-207.21 1471.4,-202.41 1471.4,-197.61 1471.4,-197.61 1471.4,-188.01 1471.4,-188.01 1471.4,-183.21 1476.2,-178.41 1481,-178.41 1481,-178.41 1577,-178.41 1577,-178.41 1581.8,-178.41 1586.6,-183.21 1586.6,-188.01 1586.6,-188.01 1586.6,-197.61 1586.6,-197.61 1586.6,-202.41 1581.8,-207.21 1577,-207.21"/>
<text text-anchor="middle" x="1529" y="-189.69" font-family="Segoe UI" font-size="10.00" fill="#134e4a">GATE Pass%</text>
</g>
</g>
</svg>
