<?xml version="1.0" encoding="UTF-8" standalone="no"?>
<!DOCTYPE svg PUBLIC "-//W3C//DTD SVG 1.1//EN"
 "http://www.w3.org/Graphics/SVG/1.1/DTD/svg11.dtd">
<!-- Generated by graphviz version 11.0.0 (20240428.1522)
 -->
<!-- Title: lifecycle Pages: 1 -->
<svg width="2129pt" height="444pt"
 viewBox="20.16 20.16 1576.47 312.69" xmlns="http://www.w3.org/2000/svg" xmlns:xlink="http://www.w3.org/1999/xlink">
<g id="graph0" class="graph" transform="scale(1.33333 1.33333) rotate(0) translate(81.36 251.49)">
<title>lifecycle</title>
<polygon fill="white" stroke="none" points="-61.2,61.2 -61.2,-231.33 1495.11,-231.33 1495.11,61.2 -61.2,61.2"/>
<!-- ad -->
<g id="node1" class="node">
<title>ad</title>
<path fill="#eff6ff" stroke="#3b82f6" stroke-width="1.4" d="M47.31,-99.74C47.31,-99.74 9.6,-99.74 9.6,-99.74 4.8,-99.74 0,-94.94 0,-90.14 0,-90.14 0,-80.54 0,-80.54 0,-75.74 4.8,-70.94 9.6,-70.94 9.6,-70.94 47.31,-70.94 47.31,-70.94 52.11,-70.94 56.91,-75.74 56.91,-80.54 56.91,-80.54 56.91,-90.14 56.91,-90.14 56.91,-94.94 52.11,-99.74 47.31,-99.74"/>
<text text-anchor="middle" x="28.45" y="-82.21" font-family="Segoe UI" font-size="10.00" fill="#1e3a5f">Reklama</text>
</g>
<!-- land -->
<g id="node2" class="node">
<title>land</title>
<path fill="#eff6ff" stroke="#3b82f6" stroke-width="1.4" d="M170.72,-99.74C170.72,-99.74 110.51,-99.74 110.51,-99.74 105.71,-99.74 100.91,-94.94 100.91,-90.14 100.91,-90.14 100.91,-80.54 100.91,-80.54 100.91,-75.74 105.71,-70.94 110.51,-70.94 110.51,-70.94 170.72,-70.94 170.72,-70.94 175.52,-70.94 180.32,-75.74 180.32,-80.54 180.32,-80.54 180.32,-90.14 180.32,-90.14 180.32,-94.94 175.52,-99.74 170.72,-99.74"/>
<text text-anchor="middle" x="140.61" y="-82.21" font-family="Segoe UI" font-size="10.00" fill="#1e3a5f">Landing Page</text>
</g>
<!-- ad&#45;&gt;land -->
<g id="edge1" class="edge">
<title>ad&#45;&gt;land</title>
<path fill="none" stroke="#94a3b8" stroke-width="1.4" d="M57.25,-85.34C68.02,-85.34 80.66,-85.34 92.75,-85.34"/>
<polygon fill="#94a3b8" stroke="#94a3b8" stroke-width="1.4" points="92.47,-87.44 98.47,-85.34 92.47,-83.24 92.47,-87.44"/>
</g>
<!-- ing -->
<g id="node3" class="node">
<title>ing</title>
<path fill="#f0fdfa" stroke="#0f766e" stroke-width="1.4" d="M293.38,-99.74C293.38,-99.74 233.92,-99.74 233.92,-99.74 229.12,-99.74 224.32,-94.94 224.32,-90.14 224.32,-90.14 224.32,-80.54 224.32,-80.54 224.32,-75.74 229.12,-70.94 233.92,-70.94 233.92,-70.94 293.38,-70.94 293.38,-70.94 298.18,-70.94 302.98,-75.74 302.98,-80.54 302.98,-80.54 302.98,-90.14 302.98,-90.14 302.98,-94.94 298.18,-99.74 293.38,-99.74"/>
<text text-anchor="middle" x="263.65" y="-82.21" font-family="Segoe UI" font-size="10.00" fill="#134e4a">n8n Ingestion</text>
</g>
<!-- land&#45;&gt;ing -->
<g id="edge2" class="edge">
<title>land&#45;&gt;ing</title>
<path fill="none" stroke="#94a3b8" stroke-width="1.4" d="M180.58,-85.34C191.92,-85.34 204.42,-85.34 216.18,-85.34"/>
<polygon fill="#94a3b8" stroke="#94a3b8" stroke-width="1.4" points="216.06,-87.44 222.06,-85.34 216.06,-83.24 216.06,-87.44"/>
</g>
<!-- scr -->
<g id="node4" class="node">
<title>scr</title>
<path fill="#f5f3ff" stroke="#7c3aed" stroke-width="1.4" d="M410.03,-103.13C410.03,-103.13 358.84,-103.13 358.84,-103.13 352.91,-103.13 346.98,-97.2 346.98,-91.27 346.98,-91.27 346.98,-79.41 346.98,-79.41 346.98,-73.48 352.91,-67.55 358.84,-67.55 358.84,-67.55 410.03,-67.55 410.03,-67.55 415.96,-67.55 421.89,-73.48 421.89,-79.41 421.89,-79.41 421.89,-91.27 421.89,-91.27 421.89,-97.2 415.96,-103.13 410.03,-103.13"/>
<text text-anchor="middle" x="384.43" y="-88.59" font-family="Segoe UI" font-size="10.00" fill="#4c1d95">RAG Scoring</text>
<text text-anchor="middle" x="384.43" y="-75.84" font-family="Segoe UI" font-size="10.00" fill="#4c1d95">A/B/C/D</text>
</g>
<!-- ing&#45;&gt;scr -->
<g id="edge3" class="edge">
<title>ing&#45;&gt;scr</title>
<path fill="none" stroke="#94a3b8" stroke-width="1.4" d="M303.22,-85.34C314.55,-85.34 327.05,-85.34 338.74,-85.34"/>
<polygon fill="#94a3b8" stroke="#94a3b8" stroke-width="1.4" points="338.56,-87.44 344.56,-85.34 338.56,-83.24 338.56,-87.44"/>
</g>
<!-- bank -->
<g id="node5" class="node">
<title>bank</title>
<path fill="#ecfdf5" stroke="#059669" stroke-width="1.4" d="M667.45,-137.74C667.45,-137.74 622.24,-137.74 622.24,-137.74 617.44,-137.74 612.64,-132.94 612.64,-128.14 612.64,-128.14 612.64,-118.54 612.64,-118.54 612.64,-113.74 617.44,-108.94 622.24,-108.94 622.24,-108.94 667.45,-108.94 667.45,-108.94 672.25,-108.94 677.05,-113.74 677.05,-118.54 677.05,-118.54 677.05,-128.14 677.05,-128.14 677.05,-132.94 672.25,-137.74 667.45,-137.74"/>
<text text-anchor="middle" x="644.84" y="-120.21" font-family="Segoe UI" font-size="10.00" fill="#064e3b">Lead Bank</text>
</g>
<!-- scr&#45;&gt;bank -->
<g id="edge4" class="edge">
<title>scr&#45;&gt;bank</title>
<path fill="none" stroke="#94a3b8" stroke-width="1.4" d="M422.13,-98.1C437.38,-103.06 455.35,-108.47 471.89,-112.34 505.19,-120.12 513.8,-121.66 547.89,-124.34 566.83,-125.82 571.64,-124.52 590.64,-124.34 595.14,-124.3 599.85,-124.23 604.53,-124.16"/>
<polygon fill="#94a3b8" stroke="#94a3b8" stroke-width="1.4" points="604.25,-126.27 610.22,-124.06 604.18,-122.07 604.25,-126.27"/>
<text text-anchor="middle" x="498.89" y="-123.49" font-family="Segoe UI" font-size="8.00" fill="#64748b">A/B</text>
</g>
<!-- newo -->
<g id="node6" class="node">
<title>newo</title>
<path fill="#f5f3ff" stroke="#7c3aed" stroke-width="1.4" d="M516.29,-99.74C516.29,-99.74 481.49,-99.74 481.49,-99.74 476.69,-99.74 471.89,-94.94 471.89,-90.14 471.89,-90.14 471.89,-80.54 471.89,-80.54 471.89,-75.74 476.69,-70.94 481.49,-70.94 481.49,-70.94 516.29,-70.94 516.29,-70.94 521.09,-70.94 525.89,-75.74 525.89,-80.54 525.89,-80.54 525.89,-90.14 525.89,-90.14 525.89,-94.94 521.09,-99.74 516.29,-99.74"/>
<text text-anchor="middle" x="498.89" y="-82.21" font-family="Segoe UI" font-size="10.00" fill="#4c1d95">Newo</text>
</g>
<!-- scr&#45;&gt;newo -->
<g id="edge5" class="edge">
<title>scr&#45;&gt;newo</title>
<path fill="none" stroke="#94a3b8" stroke-width="1.4" d="M422.26,-85.34C435.62,-85.34 450.66,-85.34 463.78,-85.34"/>
<polygon fill="#94a3b8" stroke="#94a3b8" stroke-width="1.4" points="463.56,-87.44 469.56,-85.34 463.56,-83.24 463.56,-87.44"/>
<text text-anchor="middle" x="446.89" y="-87.49" font-family="Segoe UI" font-size="8.00" fill="#64748b">C</text>
</g>
<!-- nurt -->
<g id="node7" class="node">
<title>nurt</title>
<path fill="#f9fafb" stroke="#6b7280" stroke-width="1.4" d="M516.29,-45.74C516.29,-45.74 481.49,-45.74 481.49,-45.74 476.69,-45.74 471.89,-40.94 471.89,-36.14 471.89,-36.14 471.89,-26.54 471.89,-26.54 471.89,-21.74 476.69,-16.94 481.49,-16.94 481.49,-16.94 516.29,-16.94 516.29,-16.94 521.09,-16.94 525.89,-21.74 525.89,-26.54 525.89,-26.54 525.89,-36.14 525.89,-36.14 525.89,-40.94 521.09,-45.74 516.29,-45.74"/>
<text text-anchor="middle" x="498.89" y="-28.21" font-family="Segoe UI" font-size="10.00" fill="#1f2937">Nurture</text>
</g>
<!-- scr&#45;&gt;nurt -->
<g id="edge6" class="edge">
<title>scr&#45;&gt;nurt</title>
<path fill="none" stroke="#94a3b8" stroke-width="1.4" d="M422.26,-67.66C435.88,-61.12 451.23,-53.75 464.52,-47.36"/>
<polygon fill="#94a3b8" stroke="#94a3b8" stroke-width="1.4" points="465.27,-49.33 469.76,-44.84 463.45,-45.55 465.27,-49.33"/>
<text text-anchor="middle" x="446.89" y="-58.49" font-family="Segoe UI" font-size="8.00" fill="#64748b">D</text>
</g>
<!-- qual -->
<g id="node8" class="node">
<title>qual</title>
<path fill="#f0fdfa" stroke="#0f766e" stroke-width="1.4" d="M779.85,-141.13C779.85,-141.13 733.91,-141.13 733.91,-141.13 727.98,-141.13 722.05,-135.2 722.05,-129.27 722.05,-129.27 722.05,-117.41 722.05,-117.41 722.05,-111.48 727.98,-105.55 733.91,-105.55 733.91,-105.55 779.85,-105.55 779.85,-105.55 785.78,-105.55 791.71,-111.48 791.71,-117.41 791.71,-117.41 791.71,-129.27 791.71,-129.27 791.71,-135.2 785.78,-141.13 779.85,-141.13"/>
<text text-anchor="middle" x="756.88" y="-126.59" font-family="Segoe UI" font-size="10.00" fill="#134e4a">Lauris:</text>
<text text-anchor="middle" x="756.88" y="-113.84" font-family="Segoe UI" font-size="10.00" fill="#134e4a">Kvalifikacija</text>
</g>
<!-- bank&#45;&gt;qual -->
<g id="edge8" class="edge">
<title>bank&#45;&gt;qual</title>
<path fill="none" stroke="#94a3b8" stroke-width="1.4" d="M677.38,-123.34C688.73,-123.34 701.73,-123.34 713.84,-123.34"/>
<polygon fill="#94a3b8" stroke="#94a3b8" stroke-width="1.4" points="713.53,-125.44 719.53,-123.34 713.53,-121.24 713.53,-125.44"/>
</g>
<!-- newo&#45;&gt;bank -->
<g id="edge7" class="edge">
<title>newo&#45;&gt;bank</title>
<path fill="none" stroke="#94a3b8" stroke-width="1.4" d="M526.29,-92.31C548.19,-98.09 579.65,-106.39 604.52,-112.96"/>
<polygon fill="#94a3b8" stroke="#94a3b8" stroke-width="1.4" points="603.95,-114.98 610.29,-114.48 605.03,-110.92 603.95,-114.98"/>
<text text-anchor="middle" x="569.26" y="-110.49" font-family="Segoe UI" font-size="8.00" fill="#64748b">Patvirtintas</text>
</g>
<!-- roi -->
<g id="node9" class="node">
<title>roi</title>
<path fill="#f0fdfa" stroke="#0f766e" stroke-width="1.4" d="M888.51,-141.13C888.51,-141.13 848.57,-141.13 848.57,-141.13 842.64,-141.13 836.71,-135.2 836.71,-129.27 836.71,-129.27 836.71,-117.41 836.71,-117.41 836.71,-111.48 842.64,-105.55 848.57,-105.55 848.57,-105.55 888.51,-105.55 888.51,-105.55 894.44,-105.55 900.37,-111.48 900.37,-117.41 900.37,-117.41 900.37,-129.27 900.37,-129.27 900.37,-135.2 894.44,-141.13 888.51,-141.13"/>
<text text-anchor="middle" x="868.54" y="-126.59" font-family="Segoe UI" font-size="10.00" fill="#134e4a">Marija:</text>
<text text-anchor="middle" x="868.54" y="-113.84" font-family="Segoe UI" font-size="10.00" fill="#134e4a">ROI Sesija</text>
</g>
<!-- qual&#45;&gt;roi -->
<g id="edge9" class="edge">
<title>qual&#45;&gt;roi</title>
<path fill="none" stroke="#94a3b8" stroke-width="1.4" d="M791.98,-123.34C803.52,-123.34 816.5,-123.34 828.41,-123.34"/>
<polygon fill="#94a3b8" stroke="#94a3b8" stroke-width="1.4" points="828.33,-125.44 834.33,-123.34 828.33,-121.24 828.33,-125.44"/>
</g>
<!-- prop -->
<g id="node10" class="node">
<title>prop</title>
<path fill="#f9fafb" stroke="#6b7280" stroke-width="1.4" d="M1003.18,-137.74C1003.18,-137.74 954.97,-137.74 954.97,-137.74 950.17,-137.74 945.37,-132.94 945.37,-128.14 945.37,-128.14 945.37,-118.54 945.37,-118.54 945.37,-113.74 950.17,-108.94 954.97,-108.94 954.97,-108.94 1003.18,-108.94 1003.18,-108.94 1007.98,-108.94 1012.78,-113.74 1012.78,-118.54 1012.78,-118.54 1012.78,-128.14 1012.78,-128.14 1012.78,-132.94 1007.98,-137.74 1003.18,-137.74"/>
<text text-anchor="middle" x="979.07" y="-120.21" font-family="Segoe UI" font-size="10.00" fill="#1f2937">Pasiūlymas</text>
</g>
<!-- roi&#45;&gt;prop -->
<g id="edge10" class="edge">
<title>roi&#45;&gt;prop</title>
<path fill="none" stroke="#94a3b8" stroke-width="1.4" d="M900.64,-123.34C912.05,-123.34 925.14,-123.34 937.27,-123.34"/>
<polygon fill="#94a3b8" stroke="#94a3b8" stroke-width="1.4" points="936.96,-125.44 942.96,-123.34 936.96,-121.24 936.96,-125.44"/>
</g>
<!-- cl -->
<g id="node11" class="node">
<title>cl</title>
<path fill="#fefce8" stroke="#ca8a04" stroke-width="1.4" d="M1107.32,-141.9C1107.32,-141.9 1069.02,-127.55 1069.02,-127.55 1063.4,-125.44 1063.4,-121.23 1069.02,-119.13 1069.02,-119.13 1107.32,-104.78 1107.32,-104.78 1112.94,-102.67 1124.18,-102.67 1129.8,-104.78 1129.8,-104.78 1168.1,-119.13 1168.1,-119.13 1173.72,-121.23 1173.72,-125.44 1168.1,-127.55 1168.1,-127.55 1129.8,-141.9 1129.8,-141.9 1124.18,-144 1112.94,-144 1107.32,-141.9"/>
<text text-anchor="middle" x="1118.56" y="-120.41" font-family="Segoe UI" font-size="9.00" fill="#713f12">Uždarymas</text>
</g>
<!-- prop&#45;&gt;cl -->
<g id="edge11" class="edge">
<title>prop&#45;&gt;cl</title>
<path fill="none" stroke="#94a3b8" stroke-width="1.4" d="M1013.01,-123.34C1023.69,-123.34 1035.98,-123.34 1048.29,-123.34"/>
<polygon fill="#94a3b8" stroke="#94a3b8" stroke-width="1.4" points="1048.25,-125.44 1054.25,-123.34 1048.25,-121.24 1048.25,-125.44"/>
</g>
<!-- rev -->
<g id="node12" class="node">
<title>rev</title>
<path fill="#ecfdf5" stroke="#059669" stroke-width="1.4" d="M1289.4,-159.74C1289.4,-159.74 1251.69,-159.74 1251.69,-159.74 1246.89,-159.74 1242.09,-154.94 1242.09,-150.14 1242.09,-150.14 1242.09,-140.54 1242.09,-140.54 1242.09,-135.74 1246.89,-130.94 1251.69,-130.94 1251.69,-130.94 1289.4,-130.94 1289.4,-130.94 1294.2,-130.94 1299,-135.74 1299,-140.54 1299,-140.54 1299,-150.14 1299,-150.14 1299,-154.94 1294.2,-159.74 1289.4,-159.74"/>
<text text-anchor="middle" x="1270.54" y="-142.21" font-family="Segoe UI" font-size="10.00" fill="#064e3b">Pajamos</text>
</g>
<!-- cl&#45;&gt;rev -->
<g id="edge12" class="edge">
<title>cl&#45;&gt;rev</title>
<path fill="none" stroke="#94a3b8" stroke-width="1.4" d="M1163.35,-129.76C1185.89,-133.07 1213.01,-137.05 1234.2,-140.15"/>
<polygon fill="#94a3b8" stroke="#94a3b8" stroke-width="1.4" points="1233.67,-142.2 1239.91,-140.99 1234.28,-138.04 1233.67,-142.2"/>
<text text-anchor="middle" x="1210.71" y="-139.49" font-family="Segoe UI" font-size="8.00" fill="#64748b">Won</text>
</g>
<!-- lost -->
<g id="node13" class="node">
<title>lost</title>
<path fill="#fef2f2" stroke="#dc2626" stroke-width="1.4" d="M1287.94,-105.74C1287.94,-105.74 1253.14,-105.74 1253.14,-105.74 1248.34,-105.74 1243.54,-100.94 1243.54,-96.14 1243.54,-96.14 1243.54,-86.54 1243.54,-86.54 1243.54,-81.74 1248.34,-76.94 1253.14,-76.94 1253.14,-76.94 1287.94,-76.94 1287.94,-76.94 1292.74,-76.94 1297.54,-81.74 1297.54,-86.54 1297.54,-86.54 1297.54,-96.14 1297.54,-96.14 1297.54,-100.94 1292.74,-105.74 1287.94,-105.74"/>
<text text-anchor="middle" x="1270.54" y="-88.21" font-family="Segoe UI" font-size="10.00" fill="#7f1d1d">Analizė</text>
</g>
<!-- cl&#45;&gt;lost -->
<g id="edge13" class="edge">
<title>cl&#45;&gt;lost</title>
<path fill="none" stroke="#94a3b8" stroke-width="1.4" d="M1158.18,-115.1C1182.1,-110 1212.52,-103.5 1235.52,-98.6"/>
<polygon fill="#94a3b8" stroke="#94a3b8" stroke-width="1.4" points="1235.83,-100.68 1241.26,-97.37 1234.95,-96.57 1235.83,-100.68"/>
<text text-anchor="middle" x="1210.71" y="-107.49" font-family="Segoe UI" font-size="8.00" fill="#64748b">Lost</text>
</g>
<!-- ret -->
<g id="node14" class="node">
<title>ret</title>
<path fill="#f0fdf4" stroke="#16a34a" stroke-width="1.4" d="M1422.05,-170.13C1422.05,-170.13 1355.86,-170.13 1355.86,-170.13 1349.93,-170.13 1344,-164.2 1344,-158.27 1344,-158.27 1344,-146.41 1344,-146.41 1344,-140.48 1349.93,-134.55 1355.86,-134.55 1355.86,-134.55 1422.05,-134.55 1422.05,-134.55 1427.98,-134.55 1433.91,-140.48 1433.91,-146.41 1433.91,-146.41 1433.91,-158.27 1433.91,-158.27 1433.91,-164.2 1427.98,-170.13 1422.05,-170.13"/>
<text text-anchor="middle" x="1388.95" y="-155.59" font-family="Segoe UI" font-size="10.00" fill="#14532d">CustomerHealth</text>
<text text-anchor="middle" x="1388.95" y="-142.84" font-family="Segoe UI" font-size="10.00" fill="#14532d">Monitoringas</text>
</g>
<!-- rev&#45;&gt;ret -->
<g id="edge14" class="edge">
<title>rev&#45;&gt;ret</title>
<path fill="none" stroke="#94a3b8" stroke-width="1.4" d="M1299.43,-147.02C1310.46,-147.68 1323.5,-148.46 1336.14,-149.22"/>
<polygon fill="#94a3b8" stroke="#94a3b8" stroke-width="1.4" points="1335.7,-151.3 1341.82,-149.56 1335.96,-147.11 1335.7,-151.3"/>
</g>
<!-- fb -->
<g id="node15" class="node">
<title>fb</title>
<path fill="#f5f3ff" stroke="#7c3aed" stroke-width="1.4" d="M1420.55,-109.13C1420.55,-109.13 1357.36,-109.13 1357.36,-109.13 1351.43,-109.13 1345.5,-103.2 1345.5,-97.27 1345.5,-97.27 1345.5,-85.41 1345.5,-85.41 1345.5,-79.48 1351.43,-73.55 1357.36,-73.55 1357.36,-73.55 1420.55,-73.55 1420.55,-73.55 1426.48,-73.55 1432.41,-79.48 1432.41,-85.41 1432.41,-85.41 1432.41,-97.27 1432.41,-97.27 1432.41,-103.2 1426.48,-109.13 1420.55,-109.13"/>
<text text-anchor="middle" x="1388.95" y="-94.59" font-family="Segoe UI" font-size="10.00" fill="#4c1d95">Scoring</text>
<text text-anchor="middle" x="1388.95" y="-81.84" font-family="Segoe UI" font-size="10.00" fill="#4c1d95">Feedback Loop</text>
</g>
<!-- rev&#45;&gt;fb -->
<g id="edge15" class="edge">
<title>rev&#45;&gt;fb</title>
<path fill="none" stroke="#94a3b8" stroke-width="1.4" d="M1299.43,-132.4C1312.03,-126.56 1327.26,-119.49 1341.51,-112.88"/>
<polygon fill="#94a3b8" stroke="#94a3b8" stroke-width="1.4" points="1342.37,-114.8 1346.93,-110.37 1340.61,-110.99 1342.37,-114.8"/>
</g>
<!-- lost&#45;&gt;fb -->
<g id="edge16" class="edge">
<title>lost&#45;&gt;fb</title>
<path fill="none" stroke="#94a3b8" stroke-width="1.4" d="M1297.96,-91.34C1309.62,-91.34 1323.74,-91.34 1337.31,-91.34"/>
<polygon fill="#94a3b8" stroke="#94a3b8" stroke-width="1.4" points="1337.09,-93.44 1343.09,-91.34 1337.09,-89.24 1337.09,-93.44"/>
</g>
<!-- fb&#45;&gt;scr -->
<g id="edge17" class="edge">
<title>fb&#45;&gt;scr</title>
<path fill="none" stroke="#94a3b8" stroke-width="1.4" stroke-dasharray="5,2" d="M1345.44,-76.38C1330.88,-71.81 1314.38,-67.23 1299,-64.34 960.31,-0.58 870.27,-17.68 525.89,-4.34 501.91,-3.41 494.21,4.48 471.89,-4.34 443.19,-15.68 418.43,-41.55 402.86,-61.03"/>
<polygon fill="#94a3b8" stroke="#94a3b8" stroke-width="1.4" points="401.26,-59.66 399.24,-65.68 404.58,-62.24 401.26,-59.66"/>
<text text-anchor="middle" x="868.54" y="-16.49" font-family="Segoe UI" font-size="8.00" fill="#64748b">Retrain</text>
</g>
</g>
</svg>
