<?xml version="1.0" encoding="UTF-8" standalone="no"?>
<!DOCTYPE svg PUBLIC "-//W3C//DTD SVG 1.1//EN"
 "http://www.w3.org/Graphics/SVG/1.1/DTD/svg11.dtd">
<!-- Generated by graphviz version 11.0.0 (20240428.1522)
 -->
<!-- Title: leanMuda Pages: 1 -->
<svg width="261pt" height="313pt"
 viewBox="5.76 5.76 190.28 228.88" xmlns="http://www.w3.org/2000/svg" xmlns:xlink="http://www.w3.org/1999/xlink">
<g id="graph0" class="graph" transform="scale(1.33333 1.33333) rotate(0) translate(18.72 215.92)">
<title>leanMuda</title>
<polygon fill="white" stroke="none" points="-12.96,12.96 -12.96,-210.16 171.56,-210.16 171.56,12.96 -12.96,12.96"/>
<!-- m1 -->
<g id="node1" class="node">
<title>m1</title>
<path fill="#fef2f2" stroke="#ef4444" stroke-width="1.4" d="M56.4,-25.2C56.4,-25.2 8.4,-25.2 8.4,-25.2 4.2,-25.2 0,-21 0,-16.8 0,-16.8 0,-8.4 0,-8.4 0,-4.2 4.2,0 8.4,0 8.4,0 56.4,0 56.4,0 60.6,0 64.8,-4.2 64.8,-8.4 64.8,-8.4 64.8,-16.8 64.8,-16.8 64.8,-21 60.6,-25.2 56.4,-25.2"/>
<text text-anchor="middle" x="32.4" y="-14.75" font-family="Segoe UI" font-size="8.00" fill="#991b1b">23 val.</text>
<text text-anchor="middle" x="32.4" y="-5" font-family="Segoe UI" font-size="8.00" fill="#991b1b">rankinio darbo</text>
</g>
<!-- a1 -->
<g id="node6" class="node">
<title>a1</title>
<path fill="#ecfdf5" stroke="#059669" stroke-width="1.4" d="M150.2,-25.2C150.2,-25.2 102.2,-25.2 102.2,-25.2 98,-25.2 93.8,-21 93.8,-16.8 93.8,-16.8 93.8,-8.4 93.8,-8.4 93.8,-4.2 98,0 102.2,0 102.2,0 150.2,0 150.2,0 154.4,0 158.6,-4.2 158.6,-8.4 158.6,-8.4 158.6,-16.8 158.6,-16.8 158.6,-21 154.4,-25.2 150.2,-25.2"/>
<text text-anchor="middle" x="126.2" y="-9.88" font-family="Segoe UI" font-size="8.00" fill="#064e3b">AI Post&#45;Call</text>
</g>
<!-- m1&#45;&gt;a1 -->
<g id="edge1" class="edge">
<title>m1&#45;&gt;a1</title>
<path fill="none" stroke="#059669" stroke-width="1.2" d="M65.25,-12.6C71.94,-12.6 79.08,-12.6 86,-12.6"/>
<polygon fill="#059669" stroke="#059669" stroke-width="1.2" points="85.59,-14.7 91.59,-12.6 85.59,-10.5 85.59,-14.7"/>
</g>
<!-- m2 -->
<g id="node2" class="node">
<title>m2</title>
<path fill="#fef2f2" stroke="#ef4444" stroke-width="1.4" d="M56.4,-68.2C56.4,-68.2 8.4,-68.2 8.4,-68.2 4.2,-68.2 0,-64 0,-59.8 0,-59.8 0,-51.4 0,-51.4 0,-47.2 4.2,-43 8.4,-43 8.4,-43 56.4,-43 56.4,-43 60.6,-43 64.8,-47.2 64.8,-51.4 64.8,-51.4 64.8,-59.8 64.8,-59.8 64.8,-64 60.6,-68.2 56.4,-68.2"/>
<text text-anchor="middle" x="32.4" y="-57.75" font-family="Segoe UI" font-size="8.00" fill="#991b1b">Ads duomenų</text>
<text text-anchor="middle" x="32.4" y="-48" font-family="Segoe UI" font-size="8.00" fill="#991b1b">vedimas</text>
</g>
<!-- a2 -->
<g id="node7" class="node">
<title>a2</title>
<path fill="#ecfdf5" stroke="#059669" stroke-width="1.4" d="M150.2,-68.2C150.2,-68.2 102.2,-68.2 102.2,-68.2 98,-68.2 93.8,-64 93.8,-59.8 93.8,-59.8 93.8,-51.4 93.8,-51.4 93.8,-47.2 98,-43 102.2,-43 102.2,-43 150.2,-43 150.2,-43 154.4,-43 158.6,-47.2 158.6,-51.4 158.6,-51.4 158.6,-59.8 158.6,-59.8 158.6,-64 154.4,-68.2 150.2,-68.2"/>
<text text-anchor="middle" x="126.2" y="-57.75" font-family="Segoe UI" font-size="8.00" fill="#064e3b">n8n API</text>
<text text-anchor="middle" x="126.2" y="-48" font-family="Segoe UI" font-size="8.00" fill="#064e3b">Sync</text>
</g>
<!-- m2&#45;&gt;a2 -->
<g id="edge2" class="edge">
<title>m2&#45;&gt;a2</title>
<path fill="none" stroke="#059669" stroke-width="1.2" d="M65.25,-55.6C71.94,-55.6 79.08,-55.6 86,-55.6"/>
<polygon fill="#059669" stroke="#059669" stroke-width="1.2" points="85.59,-57.7 91.59,-55.6 85.59,-53.5 85.59,-57.7"/>
</g>
<!-- m3 -->
<g id="node3" class="node">
<title>m3</title>
<path fill="#fef2f2" stroke="#ef4444" stroke-width="1.4" d="M56.4,-111.2C56.4,-111.2 8.4,-111.2 8.4,-111.2 4.2,-111.2 0,-107 0,-102.8 0,-102.8 0,-94.4 0,-94.4 0,-90.2 4.2,-86 8.4,-86 8.4,-86 56.4,-86 56.4,-86 60.6,-86 64.8,-90.2 64.8,-94.4 64.8,-94.4 64.8,-102.8 64.8,-102.8 64.8,-107 60.6,-111.2 56.4,-111.2"/>
<text text-anchor="middle" x="32.4" y="-100.75" font-family="Segoe UI" font-size="8.00" fill="#991b1b">Status update</text>
<text text-anchor="middle" x="32.4" y="-91" font-family="Segoe UI" font-size="8.00" fill="#991b1b">meetingai</text>
</g>
<!-- a3 -->
<g id="node8" class="node">
<title>a3</title>
<path fill="#ecfdf5" stroke="#059669" stroke-width="1.4" d="M150.2,-111.2C150.2,-111.2 102.2,-111.2 102.2,-111.2 98,-111.2 93.8,-107 93.8,-102.8 93.8,-102.8 93.8,-94.4 93.8,-94.4 93.8,-90.2 98,-86 102.2,-86 102.2,-86 150.2,-86 150.2,-86 154.4,-86 158.6,-90.2 158.6,-94.4 158.6,-94.4 158.6,-102.8 158.6,-102.8 158.6,-107 154.4,-111.2 150.2,-111.2"/>
<text text-anchor="middle" x="126.2" y="-95.88" font-family="Segoe UI" font-size="8.00" fill="#064e3b">Live Dashboard</text>
</g>
<!-- m3&#45;&gt;a3 -->
<g id="edge3" class="edge">
<title>m3&#45;&gt;a3</title>
<path fill="none" stroke="#059669" stroke-width="1.2" d="M65.25,-98.6C71.94,-98.6 79.08,-98.6 86,-98.6"/>
<polygon fill="#059669" stroke="#059669" stroke-width="1.2" points="85.59,-100.7 91.59,-98.6 85.59,-96.5 85.59,-100.7"/>
</g>
<!-- m4 -->
<g id="node4" class="node">
<title>m4</title>
<path fill="#fef2f2" stroke="#ef4444" stroke-width="1.4" d="M56.4,-154.2C56.4,-154.2 8.4,-154.2 8.4,-154.2 4.2,-154.2 0,-150 0,-145.8 0,-145.8 0,-137.4 0,-137.4 0,-133.2 4.2,-129 8.4,-129 8.4,-129 56.4,-129 56.4,-129 60.6,-129 64.8,-133.2 64.8,-137.4 64.8,-137.4 64.8,-145.8 64.8,-145.8 64.8,-150 60.6,-154.2 56.4,-154.2"/>
<text text-anchor="middle" x="32.4" y="-143.75" font-family="Segoe UI" font-size="8.00" fill="#991b1b">Google paieška</text>
<text text-anchor="middle" x="32.4" y="-134" font-family="Segoe UI" font-size="8.00" fill="#991b1b">prieš skambutį</text>
</g>
<!-- a4 -->
<g id="node9" class="node">
<title>a4</title>
<path fill="#ecfdf5" stroke="#059669" stroke-width="1.4" d="M150.2,-154.2C150.2,-154.2 102.2,-154.2 102.2,-154.2 98,-154.2 93.8,-150 93.8,-145.8 93.8,-145.8 93.8,-137.4 93.8,-137.4 93.8,-133.2 98,-129 102.2,-129 102.2,-129 150.2,-129 150.2,-129 154.4,-129 158.6,-133.2 158.6,-137.4 158.6,-137.4 158.6,-145.8 158.6,-145.8 158.6,-150 154.4,-154.2 150.2,-154.2"/>
<text text-anchor="middle" x="126.2" y="-143.75" font-family="Segoe UI" font-size="8.00" fill="#064e3b">Pre&#45;Call</text>
<text text-anchor="middle" x="126.2" y="-134" font-family="Segoe UI" font-size="8.00" fill="#064e3b">Brief</text>
</g>
<!-- m4&#45;&gt;a4 -->
<g id="edge4" class="edge">
<title>m4&#45;&gt;a4</title>
<path fill="none" stroke="#059669" stroke-width="1.2" d="M65.25,-141.6C71.94,-141.6 79.08,-141.6 86,-141.6"/>
<polygon fill="#059669" stroke="#059669" stroke-width="1.2" points="85.59,-143.7 91.59,-141.6 85.59,-139.5 85.59,-143.7"/>
</g>
<!-- m5 -->
<g id="node5" class="node">
<title>m5</title>
<path fill="#fef2f2" stroke="#ef4444" stroke-width="1.4" d="M56.4,-197.2C56.4,-197.2 8.4,-197.2 8.4,-197.2 4.2,-197.2 0,-193 0,-188.8 0,-188.8 0,-180.4 0,-180.4 0,-176.2 4.2,-172 8.4,-172 8.4,-172 56.4,-172 56.4,-172 60.6,-172 64.8,-176.2 64.8,-180.4 64.8,-180.4 64.8,-188.8 64.8,-188.8 64.8,-193 60.6,-197.2 56.4,-197.2"/>
<text text-anchor="middle" x="32.4" y="-186.75" font-family="Segoe UI" font-size="8.00" fill="#991b1b">Lead</text>
<text text-anchor="middle" x="32.4" y="-177" font-family="Segoe UI" font-size="8.00" fill="#991b1b">klasifik.</text>
</g>
<!-- a5 -->
<g id="node10" class="node">
<title>a5</title>
<path fill="#ecfdf5" stroke="#059669" stroke-width="1.4" d="M150.2,-197.2C150.2,-197.2 102.2,-197.2 102.2,-197.2 98,-197.2 93.8,-193 93.8,-188.8 93.8,-188.8 93.8,-180.4 93.8,-180.4 93.8,-176.2 98,-172 102.2,-172 102.2,-172 150.2,-172 150.2,-172 154.4,-172 158.6,-176.2 158.6,-180.4 158.6,-180.4 158.6,-188.8 158.6,-188.8 158.6,-193 154.4,-197.2 150.2,-197.2"/>
<text text-anchor="middle" x="126.2" y="-181.88" font-family="Segoe UI" font-size="8.00" fill="#064e3b">RAG Scoring</text>
</g>
<!-- m5&#45;&gt;a5 -->
<g id="edge5" class="edge">
<title>m5&#45;&gt;a5</title>
<path fill="none" stroke="#059669" stroke-width="1.2" d="M65.25,-184.6C71.94,-184.6 79.08,-184.6 86,-184.6"/>
<polygon fill="#059669" stroke="#059669" stroke-width="1.2" points="85.59,-186.7 91.59,-184.6 85.59,-182.5 85.59,-186.7"/>
</g>
</g>
</svg>
