<?xml version="1.0" encoding="UTF-8" standalone="no"?>
<!DOCTYPE svg PUBLIC "-//W3C//DTD SVG 1.1//EN"
 "http://www.w3.org/Graphics/SVG/1.1/DTD/svg11.dtd">
<!-- Generated by graphviz version 11.0.0 (20240428.1522)
 -->
<!-- Title: mvpDeleg Pages: 1 -->
<svg width="584pt" height="1149pt"
 viewBox="20.16 20.16 417.56 841.56" xmlns="http://www.w3.org/2000/svg" xmlns:xlink="http://www.w3.org/1999/xlink">
<g id="graph0" class="graph" transform="scale(1.33333 1.33333) rotate(0) translate(81.36 780.36)">
<title>mvpDeleg</title>
<polygon fill="white" stroke="none" points="-61.2,61.2 -61.2,-760.2 336.2,-760.2 336.2,61.2 -61.2,61.2"/>
<g id="clust1" class="cluster">
<title>cluster_e</title>
<path fill="#eff6ff" stroke="#3b82f6" d="M162,-511C162,-511 251,-511 251,-511 257,-511 263,-517 263,-523 263,-523 263,-679 263,-679 263,-685 257,-691 251,-691 251,-691 162,-691 162,-691 156,-691 150,-685 150,-679 150,-679 150,-523 150,-523 150,-517 156,-511 162,-511"/>
<text text-anchor="middle" x="206.5" y="-678.45" font-family="Segoe UI" font-size="9.00" fill="#1e3a5f">Eimantas — ~95 h (core)</text>
</g>
<g id="clust2" class="cluster">
<title>cluster_n</title>
<path fill="#f0fdfa" stroke="#0f766e" d="M159,-374C159,-374 254,-374 254,-374 260,-374 266,-380 266,-386 266,-386 266,-499 266,-499 266,-505 260,-511 254,-511 254,-511 159,-511 159,-511 153,-511 147,-505 147,-499 147,-499 147,-386 147,-386 147,-380 153,-374 159,-374"/>
<text text-anchor="middle" x="206.5" y="-498.45" font-family="Segoe UI" font-size="9.00" fill="#134e4a">External N8N dev — ~75 h</text>
</g>
<g id="clust3" class="cluster">
<title>cluster_i</title>
<path fill="#f5f3ff" stroke="#7c3aed" d="M164,-237C164,-237 249,-237 249,-237 255,-237 261,-243 261,-249 261,-249 261,-362 261,-362 261,-368 255,-374 249,-374 249,-374 164,-374 164,-374 158,-374 152,-368 152,-362 152,-362 152,-249 152,-249 152,-243 158,-237 164,-237"/>
<text text-anchor="middle" x="206.5" y="-361.45" font-family="Segoe UI" font-size="9.00" fill="#4c1d95">Igoris — ~35 h (turinys)</text>
</g>
<g id="clust4" class="cluster">
<title>cluster_m</title>
<path fill="#fff7ed" stroke="#ea580c" d="M149,-100C149,-100 263,-100 263,-100 269,-100 275,-106 275,-112 275,-112 275,-225 275,-225 275,-231 269,-237 263,-237 263,-237 149,-237 149,-237 143,-237 137,-231 137,-225 137,-225 137,-112 137,-112 137,-106 143,-100 149,-100"/>
<text text-anchor="middle" x="206" y="-224.45" font-family="Segoe UI" font-size="9.00" fill="#7c2d12">Mantas — ~25 h (koordinacija)</text>
</g>
<g id="clust5" class="cluster">
<title>cluster_t</title>
<path fill="#f0fdf4" stroke="#16a34a" d="M151,-8C151,-8 262,-8 262,-8 268,-8 274,-14 274,-20 274,-20 274,-88 274,-88 274,-94 268,-100 262,-100 262,-100 151,-100 151,-100 145,-100 139,-94 139,-88 139,-88 139,-20 139,-20 139,-14 145,-8 151,-8"/>
<text text-anchor="middle" x="206.5" y="-87.45" font-family="Segoe UI" font-size="9.00" fill="#14532d">Komanda — ~10 h (validacija)</text>
</g>
<!-- mvp -->
<g id="node1" class="node">
<title>mvp</title>
<path fill="#f5f3ff" stroke="#7c3aed" stroke-width="1.4" d="M98.1,-266.85C98.1,-266.85 9.9,-266.85 9.9,-266.85 4.95,-266.85 0,-261.9 0,-256.95 0,-256.95 0,-247.05 0,-247.05 0,-242.1 4.95,-237.15 9.9,-237.15 9.9,-237.15 98.1,-237.15 98.1,-237.15 103.05,-237.15 108,-242.1 108,-247.05 108,-247.05 108,-256.95 108,-256.95 108,-261.9 103.05,-266.85 98.1,-266.85"/>
<text text-anchor="middle" x="54" y="-254.7" font-family="Segoe UI" font-size="9.00" fill="#4c1d95">MVP DIPA OS</text>
<text text-anchor="middle" x="54" y="-243.45" font-family="Segoe UI" font-size="9.00" fill="#4c1d95">~240 h / 6 sav.</text>
</g>
<!-- e1 -->
<g id="node2" class="node">
<title>e1</title>
<path fill="#f0fdfa" stroke="#0f766e" stroke-width="1.4" d="M250.1,-540.85C250.1,-540.85 161.9,-540.85 161.9,-540.85 156.95,-540.85 152,-535.9 152,-530.95 152,-530.95 152,-521.05 152,-521.05 152,-516.1 156.95,-511.15 161.9,-511.15 161.9,-511.15 250.1,-511.15 250.1,-511.15 255.05,-511.15 260,-516.1 260,-521.05 260,-521.05 260,-530.95 260,-530.95 260,-535.9 255.05,-540.85 250.1,-540.85"/>
<text text-anchor="middle" x="206" y="-528.7" font-family="Segoe UI" font-size="9.00" fill="#134e4a">Next.js karkasas</text>
<text text-anchor="middle" x="206" y="-517.45" font-family="Segoe UI" font-size="9.00" fill="#134e4a">+ Prisma schema</text>
</g>
<!-- mvp&#45;&gt;e1 -->
<!-- n1 -->
<g id="node6" class="node">
<title>n1</title>
<path fill="#f0fdf4" stroke="#16a34a" stroke-width="1.4" d="M250.1,-403.85C250.1,-403.85 161.9,-403.85 161.9,-403.85 156.95,-403.85 152,-398.9 152,-393.95 152,-393.95 152,-384.05 152,-384.05 152,-379.1 156.95,-374.15 161.9,-374.15 161.9,-374.15 250.1,-374.15 250.1,-374.15 255.05,-374.15 260,-379.1 260,-384.05 260,-384.05 260,-393.95 260,-393.95 260,-398.9 255.05,-403.85 250.1,-403.85"/>
<text text-anchor="middle" x="206" y="-391.7" font-family="Segoe UI" font-size="9.00" fill="#14532d">WF1–WF5</text>
<text text-anchor="middle" x="206" y="-380.45" font-family="Segoe UI" font-size="9.00" fill="#14532d">n8n workflows</text>
</g>
<!-- mvp&#45;&gt;n1 -->
<!-- i1 -->
<g id="node9" class="node">
<title>i1</title>
<path fill="#f5f3ff" stroke="#7c3aed" stroke-width="1.4" d="M250.1,-266.85C250.1,-266.85 161.9,-266.85 161.9,-266.85 156.95,-266.85 152,-261.9 152,-256.95 152,-256.95 152,-247.05 152,-247.05 152,-242.1 156.95,-237.15 161.9,-237.15 161.9,-237.15 250.1,-237.15 250.1,-237.15 255.05,-237.15 260,-242.1 260,-247.05 260,-247.05 260,-256.95 260,-256.95 260,-261.9 255.05,-266.85 250.1,-266.85"/>
<text text-anchor="middle" x="206" y="-254.7" font-family="Segoe UI" font-size="9.00" fill="#4c1d95">JTBD + QA</text>
<text text-anchor="middle" x="206" y="-243.45" font-family="Segoe UI" font-size="9.00" fill="#4c1d95">kriterijai</text>
</g>
<!-- mvp&#45;&gt;i1 -->
<!-- m1 -->
<g id="node12" class="node">
<title>m1</title>
<path fill="#fff7ed" stroke="#ea580c" stroke-width="1.4" d="M250.1,-129.85C250.1,-129.85 161.9,-129.85 161.9,-129.85 156.95,-129.85 152,-124.9 152,-119.95 152,-119.95 152,-110.05 152,-110.05 152,-105.1 156.95,-100.15 161.9,-100.15 161.9,-100.15 250.1,-100.15 250.1,-100.15 255.05,-100.15 260,-105.1 260,-110.05 260,-110.05 260,-119.95 260,-119.95 260,-124.9 255.05,-129.85 250.1,-129.85"/>
<text text-anchor="middle" x="206" y="-117.7" font-family="Segoe UI" font-size="9.00" fill="#7c2d12">Delivery checklist</text>
<text text-anchor="middle" x="206" y="-106.45" font-family="Segoe UI" font-size="9.00" fill="#7c2d12">+ kickoff SOP</text>
</g>
<!-- mvp&#45;&gt;m1 -->
<!-- t1 -->
<g id="node15" class="node">
<title>t1</title>
<path fill="#ecfdf5" stroke="#059669" stroke-width="1.4" d="M250.1,-37.85C250.1,-37.85 161.9,-37.85 161.9,-37.85 156.95,-37.85 152,-32.9 152,-27.95 152,-27.95 152,-18.05 152,-18.05 152,-13.1 156.95,-8.15 161.9,-8.15 161.9,-8.15 250.1,-8.15 250.1,-8.15 255.05,-8.15 260,-13.1 260,-18.05 260,-18.05 260,-27.95 260,-27.95 260,-32.9 255.05,-37.85 250.1,-37.85"/>
<text text-anchor="middle" x="206" y="-25.7" font-family="Segoe UI" font-size="9.00" fill="#064e3b">QA scorecard</text>
<text text-anchor="middle" x="206" y="-14.45" font-family="Segoe UI" font-size="9.00" fill="#064e3b">validacija</text>
</g>
<!-- mvp&#45;&gt;t1 -->
<!-- e2 -->
<g id="node3" class="node">
<title>e2</title>
<path fill="#f0fdfa" stroke="#0f766e" stroke-width="1.4" d="M250.1,-584.85C250.1,-584.85 161.9,-584.85 161.9,-584.85 156.95,-584.85 152,-579.9 152,-574.95 152,-574.95 152,-565.05 152,-565.05 152,-560.1 156.95,-555.15 161.9,-555.15 161.9,-555.15 250.1,-555.15 250.1,-555.15 255.05,-555.15 260,-560.1 260,-565.05 260,-565.05 260,-574.95 260,-574.95 260,-579.9 255.05,-584.85 250.1,-584.85"/>
<text text-anchor="middle" x="206" y="-572.7" font-family="Segoe UI" font-size="9.00" fill="#134e4a">RAG indeksas</text>
<text text-anchor="middle" x="206" y="-561.45" font-family="Segoe UI" font-size="9.00" fill="#134e4a">+ Vertex AI</text>
</g>
<!-- e3 -->
<g id="node4" class="node">
<title>e3</title>
<path fill="#f0fdfa" stroke="#0f766e" stroke-width="1.4" d="M250.1,-628.85C250.1,-628.85 161.9,-628.85 161.9,-628.85 156.95,-628.85 152,-623.9 152,-618.95 152,-618.95 152,-609.05 152,-609.05 152,-604.1 156.95,-599.15 161.9,-599.15 161.9,-599.15 250.1,-599.15 250.1,-599.15 255.05,-599.15 260,-604.1 260,-609.05 260,-609.05 260,-618.95 260,-618.95 260,-623.9 255.05,-628.85 250.1,-628.85"/>
<text text-anchor="middle" x="206" y="-616.7" font-family="Segoe UI" font-size="9.00" fill="#134e4a">LLM promptų</text>
<text text-anchor="middle" x="206" y="-605.45" font-family="Segoe UI" font-size="9.00" fill="#134e4a">moduliai</text>
</g>
<!-- e4 -->
<g id="node5" class="node">
<title>e4</title>
<path fill="#f0fdfa" stroke="#0f766e" stroke-width="1.4" d="M250.4,-671.4C250.4,-671.4 161.6,-671.4 161.6,-671.4 156.8,-671.4 152,-666.6 152,-661.8 152,-661.8 152,-652.2 152,-652.2 152,-647.4 156.8,-642.6 161.6,-642.6 161.6,-642.6 250.4,-642.6 250.4,-642.6 255.2,-642.6 260,-647.4 260,-652.2 260,-652.2 260,-661.8 260,-661.8 260,-666.6 255.2,-671.4 250.4,-671.4"/>
<text text-anchor="middle" x="206" y="-654.08" font-family="Segoe UI" font-size="9.00" fill="#134e4a">Co&#45;Pilot chat UI</text>
</g>
<!-- n2 -->
<g id="node7" class="node">
<title>n2</title>
<path fill="#f0fdf4" stroke="#16a34a" stroke-width="1.4" d="M250.1,-447.85C250.1,-447.85 161.9,-447.85 161.9,-447.85 156.95,-447.85 152,-442.9 152,-437.95 152,-437.95 152,-428.05 152,-428.05 152,-423.1 156.95,-418.15 161.9,-418.15 161.9,-418.15 250.1,-418.15 250.1,-418.15 255.05,-418.15 260,-423.1 260,-428.05 260,-428.05 260,-437.95 260,-437.95 260,-442.9 255.05,-447.85 250.1,-447.85"/>
<text text-anchor="middle" x="206" y="-435.7" font-family="Segoe UI" font-size="9.00" fill="#14532d">Monday · Outlook</text>
<text text-anchor="middle" x="206" y="-424.45" font-family="Segoe UI" font-size="9.00" fill="#14532d">· Clockify · Ads API</text>
</g>
<!-- n3 -->
<g id="node8" class="node">
<title>n3</title>
<path fill="#f0fdf4" stroke="#16a34a" stroke-width="1.4" d="M250.1,-491.85C250.1,-491.85 161.9,-491.85 161.9,-491.85 156.95,-491.85 152,-486.9 152,-481.95 152,-481.95 152,-472.05 152,-472.05 152,-467.1 156.95,-462.15 161.9,-462.15 161.9,-462.15 250.1,-462.15 250.1,-462.15 255.05,-462.15 260,-467.1 260,-472.05 260,-472.05 260,-481.95 260,-481.95 260,-486.9 255.05,-491.85 250.1,-491.85"/>
<text text-anchor="middle" x="206" y="-479.7" font-family="Segoe UI" font-size="9.00" fill="#14532d">Webhook</text>
<text text-anchor="middle" x="206" y="-468.45" font-family="Segoe UI" font-size="9.00" fill="#14532d">endpointai</text>
</g>
<!-- i2 -->
<g id="node10" class="node">
<title>i2</title>
<path fill="#f5f3ff" stroke="#7c3aed" stroke-width="1.4" d="M250.1,-310.85C250.1,-310.85 161.9,-310.85 161.9,-310.85 156.95,-310.85 152,-305.9 152,-300.95 152,-300.95 152,-291.05 152,-291.05 152,-286.1 156.95,-281.15 161.9,-281.15 161.9,-281.15 250.1,-281.15 250.1,-281.15 255.05,-281.15 260,-286.1 260,-291.05 260,-291.05 260,-300.95 260,-300.95 260,-305.9 255.05,-310.85 250.1,-310.85"/>
<text text-anchor="middle" x="206" y="-298.7" font-family="Segoe UI" font-size="9.00" fill="#4c1d95">RAG turinys</text>
<text text-anchor="middle" x="206" y="-287.45" font-family="Segoe UI" font-size="9.00" fill="#4c1d95">(Strategic Brain)</text>
</g>
<!-- i3 -->
<g id="node11" class="node">
<title>i3</title>
<path fill="#f5f3ff" stroke="#7c3aed" stroke-width="1.4" d="M250.1,-354.85C250.1,-354.85 161.9,-354.85 161.9,-354.85 156.95,-354.85 152,-349.9 152,-344.95 152,-344.95 152,-335.05 152,-335.05 152,-330.1 156.95,-325.15 161.9,-325.15 161.9,-325.15 250.1,-325.15 250.1,-325.15 255.05,-325.15 260,-330.1 260,-335.05 260,-335.05 260,-344.95 260,-344.95 260,-349.9 255.05,-354.85 250.1,-354.85"/>
<text text-anchor="middle" x="206" y="-342.7" font-family="Segoe UI" font-size="9.00" fill="#4c1d95">Nevo pristatymas</text>
<text text-anchor="middle" x="206" y="-331.45" font-family="Segoe UI" font-size="9.00" fill="#4c1d95">(22 d.)</text>
</g>
<!-- m2 -->
<g id="node13" class="node">
<title>m2</title>
<path fill="#fff7ed" stroke="#ea580c" stroke-width="1.4" d="M250.1,-173.85C250.1,-173.85 161.9,-173.85 161.9,-173.85 156.95,-173.85 152,-168.9 152,-163.95 152,-163.95 152,-154.05 152,-154.05 152,-149.1 156.95,-144.15 161.9,-144.15 161.9,-144.15 250.1,-144.15 250.1,-144.15 255.05,-144.15 260,-149.1 260,-154.05 260,-154.05 260,-163.95 260,-163.95 260,-168.9 255.05,-173.85 250.1,-173.85"/>
<text text-anchor="middle" x="206" y="-161.7" font-family="Segoe UI" font-size="9.00" fill="#7c2d12">Handoff paketo</text>
<text text-anchor="middle" x="206" y="-150.45" font-family="Segoe UI" font-size="9.00" fill="#7c2d12">šablonas</text>
</g>
<!-- m3 -->
<g id="node14" class="node">
<title>m3</title>
<path fill="#fff7ed" stroke="#ea580c" stroke-width="1.4" d="M250.1,-217.85C250.1,-217.85 161.9,-217.85 161.9,-217.85 156.95,-217.85 152,-212.9 152,-207.95 152,-207.95 152,-198.05 152,-198.05 152,-193.1 156.95,-188.15 161.9,-188.15 161.9,-188.15 250.1,-188.15 250.1,-188.15 255.05,-188.15 260,-193.1 260,-198.05 260,-198.05 260,-207.95 260,-207.95 260,-212.9 255.05,-217.85 250.1,-217.85"/>
<text text-anchor="middle" x="206" y="-205.7" font-family="Segoe UI" font-size="9.00" fill="#7c2d12">Komandos</text>
<text text-anchor="middle" x="206" y="-194.45" font-family="Segoe UI" font-size="9.00" fill="#7c2d12">testavimas</text>
</g>
<!-- t2 -->
<g id="node16" class="node">
<title>t2</title>
<path fill="#ecfdf5" stroke="#059669" stroke-width="1.4" d="M250.4,-80.4C250.4,-80.4 161.6,-80.4 161.6,-80.4 156.8,-80.4 152,-75.6 152,-70.8 152,-70.8 152,-61.2 152,-61.2 152,-56.4 156.8,-51.6 161.6,-51.6 161.6,-51.6 250.4,-51.6 250.4,-51.6 255.2,-51.6 260,-56.4 260,-61.2 260,-61.2 260,-70.8 260,-70.8 260,-75.6 255.2,-80.4 250.4,-80.4"/>
<text text-anchor="middle" x="206" y="-63.08" font-family="Segoe UI" font-size="9.00" fill="#064e3b">UAT testavimas</text>
</g>
</g>
</svg>
