<?xml version="1.0" encoding="UTF-8" standalone="no"?>
<!DOCTYPE svg PUBLIC "-//W3C//DTD SVG 1.1//EN"
 "http://www.w3.org/Graphics/SVG/1.1/DTD/svg11.dtd">
<!-- Generated by graphviz version 11.0.0 (20240428.1522)
 -->
<!-- Title: mvpDeleg Pages: 1 -->
<svg width="641pt" height="1090pt"
 viewBox="20.16 20.16 460.36 797.56" xmlns="http://www.w3.org/2000/svg" xmlns:xlink="http://www.w3.org/1999/xlink">
<g id="graph0" class="graph" transform="scale(1.33333 1.33333) rotate(0) translate(81.36 736.36)">
<title>mvpDeleg</title>
<polygon fill="white" stroke="none" points="-61.2,61.2 -61.2,-716.2 379,-716.2 379,61.2 -61.2,61.2"/>
<g id="clust1" class="cluster">
<title>cluster_e</title>
<path fill="#eff6ff" stroke="#3b82f6" d="M165.4,-406C165.4,-406 305.8,-406 305.8,-406 311.8,-406 317.8,-412 317.8,-418 317.8,-418 317.8,-635 317.8,-635 317.8,-641 311.8,-647 305.8,-647 305.8,-647 165.4,-647 165.4,-647 159.4,-647 153.4,-641 153.4,-635 153.4,-635 153.4,-418 153.4,-418 153.4,-412 159.4,-406 165.4,-406"/>
<text text-anchor="middle" x="235.6" y="-634.45" font-family="Segoe UI" font-size="9.00" fill="#1e3a5f">Eimantas — 180 h (core + know&#45;how)</text>
</g>
<g id="clust2" class="cluster">
<title>cluster_n</title>
<path fill="#f0fdfa" stroke="#0f766e" d="M166.4,-261C166.4,-261 304.8,-261 304.8,-261 310.8,-261 316.8,-267 316.8,-273 316.8,-273 316.8,-394 316.8,-394 316.8,-400 310.8,-406 304.8,-406 304.8,-406 166.4,-406 166.4,-406 160.4,-406 154.4,-400 154.4,-394 154.4,-394 154.4,-273 154.4,-273 154.4,-267 160.4,-261 166.4,-261"/>
<text text-anchor="middle" x="235.6" y="-393.45" font-family="Segoe UI" font-size="9.00" fill="#134e4a">External N8N — 52 h (tik workflow&#39;ai)</text>
</g>
<g id="clust3" class="cluster">
<title>cluster_d</title>
<path fill="#ecfeff" stroke="#0891b2" d="M178.4,-153C178.4,-153 292.8,-153 292.8,-153 298.8,-153 304.8,-159 304.8,-165 304.8,-165 304.8,-249 304.8,-249 304.8,-255 298.8,-261 292.8,-261 292.8,-261 178.4,-261 178.4,-261 172.4,-261 166.4,-255 166.4,-249 166.4,-249 166.4,-165 166.4,-165 166.4,-159 172.4,-153 178.4,-153"/>
<text text-anchor="middle" x="235.6" y="-248.45" font-family="Segoe UI" font-size="9.00" fill="#164e63">External Dev — 14 h (tik Figma)</text>
</g>
<g id="clust4" class="cluster">
<title>cluster_t</title>
<path fill="#f0fdf4" stroke="#16a34a" d="M182.4,-8C182.4,-8 289.8,-8 289.8,-8 295.8,-8 301.8,-14 301.8,-20 301.8,-20 301.8,-141 301.8,-141 301.8,-147 295.8,-153 289.8,-153 289.8,-153 182.4,-153 182.4,-153 176.4,-153 170.4,-147 170.4,-141 170.4,-141 170.4,-20 170.4,-20 170.4,-14 176.4,-8 182.4,-8"/>
<text text-anchor="middle" x="236.1" y="-140.45" font-family="Segoe UI" font-size="9.00" fill="#14532d">Komanda — 9 h (UAT + SOP)</text>
</g>
<!-- mvp -->
<g id="node1" class="node">
<title>mvp</title>
<path fill="#f5f3ff" stroke="#7c3aed" stroke-width="1.4" d="M112.5,-236.85C112.5,-236.85 9.9,-236.85 9.9,-236.85 4.95,-236.85 0,-231.9 0,-226.95 0,-226.95 0,-217.05 0,-217.05 0,-212.1 4.95,-207.15 9.9,-207.15 9.9,-207.15 112.5,-207.15 112.5,-207.15 117.45,-207.15 122.4,-212.1 122.4,-217.05 122.4,-217.05 122.4,-226.95 122.4,-226.95 122.4,-231.9 117.45,-236.85 112.5,-236.85"/>
<text text-anchor="middle" x="61.2" y="-224.7" font-family="Segoe UI" font-size="9.00" fill="#4c1d95">MVP DIPA OS</text>
<text text-anchor="middle" x="61.2" y="-213.45" font-family="Segoe UI" font-size="9.00" fill="#4c1d95">~255 h / 6 sav.</text>
</g>
<!-- e1 -->
<g id="node2" class="node">
<title>e1</title>
<path fill="#f0fdfa" stroke="#0f766e" stroke-width="1.4" d="M286.9,-435.85C286.9,-435.85 184.3,-435.85 184.3,-435.85 179.35,-435.85 174.4,-430.9 174.4,-425.95 174.4,-425.95 174.4,-416.05 174.4,-416.05 174.4,-411.1 179.35,-406.15 184.3,-406.15 184.3,-406.15 286.9,-406.15 286.9,-406.15 291.85,-406.15 296.8,-411.1 296.8,-416.05 296.8,-416.05 296.8,-425.95 296.8,-425.95 296.8,-430.9 291.85,-435.85 286.9,-435.85"/>
<text text-anchor="middle" x="235.6" y="-423.7" font-family="Segoe UI" font-size="9.00" fill="#134e4a">Next.js karkasas</text>
<text text-anchor="middle" x="235.6" y="-412.45" font-family="Segoe UI" font-size="9.00" fill="#134e4a">+ Prisma schema</text>
</g>
<!-- mvp&#45;&gt;e1 -->
<!-- n1 -->
<g id="node7" class="node">
<title>n1</title>
<path fill="#f0fdf4" stroke="#16a34a" stroke-width="1.4" d="M286.9,-290.85C286.9,-290.85 184.3,-290.85 184.3,-290.85 179.35,-290.85 174.4,-285.9 174.4,-280.95 174.4,-280.95 174.4,-271.05 174.4,-271.05 174.4,-266.1 179.35,-261.15 184.3,-261.15 184.3,-261.15 286.9,-261.15 286.9,-261.15 291.85,-261.15 296.8,-266.1 296.8,-271.05 296.8,-271.05 296.8,-280.95 296.8,-280.95 296.8,-285.9 291.85,-290.85 286.9,-290.85"/>
<text text-anchor="middle" x="235.6" y="-278.7" font-family="Segoe UI" font-size="9.00" fill="#14532d">Monday · Clockify</text>
<text text-anchor="middle" x="235.6" y="-267.45" font-family="Segoe UI" font-size="9.00" fill="#14532d">· Ads API</text>
</g>
<!-- mvp&#45;&gt;n1 -->
<!-- d1 -->
<g id="node10" class="node">
<title>d1</title>
<path fill="#f0fdf4" stroke="#16a34a" stroke-width="1.4" d="M286.9,-182.85C286.9,-182.85 184.3,-182.85 184.3,-182.85 179.35,-182.85 174.4,-177.9 174.4,-172.95 174.4,-172.95 174.4,-163.05 174.4,-163.05 174.4,-158.1 179.35,-153.15 184.3,-153.15 184.3,-153.15 286.9,-153.15 286.9,-153.15 291.85,-153.15 296.8,-158.1 296.8,-163.05 296.8,-163.05 296.8,-172.95 296.8,-172.95 296.8,-177.9 291.85,-182.85 286.9,-182.85"/>
<text text-anchor="middle" x="235.6" y="-170.7" font-family="Segoe UI" font-size="9.00" fill="#14532d">Design System</text>
<text text-anchor="middle" x="235.6" y="-159.45" font-family="Segoe UI" font-size="9.00" fill="#14532d">+ Cockpit maketas</text>
</g>
<!-- mvp&#45;&gt;d1 -->
<!-- t1 -->
<g id="node12" class="node">
<title>t1</title>
<path fill="#ecfdf5" stroke="#059669" stroke-width="1.4" d="M286.9,-37.85C286.9,-37.85 184.3,-37.85 184.3,-37.85 179.35,-37.85 174.4,-32.9 174.4,-27.95 174.4,-27.95 174.4,-18.05 174.4,-18.05 174.4,-13.1 179.35,-8.15 184.3,-8.15 184.3,-8.15 286.9,-8.15 286.9,-8.15 291.85,-8.15 296.8,-13.1 296.8,-18.05 296.8,-18.05 296.8,-27.95 296.8,-27.95 296.8,-32.9 291.85,-37.85 286.9,-37.85"/>
<text text-anchor="middle" x="235.6" y="-25.7" font-family="Segoe UI" font-size="9.00" fill="#064e3b">QA scorecard</text>
<text text-anchor="middle" x="235.6" y="-14.45" font-family="Segoe UI" font-size="9.00" fill="#064e3b">validacija</text>
</g>
<!-- mvp&#45;&gt;t1 -->
<!-- e2 -->
<g id="node3" class="node">
<title>e2</title>
<path fill="#f0fdfa" stroke="#0f766e" stroke-width="1.4" d="M286.9,-483.85C286.9,-483.85 184.3,-483.85 184.3,-483.85 179.35,-483.85 174.4,-478.9 174.4,-473.95 174.4,-473.95 174.4,-464.05 174.4,-464.05 174.4,-459.1 179.35,-454.15 184.3,-454.15 184.3,-454.15 286.9,-454.15 286.9,-454.15 291.85,-454.15 296.8,-459.1 296.8,-464.05 296.8,-464.05 296.8,-473.95 296.8,-473.95 296.8,-478.9 291.85,-483.85 286.9,-483.85"/>
<text text-anchor="middle" x="235.6" y="-471.7" font-family="Segoe UI" font-size="9.00" fill="#134e4a">RAG + Vertex AI</text>
<text text-anchor="middle" x="235.6" y="-460.45" font-family="Segoe UI" font-size="9.00" fill="#134e4a">+ Strategic Brain</text>
</g>
<!-- e3 -->
<g id="node4" class="node">
<title>e3</title>
<path fill="#f0fdfa" stroke="#0f766e" stroke-width="1.4" d="M286.9,-531.85C286.9,-531.85 184.3,-531.85 184.3,-531.85 179.35,-531.85 174.4,-526.9 174.4,-521.95 174.4,-521.95 174.4,-512.05 174.4,-512.05 174.4,-507.1 179.35,-502.15 184.3,-502.15 184.3,-502.15 286.9,-502.15 286.9,-502.15 291.85,-502.15 296.8,-507.1 296.8,-512.05 296.8,-512.05 296.8,-521.95 296.8,-521.95 296.8,-526.9 291.85,-531.85 286.9,-531.85"/>
<text text-anchor="middle" x="235.6" y="-519.7" font-family="Segoe UI" font-size="9.00" fill="#134e4a">LLM promptai</text>
<text text-anchor="middle" x="235.6" y="-508.45" font-family="Segoe UI" font-size="9.00" fill="#134e4a">+ QA Scorecards</text>
</g>
<!-- e4 -->
<g id="node5" class="node">
<title>e4</title>
<path fill="#f0fdfa" stroke="#0f766e" stroke-width="1.4" d="M286.9,-579.85C286.9,-579.85 184.3,-579.85 184.3,-579.85 179.35,-579.85 174.4,-574.9 174.4,-569.95 174.4,-569.95 174.4,-560.05 174.4,-560.05 174.4,-555.1 179.35,-550.15 184.3,-550.15 184.3,-550.15 286.9,-550.15 286.9,-550.15 291.85,-550.15 296.8,-555.1 296.8,-560.05 296.8,-560.05 296.8,-569.95 296.8,-569.95 296.8,-574.9 291.85,-579.85 286.9,-579.85"/>
<text text-anchor="middle" x="235.6" y="-567.7" font-family="Segoe UI" font-size="9.00" fill="#134e4a">Co&#45;Pilot + UI</text>
<text text-anchor="middle" x="235.6" y="-556.45" font-family="Segoe UI" font-size="9.00" fill="#134e4a">implementacija</text>
</g>
<!-- e5 -->
<g id="node6" class="node">
<title>e5</title>
<path fill="#f0fdfa" stroke="#0f766e" stroke-width="1.4" d="M286.9,-627.85C286.9,-627.85 184.3,-627.85 184.3,-627.85 179.35,-627.85 174.4,-622.9 174.4,-617.95 174.4,-617.95 174.4,-608.05 174.4,-608.05 174.4,-603.1 179.35,-598.15 184.3,-598.15 184.3,-598.15 286.9,-598.15 286.9,-598.15 291.85,-598.15 296.8,-603.1 296.8,-608.05 296.8,-608.05 296.8,-617.95 296.8,-617.95 296.8,-622.9 291.85,-627.85 286.9,-627.85"/>
<text text-anchor="middle" x="235.6" y="-615.7" font-family="Segoe UI" font-size="9.00" fill="#134e4a">ICP / KPI</text>
<text text-anchor="middle" x="235.6" y="-604.45" font-family="Segoe UI" font-size="9.00" fill="#134e4a">turinys (in&#45;house)</text>
</g>
<!-- n2 -->
<g id="node8" class="node">
<title>n2</title>
<path fill="#f0fdf4" stroke="#16a34a" stroke-width="1.4" d="M286.9,-338.85C286.9,-338.85 184.3,-338.85 184.3,-338.85 179.35,-338.85 174.4,-333.9 174.4,-328.95 174.4,-328.95 174.4,-319.05 174.4,-319.05 174.4,-314.1 179.35,-309.15 184.3,-309.15 184.3,-309.15 286.9,-309.15 286.9,-309.15 291.85,-309.15 296.8,-314.1 296.8,-319.05 296.8,-319.05 296.8,-328.95 296.8,-328.95 296.8,-333.9 291.85,-338.85 286.9,-338.85"/>
<text text-anchor="middle" x="235.6" y="-326.7" font-family="Segoe UI" font-size="9.00" fill="#14532d">Newo API</text>
<text text-anchor="middle" x="235.6" y="-315.45" font-family="Segoe UI" font-size="9.00" fill="#14532d">+ eskalacija</text>
</g>
<!-- n3 -->
<g id="node9" class="node">
<title>n3</title>
<path fill="#f0fdf4" stroke="#16a34a" stroke-width="1.4" d="M286.9,-386.85C286.9,-386.85 184.3,-386.85 184.3,-386.85 179.35,-386.85 174.4,-381.9 174.4,-376.95 174.4,-376.95 174.4,-367.05 174.4,-367.05 174.4,-362.1 179.35,-357.15 184.3,-357.15 184.3,-357.15 286.9,-357.15 286.9,-357.15 291.85,-357.15 296.8,-362.1 296.8,-367.05 296.8,-367.05 296.8,-376.95 296.8,-376.95 296.8,-381.9 291.85,-386.85 286.9,-386.85"/>
<text text-anchor="middle" x="235.6" y="-374.7" font-family="Segoe UI" font-size="9.00" fill="#14532d">WF5</text>
<text text-anchor="middle" x="235.6" y="-363.45" font-family="Segoe UI" font-size="9.00" fill="#14532d">Reconciliation</text>
</g>
<!-- d2 -->
<g id="node11" class="node">
<title>d2</title>
<path fill="#f0fdf4" stroke="#16a34a" stroke-width="1.4" d="M284.8,-241.47C284.8,-241.47 186.4,-241.47 186.4,-241.47 180.4,-241.47 174.4,-235.47 174.4,-229.47 174.4,-229.47 174.4,-212.53 174.4,-212.53 174.4,-206.53 180.4,-200.53 186.4,-200.53 186.4,-200.53 284.8,-200.53 284.8,-200.53 290.8,-200.53 296.8,-206.53 296.8,-212.53 296.8,-212.53 296.8,-229.47 296.8,-229.47 296.8,-235.47 290.8,-241.47 284.8,-241.47"/>
<text text-anchor="middle" x="235.6" y="-229.32" font-family="Segoe UI" font-size="9.00" fill="#14532d">Pre&#45;Call Brief</text>
<text text-anchor="middle" x="235.6" y="-218.07" font-family="Segoe UI" font-size="9.00" fill="#14532d">+ Command Center</text>
<text text-anchor="middle" x="235.6" y="-206.82" font-family="Segoe UI" font-size="9.00" fill="#14532d">Figma maketai</text>
</g>
<!-- t2 -->
<g id="node13" class="node">
<title>t2</title>
<path fill="#ecfdf5" stroke="#059669" stroke-width="1.4" d="M286.9,-85.85C286.9,-85.85 184.3,-85.85 184.3,-85.85 179.35,-85.85 174.4,-80.9 174.4,-75.95 174.4,-75.95 174.4,-66.05 174.4,-66.05 174.4,-61.1 179.35,-56.15 184.3,-56.15 184.3,-56.15 286.9,-56.15 286.9,-56.15 291.85,-56.15 296.8,-61.1 296.8,-66.05 296.8,-66.05 296.8,-75.95 296.8,-75.95 296.8,-80.9 291.85,-85.85 286.9,-85.85"/>
<text text-anchor="middle" x="235.6" y="-73.7" font-family="Segoe UI" font-size="9.00" fill="#064e3b">E2E UAT</text>
<text text-anchor="middle" x="235.6" y="-62.45" font-family="Segoe UI" font-size="9.00" fill="#064e3b">staging&#39;e</text>
</g>
<!-- t3 -->
<g id="node14" class="node">
<title>t3</title>
<path fill="#ecfdf5" stroke="#059669" stroke-width="1.4" d="M286.9,-133.85C286.9,-133.85 184.3,-133.85 184.3,-133.85 179.35,-133.85 174.4,-128.9 174.4,-123.95 174.4,-123.95 174.4,-114.05 174.4,-114.05 174.4,-109.1 179.35,-104.15 184.3,-104.15 184.3,-104.15 286.9,-104.15 286.9,-104.15 291.85,-104.15 296.8,-109.1 296.8,-114.05 296.8,-114.05 296.8,-123.95 296.8,-123.95 296.8,-128.9 291.85,-133.85 286.9,-133.85"/>
<text text-anchor="middle" x="235.6" y="-121.7" font-family="Segoe UI" font-size="9.00" fill="#064e3b">Delivery checklist</text>
<text text-anchor="middle" x="235.6" y="-110.45" font-family="Segoe UI" font-size="9.00" fill="#064e3b">+ handoff SOP</text>
</g>
</g>
</svg>
