<?xml version="1.0" encoding="UTF-8" standalone="no"?>
<!DOCTYPE svg PUBLIC "-//W3C//DTD SVG 1.1//EN"
 "http://www.w3.org/Graphics/SVG/1.1/DTD/svg11.dtd">
<!-- Generated by graphviz version 11.0.0 (20240428.1522)
 -->
<!-- Title: mvpDeleg Pages: 1 -->
<svg width="1107pt" height="627pt"
 viewBox="20.16 20.16 810.36 450.11" xmlns="http://www.w3.org/2000/svg" xmlns:xlink="http://www.w3.org/1999/xlink">
<g id="graph0" class="graph" transform="scale(1.33333 1.33333) rotate(0) translate(81.36 388.91)">
<title>mvpDeleg</title>
<polygon fill="white" stroke="none" points="-61.2,61.2 -61.2,-368.75 729,-368.75 729,61.2 -61.2,61.2"/>
<!-- e_h -->
<g id="node1" class="node">
<title>e_h</title>
<path fill="#dbeafe" stroke="#2563eb" stroke-width="2" d="M125.67,-307.55C125.67,-307.55 11.13,-307.55 11.13,-307.55 5.57,-307.55 0,-301.98 0,-296.42 0,-296.42 0,-285.28 0,-285.28 0,-279.72 5.57,-274.15 11.13,-274.15 11.13,-274.15 125.67,-274.15 125.67,-274.15 131.23,-274.15 136.8,-279.72 136.8,-285.28 136.8,-285.28 136.8,-296.42 136.8,-296.42 136.8,-301.98 131.23,-307.55 125.67,-307.55"/>
<text text-anchor="start" x="20.77" y="-290.9" font-family="Segoe UI" font-weight="bold" font-size="11.00" fill="#1e3a8a">Eimantas — 180 h</text>
<text text-anchor="start" x="13.27" y="-282.75" font-family="Segoe UI" font-size="8.00" fill="#1e3a8a">core + know&#45;how (in&#45;house)</text>
</g>
<!-- n_h -->
<g id="node2" class="node">
<title>n_h</title>
<path fill="#ccfbf1" stroke="#0f766e" stroke-width="2" d="M302.67,-307.55C302.67,-307.55 188.13,-307.55 188.13,-307.55 182.57,-307.55 177,-301.98 177,-296.42 177,-296.42 177,-285.28 177,-285.28 177,-279.72 182.57,-274.15 188.13,-274.15 188.13,-274.15 302.67,-274.15 302.67,-274.15 308.23,-274.15 313.8,-279.72 313.8,-285.28 313.8,-285.28 313.8,-296.42 313.8,-296.42 313.8,-301.98 308.23,-307.55 302.67,-307.55"/>
<text text-anchor="start" x="189.9" y="-290.9" font-family="Segoe UI" font-weight="bold" font-size="11.00" fill="#134e4a">External N8N — 52 h</text>
<text text-anchor="start" x="207.9" y="-282.75" font-family="Segoe UI" font-size="8.00" fill="#134e4a">tik n8n workflow&#39;ai</text>
</g>
<!-- e_h&#45;&gt;n_h -->
<!-- e1 -->
<g id="node5" class="node">
<title>e1</title>
<path fill="#eff6ff" stroke="#3b82f6" stroke-width="1.4" d="M125.94,-254.15C125.94,-254.15 10.86,-254.15 10.86,-254.15 5.43,-254.15 0,-248.72 0,-243.29 0,-243.29 0,-232.43 0,-232.43 0,-227 5.43,-221.57 10.86,-221.57 10.86,-221.57 125.94,-221.57 125.94,-221.57 131.37,-221.57 136.8,-227 136.8,-232.43 136.8,-232.43 136.8,-243.29 136.8,-243.29 136.8,-248.72 131.37,-254.15 125.94,-254.15"/>
<text text-anchor="middle" x="68.4" y="-240.56" font-family="Segoe UI" font-size="9.00" fill="#1e3a5f">Next.js karkasas</text>
<text text-anchor="middle" x="68.4" y="-229.31" font-family="Segoe UI" font-size="9.00" fill="#1e3a5f">+ Prisma schema</text>
</g>
<!-- e_h&#45;&gt;e1 -->
<g id="edge4" class="edge">
<title>e_h&#45;&gt;e1</title>
<path fill="none" stroke="#cbd5e1" d="M68.4,-273.15C68.4,-267.11 68.4,-260.32 68.4,-254.38"/>
</g>
<!-- d_h -->
<g id="node3" class="node">
<title>d_h</title>
<path fill="#cffafe" stroke="#0891b2" stroke-width="2" d="M479.67,-307.55C479.67,-307.55 365.13,-307.55 365.13,-307.55 359.57,-307.55 354,-301.98 354,-296.42 354,-296.42 354,-285.28 354,-285.28 354,-279.72 359.57,-274.15 365.13,-274.15 365.13,-274.15 479.67,-274.15 479.67,-274.15 485.23,-274.15 490.8,-279.72 490.8,-285.28 490.8,-285.28 490.8,-296.42 490.8,-296.42 490.8,-301.98 485.23,-307.55 479.67,-307.55"/>
<text text-anchor="start" x="369.15" y="-290.9" font-family="Segoe UI" font-weight="bold" font-size="11.00" fill="#164e63">External Dev — 14 h</text>
<text text-anchor="start" x="387.9" y="-282.75" font-family="Segoe UI" font-size="8.00" fill="#164e63">tik Figma dizainas</text>
</g>
<!-- n_h&#45;&gt;d_h -->
<!-- n1 -->
<g id="node10" class="node">
<title>n1</title>
<path fill="#f0fdfa" stroke="#0f766e" stroke-width="1.4" d="M302.94,-254.15C302.94,-254.15 187.86,-254.15 187.86,-254.15 182.43,-254.15 177,-248.72 177,-243.29 177,-243.29 177,-232.43 177,-232.43 177,-227 182.43,-221.57 187.86,-221.57 187.86,-221.57 302.94,-221.57 302.94,-221.57 308.37,-221.57 313.8,-227 313.8,-232.43 313.8,-232.43 313.8,-243.29 313.8,-243.29 313.8,-248.72 308.37,-254.15 302.94,-254.15"/>
<text text-anchor="middle" x="245.4" y="-240.56" font-family="Segoe UI" font-size="9.00" fill="#134e4a">Monday · Clockify</text>
<text text-anchor="middle" x="245.4" y="-229.31" font-family="Segoe UI" font-size="9.00" fill="#134e4a">· Ads API</text>
</g>
<!-- n_h&#45;&gt;n1 -->
<g id="edge9" class="edge">
<title>n_h&#45;&gt;n1</title>
<path fill="none" stroke="#cbd5e1" d="M245.4,-273.15C245.4,-267.11 245.4,-260.32 245.4,-254.38"/>
</g>
<!-- t_h -->
<g id="node4" class="node">
<title>t_h</title>
<path fill="#dcfce7" stroke="#16a34a" stroke-width="2" d="M656.67,-307.55C656.67,-307.55 542.13,-307.55 542.13,-307.55 536.57,-307.55 531,-301.98 531,-296.42 531,-296.42 531,-285.28 531,-285.28 531,-279.72 536.57,-274.15 542.13,-274.15 542.13,-274.15 656.67,-274.15 656.67,-274.15 662.23,-274.15 667.8,-279.72 667.8,-285.28 667.8,-285.28 667.8,-296.42 667.8,-296.42 667.8,-301.98 662.23,-307.55 656.67,-307.55"/>
<text text-anchor="start" x="557.4" y="-290.9" font-family="Segoe UI" font-weight="bold" font-size="11.00" fill="#14532d">Komanda — 9 h</text>
<text text-anchor="start" x="563.02" y="-282.75" font-family="Segoe UI" font-size="8.00" fill="#14532d">UAT + delivery SOP</text>
</g>
<!-- d_h&#45;&gt;t_h -->
<!-- d1 -->
<g id="node13" class="node">
<title>d1</title>
<path fill="#f0f9ff" stroke="#0891b2" stroke-width="1.4" d="M479.94,-254.15C479.94,-254.15 364.86,-254.15 364.86,-254.15 359.43,-254.15 354,-248.72 354,-243.29 354,-243.29 354,-232.43 354,-232.43 354,-227 359.43,-221.57 364.86,-221.57 364.86,-221.57 479.94,-221.57 479.94,-221.57 485.37,-221.57 490.8,-227 490.8,-232.43 490.8,-232.43 490.8,-243.29 490.8,-243.29 490.8,-248.72 485.37,-254.15 479.94,-254.15"/>
<text text-anchor="middle" x="422.4" y="-240.56" font-family="Segoe UI" font-size="9.00" fill="#164e63">Design System</text>
<text text-anchor="middle" x="422.4" y="-229.31" font-family="Segoe UI" font-size="9.00" fill="#164e63">+ Cockpit maketas</text>
</g>
<!-- d_h&#45;&gt;d1 -->
<g id="edge12" class="edge">
<title>d_h&#45;&gt;d1</title>
<path fill="none" stroke="#cbd5e1" d="M422.4,-273.15C422.4,-267.11 422.4,-260.32 422.4,-254.38"/>
</g>
<!-- t1 -->
<g id="node15" class="node">
<title>t1</title>
<path fill="#f0fdf4" stroke="#16a34a" stroke-width="1.4" d="M656.94,-254.15C656.94,-254.15 541.86,-254.15 541.86,-254.15 536.43,-254.15 531,-248.72 531,-243.29 531,-243.29 531,-232.43 531,-232.43 531,-227 536.43,-221.57 541.86,-221.57 541.86,-221.57 656.94,-221.57 656.94,-221.57 662.37,-221.57 667.8,-227 667.8,-232.43 667.8,-232.43 667.8,-243.29 667.8,-243.29 667.8,-248.72 662.37,-254.15 656.94,-254.15"/>
<text text-anchor="middle" x="599.4" y="-240.56" font-family="Segoe UI" font-size="9.00" fill="#14532d">QA scorecard</text>
<text text-anchor="middle" x="599.4" y="-229.31" font-family="Segoe UI" font-size="9.00" fill="#14532d">validacija</text>
</g>
<!-- t_h&#45;&gt;t1 -->
<g id="edge14" class="edge">
<title>t_h&#45;&gt;t1</title>
<path fill="none" stroke="#cbd5e1" d="M599.4,-273.15C599.4,-267.11 599.4,-260.32 599.4,-254.38"/>
</g>
<!-- e2 -->
<g id="node6" class="node">
<title>e2</title>
<path fill="#eff6ff" stroke="#3b82f6" stroke-width="1.4" d="M125.94,-195.94C125.94,-195.94 10.86,-195.94 10.86,-195.94 5.43,-195.94 0,-190.51 0,-185.09 0,-185.09 0,-174.22 0,-174.22 0,-168.8 5.43,-163.37 10.86,-163.37 10.86,-163.37 125.94,-163.37 125.94,-163.37 131.37,-163.37 136.8,-168.8 136.8,-174.22 136.8,-174.22 136.8,-185.09 136.8,-185.09 136.8,-190.51 131.37,-195.94 125.94,-195.94"/>
<text text-anchor="middle" x="68.4" y="-182.35" font-family="Segoe UI" font-size="9.00" fill="#1e3a5f">RAG + Vertex AI</text>
<text text-anchor="middle" x="68.4" y="-171.1" font-family="Segoe UI" font-size="9.00" fill="#1e3a5f">+ Strategic Brain</text>
</g>
<!-- e1&#45;&gt;e2 -->
<g id="edge5" class="edge">
<title>e1&#45;&gt;e2</title>
<path fill="none" stroke="#cbd5e1" d="M68.4,-221.2C68.4,-213.41 68.4,-204.01 68.4,-196.23"/>
</g>
<!-- e3 -->
<g id="node7" class="node">
<title>e3</title>
<path fill="#eff6ff" stroke="#3b82f6" stroke-width="1.4" d="M125.94,-137.74C125.94,-137.74 10.86,-137.74 10.86,-137.74 5.43,-137.74 0,-132.31 0,-126.88 0,-126.88 0,-116.02 0,-116.02 0,-110.59 5.43,-105.16 10.86,-105.16 10.86,-105.16 125.94,-105.16 125.94,-105.16 131.37,-105.16 136.8,-110.59 136.8,-116.02 136.8,-116.02 136.8,-126.88 136.8,-126.88 136.8,-132.31 131.37,-137.74 125.94,-137.74"/>
<text text-anchor="middle" x="68.4" y="-124.15" font-family="Segoe UI" font-size="9.00" fill="#1e3a5f">LLM promptai</text>
<text text-anchor="middle" x="68.4" y="-112.9" font-family="Segoe UI" font-size="9.00" fill="#1e3a5f">+ QA Scorecards</text>
</g>
<!-- e2&#45;&gt;e3 -->
<g id="edge6" class="edge">
<title>e2&#45;&gt;e3</title>
<path fill="none" stroke="#cbd5e1" d="M68.4,-163C68.4,-155.2 68.4,-145.81 68.4,-138.02"/>
</g>
<!-- e4 -->
<g id="node8" class="node">
<title>e4</title>
<path fill="#eff6ff" stroke="#3b82f6" stroke-width="1.4" d="M125.94,-85.16C125.94,-85.16 10.86,-85.16 10.86,-85.16 5.43,-85.16 0,-79.73 0,-74.3 0,-74.3 0,-63.44 0,-63.44 0,-58.01 5.43,-52.58 10.86,-52.58 10.86,-52.58 125.94,-52.58 125.94,-52.58 131.37,-52.58 136.8,-58.01 136.8,-63.44 136.8,-63.44 136.8,-74.3 136.8,-74.3 136.8,-79.73 131.37,-85.16 125.94,-85.16"/>
<text text-anchor="middle" x="68.4" y="-71.57" font-family="Segoe UI" font-size="9.00" fill="#1e3a5f">Co&#45;Pilot + UI</text>
<text text-anchor="middle" x="68.4" y="-60.32" font-family="Segoe UI" font-size="9.00" fill="#1e3a5f">implementacija</text>
</g>
<!-- e3&#45;&gt;e4 -->
<g id="edge7" class="edge">
<title>e3&#45;&gt;e4</title>
<path fill="none" stroke="#cbd5e1" d="M68.4,-104.72C68.4,-98.58 68.4,-91.54 68.4,-85.41"/>
</g>
<!-- e5 -->
<g id="node9" class="node">
<title>e5</title>
<path fill="#eff6ff" stroke="#3b82f6" stroke-width="1.4" d="M125.94,-32.58C125.94,-32.58 10.86,-32.58 10.86,-32.58 5.43,-32.58 0,-27.15 0,-21.72 0,-21.72 0,-10.86 0,-10.86 0,-5.43 5.43,0 10.86,0 10.86,0 125.94,0 125.94,0 131.37,0 136.8,-5.43 136.8,-10.86 136.8,-10.86 136.8,-21.72 136.8,-21.72 136.8,-27.15 131.37,-32.58 125.94,-32.58"/>
<text text-anchor="middle" x="68.4" y="-18.99" font-family="Segoe UI" font-size="9.00" fill="#1e3a5f">ICP / KPI turinys</text>
<text text-anchor="middle" x="68.4" y="-7.74" font-family="Segoe UI" font-size="9.00" fill="#1e3a5f">(in&#45;house)</text>
</g>
<!-- e4&#45;&gt;e5 -->
<g id="edge8" class="edge">
<title>e4&#45;&gt;e5</title>
<path fill="none" stroke="#cbd5e1" d="M68.4,-52.14C68.4,-46 68.4,-38.96 68.4,-32.83"/>
</g>
<!-- n2 -->
<g id="node11" class="node">
<title>n2</title>
<path fill="#f0fdfa" stroke="#0f766e" stroke-width="1.4" d="M302.94,-195.94C302.94,-195.94 187.86,-195.94 187.86,-195.94 182.43,-195.94 177,-190.51 177,-185.09 177,-185.09 177,-174.22 177,-174.22 177,-168.8 182.43,-163.37 187.86,-163.37 187.86,-163.37 302.94,-163.37 302.94,-163.37 308.37,-163.37 313.8,-168.8 313.8,-174.22 313.8,-174.22 313.8,-185.09 313.8,-185.09 313.8,-190.51 308.37,-195.94 302.94,-195.94"/>
<text text-anchor="middle" x="245.4" y="-182.35" font-family="Segoe UI" font-size="9.00" fill="#134e4a">Newo API</text>
<text text-anchor="middle" x="245.4" y="-171.1" font-family="Segoe UI" font-size="9.00" fill="#134e4a">+ eskalacija</text>
</g>
<!-- n1&#45;&gt;n2 -->
<g id="edge10" class="edge">
<title>n1&#45;&gt;n2</title>
<path fill="none" stroke="#cbd5e1" d="M245.4,-221.2C245.4,-213.41 245.4,-204.01 245.4,-196.23"/>
</g>
<!-- n3 -->
<g id="node12" class="node">
<title>n3</title>
<path fill="#f0fdfa" stroke="#0f766e" stroke-width="1.4" d="M302.94,-137.74C302.94,-137.74 187.86,-137.74 187.86,-137.74 182.43,-137.74 177,-132.31 177,-126.88 177,-126.88 177,-116.02 177,-116.02 177,-110.59 182.43,-105.16 187.86,-105.16 187.86,-105.16 302.94,-105.16 302.94,-105.16 308.37,-105.16 313.8,-110.59 313.8,-116.02 313.8,-116.02 313.8,-126.88 313.8,-126.88 313.8,-132.31 308.37,-137.74 302.94,-137.74"/>
<text text-anchor="middle" x="245.4" y="-124.15" font-family="Segoe UI" font-size="9.00" fill="#134e4a">WF5</text>
<text text-anchor="middle" x="245.4" y="-112.9" font-family="Segoe UI" font-size="9.00" fill="#134e4a">Reconciliation</text>
</g>
<!-- n2&#45;&gt;n3 -->
<g id="edge11" class="edge">
<title>n2&#45;&gt;n3</title>
<path fill="none" stroke="#cbd5e1" d="M245.4,-163C245.4,-155.2 245.4,-145.81 245.4,-138.02"/>
</g>
<!-- d2 -->
<g id="node14" class="node">
<title>d2</title>
<path fill="#f0f9ff" stroke="#0891b2" stroke-width="1.4" d="M478.8,-201.57C478.8,-201.57 366,-201.57 366,-201.57 360,-201.57 354,-195.57 354,-189.57 354,-189.57 354,-169.74 354,-169.74 354,-163.74 360,-157.74 366,-157.74 366,-157.74 478.8,-157.74 478.8,-157.74 484.8,-157.74 490.8,-163.74 490.8,-169.74 490.8,-169.74 490.8,-189.57 490.8,-189.57 490.8,-195.57 484.8,-201.57 478.8,-201.57"/>
<text text-anchor="middle" x="422.4" y="-187.98" font-family="Segoe UI" font-size="9.00" fill="#164e63">Pre&#45;Call Brief</text>
<text text-anchor="middle" x="422.4" y="-176.73" font-family="Segoe UI" font-size="9.00" fill="#164e63">+ Command Center</text>
<text text-anchor="middle" x="422.4" y="-165.48" font-family="Segoe UI" font-size="9.00" fill="#164e63">Figma maketai</text>
</g>
<!-- d1&#45;&gt;d2 -->
<g id="edge13" class="edge">
<title>d1&#45;&gt;d2</title>
<path fill="none" stroke="#cbd5e1" d="M422.4,-221.2C422.4,-215.23 422.4,-208.31 422.4,-201.9"/>
</g>
<!-- t2 -->
<g id="node16" class="node">
<title>t2</title>
<path fill="#f0fdf4" stroke="#16a34a" stroke-width="1.4" d="M656.94,-195.94C656.94,-195.94 541.86,-195.94 541.86,-195.94 536.43,-195.94 531,-190.51 531,-185.09 531,-185.09 531,-174.22 531,-174.22 531,-168.8 536.43,-163.37 541.86,-163.37 541.86,-163.37 656.94,-163.37 656.94,-163.37 662.37,-163.37 667.8,-168.8 667.8,-174.22 667.8,-174.22 667.8,-185.09 667.8,-185.09 667.8,-190.51 662.37,-195.94 656.94,-195.94"/>
<text text-anchor="middle" x="599.4" y="-182.35" font-family="Segoe UI" font-size="9.00" fill="#14532d">E2E UAT</text>
<text text-anchor="middle" x="599.4" y="-171.1" font-family="Segoe UI" font-size="9.00" fill="#14532d">staging&#39;e</text>
</g>
<!-- t1&#45;&gt;t2 -->
<g id="edge15" class="edge">
<title>t1&#45;&gt;t2</title>
<path fill="none" stroke="#cbd5e1" d="M599.4,-221.2C599.4,-213.41 599.4,-204.01 599.4,-196.23"/>
</g>
<!-- t3 -->
<g id="node17" class="node">
<title>t3</title>
<path fill="#f0fdf4" stroke="#16a34a" stroke-width="1.4" d="M656.94,-137.74C656.94,-137.74 541.86,-137.74 541.86,-137.74 536.43,-137.74 531,-132.31 531,-126.88 531,-126.88 531,-116.02 531,-116.02 531,-110.59 536.43,-105.16 541.86,-105.16 541.86,-105.16 656.94,-105.16 656.94,-105.16 662.37,-105.16 667.8,-110.59 667.8,-116.02 667.8,-116.02 667.8,-126.88 667.8,-126.88 667.8,-132.31 662.37,-137.74 656.94,-137.74"/>
<text text-anchor="middle" x="599.4" y="-124.15" font-family="Segoe UI" font-size="9.00" fill="#14532d">Delivery checklist</text>
<text text-anchor="middle" x="599.4" y="-112.9" font-family="Segoe UI" font-size="9.00" fill="#14532d">+ handoff SOP</text>
</g>
<!-- t2&#45;&gt;t3 -->
<g id="edge16" class="edge">
<title>t2&#45;&gt;t3</title>
<path fill="none" stroke="#cbd5e1" d="M599.4,-163C599.4,-155.2 599.4,-145.81 599.4,-138.02"/>
</g>
</g>
</svg>
