<?xml version="1.0" encoding="UTF-8" standalone="no"?>
<!DOCTYPE svg PUBLIC "-//W3C//DTD SVG 1.1//EN"
 "http://www.w3.org/Graphics/SVG/1.1/DTD/svg11.dtd">
<!-- Generated by graphviz version 11.0.0 (20240428.1522)
 -->
<!-- Title: newo Pages: 1 -->
<svg width="734pt" height="1152pt"
 viewBox="20.16 20.16 529.97 843.51" xmlns="http://www.w3.org/2000/svg" xmlns:xlink="http://www.w3.org/1999/xlink">
<g id="graph0" class="graph" transform="scale(1.33333 1.33333) rotate(0) translate(81.36 782.31)">
<title>newo</title>
<polygon fill="white" stroke="none" points="-61.2,61.2 -61.2,-762.15 448.61,-762.15 448.61,61.2 -61.2,61.2"/>
<!-- st -->
<g id="node1" class="node">
<title>st</title>
<path fill="#f5f3ff" stroke="#7c3aed" stroke-width="1.4" d="M160.94,-700.95C160.94,-700.95 89.47,-700.95 89.47,-700.95 84.67,-700.95 79.88,-696.15 79.88,-691.35 79.88,-691.35 79.88,-681.75 79.88,-681.75 79.88,-676.95 84.67,-672.15 89.47,-672.15 89.47,-672.15 160.94,-672.15 160.94,-672.15 165.74,-672.15 170.53,-676.95 170.53,-681.75 170.53,-681.75 170.53,-691.35 170.53,-691.35 170.53,-696.15 165.74,-700.95 160.94,-700.95"/>
<text text-anchor="middle" x="125.2" y="-683.42" font-family="Segoe UI" font-size="10.00" fill="#4c1d95">Newo Skambina</text>
</g>
<!-- gr -->
<g id="node2" class="node">
<title>gr</title>
<path fill="#f9fafb" stroke="#6b7280" stroke-width="1.4" d="M158.69,-636.15C158.69,-636.15 91.72,-636.15 91.72,-636.15 86.92,-636.15 82.12,-631.35 82.12,-626.55 82.12,-626.55 82.12,-616.95 82.12,-616.95 82.12,-612.15 86.92,-607.35 91.72,-607.35 91.72,-607.35 158.69,-607.35 158.69,-607.35 163.49,-607.35 168.28,-612.15 168.28,-616.95 168.28,-616.95 168.28,-626.55 168.28,-626.55 168.28,-631.35 163.49,-636.15 158.69,-636.15"/>
<text text-anchor="middle" x="125.2" y="-618.62" font-family="Segoe UI" font-size="10.00" fill="#1f2937">Pasisveikinimas</text>
</g>
<!-- st&#45;&gt;gr -->
<g id="edge1" class="edge">
<title>st&#45;&gt;gr</title>
<path fill="none" stroke="#94a3b8" stroke-width="1.4" d="M125.2,-671.92C125.2,-663.86 125.2,-653.46 125.2,-644.31"/>
<polygon fill="#94a3b8" stroke="#94a3b8" stroke-width="1.4" points="127.31,-644.47 125.21,-638.47 123.11,-644.47 127.31,-644.47"/>
</g>
<!-- sent -->
<g id="node3" class="node">
<title>sent</title>
<path fill="#fefce8" stroke="#ca8a04" stroke-width="1.4" d="M114.86,-565.26C114.86,-565.26 77.77,-543.42 77.77,-543.42 72.6,-540.37 72.6,-534.29 77.77,-531.24 77.77,-531.24 114.86,-509.4 114.86,-509.4 120.03,-506.35 130.38,-506.35 135.55,-509.4 135.55,-509.4 172.64,-531.24 172.64,-531.24 177.81,-534.29 177.81,-540.37 172.64,-543.42 172.64,-543.42 135.55,-565.26 135.55,-565.26 130.38,-568.31 120.03,-568.31 114.86,-565.26"/>
<text text-anchor="middle" x="125.2" y="-540.03" font-family="Segoe UI" font-size="9.00" fill="#713f12">Sentiment</text>
<text text-anchor="middle" x="125.2" y="-528.78" font-family="Segoe UI" font-size="9.00" fill="#713f12">Analizė</text>
</g>
<!-- gr&#45;&gt;sent -->
<g id="edge2" class="edge">
<title>gr&#45;&gt;sent</title>
<path fill="none" stroke="#94a3b8" stroke-width="1.4" d="M125.2,-607.14C125.2,-599.56 125.2,-589.68 125.2,-579.79"/>
<polygon fill="#94a3b8" stroke="#94a3b8" stroke-width="1.4" points="127.31,-580.01 125.21,-574.01 123.11,-580.01 127.31,-580.01"/>
</g>
<!-- esc -->
<g id="node4" class="node">
<title>esc</title>
<path fill="#fef2f2" stroke="#dc2626" stroke-width="1.4" d="M76.55,-441.33C76.55,-441.33 11.86,-441.33 11.86,-441.33 5.93,-441.33 0,-435.4 0,-429.47 0,-429.47 0,-417.61 0,-417.61 0,-411.68 5.93,-405.75 11.86,-405.75 11.86,-405.75 76.55,-405.75 76.55,-405.75 82.48,-405.75 88.41,-411.68 88.41,-417.61 88.41,-417.61 88.41,-429.47 88.41,-429.47 88.41,-435.4 82.48,-441.33 76.55,-441.33"/>
<text text-anchor="middle" x="44.2" y="-426.79" font-family="Segoe UI" font-size="10.00" fill="#7f1d1d">ESKALACIJA:</text>
<text text-anchor="middle" x="44.2" y="-414.04" font-family="Segoe UI" font-size="10.00" fill="#7f1d1d">Perduoti Lauriui</text>
</g>
<!-- sent&#45;&gt;esc -->
<g id="edge3" class="edge">
<title>sent&#45;&gt;esc</title>
<path fill="none" stroke="#94a3b8" stroke-width="1.4" d="M108.22,-512.9C94.39,-493.8 74.94,-466.96 61.12,-447.89"/>
<polygon fill="#94a3b8" stroke="#94a3b8" stroke-width="1.4" points="63.13,-447.08 57.91,-443.46 59.73,-449.55 63.13,-447.08"/>
<text text-anchor="middle" x="106.08" y="-477.71" font-family="Segoe UI" font-size="8.00" fill="#64748b">Neigiamas</text>
</g>
<!-- q1 -->
<g id="node6" class="node">
<title>q1</title>
<path fill="#fefce8" stroke="#ca8a04" stroke-width="1.4" d="M195,-453.26C195,-453.26 128.88,-427.84 128.88,-427.84 123.28,-425.69 123.28,-421.39 128.88,-419.24 128.88,-419.24 195,-393.82 195,-393.82 200.6,-391.67 211.81,-391.67 217.41,-393.82 217.41,-393.82 283.53,-419.24 283.53,-419.24 289.13,-421.39 289.13,-425.69 283.53,-427.84 283.53,-427.84 217.41,-453.26 217.41,-453.26 211.81,-455.41 200.6,-455.41 195,-453.26"/>
<text text-anchor="middle" x="206.2" y="-426.24" font-family="Segoe UI" font-size="9.00" fill="#713f12">Domina</text>
<text text-anchor="middle" x="206.2" y="-414.99" font-family="Segoe UI" font-size="9.00" fill="#713f12">automatizavimas?</text>
</g>
<!-- sent&#45;&gt;q1 -->
<g id="edge5" class="edge">
<title>sent&#45;&gt;q1</title>
<path fill="none" stroke="#94a3b8" stroke-width="1.4" d="M142.19,-512.9C153.92,-496.7 169.68,-474.94 182.63,-457.07"/>
<polygon fill="#94a3b8" stroke="#94a3b8" stroke-width="1.4" points="184.2,-458.49 186.02,-452.4 180.8,-456.02 184.2,-458.49"/>
<text text-anchor="middle" x="192.7" y="-477.71" font-family="Segoe UI" font-size="8.00" fill="#64748b">Neutralus / +</text>
</g>
<!-- mesc -->
<g id="node5" class="node">
<title>mesc</title>
<path fill="#fff7ed" stroke="#ea580c" stroke-width="1.4" d="M72.05,-343.77C72.05,-343.77 16.36,-343.77 16.36,-343.77 10.43,-343.77 4.5,-337.84 4.5,-331.91 4.5,-331.91 4.5,-320.05 4.5,-320.05 4.5,-314.12 10.43,-308.19 16.36,-308.19 16.36,-308.19 72.05,-308.19 72.05,-308.19 77.98,-308.19 83.91,-314.12 83.91,-320.05 83.91,-320.05 83.91,-331.91 83.91,-331.91 83.91,-337.84 77.98,-343.77 72.05,-343.77"/>
<text text-anchor="middle" x="44.2" y="-329.23" font-family="Segoe UI" font-size="10.00" fill="#7c2d12">Monday.com:</text>
<text text-anchor="middle" x="44.2" y="-316.48" font-family="Segoe UI" font-size="10.00" fill="#7c2d12">Urgent Flag</text>
</g>
<!-- esc&#45;&gt;mesc -->
<g id="edge4" class="edge">
<title>esc&#45;&gt;mesc</title>
<path fill="none" stroke="#94a3b8" stroke-width="1.4" d="M44.2,-405.46C44.2,-390.6 44.2,-368.88 44.2,-352.05"/>
<polygon fill="#94a3b8" stroke="#94a3b8" stroke-width="1.4" points="46.31,-352.36 44.21,-346.36 42.11,-352.36 46.31,-352.36"/>
</g>
<!-- nl -->
<g id="node7" class="node">
<title>nl</title>
<path fill="#f9fafb" stroke="#6b7280" stroke-width="1.4" d="M179.3,-343.77C179.3,-343.77 131.11,-343.77 131.11,-343.77 125.18,-343.77 119.25,-337.84 119.25,-331.91 119.25,-331.91 119.25,-320.05 119.25,-320.05 119.25,-314.12 125.18,-308.19 131.11,-308.19 131.11,-308.19 179.3,-308.19 179.3,-308.19 185.23,-308.19 191.16,-314.12 191.16,-320.05 191.16,-320.05 191.16,-331.91 191.16,-331.91 191.16,-337.84 185.23,-343.77 179.3,-343.77"/>
<text text-anchor="middle" x="155.2" y="-329.23" font-family="Segoe UI" font-size="10.00" fill="#1f2937">Pasiūlyti</text>
<text text-anchor="middle" x="155.2" y="-316.48" font-family="Segoe UI" font-size="10.00" fill="#1f2937">naujienlaiškį</text>
</g>
<!-- q1&#45;&gt;nl -->
<g id="edge6" class="edge">
<title>q1&#45;&gt;nl</title>
<path fill="none" stroke="#94a3b8" stroke-width="1.4" d="M191.45,-394.9C184.06,-381.04 175.18,-364.41 168.07,-351.08"/>
<polygon fill="#94a3b8" stroke="#94a3b8" stroke-width="1.4" points="169.99,-350.22 165.31,-345.92 166.28,-352.2 169.99,-350.22"/>
<text text-anchor="middle" x="182.45" y="-363.92" font-family="Segoe UI" font-size="8.00" fill="#64748b">Ne</text>
</g>
<!-- pi -->
<g id="node9" class="node">
<title>pi</title>
<path fill="#f5f3ff" stroke="#7c3aed" stroke-width="1.4" d="M286.61,-340.38C286.61,-340.38 251.8,-340.38 251.8,-340.38 247,-340.38 242.2,-335.58 242.2,-330.78 242.2,-330.78 242.2,-321.18 242.2,-321.18 242.2,-316.38 247,-311.58 251.8,-311.58 251.8,-311.58 286.61,-311.58 286.61,-311.58 291.4,-311.58 296.2,-316.38 296.2,-321.18 296.2,-321.18 296.2,-330.78 296.2,-330.78 296.2,-335.58 291.4,-340.38 286.61,-340.38"/>
<text text-anchor="middle" x="269.2" y="-322.86" font-family="Segoe UI" font-size="10.00" fill="#4c1d95">AI Pitch</text>
</g>
<!-- q1&#45;&gt;pi -->
<g id="edge8" class="edge">
<title>q1&#45;&gt;pi</title>
<path fill="none" stroke="#94a3b8" stroke-width="1.4" d="M223.75,-395.92C233.89,-380.54 246.44,-361.5 255.79,-347.33"/>
<polygon fill="#94a3b8" stroke="#94a3b8" stroke-width="1.4" points="257.38,-348.74 258.93,-342.57 253.87,-346.42 257.38,-348.74"/>
<text text-anchor="middle" x="252.08" y="-363.92" font-family="Segoe UI" font-size="8.00" fill="#64748b">Taip</text>
</g>
<!-- mn -->
<g id="node8" class="node">
<title>mn</title>
<path fill="#fff7ed" stroke="#ea580c" stroke-width="1.4" d="M187.18,-252.57C187.18,-252.57 111.22,-252.57 111.22,-252.57 106.42,-252.57 101.62,-247.77 101.62,-242.97 101.62,-242.97 101.62,-233.37 101.62,-233.37 101.62,-228.57 106.42,-223.77 111.22,-223.77 111.22,-223.77 187.18,-223.77 187.18,-223.77 191.98,-223.77 196.78,-228.57 196.78,-233.37 196.78,-233.37 196.78,-242.97 196.78,-242.97 196.78,-247.77 191.98,-252.57 187.18,-252.57"/>
<text text-anchor="middle" x="149.2" y="-235.05" font-family="Segoe UI" font-size="10.00" fill="#7c2d12">Monday: Nurture</text>
</g>
<!-- nl&#45;&gt;mn -->
<g id="edge7" class="edge">
<title>nl&#45;&gt;mn</title>
<path fill="none" stroke="#94a3b8" stroke-width="1.4" d="M154.02,-308.03C153.08,-294.55 151.75,-275.61 150.73,-261"/>
<polygon fill="#94a3b8" stroke="#94a3b8" stroke-width="1.4" points="152.83,-260.93 150.32,-255.09 148.64,-261.22 152.83,-260.93"/>
</g>
<!-- q2 -->
<g id="node10" class="node">
<title>q2</title>
<path fill="#fefce8" stroke="#ca8a04" stroke-width="1.4" d="M275.73,-266.33C275.73,-266.33 235.9,-244.03 235.9,-244.03 230.66,-241.1 230.66,-235.24 235.9,-232.31 235.9,-232.31 275.73,-210.01 275.73,-210.01 280.97,-207.08 291.44,-207.08 296.68,-210.01 296.68,-210.01 336.51,-232.31 336.51,-232.31 341.75,-235.24 341.75,-241.1 336.51,-244.03 336.51,-244.03 296.68,-266.33 296.68,-266.33 291.44,-269.26 280.97,-269.26 275.73,-266.33"/>
<text text-anchor="middle" x="286.2" y="-240.87" font-family="Segoe UI" font-size="9.00" fill="#713f12">15 min ROI</text>
<text text-anchor="middle" x="286.2" y="-229.62" font-family="Segoe UI" font-size="9.00" fill="#713f12">sesijai?</text>
</g>
<!-- pi&#45;&gt;q2 -->
<g id="edge9" class="edge">
<title>pi&#45;&gt;q2</title>
<path fill="none" stroke="#94a3b8" stroke-width="1.4" d="M271.94,-311.19C273.77,-301.94 276.28,-289.28 278.68,-277.14"/>
<polygon fill="#94a3b8" stroke="#94a3b8" stroke-width="1.4" points="280.72,-277.66 279.83,-271.36 276.6,-276.84 280.72,-277.66"/>
</g>
<!-- fu -->
<g id="node11" class="node">
<title>fu</title>
<path fill="#f9fafb" stroke="#6b7280" stroke-width="1.4" d="M250.31,-158.4C250.31,-158.4 184.1,-158.4 184.1,-158.4 179.3,-158.4 174.5,-153.6 174.5,-148.8 174.5,-148.8 174.5,-139.2 174.5,-139.2 174.5,-134.4 179.3,-129.6 184.1,-129.6 184.1,-129.6 250.31,-129.6 250.31,-129.6 255.11,-129.6 259.91,-134.4 259.91,-139.2 259.91,-139.2 259.91,-148.8 259.91,-148.8 259.91,-153.6 255.11,-158.4 250.31,-158.4"/>
<text text-anchor="middle" x="217.2" y="-140.88" font-family="Segoe UI" font-size="10.00" fill="#1f2937">Follow&#45;up data</text>
</g>
<!-- q2&#45;&gt;fu -->
<g id="edge10" class="edge">
<title>q2&#45;&gt;fu</title>
<path fill="none" stroke="#94a3b8" stroke-width="1.4" d="M268.79,-213.91C257.51,-198.84 242.96,-179.4 232.19,-165.01"/>
<polygon fill="#94a3b8" stroke="#94a3b8" stroke-width="1.4" points="234.08,-164.03 228.8,-160.49 230.71,-166.55 234.08,-164.03"/>
<text text-anchor="middle" x="252.45" y="-178.55" font-family="Segoe UI" font-size="8.00" fill="#64748b">Ne</text>
</g>
<!-- cal -->
<g id="node13" class="node">
<title>cal</title>
<path fill="#f0fdfa" stroke="#0f766e" stroke-width="1.4" d="M377.31,-158.4C377.31,-158.4 299.1,-158.4 299.1,-158.4 294.3,-158.4 289.5,-153.6 289.5,-148.8 289.5,-148.8 289.5,-139.2 289.5,-139.2 289.5,-134.4 294.3,-129.6 299.1,-129.6 299.1,-129.6 377.31,-129.6 377.31,-129.6 382.11,-129.6 386.91,-134.4 386.91,-139.2 386.91,-139.2 386.91,-148.8 386.91,-148.8 386.91,-153.6 382.11,-158.4 377.31,-158.4"/>
<text text-anchor="middle" x="338.2" y="-140.88" font-family="Segoe UI" font-size="10.00" fill="#134e4a">Tikrinti kalendorių</text>
</g>
<!-- q2&#45;&gt;cal -->
<g id="edge12" class="edge">
<title>q2&#45;&gt;cal</title>
<path fill="none" stroke="#94a3b8" stroke-width="1.4" d="M300.41,-211.98C308.66,-197.37 318.91,-179.2 326.66,-165.47"/>
<polygon fill="#94a3b8" stroke="#94a3b8" stroke-width="1.4" points="328.29,-166.84 329.41,-160.58 324.64,-164.78 328.29,-166.84"/>
<text text-anchor="middle" x="327.08" y="-178.55" font-family="Segoe UI" font-size="8.00" fill="#64748b">Taip</text>
</g>
<!-- mfu -->
<g id="node12" class="node">
<title>mfu</title>
<path fill="#fff7ed" stroke="#ea580c" stroke-width="1.4" d="M256.68,-93.6C256.68,-93.6 171.73,-93.6 171.73,-93.6 166.93,-93.6 162.12,-88.8 162.12,-84 162.12,-84 162.12,-74.4 162.12,-74.4 162.12,-69.6 166.93,-64.8 171.72,-64.8 171.72,-64.8 256.68,-64.8 256.68,-64.8 261.48,-64.8 266.28,-69.6 266.28,-74.4 266.28,-74.4 266.28,-84 266.28,-84 266.28,-88.8 261.48,-93.6 256.68,-93.6"/>
<text text-anchor="middle" x="214.2" y="-76.07" font-family="Segoe UI" font-size="10.00" fill="#7c2d12">Monday: Follow&#45;up</text>
</g>
<!-- fu&#45;&gt;mfu -->
<g id="edge11" class="edge">
<title>fu&#45;&gt;mfu</title>
<path fill="none" stroke="#94a3b8" stroke-width="1.4" d="M216.55,-129.37C216.17,-121.31 215.67,-110.91 215.23,-101.76"/>
<polygon fill="#94a3b8" stroke="#94a3b8" stroke-width="1.4" points="217.34,-101.81 214.96,-95.92 213.14,-102.01 217.34,-101.81"/>
</g>
<!-- of -->
<g id="node14" class="node">
<title>of</title>
<path fill="#f0fdfa" stroke="#0f766e" stroke-width="1.4" d="M375.56,-93.6C375.56,-93.6 304.85,-93.6 304.85,-93.6 300.05,-93.6 295.25,-88.8 295.25,-84 295.25,-84 295.25,-74.4 295.25,-74.4 295.25,-69.6 300.05,-64.8 304.85,-64.8 304.85,-64.8 375.56,-64.8 375.56,-64.8 380.36,-64.8 385.16,-69.6 385.16,-74.4 385.16,-74.4 385.16,-84 385.16,-84 385.16,-88.8 380.36,-93.6 375.56,-93.6"/>
<text text-anchor="middle" x="340.2" y="-76.07" font-family="Segoe UI" font-size="10.00" fill="#134e4a">Pasiūlyti 2 laikus</text>
</g>
<!-- cal&#45;&gt;of -->
<g id="edge13" class="edge">
<title>cal&#45;&gt;of</title>
<path fill="none" stroke="#94a3b8" stroke-width="1.4" d="M338.64,-129.37C338.9,-121.31 339.23,-110.91 339.52,-101.76"/>
<polygon fill="#94a3b8" stroke="#94a3b8" stroke-width="1.4" points="341.61,-101.98 339.7,-95.92 337.41,-101.85 341.61,-101.98"/>
</g>
<!-- bk -->
<g id="node15" class="node">
<title>bk</title>
<path fill="#ecfdf5" stroke="#059669" stroke-width="1.4" d="M377.81,-28.8C377.81,-28.8 302.6,-28.8 302.6,-28.8 297.8,-28.8 293,-24 293,-19.2 293,-19.2 293,-9.6 293,-9.6 293,-4.8 297.8,0 302.6,0 302.6,0 377.81,0 377.81,0 382.61,0 387.41,-4.8 387.41,-9.6 387.41,-9.6 387.41,-19.2 387.41,-19.2 387.41,-24 382.61,-28.8 377.81,-28.8"/>
<text text-anchor="middle" x="340.2" y="-11.27" font-family="Segoe UI" font-size="10.00" fill="#064e3b">Sukurti susitikimą</text>
</g>
<!-- of&#45;&gt;bk -->
<g id="edge14" class="edge">
<title>of&#45;&gt;bk</title>
<path fill="none" stroke="#94a3b8" stroke-width="1.4" d="M340.2,-64.57C340.2,-56.51 340.2,-46.11 340.2,-36.96"/>
<polygon fill="#94a3b8" stroke="#94a3b8" stroke-width="1.4" points="342.31,-37.12 340.21,-31.12 338.11,-37.12 342.31,-37.12"/>
</g>
</g>
</svg>
