<?xml version="1.0" encoding="UTF-8" standalone="no"?>
<!DOCTYPE svg PUBLIC "-//W3C//DTD SVG 1.1//EN"
 "http://www.w3.org/Graphics/SVG/1.1/DTD/svg11.dtd">
<!-- Generated by graphviz version 11.0.0 (20240428.1522)
 -->
<!-- Title: pdfVsAuto Pages: 1 -->
<svg width="1365pt" height="309pt"
 viewBox="20.16 20.16 1003.31 211.56" xmlns="http://www.w3.org/2000/svg" xmlns:xlink="http://www.w3.org/1999/xlink">
<g id="graph0" class="graph" transform="scale(1.33333 1.33333) rotate(0) translate(81.36 150.36)">
<title>pdfVsAuto</title>
<polygon fill="white" stroke="none" points="-61.2,61.2 -61.2,-130.2 921.95,-130.2 921.95,61.2 -61.2,61.2"/>
<g id="clust1" class="cluster">
<title>cluster_sop</title>
<path fill="white" stroke="#fca5a5" stroke-dasharray="5,2" d="M20,-8C20,-8 366,-8 366,-8 372,-8 378,-14 378,-20 378,-20 378,-49 378,-49 378,-55 372,-61 366,-61 366,-61 20,-61 20,-61 14,-61 8,-55 8,-49 8,-49 8,-20 8,-20 8,-14 14,-8 20,-8"/>
<text text-anchor="middle" x="193" y="-47.5" font-family="Segoe UI" font-size="10.00" fill="#991b1b">SOP PDF — rankinis E2E</text>
</g>
<g id="clust2" class="cluster">
<title>cluster_os</title>
<path fill="white" stroke="#86efac" stroke-dasharray="5,2" d="M494.75,-8C494.75,-8 840.75,-8 840.75,-8 846.75,-8 852.75,-14 852.75,-20 852.75,-20 852.75,-49 852.75,-49 852.75,-55 846.75,-61 840.75,-61 840.75,-61 494.75,-61 494.75,-61 488.75,-61 482.75,-55 482.75,-49 482.75,-49 482.75,-20 482.75,-20 482.75,-14 488.75,-8 494.75,-8"/>
<text text-anchor="middle" x="667.75" y="-47.5" font-family="Segoe UI" font-size="10.00" fill="#14532d">DIPA OS</text>
</g>
<!-- s1 -->
<g id="node1" class="node">
<title>s1</title>
<path fill="#fef2f2" stroke="#ef4444" stroke-width="1.4" d="M87.2,-40.2C87.2,-40.2 18.8,-40.2 18.8,-40.2 13.4,-40.2 8,-34.8 8,-29.4 8,-29.4 8,-18.6 8,-18.6 8,-13.2 13.4,-7.8 18.8,-7.8 18.8,-7.8 87.2,-7.8 87.2,-7.8 92.6,-7.8 98,-13.2 98,-18.6 98,-18.6 98,-29.4 98,-29.4 98,-34.8 92.6,-40.2 87.2,-40.2"/>
<text text-anchor="middle" x="53" y="-21.07" font-family="Segoe UI" font-size="9.00" fill="#991b1b">Ads / formos</text>
</g>
<!-- s2 -->
<g id="node2" class="node">
<title>s2</title>
<path fill="#fef2f2" stroke="#ef4444" stroke-width="1.4" d="M227.2,-40.2C227.2,-40.2 158.8,-40.2 158.8,-40.2 153.4,-40.2 148,-34.8 148,-29.4 148,-29.4 148,-18.6 148,-18.6 148,-13.2 153.4,-7.8 158.8,-7.8 158.8,-7.8 227.2,-7.8 227.2,-7.8 232.6,-7.8 238,-13.2 238,-18.6 238,-18.6 238,-29.4 238,-29.4 238,-34.8 232.6,-40.2 227.2,-40.2"/>
<text text-anchor="middle" x="193" y="-26.7" font-family="Segoe UI" font-size="9.00" fill="#991b1b">Monday ranka</text>
<text text-anchor="middle" x="193" y="-15.45" font-family="Segoe UI" font-size="9.00" fill="#991b1b">+ cold lead</text>
</g>
<!-- s1&#45;&gt;s2 -->
<g id="edge1" class="edge">
<title>s1&#45;&gt;s2</title>
<path fill="none" stroke="#94a3b8" stroke-width="1.4" d="M98.42,-24C111.6,-24 126.14,-24 139.76,-24"/>
<polygon fill="#94a3b8" stroke="#94a3b8" stroke-width="1.4" points="139.54,-26.1 145.54,-24 139.54,-21.9 139.54,-26.1"/>
</g>
<!-- s3 -->
<g id="node3" class="node">
<title>s3</title>
<path fill="#fef2f2" stroke="#ef4444" stroke-width="1.4" d="M367.2,-40.2C367.2,-40.2 298.8,-40.2 298.8,-40.2 293.4,-40.2 288,-34.8 288,-29.4 288,-29.4 288,-18.6 288,-18.6 288,-13.2 293.4,-7.8 298.8,-7.8 298.8,-7.8 367.2,-7.8 367.2,-7.8 372.6,-7.8 378,-13.2 378,-18.6 378,-18.6 378,-29.4 378,-29.4 378,-34.8 372.6,-40.2 367.2,-40.2"/>
<text text-anchor="middle" x="333" y="-26.7" font-family="Segoe UI" font-size="9.00" fill="#991b1b">Google + ROI</text>
<text text-anchor="middle" x="333" y="-15.45" font-family="Segoe UI" font-size="9.00" fill="#991b1b">+ Excel</text>
</g>
<!-- s2&#45;&gt;s3 -->
<g id="edge2" class="edge">
<title>s2&#45;&gt;s3</title>
<path fill="none" stroke="#94a3b8" stroke-width="1.4" d="M238.42,-24C251.6,-24 266.14,-24 279.76,-24"/>
<polygon fill="#94a3b8" stroke="#94a3b8" stroke-width="1.4" points="279.54,-26.1 285.54,-24 279.54,-21.9 279.54,-26.1"/>
</g>
<!-- o1 -->
<g id="node4" class="node">
<title>o1</title>
<path fill="#f0fdfa" stroke="#0f766e" stroke-width="1.4" d="M561.95,-40.2C561.95,-40.2 493.55,-40.2 493.55,-40.2 488.15,-40.2 482.75,-34.8 482.75,-29.4 482.75,-29.4 482.75,-18.6 482.75,-18.6 482.75,-13.2 488.15,-7.8 493.55,-7.8 493.55,-7.8 561.95,-7.8 561.95,-7.8 567.35,-7.8 572.75,-13.2 572.75,-18.6 572.75,-18.6 572.75,-29.4 572.75,-29.4 572.75,-34.8 567.35,-40.2 561.95,-40.2"/>
<text text-anchor="middle" x="527.75" y="-26.7" font-family="Segoe UI" font-size="9.00" fill="#134e4a">Ingest</text>
<text text-anchor="middle" x="527.75" y="-15.45" font-family="Segoe UI" font-size="9.00" fill="#134e4a">+ RAG</text>
</g>
<!-- s3&#45;&gt;o1 -->
<g id="edge5" class="edge">
<title>s3&#45;&gt;o1</title>
<path fill="none" stroke="#0f766e" stroke-width="1.4" stroke-dasharray="5,2" d="M378.22,-24C406.89,-24 444.37,-24 474.51,-24"/>
<polygon fill="#0f766e" stroke="#0f766e" stroke-width="1.4" points="474.28,-26.1 480.28,-24 474.28,-21.9 474.28,-26.1"/>
<text text-anchor="middle" x="430.38" y="-26.15" font-family="Segoe UI" font-size="8.00" fill="#64748b">transformacija</text>
</g>
<!-- o2 -->
<g id="node5" class="node">
<title>o2</title>
<path fill="#f5f3ff" stroke="#7c3aed" stroke-width="1.4" d="M701.95,-40.2C701.95,-40.2 633.55,-40.2 633.55,-40.2 628.15,-40.2 622.75,-34.8 622.75,-29.4 622.75,-29.4 622.75,-18.6 622.75,-18.6 622.75,-13.2 628.15,-7.8 633.55,-7.8 633.55,-7.8 701.95,-7.8 701.95,-7.8 707.35,-7.8 712.75,-13.2 712.75,-18.6 712.75,-18.6 712.75,-29.4 712.75,-29.4 712.75,-34.8 707.35,-40.2 701.95,-40.2"/>
<text text-anchor="middle" x="667.75" y="-26.7" font-family="Segoe UI" font-size="9.00" fill="#4c1d95">Newo +</text>
<text text-anchor="middle" x="667.75" y="-15.45" font-family="Segoe UI" font-size="9.00" fill="#4c1d95">Pre&#45;Call</text>
</g>
<!-- o1&#45;&gt;o2 -->
<g id="edge3" class="edge">
<title>o1&#45;&gt;o2</title>
<path fill="none" stroke="#94a3b8" stroke-width="1.4" d="M573.17,-24C586.35,-24 600.89,-24 614.51,-24"/>
<polygon fill="#94a3b8" stroke="#94a3b8" stroke-width="1.4" points="614.29,-26.1 620.29,-24 614.29,-21.9 614.29,-26.1"/>
</g>
<!-- o3 -->
<g id="node6" class="node">
<title>o3</title>
<path fill="#f0fdf4" stroke="#16a34a" stroke-width="1.4" d="M841.95,-40.2C841.95,-40.2 773.55,-40.2 773.55,-40.2 768.15,-40.2 762.75,-34.8 762.75,-29.4 762.75,-29.4 762.75,-18.6 762.75,-18.6 762.75,-13.2 768.15,-7.8 773.55,-7.8 773.55,-7.8 841.95,-7.8 841.95,-7.8 847.35,-7.8 852.75,-13.2 852.75,-18.6 852.75,-18.6 852.75,-29.4 852.75,-29.4 852.75,-34.8 847.35,-40.2 841.95,-40.2"/>
<text text-anchor="middle" x="807.75" y="-26.7" font-family="Segoe UI" font-size="9.00" fill="#14532d">QA JSON</text>
<text text-anchor="middle" x="807.75" y="-15.45" font-family="Segoe UI" font-size="9.00" fill="#14532d">+ Command</text>
</g>
<!-- o2&#45;&gt;o3 -->
<g id="edge4" class="edge">
<title>o2&#45;&gt;o3</title>
<path fill="none" stroke="#94a3b8" stroke-width="1.4" d="M713.17,-24C726.35,-24 740.89,-24 754.51,-24"/>
<polygon fill="#94a3b8" stroke="#94a3b8" stroke-width="1.4" points="754.29,-26.1 760.29,-24 754.29,-21.9 754.29,-26.1"/>
</g>
</g>
</svg>
