<?xml version="1.0" encoding="UTF-8" standalone="no"?>
<!DOCTYPE svg PUBLIC "-//W3C//DTD SVG 1.1//EN"
 "http://www.w3.org/Graphics/SVG/1.1/DTD/svg11.dtd">
<!-- Generated by graphviz version 11.0.0 (20240428.1522)
 -->
<!-- Title: rag Pages: 1 -->
<svg width="1333pt" height="677pt"
 viewBox="20.16 20.16 979.56 487.31" xmlns="http://www.w3.org/2000/svg" xmlns:xlink="http://www.w3.org/1999/xlink">
<g id="graph0" class="graph" transform="scale(1.33333 1.33333) rotate(0) translate(81.36 426.11)">
<title>rag</title>
<polygon fill="white" stroke="none" points="-61.2,61.2 -61.2,-405.95 898.2,-405.95 898.2,61.2 -61.2,61.2"/>
<g id="clust1" class="cluster">
<title>cluster_a</title>
<path fill="white" stroke="#93c5fd" stroke-dasharray="5,2" d="M20,-287.2C20,-287.2 226,-287.2 226,-287.2 232,-287.2 238,-293.2 238,-299.2 238,-299.2 238,-324.75 238,-324.75 238,-330.75 232,-336.75 226,-336.75 226,-336.75 20,-336.75 20,-336.75 14,-336.75 8,-330.75 8,-324.75 8,-324.75 8,-299.2 8,-299.2 8,-293.2 14,-287.2 20,-287.2"/>
<text text-anchor="middle" x="123" y="-323.25" font-family="Segoe UI" font-size="10.00" fill="#1e3a5f">A: Klientų Duomenys</text>
</g>
<g id="clust2" class="cluster">
<title>cluster_b</title>
<path fill="white" stroke="#c4b5fd" stroke-dasharray="5,2" d="M275,-287.2C275,-287.2 527,-287.2 527,-287.2 533,-287.2 539,-293.2 539,-299.2 539,-299.2 539,-324.75 539,-324.75 539,-330.75 533,-336.75 527,-336.75 527,-336.75 275,-336.75 275,-336.75 269,-336.75 263,-330.75 263,-324.75 263,-324.75 263,-299.2 263,-299.2 263,-293.2 269,-287.2 275,-287.2"/>
<text text-anchor="middle" x="401" y="-323.25" font-family="Segoe UI" font-size="10.00" fill="#4c1d95">B: Pardavimų Patirtis</text>
</g>
<g id="clust3" class="cluster">
<title>cluster_c</title>
<path fill="white" stroke="#86efac" stroke-dasharray="5,2" d="M576,-287.2C576,-287.2 817,-287.2 817,-287.2 823,-287.2 829,-293.2 829,-299.2 829,-299.2 829,-324.75 829,-324.75 829,-330.75 823,-336.75 817,-336.75 817,-336.75 576,-336.75 576,-336.75 570,-336.75 564,-330.75 564,-324.75 564,-324.75 564,-299.2 564,-299.2 564,-293.2 570,-287.2 576,-287.2"/>
<text text-anchor="middle" x="696.5" y="-323.25" font-family="Segoe UI" font-size="10.00" fill="#14532d">C: Strateginės Žinios</text>
</g>
<!-- rek -->
<g id="node1" class="node">
<title>rek</title>
<path fill="#eff6ff" stroke="#3b82f6" stroke-width="1.4" d="M66.11,-316C66.11,-316 17.89,-316 17.89,-316 13.09,-316 8.3,-311.2 8.3,-306.4 8.3,-306.4 8.3,-296.8 8.3,-296.8 8.3,-292 13.09,-287.2 17.89,-287.2 17.89,-287.2 66.11,-287.2 66.11,-287.2 70.91,-287.2 75.7,-292 75.7,-296.8 75.7,-296.8 75.7,-306.4 75.7,-306.4 75.7,-311.2 70.91,-316 66.11,-316"/>
<text text-anchor="middle" x="42" y="-298.48" font-family="Segoe UI" font-size="10.00" fill="#1e3a5f">Rekvizitai.lt</text>
</g>
<!-- emb -->
<g id="node10" class="node">
<title>emb</title>
<path fill="#f5f3ff" stroke="#7c3aed" stroke-width="1.4" d="M428.85,-244.2C428.85,-244.2 373.15,-244.2 373.15,-244.2 368.35,-244.2 363.55,-239.4 363.55,-234.6 363.55,-234.6 363.55,-225 363.55,-225 363.55,-220.2 368.35,-215.4 373.15,-215.4 373.15,-215.4 428.85,-215.4 428.85,-215.4 433.65,-215.4 438.45,-220.2 438.45,-225 438.45,-225 438.45,-234.6 438.45,-234.6 438.45,-239.4 433.65,-244.2 428.85,-244.2"/>
<text text-anchor="middle" x="401" y="-226.68" font-family="Segoe UI" font-size="10.00" fill="#4c1d95">Embeddings</text>
</g>
<!-- rek&#45;&gt;emb -->
<g id="edge1" class="edge">
<title>rek&#45;&gt;emb</title>
<path fill="none" stroke="#94a3b8" stroke-width="1.4" d="M76.04,-290.47C80.38,-289.3 84.78,-288.18 89,-287.2 182.9,-265.38 294.35,-247.02 355.38,-237.6"/>
<polygon fill="#94a3b8" stroke="#94a3b8" stroke-width="1.4" points="355.59,-239.69 361.2,-236.7 354.95,-235.54 355.59,-239.69"/>
</g>
<!-- bw -->
<g id="node2" class="node">
<title>bw</title>
<path fill="#eff6ff" stroke="#3b82f6" stroke-width="1.4" d="M149.23,-316C149.23,-316 110.77,-316 110.77,-316 105.97,-316 101.17,-311.2 101.17,-306.4 101.17,-306.4 101.17,-296.8 101.17,-296.8 101.17,-292 105.97,-287.2 110.77,-287.2 110.77,-287.2 149.23,-287.2 149.23,-287.2 154.03,-287.2 158.83,-292 158.83,-296.8 158.83,-296.8 158.83,-306.4 158.83,-306.4 158.83,-311.2 154.03,-316 149.23,-316"/>
<text text-anchor="middle" x="130" y="-298.48" font-family="Segoe UI" font-size="10.00" fill="#1e3a5f">BuiltWith</text>
</g>
<!-- bw&#45;&gt;emb -->
<g id="edge2" class="edge">
<title>bw&#45;&gt;emb</title>
<path fill="none" stroke="#94a3b8" stroke-width="1.4" d="M159.3,-290.98C163.55,-289.66 167.88,-288.36 172,-287.2 235.14,-269.37 308.95,-251.77 355.34,-241.09"/>
<polygon fill="#94a3b8" stroke="#94a3b8" stroke-width="1.4" points="355.67,-243.17 361.04,-239.78 354.73,-239.08 355.67,-243.17"/>
</g>
<!-- ap -->
<g id="node3" class="node">
<title>ap</title>
<path fill="#eff6ff" stroke="#3b82f6" stroke-width="1.4" d="M228.4,-316C228.4,-316 193.6,-316 193.6,-316 188.8,-316 184,-311.2 184,-306.4 184,-306.4 184,-296.8 184,-296.8 184,-292 188.8,-287.2 193.6,-287.2 193.6,-287.2 228.4,-287.2 228.4,-287.2 233.2,-287.2 238,-292 238,-296.8 238,-296.8 238,-306.4 238,-306.4 238,-311.2 233.2,-316 228.4,-316"/>
<text text-anchor="middle" x="211" y="-298.48" font-family="Segoe UI" font-size="10.00" fill="#1e3a5f">Apollo</text>
</g>
<!-- ap&#45;&gt;emb -->
<g id="edge3" class="edge">
<title>ap&#45;&gt;emb</title>
<path fill="none" stroke="#94a3b8" stroke-width="1.4" d="M238.22,-290.6C268.88,-279.34 319.18,-260.86 355.76,-247.42"/>
<polygon fill="#94a3b8" stroke="#94a3b8" stroke-width="1.4" points="356.45,-249.4 361.36,-245.36 355,-245.46 356.45,-249.4"/>
</g>
<!-- deals -->
<g id="node4" class="node">
<title>deals</title>
<path fill="#f5f3ff" stroke="#7c3aed" stroke-width="1.4" d="M333.86,-316C333.86,-316 272.14,-316 272.14,-316 267.35,-316 262.55,-311.2 262.55,-306.4 262.55,-306.4 262.55,-296.8 262.55,-296.8 262.55,-292 267.35,-287.2 272.14,-287.2 272.14,-287.2 333.86,-287.2 333.86,-287.2 338.65,-287.2 343.45,-292 343.45,-296.8 343.45,-296.8 343.45,-306.4 343.45,-306.4 343.45,-311.2 338.65,-316 333.86,-316"/>
<text text-anchor="middle" x="303" y="-298.48" font-family="Segoe UI" font-size="10.00" fill="#4c1d95">Laimėti Dealai</text>
</g>
<!-- deals&#45;&gt;emb -->
<g id="edge4" class="edge">
<title>deals&#45;&gt;emb</title>
<path fill="none" stroke="#94a3b8" stroke-width="1.4" d="M322.36,-286.81C337.53,-276.01 358.77,-260.88 375.35,-249.07"/>
<polygon fill="#94a3b8" stroke="#94a3b8" stroke-width="1.4" points="376.28,-250.98 379.95,-245.79 373.85,-247.56 376.28,-250.98"/>
</g>
<!-- prop -->
<g id="node5" class="node">
<title>prop</title>
<path fill="#f5f3ff" stroke="#7c3aed" stroke-width="1.4" d="M423.98,-316C423.98,-316 378.02,-316 378.02,-316 373.22,-316 368.42,-311.2 368.42,-306.4 368.42,-306.4 368.42,-296.8 368.42,-296.8 368.42,-292 373.22,-287.2 378.02,-287.2 378.02,-287.2 423.98,-287.2 423.98,-287.2 428.78,-287.2 433.58,-292 433.58,-296.8 433.58,-296.8 433.58,-306.4 433.58,-306.4 433.58,-311.2 428.78,-316 423.98,-316"/>
<text text-anchor="middle" x="401" y="-298.48" font-family="Segoe UI" font-size="10.00" fill="#4c1d95">Pasiūlymai</text>
</g>
<!-- prop&#45;&gt;emb -->
<g id="edge5" class="edge">
<title>prop&#45;&gt;emb</title>
<path fill="none" stroke="#94a3b8" stroke-width="1.4" d="M401,-286.81C401,-277.06 401,-263.79 401,-252.61"/>
<polygon fill="#94a3b8" stroke="#94a3b8" stroke-width="1.4" points="403.1,-252.68 401,-246.68 398.9,-252.68 403.1,-252.68"/>
</g>
<!-- obj -->
<g id="node6" class="node">
<title>obj</title>
<path fill="#f5f3ff" stroke="#7c3aed" stroke-width="1.4" d="M529.86,-316C529.86,-316 468.14,-316 468.14,-316 463.35,-316 458.55,-311.2 458.55,-306.4 458.55,-306.4 458.55,-296.8 458.55,-296.8 458.55,-292 463.35,-287.2 468.14,-287.2 468.14,-287.2 529.86,-287.2 529.86,-287.2 534.66,-287.2 539.46,-292 539.46,-296.8 539.46,-296.8 539.46,-306.4 539.46,-306.4 539.46,-311.2 534.66,-316 529.86,-316"/>
<text text-anchor="middle" x="499" y="-298.48" font-family="Segoe UI" font-size="10.00" fill="#4c1d95">Prieštaravimai</text>
</g>
<!-- obj&#45;&gt;emb -->
<g id="edge6" class="edge">
<title>obj&#45;&gt;emb</title>
<path fill="none" stroke="#94a3b8" stroke-width="1.4" d="M479.64,-286.81C464.47,-276.01 443.23,-260.88 426.65,-249.07"/>
<polygon fill="#94a3b8" stroke="#94a3b8" stroke-width="1.4" points="428.15,-247.56 422.05,-245.79 425.72,-250.98 428.15,-247.56"/>
</g>
<!-- meets -->
<g id="node7" class="node">
<title>meets</title>
<path fill="#f0fdf4" stroke="#16a34a" stroke-width="1.4" d="M619.98,-316C619.98,-316 574.02,-316 574.02,-316 569.22,-316 564.42,-311.2 564.42,-306.4 564.42,-306.4 564.42,-296.8 564.42,-296.8 564.42,-292 569.22,-287.2 574.02,-287.2 574.02,-287.2 619.98,-287.2 619.98,-287.2 624.78,-287.2 629.58,-292 629.58,-296.8 629.58,-296.8 629.58,-306.4 629.58,-306.4 629.58,-311.2 624.78,-316 619.98,-316"/>
<text text-anchor="middle" x="597" y="-298.48" font-family="Segoe UI" font-size="10.00" fill="#14532d">Susitikimai</text>
</g>
<!-- meets&#45;&gt;emb -->
<g id="edge7" class="edge">
<title>meets&#45;&gt;emb</title>
<path fill="none" stroke="#94a3b8" stroke-width="1.4" d="M564.19,-288.92C531.94,-277.43 482.45,-259.81 446.42,-246.98"/>
<polygon fill="#94a3b8" stroke="#94a3b8" stroke-width="1.4" points="447.3,-245.06 440.95,-245.03 445.9,-249.02 447.3,-245.06"/>
</g>
<!-- sops -->
<g id="node8" class="node">
<title>sops</title>
<path fill="#f0fdf4" stroke="#16a34a" stroke-width="1.4" d="M724.11,-316C724.11,-316 663.89,-316 663.89,-316 659.09,-316 654.29,-311.2 654.29,-306.4 654.29,-306.4 654.29,-296.8 654.29,-296.8 654.29,-292 659.09,-287.2 663.89,-287.2 663.89,-287.2 724.11,-287.2 724.11,-287.2 728.91,-287.2 733.71,-292 733.71,-296.8 733.71,-296.8 733.71,-306.4 733.71,-306.4 733.71,-311.2 728.91,-316 724.11,-316"/>
<text text-anchor="middle" x="694" y="-298.48" font-family="Segoe UI" font-size="10.00" fill="#14532d">SOP Taisyklės</text>
</g>
<!-- sops&#45;&gt;emb -->
<g id="edge8" class="edge">
<title>sops&#45;&gt;emb</title>
<path fill="none" stroke="#94a3b8" stroke-width="1.4" d="M653.99,-290.19C649.95,-289.17 645.89,-288.16 642,-287.2 574.01,-270.49 494.95,-252.2 446.44,-241.12"/>
<polygon fill="#94a3b8" stroke="#94a3b8" stroke-width="1.4" points="447.01,-239.09 440.7,-239.8 446.08,-243.19 447.01,-239.09"/>
</g>
<!-- dec -->
<g id="node9" class="node">
<title>dec</title>
<path fill="#f0fdf4" stroke="#16a34a" stroke-width="1.4" d="M819.23,-316C819.23,-316 768.77,-316 768.77,-316 763.97,-316 759.17,-311.2 759.17,-306.4 759.17,-306.4 759.17,-296.8 759.17,-296.8 759.17,-292 763.97,-287.2 768.77,-287.2 768.77,-287.2 819.23,-287.2 819.23,-287.2 824.03,-287.2 828.83,-292 828.83,-296.8 828.83,-296.8 828.83,-306.4 828.83,-306.4 828.83,-311.2 824.03,-316 819.23,-316"/>
<text text-anchor="middle" x="794" y="-298.48" font-family="Segoe UI" font-size="10.00" fill="#14532d">Sprendimai</text>
</g>
<!-- dec&#45;&gt;emb -->
<g id="edge9" class="edge">
<title>dec&#45;&gt;emb</title>
<path fill="none" stroke="#94a3b8" stroke-width="1.4" d="M758.72,-290.28C754.45,-289.17 750.14,-288.11 746,-287.2 639.64,-263.74 512.87,-245.45 446.56,-236.62"/>
<polygon fill="#94a3b8" stroke="#94a3b8" stroke-width="1.4" points="447.11,-234.57 440.88,-235.87 446.55,-238.74 447.11,-234.57"/>
</g>
<!-- vdb -->
<g id="node11" class="node">
<title>vdb</title>
<path fill="#fff7ed" stroke="#ea580c" stroke-width="1.4" d="M426.98,-172.4C426.98,-172.4 375.02,-172.4 375.02,-172.4 370.22,-172.4 365.42,-167.6 365.42,-162.8 365.42,-162.8 365.42,-153.2 365.42,-153.2 365.42,-148.4 370.22,-143.6 375.02,-143.6 375.02,-143.6 426.98,-143.6 426.98,-143.6 431.78,-143.6 436.58,-148.4 436.58,-153.2 436.58,-153.2 436.58,-162.8 436.58,-162.8 436.58,-167.6 431.78,-172.4 426.98,-172.4"/>
<text text-anchor="middle" x="401" y="-154.88" font-family="Segoe UI" font-size="10.00" fill="#7c2d12">Vektorių DB</text>
</g>
<!-- emb&#45;&gt;vdb -->
<g id="edge10" class="edge">
<title>emb&#45;&gt;vdb</title>
<path fill="none" stroke="#94a3b8" stroke-width="1.4" d="M401,-215.01C401,-205.26 401,-191.99 401,-180.81"/>
<polygon fill="#94a3b8" stroke="#94a3b8" stroke-width="1.4" points="403.1,-180.88 401,-174.88 398.9,-180.88 403.1,-180.88"/>
</g>
<!-- srch -->
<g id="node12" class="node">
<title>srch</title>
<path fill="#f5f3ff" stroke="#7c3aed" stroke-width="1.4" d="M418.4,-100.6C418.4,-100.6 383.6,-100.6 383.6,-100.6 378.8,-100.6 374,-95.8 374,-91 374,-91 374,-81.4 374,-81.4 374,-76.6 378.8,-71.8 383.6,-71.8 383.6,-71.8 418.4,-71.8 418.4,-71.8 423.2,-71.8 428,-76.6 428,-81.4 428,-81.4 428,-91 428,-91 428,-95.8 423.2,-100.6 418.4,-100.6"/>
<text text-anchor="middle" x="401" y="-83.08" font-family="Segoe UI" font-size="10.00" fill="#4c1d95">Paieška</text>
</g>
<!-- vdb&#45;&gt;srch -->
<g id="edge11" class="edge">
<title>vdb&#45;&gt;srch</title>
<path fill="none" stroke="#94a3b8" stroke-width="1.4" d="M401,-143.21C401,-133.46 401,-120.19 401,-109.01"/>
<polygon fill="#94a3b8" stroke="#94a3b8" stroke-width="1.4" points="403.1,-109.08 401,-103.08 398.9,-109.08 403.1,-109.08"/>
</g>
<!-- cp -->
<g id="node13" class="node">
<title>cp</title>
<path fill="#f0fdf4" stroke="#16a34a" stroke-width="1.4" d="M327.73,-28.8C327.73,-28.8 292.27,-28.8 292.27,-28.8 287.47,-28.8 282.67,-24 282.67,-19.2 282.67,-19.2 282.67,-9.6 282.67,-9.6 282.67,-4.8 287.47,0 292.27,0 292.27,0 327.73,0 327.73,0 332.53,0 337.33,-4.8 337.33,-9.6 337.33,-9.6 337.33,-19.2 337.33,-19.2 337.33,-24 332.53,-28.8 327.73,-28.8"/>
<text text-anchor="middle" x="310" y="-11.27" font-family="Segoe UI" font-size="10.00" fill="#14532d">Co&#45;Pilot</text>
</g>
<!-- srch&#45;&gt;cp -->
<g id="edge12" class="edge">
<title>srch&#45;&gt;cp</title>
<path fill="none" stroke="#94a3b8" stroke-width="1.4" d="M383.02,-71.41C369.06,-60.7 349.57,-45.75 334.23,-33.99"/>
<polygon fill="#94a3b8" stroke="#94a3b8" stroke-width="1.4" points="335.66,-32.44 329.62,-30.45 333.11,-35.77 335.66,-32.44"/>
</g>
<!-- pcb -->
<g id="node14" class="node">
<title>pcb</title>
<path fill="#ecfdf5" stroke="#059669" stroke-width="1.4" d="M429.6,-28.8C429.6,-28.8 372.4,-28.8 372.4,-28.8 367.6,-28.8 362.8,-24 362.8,-19.2 362.8,-19.2 362.8,-9.6 362.8,-9.6 362.8,-4.8 367.6,0 372.4,0 372.4,0 429.6,0 429.6,0 434.4,0 439.2,-4.8 439.2,-9.6 439.2,-9.6 439.2,-19.2 439.2,-19.2 439.2,-24 434.4,-28.8 429.6,-28.8"/>
<text text-anchor="middle" x="401" y="-11.27" font-family="Segoe UI" font-size="10.00" fill="#064e3b">Pre&#45;Call Brief</text>
</g>
<!-- srch&#45;&gt;pcb -->
<g id="edge13" class="edge">
<title>srch&#45;&gt;pcb</title>
<path fill="none" stroke="#94a3b8" stroke-width="1.4" d="M401,-71.41C401,-61.66 401,-48.39 401,-37.21"/>
<polygon fill="#94a3b8" stroke="#94a3b8" stroke-width="1.4" points="403.1,-37.28 401,-31.28 398.9,-37.28 403.1,-37.28"/>
</g>
<!-- ls -->
<g id="node15" class="node">
<title>ls</title>
<path fill="#ecfdf5" stroke="#059669" stroke-width="1.4" d="M531.98,-28.8C531.98,-28.8 474.02,-28.8 474.02,-28.8 469.22,-28.8 464.42,-24 464.42,-19.2 464.42,-19.2 464.42,-9.6 464.42,-9.6 464.42,-4.8 469.22,0 474.02,0 474.02,0 531.98,0 531.98,0 536.78,0 541.58,-4.8 541.58,-9.6 541.58,-9.6 541.58,-19.2 541.58,-19.2 541.58,-24 536.78,-28.8 531.98,-28.8"/>
<text text-anchor="middle" x="503" y="-11.27" font-family="Segoe UI" font-size="10.00" fill="#064e3b">Lead Scoring</text>
</g>
<!-- srch&#45;&gt;ls -->
<g id="edge14" class="edge">
<title>srch&#45;&gt;ls</title>
<path fill="none" stroke="#94a3b8" stroke-width="1.4" d="M421.15,-71.41C436.94,-60.61 459.04,-45.48 476.3,-33.67"/>
<polygon fill="#94a3b8" stroke="#94a3b8" stroke-width="1.4" points="477.38,-35.48 481.14,-30.36 475,-32.01 477.38,-35.48"/>
</g>
</g>
</svg>
