<?xml version="1.0" encoding="UTF-8" standalone="no"?>
<!DOCTYPE svg PUBLIC "-//W3C//DTD SVG 1.1//EN"
 "http://www.w3.org/Graphics/SVG/1.1/DTD/svg11.dtd">
<!-- Generated by graphviz version 11.0.0 (20240428.1522)
 -->
<!-- Title: sysOverview Pages: 1 -->
<svg width="1255pt" height="427pt"
 viewBox="20.16 20.16 920.86 300.14" xmlns="http://www.w3.org/2000/svg" xmlns:xlink="http://www.w3.org/1999/xlink">
<g id="graph0" class="graph" transform="scale(1.33333 1.33333) rotate(0) translate(81.36 238.94)">
<title>sysOverview</title>
<polygon fill="white" stroke="none" points="-61.2,61.2 -61.2,-218.78 839.5,-218.78 839.5,61.2 -61.2,61.2"/>
<!-- ads -->
<g id="node1" class="node">
<title>ads</title>
<path fill="#eff6ff" stroke="#3b82f6" stroke-width="1.4" d="M276.96,-157.58C276.96,-157.58 192.02,-157.58 192.02,-157.58 186.09,-157.58 180.16,-151.65 180.16,-145.72 180.16,-145.72 180.16,-133.86 180.16,-133.86 180.16,-127.93 186.09,-122 192.02,-122 192.02,-122 276.96,-122 276.96,-122 282.89,-122 288.82,-127.93 288.82,-133.86 288.82,-133.86 288.82,-145.72 288.82,-145.72 288.82,-151.65 282.89,-157.58 276.96,-157.58"/>
<text text-anchor="middle" x="234.49" y="-143.04" font-family="Segoe UI" font-size="10.00" fill="#1e3a5f">Ads + Outreach</text>
<text text-anchor="middle" x="234.49" y="-130.29" font-family="Segoe UI" font-size="10.00" fill="#1e3a5f">(Facebook, LinkedIn)</text>
</g>
<!-- ing -->
<g id="node3" class="node">
<title>ing</title>
<path fill="#f0fdfa" stroke="#0f766e" stroke-width="1.4" d="M424.49,-157.58C424.49,-157.58 366.56,-157.58 366.56,-157.58 360.62,-157.58 354.69,-151.65 354.69,-145.72 354.69,-145.72 354.69,-133.86 354.69,-133.86 354.69,-127.93 360.62,-122 366.56,-122 366.56,-122 424.49,-122 424.49,-122 430.42,-122 436.35,-127.93 436.35,-133.86 436.35,-133.86 436.35,-145.72 436.35,-145.72 436.35,-151.65 430.42,-157.58 424.49,-157.58"/>
<text text-anchor="middle" x="395.52" y="-143.04" font-family="Segoe UI" font-size="10.00" fill="#134e4a">WF1 Ingestion</text>
<text text-anchor="middle" x="395.52" y="-130.29" font-family="Segoe UI" font-size="10.00" fill="#134e4a">+ scoring</text>
</g>
<!-- ads&#45;&gt;ing -->
<g id="edge1" class="edge">
<title>ads&#45;&gt;ing</title>
<path fill="none" stroke="#94a3b8" stroke-width="1.4" d="M288.89,-139.79C307.6,-139.79 328.49,-139.79 346.71,-139.79"/>
<polygon fill="#94a3b8" stroke="#94a3b8" stroke-width="1.4" points="346.23,-141.89 352.23,-139.79 346.23,-137.69 346.23,-141.89"/>
</g>
<!-- ops -->
<g id="node2" class="node">
<title>ops</title>
<path fill="#eff6ff" stroke="#3b82f6" stroke-width="1.4" d="M110.3,-96.58C110.3,-96.58 11.86,-96.58 11.86,-96.58 5.93,-96.58 0,-90.65 0,-84.72 0,-84.72 0,-72.86 0,-72.86 0,-66.93 5.93,-61 11.86,-61 11.86,-61 110.3,-61 110.3,-61 116.23,-61 122.16,-66.93 122.16,-72.86 122.16,-72.86 122.16,-84.72 122.16,-84.72 122.16,-90.65 116.23,-96.58 110.3,-96.58"/>
<text text-anchor="middle" x="61.08" y="-82.04" font-family="Segoe UI" font-size="10.00" fill="#1e3a5f">Ops Inputs</text>
<text text-anchor="middle" x="61.08" y="-69.29" font-family="Segoe UI" font-size="10.00" fill="#1e3a5f">(Outlook, Plaud, Meets)</text>
</g>
<!-- wfs -->
<g id="node4" class="node">
<title>wfs</title>
<path fill="#f0fdfa" stroke="#0f766e" stroke-width="1.4" d="M268.34,-93.19C268.34,-93.19 200.64,-93.19 200.64,-93.19 195.84,-93.19 191.04,-88.39 191.04,-83.59 191.04,-83.59 191.04,-73.99 191.04,-73.99 191.04,-69.19 195.84,-64.39 200.64,-64.39 200.64,-64.39 268.34,-64.39 268.34,-64.39 273.14,-64.39 277.94,-69.19 277.94,-73.99 277.94,-73.99 277.94,-83.59 277.94,-83.59 277.94,-88.39 273.14,-93.19 268.34,-93.19"/>
<text text-anchor="middle" x="234.49" y="-75.66" font-family="Segoe UI" font-size="10.00" fill="#134e4a">WF2, WF3, WF4</text>
</g>
<!-- ops&#45;&gt;wfs -->
<g id="edge3" class="edge">
<title>ops&#45;&gt;wfs</title>
<path fill="none" stroke="#94a3b8" stroke-width="1.4" d="M122.51,-78.79C142.16,-78.79 163.76,-78.79 182.64,-78.79"/>
<polygon fill="#94a3b8" stroke="#94a3b8" stroke-width="1.4" points="182.43,-80.89 188.43,-78.79 182.43,-76.69 182.43,-80.89"/>
</g>
<!-- crm -->
<g id="node6" class="node">
<title>crm</title>
<path fill="#fff7ed" stroke="#ea580c" stroke-width="1.4" d="M561.53,-96.58C561.53,-96.58 514.09,-96.58 514.09,-96.58 508.16,-96.58 502.23,-90.65 502.23,-84.72 502.23,-84.72 502.23,-72.86 502.23,-72.86 502.23,-66.93 508.16,-61 514.09,-61 514.09,-61 561.53,-61 561.53,-61 567.46,-61 573.39,-66.93 573.39,-72.86 573.39,-72.86 573.39,-84.72 573.39,-84.72 573.39,-90.65 567.46,-96.58 561.53,-96.58"/>
<text text-anchor="middle" x="537.81" y="-82.04" font-family="Segoe UI" font-size="10.00" fill="#7c2d12">Monday +</text>
<text text-anchor="middle" x="537.81" y="-69.29" font-family="Segoe UI" font-size="10.00" fill="#7c2d12">PostgreSQL</text>
</g>
<!-- ing&#45;&gt;crm -->
<g id="edge2" class="edge">
<title>ing&#45;&gt;crm</title>
<path fill="none" stroke="#94a3b8" stroke-width="1.4" d="M436.73,-122.31C454.88,-114.42 476.33,-105.09 494.71,-97.1"/>
<polygon fill="#94a3b8" stroke="#94a3b8" stroke-width="1.4" points="495.24,-99.16 499.9,-94.84 493.56,-95.3 495.24,-99.16"/>
</g>
<!-- ai -->
<g id="node5" class="node">
<title>ai</title>
<path fill="#f5f3ff" stroke="#7c3aed" stroke-width="1.4" d="M432.37,-96.58C432.37,-96.58 358.68,-96.58 358.68,-96.58 352.75,-96.58 346.82,-90.65 346.82,-84.72 346.82,-84.72 346.82,-72.86 346.82,-72.86 346.82,-66.93 352.75,-61 358.68,-61 358.68,-61 432.37,-61 432.37,-61 438.3,-61 444.23,-66.93 444.23,-72.86 444.23,-72.86 444.23,-84.72 444.23,-84.72 444.23,-90.65 438.3,-96.58 432.37,-96.58"/>
<text text-anchor="middle" x="395.52" y="-82.04" font-family="Segoe UI" font-size="10.00" fill="#4c1d95">Gemini 2.5 Pro</text>
<text text-anchor="middle" x="395.52" y="-69.29" font-family="Segoe UI" font-size="10.00" fill="#4c1d95">+ RAG + Whisper</text>
</g>
<!-- wfs&#45;&gt;ai -->
<g id="edge4" class="edge">
<title>wfs&#45;&gt;ai</title>
<path fill="none" stroke="#94a3b8" stroke-width="1.4" d="M278.11,-78.79C296.63,-78.79 318.58,-78.79 338.4,-78.79"/>
<polygon fill="#94a3b8" stroke="#94a3b8" stroke-width="1.4" points="338.33,-80.89 344.33,-78.79 338.33,-76.69 338.33,-80.89"/>
</g>
<!-- ai&#45;&gt;crm -->
<g id="edge5" class="edge">
<title>ai&#45;&gt;crm</title>
<path fill="none" stroke="#94a3b8" stroke-width="1.4" d="M444.41,-78.79C460.5,-78.79 478.33,-78.79 494,-78.79"/>
<polygon fill="#94a3b8" stroke="#94a3b8" stroke-width="1.4" points="493.86,-80.89 499.86,-78.79 493.86,-76.69 493.86,-80.89"/>
</g>
<!-- views -->
<g id="node7" class="node">
<title>views</title>
<path fill="#f0fdf4" stroke="#16a34a" stroke-width="1.4" d="M766.44,-96.58C766.44,-96.58 643.25,-96.58 643.25,-96.58 637.32,-96.58 631.39,-90.65 631.39,-84.72 631.39,-84.72 631.39,-72.86 631.39,-72.86 631.39,-66.93 637.32,-61 643.25,-61 643.25,-61 766.44,-61 766.44,-61 772.37,-61 778.3,-66.93 778.3,-72.86 778.3,-72.86 778.3,-84.72 778.3,-84.72 778.3,-90.65 772.37,-96.58 766.44,-96.58"/>
<text text-anchor="middle" x="704.84" y="-82.04" font-family="Segoe UI" font-size="10.00" fill="#14532d">DIPA OS Views</text>
<text text-anchor="middle" x="704.84" y="-69.29" font-family="Segoe UI" font-size="10.00" fill="#14532d">Co&#45;Pilot · Cockpit · QA · CMD</text>
</g>
<!-- crm&#45;&gt;views -->
<g id="edge6" class="edge">
<title>crm&#45;&gt;views</title>
<path fill="none" stroke="#94a3b8" stroke-width="1.4" d="M573.81,-78.79C588.33,-78.79 605.83,-78.79 623.22,-78.79"/>
<polygon fill="#94a3b8" stroke="#94a3b8" stroke-width="1.4" points="623.08,-80.89 629.08,-78.79 623.08,-76.69 623.08,-80.89"/>
</g>
<!-- rec -->
<g id="node8" class="node">
<title>rec</title>
<path fill="#f0fdfa" stroke="#0f766e" stroke-width="1.4" d="M423.74,-35.58C423.74,-35.58 367.31,-35.58 367.31,-35.58 361.38,-35.58 355.44,-29.65 355.44,-23.72 355.44,-23.72 355.44,-11.86 355.44,-11.86 355.44,-5.93 361.38,0 367.31,0 367.31,0 423.74,0 423.74,0 429.67,0 435.6,-5.93 435.6,-11.86 435.6,-11.86 435.6,-23.72 435.6,-23.72 435.6,-29.65 429.67,-35.58 423.74,-35.58"/>
<text text-anchor="middle" x="395.52" y="-21.04" font-family="Segoe UI" font-size="10.00" fill="#134e4a">WF5</text>
<text text-anchor="middle" x="395.52" y="-8.29" font-family="Segoe UI" font-size="10.00" fill="#134e4a">Reconciliation</text>
</g>
<!-- rec&#45;&gt;crm -->
<g id="edge7" class="edge">
<title>rec&#45;&gt;crm</title>
<path fill="none" stroke="#94a3b8" stroke-width="1.4" stroke-dasharray="5,2" d="M435.98,-34.94C454.29,-42.91 476.08,-52.38 494.72,-60.49"/>
<polygon fill="#94a3b8" stroke="#94a3b8" stroke-width="1.4" points="493.67,-62.32 500.01,-62.79 495.34,-58.47 493.67,-62.32"/>
</g>
</g>
</svg>
