<?xml version="1.0" encoding="UTF-8" standalone="no"?>
<!DOCTYPE svg PUBLIC "-//W3C//DTD SVG 1.1//EN"
 "http://www.w3.org/Graphics/SVG/1.1/DTD/svg11.dtd">
<!-- Generated by graphviz version 11.0.0 (20240428.1522)
 -->
<!-- Title: sysArch Pages: 1 -->
<svg width="1193pt" height="816pt"
 viewBox="20.16 20.16 874.69 592.18" xmlns="http://www.w3.org/2000/svg" xmlns:xlink="http://www.w3.org/1999/xlink">
<g id="graph0" class="graph" transform="scale(1.33333 1.33333) rotate(0) translate(81.36 530.98)">
<title>sysArch</title>
<polygon fill="white" stroke="none" points="-61.2,61.2 -61.2,-510.82 793.33,-510.82 793.33,61.2 -61.2,61.2"/>
<g id="clust1" class="cluster">
<title>cluster_src</title>
<path fill="white" stroke="#cbd5e1" stroke-dasharray="5,2" d="M185.63,-389.82C185.63,-389.82 709.63,-389.82 709.63,-389.82 715.63,-389.82 721.63,-395.82 721.63,-401.82 721.63,-401.82 721.63,-429.62 721.63,-429.62 721.63,-435.62 715.63,-441.62 709.63,-441.62 709.63,-441.62 185.63,-441.62 185.63,-441.62 179.63,-441.62 173.63,-435.62 173.63,-429.62 173.63,-429.62 173.63,-401.82 173.63,-401.82 173.63,-395.82 179.63,-389.82 185.63,-389.82"/>
<text text-anchor="middle" x="447.63" y="-427.17" font-family="Segoe UI" font-size="11.00" fill="#64748b">Šaltiniai</text>
</g>
<g id="clust2" class="cluster">
<title>cluster_wf</title>
<path fill="white" stroke="#99f6e4" stroke-dasharray="5,2" d="M137.63,-297.24C137.63,-297.24 617.63,-297.24 617.63,-297.24 623.63,-297.24 629.63,-303.24 629.63,-309.24 629.63,-309.24 629.63,-343.82 629.63,-343.82 629.63,-349.82 623.63,-355.82 617.63,-355.82 617.63,-355.82 137.63,-355.82 137.63,-355.82 131.63,-355.82 125.63,-349.82 125.63,-343.82 125.63,-343.82 125.63,-309.24 125.63,-309.24 125.63,-303.24 131.63,-297.24 137.63,-297.24"/>
<text text-anchor="middle" x="377.63" y="-341.37" font-family="Segoe UI" font-size="11.00" fill="#134e4a">n8n Workflows</text>
</g>
<g id="clust3" class="cluster">
<title>cluster_ai</title>
<path fill="white" stroke="#c4b5fd" stroke-dasharray="5,2" d="M431.63,-100.58C431.63,-100.58 638.63,-100.58 638.63,-100.58 644.63,-100.58 650.63,-106.58 650.63,-112.58 650.63,-112.58 650.63,-242.49 650.63,-242.49 650.63,-248.49 644.63,-254.49 638.63,-254.49 638.63,-254.49 431.63,-254.49 431.63,-254.49 425.63,-254.49 419.63,-248.49 419.63,-242.49 419.63,-242.49 419.63,-112.58 419.63,-112.58 419.63,-106.58 425.63,-100.58 431.63,-100.58"/>
<text text-anchor="middle" x="535.13" y="-240.04" font-family="Segoe UI" font-size="11.00" fill="#4c1d95">AI Services</text>
</g>
<g id="clust4" class="cluster">
<title>cluster_data</title>
<path fill="white" stroke="#fdba74" stroke-dasharray="5,2" d="M82.63,-103.97C82.63,-103.97 151.63,-103.97 151.63,-103.97 157.63,-103.97 163.63,-109.97 163.63,-115.97 163.63,-115.97 163.63,-239.1 163.63,-239.1 163.63,-245.1 157.63,-251.1 151.63,-251.1 151.63,-251.1 82.63,-251.1 82.63,-251.1 76.63,-251.1 70.63,-245.1 70.63,-239.1 70.63,-239.1 70.63,-115.97 70.63,-115.97 70.63,-109.97 76.63,-103.97 82.63,-103.97"/>
<text text-anchor="middle" x="117.13" y="-236.65" font-family="Segoe UI" font-size="11.00" fill="#7c2d12">CRM &amp; Storage</text>
</g>
<g id="clust5" class="cluster">
<title>cluster_app</title>
<path fill="white" stroke="#86efac" stroke-dasharray="5,2" d="M82.63,-8C82.63,-8 415.63,-8 415.63,-8 421.63,-8 427.63,-14 427.63,-20 427.63,-20 427.63,-54.58 427.63,-54.58 427.63,-60.58 421.63,-66.58 415.63,-66.58 415.63,-66.58 82.63,-66.58 82.63,-66.58 76.63,-66.58 70.63,-60.58 70.63,-54.58 70.63,-54.58 70.63,-20 70.63,-20 70.63,-14 76.63,-8 82.63,-8"/>
<text text-anchor="middle" x="249.13" y="-52.13" font-family="Segoe UI" font-size="11.00" fill="#14532d">DIPA OS (Next.js)</text>
</g>
<!-- FB -->
<g id="node1" class="node">
<title>FB</title>
<path fill="#eff6ff" stroke="#3b82f6" stroke-width="1.4" d="M711.86,-418.62C711.86,-418.62 649.4,-418.62 649.4,-418.62 644.6,-418.62 639.8,-413.82 639.8,-409.02 639.8,-409.02 639.8,-399.42 639.8,-399.42 639.8,-394.62 644.6,-389.82 649.4,-389.82 649.4,-389.82 711.86,-389.82 711.86,-389.82 716.66,-389.82 721.46,-394.62 721.46,-399.42 721.46,-399.42 721.46,-409.02 721.46,-409.02 721.46,-413.82 716.66,-418.62 711.86,-418.62"/>
<text text-anchor="middle" x="680.63" y="-401.1" font-family="Segoe UI" font-size="10.00" fill="#1e3a5f">Facebook Ads</text>
</g>
<!-- WF1 -->
<g id="node7" class="node">
<title>WF1</title>
<path fill="#f0fdfa" stroke="#0f766e" stroke-width="1.4" d="M617.35,-332.82C617.35,-332.82 575.91,-332.82 575.91,-332.82 569.98,-332.82 564.05,-326.89 564.05,-320.96 564.05,-320.96 564.05,-309.1 564.05,-309.1 564.05,-303.17 569.98,-297.24 575.91,-297.24 575.91,-297.24 617.35,-297.24 617.35,-297.24 623.28,-297.24 629.21,-303.17 629.21,-309.1 629.21,-309.1 629.21,-320.96 629.21,-320.96 629.21,-326.89 623.28,-332.82 617.35,-332.82"/>
<text text-anchor="middle" x="596.63" y="-318.28" font-family="Segoe UI" font-size="10.00" fill="#134e4a">WF1: Lead</text>
<text text-anchor="middle" x="596.63" y="-305.53" font-family="Segoe UI" font-size="10.00" fill="#134e4a">Ingestion</text>
</g>
<!-- FB&#45;&gt;WF1 -->
<g id="edge1" class="edge">
<title>FB&#45;&gt;WF1</title>
<path fill="none" stroke="#94a3b8" stroke-width="1.4" d="M667.51,-389.6C654.44,-376.03 634.14,-354.96 618.61,-338.84"/>
<polygon fill="#94a3b8" stroke="#94a3b8" stroke-width="1.4" points="620.28,-337.54 614.6,-334.68 617.25,-340.46 620.28,-337.54"/>
</g>
<!-- LI -->
<g id="node2" class="node">
<title>LI</title>
<path fill="#eff6ff" stroke="#3b82f6" stroke-width="1.4" d="M601.49,-418.62C601.49,-418.62 545.78,-418.62 545.78,-418.62 540.98,-418.62 536.18,-413.82 536.18,-409.02 536.18,-409.02 536.18,-399.42 536.18,-399.42 536.18,-394.62 540.98,-389.82 545.78,-389.82 545.78,-389.82 601.49,-389.82 601.49,-389.82 606.29,-389.82 611.09,-394.62 611.09,-399.42 611.09,-399.42 611.09,-409.02 611.09,-409.02 611.09,-413.82 606.29,-418.62 601.49,-418.62"/>
<text text-anchor="middle" x="573.63" y="-401.1" font-family="Segoe UI" font-size="10.00" fill="#1e3a5f">LinkedIn Ads</text>
</g>
<!-- LI&#45;&gt;WF1 -->
<g id="edge2" class="edge">
<title>LI&#45;&gt;WF1</title>
<path fill="none" stroke="#94a3b8" stroke-width="1.4" d="M577.23,-389.6C580.65,-376.63 585.88,-356.8 590.05,-340.99"/>
<polygon fill="#94a3b8" stroke="#94a3b8" stroke-width="1.4" points="592.08,-341.54 591.58,-335.2 588.02,-340.47 592.08,-341.54"/>
</g>
<!-- OL -->
<g id="node3" class="node">
<title>OL</title>
<path fill="#eff6ff" stroke="#3b82f6" stroke-width="1.4" d="M301.36,-418.62C301.36,-418.62 265.9,-418.62 265.9,-418.62 261.1,-418.62 256.3,-413.82 256.3,-409.02 256.3,-409.02 256.3,-399.42 256.3,-399.42 256.3,-394.62 261.1,-389.82 265.9,-389.82 265.9,-389.82 301.36,-389.82 301.36,-389.82 306.16,-389.82 310.96,-394.62 310.96,-399.42 310.96,-399.42 310.96,-409.02 310.96,-409.02 310.96,-413.82 306.16,-418.62 301.36,-418.62"/>
<text text-anchor="middle" x="283.63" y="-401.1" font-family="Segoe UI" font-size="10.00" fill="#1e3a5f">Outlook</text>
</g>
<!-- WF2 -->
<g id="node8" class="node">
<title>WF2</title>
<path fill="#f0fdfa" stroke="#0f766e" stroke-width="1.4" d="M300.73,-332.82C300.73,-332.82 246.54,-332.82 246.54,-332.82 240.61,-332.82 234.68,-326.89 234.68,-320.96 234.68,-320.96 234.68,-309.1 234.68,-309.1 234.68,-303.17 240.61,-297.24 246.54,-297.24 246.54,-297.24 300.73,-297.24 300.73,-297.24 306.66,-297.24 312.59,-303.17 312.59,-309.1 312.59,-309.1 312.59,-320.96 312.59,-320.96 312.59,-326.89 306.66,-332.82 300.73,-332.82"/>
<text text-anchor="middle" x="273.63" y="-318.28" font-family="Segoe UI" font-size="10.00" fill="#134e4a">WF2: Pre&#45;Call</text>
<text text-anchor="middle" x="273.63" y="-305.53" font-family="Segoe UI" font-size="10.00" fill="#134e4a">Brief</text>
</g>
<!-- OL&#45;&gt;WF2 -->
<g id="edge3" class="edge">
<title>OL&#45;&gt;WF2</title>
<path fill="none" stroke="#94a3b8" stroke-width="1.4" d="M282.07,-389.6C280.58,-376.63 278.31,-356.8 276.5,-340.99"/>
<polygon fill="#94a3b8" stroke="#94a3b8" stroke-width="1.4" points="278.61,-340.98 275.84,-335.26 274.44,-341.46 278.61,-340.98"/>
</g>
<!-- PL -->
<g id="node4" class="node">
<title>PL</title>
<path fill="#eff6ff" stroke="#3b82f6" stroke-width="1.4" d="M403.36,-418.62C403.36,-418.62 349.9,-418.62 349.9,-418.62 345.1,-418.62 340.3,-413.82 340.3,-409.02 340.3,-409.02 340.3,-399.42 340.3,-399.42 340.3,-394.62 345.1,-389.82 349.9,-389.82 349.9,-389.82 403.36,-389.82 403.36,-389.82 408.16,-389.82 412.96,-394.62 412.96,-399.42 412.96,-399.42 412.96,-409.02 412.96,-409.02 412.96,-413.82 408.16,-418.62 403.36,-418.62"/>
<text text-anchor="middle" x="376.63" y="-401.1" font-family="Segoe UI" font-size="10.00" fill="#1e3a5f">Plaud Audio</text>
</g>
<!-- WF3 -->
<g id="node9" class="node">
<title>WF3</title>
<path fill="#f0fdfa" stroke="#0f766e" stroke-width="1.4" d="M411.98,-332.82C411.98,-332.82 353.29,-332.82 353.29,-332.82 347.36,-332.82 341.43,-326.89 341.43,-320.96 341.43,-320.96 341.43,-309.1 341.43,-309.1 341.43,-303.17 347.36,-297.24 353.29,-297.24 353.29,-297.24 411.98,-297.24 411.98,-297.24 417.91,-297.24 423.84,-303.17 423.84,-309.1 423.84,-309.1 423.84,-320.96 423.84,-320.96 423.84,-326.89 417.91,-332.82 411.98,-332.82"/>
<text text-anchor="middle" x="382.63" y="-318.28" font-family="Segoe UI" font-size="10.00" fill="#134e4a">WF3: Post&#45;Call</text>
<text text-anchor="middle" x="382.63" y="-305.53" font-family="Segoe UI" font-size="10.00" fill="#134e4a">QA</text>
</g>
<!-- PL&#45;&gt;WF3 -->
<g id="edge4" class="edge">
<title>PL&#45;&gt;WF3</title>
<path fill="none" stroke="#94a3b8" stroke-width="1.4" d="M377.57,-389.6C378.46,-376.63 379.83,-356.8 380.92,-340.99"/>
<polygon fill="#94a3b8" stroke="#94a3b8" stroke-width="1.4" points="382.99,-341.4 381.31,-335.27 378.8,-341.11 382.99,-341.4"/>
</g>
<!-- MT -->
<g id="node5" class="node">
<title>MT</title>
<path fill="#eff6ff" stroke="#3b82f6" stroke-width="1.4" d="M497.61,-418.62C497.61,-418.62 451.65,-418.62 451.65,-418.62 446.85,-418.62 442.05,-413.82 442.05,-409.02 442.05,-409.02 442.05,-399.42 442.05,-399.42 442.05,-394.62 446.85,-389.82 451.65,-389.82 451.65,-389.82 497.61,-389.82 497.61,-389.82 502.41,-389.82 507.21,-394.62 507.21,-399.42 507.21,-399.42 507.21,-409.02 507.21,-409.02 507.21,-413.82 502.41,-418.62 497.61,-418.62"/>
<text text-anchor="middle" x="474.63" y="-401.1" font-family="Segoe UI" font-size="10.00" fill="#1e3a5f">Susitikimai</text>
</g>
<!-- WF4 -->
<g id="node10" class="node">
<title>WF4</title>
<path fill="#f0fdfa" stroke="#0f766e" stroke-width="1.4" d="M522.98,-332.82C522.98,-332.82 464.29,-332.82 464.29,-332.82 458.36,-332.82 452.43,-326.89 452.43,-320.96 452.43,-320.96 452.43,-309.1 452.43,-309.1 452.43,-303.17 458.36,-297.24 464.29,-297.24 464.29,-297.24 522.98,-297.24 522.98,-297.24 528.91,-297.24 534.84,-303.17 534.84,-309.1 534.84,-309.1 534.84,-320.96 534.84,-320.96 534.84,-326.89 528.91,-332.82 522.98,-332.82"/>
<text text-anchor="middle" x="493.63" y="-318.28" font-family="Segoe UI" font-size="10.00" fill="#134e4a">WF4: Strategic</text>
<text text-anchor="middle" x="493.63" y="-305.53" font-family="Segoe UI" font-size="10.00" fill="#134e4a">Memory</text>
</g>
<!-- MT&#45;&gt;WF4 -->
<g id="edge5" class="edge">
<title>MT&#45;&gt;WF4</title>
<path fill="none" stroke="#94a3b8" stroke-width="1.4" d="M477.6,-389.6C480.43,-376.63 484.75,-356.8 488.2,-340.99"/>
<polygon fill="#94a3b8" stroke="#94a3b8" stroke-width="1.4" points="490.23,-341.53 489.45,-335.22 486.12,-340.64 490.23,-341.53"/>
</g>
<!-- CL -->
<g id="node6" class="node">
<title>CL</title>
<path fill="#eff6ff" stroke="#3b82f6" stroke-width="1.4" d="M218.03,-418.62C218.03,-418.62 183.23,-418.62 183.23,-418.62 178.43,-418.62 173.63,-413.82 173.63,-409.02 173.63,-409.02 173.63,-399.42 173.63,-399.42 173.63,-394.62 178.43,-389.82 183.23,-389.82 183.23,-389.82 218.03,-389.82 218.03,-389.82 222.83,-389.82 227.63,-394.62 227.63,-399.42 227.63,-399.42 227.63,-409.02 227.63,-409.02 227.63,-413.82 222.83,-418.62 218.03,-418.62"/>
<text text-anchor="middle" x="200.63" y="-401.1" font-family="Segoe UI" font-size="10.00" fill="#1e3a5f">Clockify</text>
</g>
<!-- PG -->
<g id="node17" class="node">
<title>PG</title>
<path fill="#fff7ed" stroke="#ea580c" stroke-width="1.4" d="M153.61,-132.77C153.61,-132.77 101.65,-132.77 101.65,-132.77 96.85,-132.77 92.05,-127.97 92.05,-123.17 92.05,-123.17 92.05,-113.57 92.05,-113.57 92.05,-108.77 96.85,-103.97 101.65,-103.97 101.65,-103.97 153.61,-103.97 153.61,-103.97 158.41,-103.97 163.21,-108.77 163.21,-113.57 163.21,-113.57 163.21,-123.17 163.21,-123.17 163.21,-127.97 158.41,-132.77 153.61,-132.77"/>
<text text-anchor="middle" x="127.63" y="-115.25" font-family="Segoe UI" font-size="10.00" fill="#7c2d12">PostgreSQL</text>
</g>
<!-- CL&#45;&gt;PG -->
<g id="edge6" class="edge">
<title>CL&#45;&gt;PG</title>
<path fill="none" stroke="#94a3b8" stroke-width="1.4" d="M173.18,-399.53C129.4,-393.04 46.87,-378.12 28.63,-355.82 -16.4,-300.75 0.46,-263.83 21.63,-195.91 30.67,-166.92 59.22,-147.32 84.41,-135.22"/>
<polygon fill="#94a3b8" stroke="#94a3b8" stroke-width="1.4" points="85.25,-137.15 89.82,-132.74 83.49,-133.33 85.25,-137.15"/>
</g>
<!-- RAG -->
<g id="node12" class="node">
<title>RAG</title>
<path fill="#f5f3ff" stroke="#7c3aed" stroke-width="1.4" d="M638.35,-231.49C638.35,-231.49 602.91,-231.49 602.91,-231.49 596.98,-231.49 591.05,-225.56 591.05,-219.63 591.05,-219.63 591.05,-207.77 591.05,-207.77 591.05,-201.84 596.98,-195.91 602.91,-195.91 602.91,-195.91 638.35,-195.91 638.35,-195.91 644.28,-195.91 650.21,-201.84 650.21,-207.77 650.21,-207.77 650.21,-219.63 650.21,-219.63 650.21,-225.56 644.28,-231.49 638.35,-231.49"/>
<text text-anchor="middle" x="620.63" y="-216.95" font-family="Segoe UI" font-size="10.00" fill="#4c1d95">Vertex AI</text>
<text text-anchor="middle" x="620.63" y="-204.2" font-family="Segoe UI" font-size="10.00" fill="#4c1d95">RAG</text>
</g>
<!-- WF1&#45;&gt;RAG -->
<g id="edge10" class="edge">
<title>WF1&#45;&gt;RAG</title>
<path fill="none" stroke="#94a3b8" stroke-width="1.4" stroke-dasharray="5,2" d="M610.39,-296.77C615.26,-289.61 620.15,-280.95 622.63,-272.24 625.6,-261.85 625.71,-249.97 624.84,-239.72"/>
<polygon fill="#94a3b8" stroke="#94a3b8" stroke-width="1.4" points="626.95,-239.74 624.2,-234.01 622.78,-240.21 626.95,-239.74"/>
<text text-anchor="middle" x="645.38" y="-264.64" font-family="Segoe UI" font-size="8.00" fill="#64748b">nauji faktai</text>
</g>
<!-- NW -->
<g id="node15" class="node">
<title>NW</title>
<path fill="#f5f3ff" stroke="#7c3aed" stroke-width="1.4" d="M552.49,-228.1C552.49,-228.1 514.78,-228.1 514.78,-228.1 509.98,-228.1 505.18,-223.3 505.18,-218.5 505.18,-218.5 505.18,-208.9 505.18,-208.9 505.18,-204.1 509.98,-199.3 514.78,-199.3 514.78,-199.3 552.49,-199.3 552.49,-199.3 557.29,-199.3 562.09,-204.1 562.09,-208.9 562.09,-208.9 562.09,-218.5 562.09,-218.5 562.09,-223.3 557.29,-228.1 552.49,-228.1"/>
<text text-anchor="middle" x="533.63" y="-210.57" font-family="Segoe UI" font-size="10.00" fill="#4c1d95">Newo AI</text>
</g>
<!-- WF1&#45;&gt;NW -->
<g id="edge8" class="edge">
<title>WF1&#45;&gt;NW</title>
<path fill="none" stroke="#94a3b8" stroke-width="1.4" d="M580.23,-296.95C573.73,-289.68 566.49,-280.89 560.88,-272.24 553.46,-260.78 546.86,-246.99 542.01,-235.78"/>
<polygon fill="#94a3b8" stroke="#94a3b8" stroke-width="1.4" points="544.03,-235.16 539.77,-230.45 540.16,-236.79 544.03,-235.16"/>
<text text-anchor="middle" x="573.01" y="-264.64" font-family="Segoe UI" font-size="8.00" fill="#64748b">C lygis</text>
</g>
<!-- MON -->
<g id="node16" class="node">
<title>MON</title>
<path fill="#fff7ed" stroke="#ea580c" stroke-width="1.4" d="M138.61,-228.1C138.61,-228.1 80.65,-228.1 80.65,-228.1 75.85,-228.1 71.05,-223.3 71.05,-218.5 71.05,-218.5 71.05,-208.9 71.05,-208.9 71.05,-204.1 75.85,-199.3 80.65,-199.3 80.65,-199.3 138.61,-199.3 138.61,-199.3 143.41,-199.3 148.21,-204.1 148.21,-208.9 148.21,-208.9 148.21,-218.5 148.21,-218.5 148.21,-223.3 143.41,-228.1 138.61,-228.1"/>
<text text-anchor="middle" x="109.63" y="-210.57" font-family="Segoe UI" font-size="10.00" fill="#7c2d12">Monday.com</text>
</g>
<!-- WF1&#45;&gt;MON -->
<g id="edge7" class="edge">
<title>WF1&#45;&gt;MON</title>
<path fill="none" stroke="#94a3b8" stroke-width="1.4" d="M570.92,-296.81C551.24,-284.68 522.92,-269.41 495.63,-262.49 425.61,-244.74 239.62,-275.93 170.63,-254.49 156.64,-250.14 142.81,-241.57 131.86,-233.49"/>
<polygon fill="#94a3b8" stroke="#94a3b8" stroke-width="1.4" points="133.17,-231.85 127.13,-229.86 130.61,-235.18 133.17,-231.85"/>
</g>
<!-- GEM -->
<g id="node13" class="node">
<title>GEM</title>
<path fill="#f5f3ff" stroke="#7c3aed" stroke-width="1.4" d="M462.77,-136.16C462.77,-136.16 432.49,-136.16 432.49,-136.16 426.56,-136.16 420.63,-130.23 420.63,-124.3 420.63,-124.3 420.63,-112.44 420.63,-112.44 420.63,-106.51 426.56,-100.58 432.49,-100.58 432.49,-100.58 462.77,-100.58 462.77,-100.58 468.7,-100.58 474.63,-106.51 474.63,-112.44 474.63,-112.44 474.63,-124.3 474.63,-124.3 474.63,-130.23 468.7,-136.16 462.77,-136.16"/>
<text text-anchor="middle" x="447.63" y="-121.62" font-family="Segoe UI" font-size="10.00" fill="#4c1d95">Gemini</text>
<text text-anchor="middle" x="447.63" y="-108.87" font-family="Segoe UI" font-size="10.00" fill="#4c1d95">2.5 Pro</text>
</g>
<!-- WF2&#45;&gt;GEM -->
<g id="edge13" class="edge">
<title>WF2&#45;&gt;GEM</title>
<path fill="none" stroke="#94a3b8" stroke-width="1.4" d="M289.08,-296.76C320.42,-261.69 391.52,-182.15 426.87,-142.6"/>
<polygon fill="#94a3b8" stroke="#94a3b8" stroke-width="1.4" points="428.38,-144.06 430.82,-138.19 425.25,-141.26 428.38,-144.06"/>
</g>
<!-- WF2&#45;&gt;MON -->
<g id="edge14" class="edge">
<title>WF2&#45;&gt;MON</title>
<path fill="none" stroke="#94a3b8" stroke-width="1.4" d="M242.73,-296.74C222.14,-285.08 194.57,-269.2 170.63,-254.49 159.41,-247.59 147.22,-239.72 136.71,-232.81"/>
<polygon fill="#94a3b8" stroke="#94a3b8" stroke-width="1.4" points="138,-231.14 131.84,-229.59 135.69,-234.65 138,-231.14"/>
</g>
<!-- WH -->
<g id="node14" class="node">
<title>WH</title>
<path fill="#f5f3ff" stroke="#7c3aed" stroke-width="1.4" d="M463.85,-231.49C463.85,-231.49 431.41,-231.49 431.41,-231.49 425.48,-231.49 419.55,-225.56 419.55,-219.63 419.55,-219.63 419.55,-207.77 419.55,-207.77 419.55,-201.84 425.48,-195.91 431.41,-195.91 431.41,-195.91 463.85,-195.91 463.85,-195.91 469.78,-195.91 475.71,-201.84 475.71,-207.77 475.71,-207.77 475.71,-219.63 475.71,-219.63 475.71,-225.56 469.78,-231.49 463.85,-231.49"/>
<text text-anchor="middle" x="447.63" y="-216.95" font-family="Segoe UI" font-size="10.00" fill="#4c1d95">Whisper</text>
<text text-anchor="middle" x="447.63" y="-204.2" font-family="Segoe UI" font-size="10.00" fill="#4c1d95">STT</text>
</g>
<!-- WF3&#45;&gt;WH -->
<g id="edge15" class="edge">
<title>WF3&#45;&gt;WH</title>
<path fill="none" stroke="#94a3b8" stroke-width="1.4" d="M383.17,-296.8C384.15,-286.29 386.62,-272.91 392.63,-262.49 398.29,-252.7 406.7,-243.92 415.25,-236.64"/>
<polygon fill="#94a3b8" stroke="#94a3b8" stroke-width="1.4" points="416.18,-238.59 419.51,-233.18 413.53,-235.33 416.18,-238.59"/>
</g>
<!-- WF3&#45;&gt;MON -->
<g id="edge18" class="edge">
<title>WF3&#45;&gt;MON</title>
<path fill="none" stroke="#94a3b8" stroke-width="1.4" d="M341.06,-301.51C336.2,-300.06 331.31,-298.61 326.63,-297.24 272.95,-281.48 259.82,-276.45 205.63,-262.49 190.18,-258.51 185.32,-260.72 170.63,-254.49 157.62,-248.97 144.34,-240.68 133.51,-233.1"/>
<polygon fill="#94a3b8" stroke="#94a3b8" stroke-width="1.4" points="134.92,-231.53 128.83,-229.73 132.47,-234.94 134.92,-231.53"/>
</g>
<!-- WF4&#45;&gt;RAG -->
<g id="edge19" class="edge">
<title>WF4&#45;&gt;RAG</title>
<path fill="none" stroke="#94a3b8" stroke-width="1.4" d="M534.88,-302.49C552.95,-295.87 573.45,-286.07 588.63,-272.24 598.62,-263.15 606.2,-250.19 611.47,-238.88"/>
<polygon fill="#94a3b8" stroke="#94a3b8" stroke-width="1.4" points="613.27,-240.02 613.75,-233.68 609.42,-238.33 613.27,-240.02"/>
</g>
<!-- WF4&#45;&gt;MON -->
<g id="edge20" class="edge">
<title>WF4&#45;&gt;MON</title>
<path fill="none" stroke="#94a3b8" stroke-width="1.4" d="M465.39,-296.92C443.83,-284.84 412.94,-269.6 383.63,-262.49 337.6,-251.33 215.78,-268.84 170.63,-254.49 156.66,-250.05 142.84,-241.47 131.89,-233.41"/>
<polygon fill="#94a3b8" stroke="#94a3b8" stroke-width="1.4" points="133.19,-231.77 127.15,-229.79 130.64,-235.1 133.19,-231.77"/>
</g>
<!-- WF5 -->
<g id="node11" class="node">
<title>WF5</title>
<path fill="#f0fdfa" stroke="#0f766e" stroke-width="1.4" d="M193.85,-332.82C193.85,-332.82 137.41,-332.82 137.41,-332.82 131.48,-332.82 125.55,-326.89 125.55,-320.96 125.55,-320.96 125.55,-309.1 125.55,-309.1 125.55,-303.17 131.48,-297.24 137.41,-297.24 137.41,-297.24 193.85,-297.24 193.85,-297.24 199.78,-297.24 205.71,-303.17 205.71,-309.1 205.71,-309.1 205.71,-320.96 205.71,-320.96 205.71,-326.89 199.78,-332.82 193.85,-332.82"/>
<text text-anchor="middle" x="165.63" y="-318.28" font-family="Segoe UI" font-size="10.00" fill="#134e4a">WF5: Data</text>
<text text-anchor="middle" x="165.63" y="-305.53" font-family="Segoe UI" font-size="10.00" fill="#134e4a">Reconciliation</text>
</g>
<!-- WF5&#45;&gt;PG -->
<g id="edge24" class="edge">
<title>WF5&#45;&gt;PG</title>
<path fill="none" stroke="#94a3b8" stroke-width="1.4" d="M187.92,-296.77C194.97,-289.98 201.89,-281.56 205.63,-272.24 207.25,-268.22 206.3,-266.77 205.63,-262.49 198.44,-215.81 199.1,-200.93 173.63,-161.16 168.18,-152.64 160.55,-144.76 153.07,-138.19"/>
<polygon fill="#94a3b8" stroke="#94a3b8" stroke-width="1.4" points="154.45,-136.6 148.5,-134.35 151.75,-139.82 154.45,-136.6"/>
<text text-anchor="middle" x="237.38" y="-210.97" font-family="Segoe UI" font-size="8.00" fill="#64748b">reconciliation log</text>
</g>
<!-- RAG&#45;&gt;WF1 -->
<g id="edge9" class="edge">
<title>RAG&#45;&gt;WF1</title>
<path fill="none" stroke="#94a3b8" stroke-width="1.4" stroke-dasharray="5,2" d="M650.56,-222.73C679.32,-232.02 716.3,-249.06 700.63,-272.24 686.5,-293.15 659.99,-303.6 637.28,-308.82"/>
<polygon fill="#94a3b8" stroke="#94a3b8" stroke-width="1.4" points="636.94,-306.74 631.5,-310.03 637.8,-310.86 636.94,-306.74"/>
<text text-anchor="middle" x="717.88" y="-264.64" font-family="Segoe UI" font-size="8.00" fill="#64748b">scoring</text>
</g>
<!-- RAG&#45;&gt;GEM -->
<g id="edge12" class="edge">
<title>RAG&#45;&gt;GEM</title>
<path fill="none" stroke="#94a3b8" stroke-width="1.4" stroke-dasharray="5,2" d="M590.86,-198.19C574.96,-190.32 555.11,-180.31 537.63,-170.91 519.04,-160.91 498.6,-149.26 481.9,-139.57"/>
<polygon fill="#94a3b8" stroke="#94a3b8" stroke-width="1.4" points="483.07,-137.82 476.82,-136.61 480.95,-141.45 483.07,-137.82"/>
<text text-anchor="middle" x="558.63" y="-163.31" font-family="Segoe UI" font-size="8.00" fill="#64748b">kontekstas</text>
</g>
<!-- COP -->
<g id="node18" class="node">
<title>COP</title>
<path fill="#f0fdf4" stroke="#16a34a" stroke-width="1.4" d="M418.36,-40.19C418.36,-40.19 382.9,-40.19 382.9,-40.19 378.1,-40.19 373.3,-35.39 373.3,-30.59 373.3,-30.59 373.3,-20.99 373.3,-20.99 373.3,-16.19 378.1,-11.39 382.9,-11.39 382.9,-11.39 418.36,-11.39 418.36,-11.39 423.16,-11.39 427.96,-16.19 427.96,-20.99 427.96,-20.99 427.96,-30.59 427.96,-30.59 427.96,-35.39 423.16,-40.19 418.36,-40.19"/>
<text text-anchor="middle" x="400.63" y="-22.66" font-family="Segoe UI" font-size="10.00" fill="#14532d">Co&#45;Pilot</text>
</g>
<!-- RAG&#45;&gt;COP -->
<g id="edge25" class="edge">
<title>RAG&#45;&gt;COP</title>
<path fill="none" stroke="#94a3b8" stroke-width="1.4" d="M609.83,-195.44C602.79,-184.92 593.01,-171.54 582.63,-161.16 534.54,-113.04 468.21,-68.52 430.33,-44.76"/>
<polygon fill="#94a3b8" stroke="#94a3b8" stroke-width="1.4" points="431.61,-43.08 425.4,-41.69 429.39,-46.64 431.61,-43.08"/>
</g>
<!-- GEM&#45;&gt;PG -->
<g id="edge17" class="edge">
<title>GEM&#45;&gt;PG</title>
<path fill="none" stroke="#94a3b8" stroke-width="1.4" d="M420.42,-118.37C364.96,-118.37 238.4,-118.37 171.29,-118.37"/>
<polygon fill="#94a3b8" stroke="#94a3b8" stroke-width="1.4" points="171.53,-116.27 165.53,-118.37 171.53,-120.47 171.53,-116.27"/>
<text text-anchor="middle" x="291.92" y="-123.52" font-family="Segoe UI" font-size="8.00" fill="#64748b">QA JSON</text>
</g>
<!-- WH&#45;&gt;GEM -->
<g id="edge16" class="edge">
<title>WH&#45;&gt;GEM</title>
<path fill="none" stroke="#94a3b8" stroke-width="1.4" d="M447.63,-195.58C447.63,-181.24 447.63,-160.58 447.63,-144.38"/>
<polygon fill="#94a3b8" stroke="#94a3b8" stroke-width="1.4" points="449.73,-144.5 447.63,-138.5 445.53,-144.5 449.73,-144.5"/>
</g>
<!-- NW&#45;&gt;WF3 -->
<g id="edge11" class="edge">
<title>NW&#45;&gt;WF3</title>
<path fill="none" stroke="#94a3b8" stroke-width="1.4" d="M522.64,-228.24C514.68,-237.1 503.17,-248.17 490.63,-254.49 473.57,-263.09 465.79,-254.59 448.38,-262.49 432.75,-269.58 417.52,-281.14 405.66,-291.51"/>
<polygon fill="#94a3b8" stroke="#94a3b8" stroke-width="1.4" points="404.41,-289.8 401.35,-295.38 407.22,-292.93 404.41,-289.8"/>
<text text-anchor="middle" x="469.76" y="-264.64" font-family="Segoe UI" font-size="8.00" fill="#64748b">transkriptai</text>
</g>
<!-- MON&#45;&gt;WF5 -->
<g id="edge22" class="edge">
<title>MON&#45;&gt;WF5</title>
<path fill="none" stroke="#94a3b8" stroke-width="1.4" d="M117.37,-228.43C126.35,-244.34 141.3,-270.86 152.18,-290.17"/>
<polygon fill="#94a3b8" stroke="#94a3b8" stroke-width="1.4" points="150.32,-291.14 155.09,-295.33 153.98,-289.08 150.32,-291.14"/>
</g>
<!-- MON&#45;&gt;PG -->
<g id="edge21" class="edge">
<title>MON&#45;&gt;PG</title>
<path fill="none" stroke="#94a3b8" stroke-width="1.4" d="M112.29,-198.93C115.24,-183.63 120.04,-158.72 123.49,-140.85"/>
<polygon fill="#94a3b8" stroke="#94a3b8" stroke-width="1.4" points="125.49,-141.57 124.57,-135.28 121.37,-140.77 125.49,-141.57"/>
</g>
<!-- PG&#45;&gt;WF5 -->
<g id="edge23" class="edge">
<title>PG&#45;&gt;WF5</title>
<path fill="none" stroke="#94a3b8" stroke-width="1.4" d="M136.01,-133.15C144.55,-148.02 157.27,-172.7 162.63,-195.91 169.91,-227.38 169.37,-264.81 167.88,-288.98"/>
<polygon fill="#94a3b8" stroke="#94a3b8" stroke-width="1.4" points="165.79,-288.69 167.47,-294.83 169.98,-288.99 165.79,-288.69"/>
</g>
<!-- COK -->
<g id="node19" class="node">
<title>COK</title>
<path fill="#f0fdf4" stroke="#16a34a" stroke-width="1.4" d="M334.99,-40.19C334.99,-40.19 276.28,-40.19 276.28,-40.19 271.48,-40.19 266.68,-35.39 266.68,-30.59 266.68,-30.59 266.68,-20.99 266.68,-20.99 266.68,-16.19 271.48,-11.39 276.28,-11.39 276.28,-11.39 334.99,-11.39 334.99,-11.39 339.79,-11.39 344.59,-16.19 344.59,-20.99 344.59,-20.99 344.59,-30.59 344.59,-30.59 344.59,-35.39 339.79,-40.19 334.99,-40.19"/>
<text text-anchor="middle" x="305.63" y="-22.66" font-family="Segoe UI" font-size="10.00" fill="#14532d">Sales Cockpit</text>
</g>
<!-- PG&#45;&gt;COK -->
<g id="edge26" class="edge">
<title>PG&#45;&gt;COK</title>
<path fill="none" stroke="#94a3b8" stroke-width="1.4" d="M163.45,-105.36C188.82,-96.23 223.24,-82.53 251.63,-66.58 262.52,-60.46 273.77,-52.49 283.16,-45.28"/>
<polygon fill="#94a3b8" stroke="#94a3b8" stroke-width="1.4" points="284.23,-47.11 287.66,-41.76 281.64,-43.8 284.23,-47.11"/>
</g>
<!-- QA -->
<g id="node20" class="node">
<title>QA</title>
<path fill="#f0fdf4" stroke="#16a34a" stroke-width="1.4" d="M132.99,-40.19C132.99,-40.19 80.28,-40.19 80.28,-40.19 75.48,-40.19 70.68,-35.39 70.68,-30.59 70.68,-30.59 70.68,-20.99 70.68,-20.99 70.68,-16.19 75.48,-11.39 80.28,-11.39 80.28,-11.39 132.99,-11.39 132.99,-11.39 137.79,-11.39 142.59,-16.19 142.59,-20.99 142.59,-20.99 142.59,-30.59 142.59,-30.59 142.59,-35.39 137.79,-40.19 132.99,-40.19"/>
<text text-anchor="middle" x="106.63" y="-22.66" font-family="Segoe UI" font-size="10.00" fill="#14532d">QA Modulis</text>
</g>
<!-- PG&#45;&gt;QA -->
<g id="edge27" class="edge">
<title>PG&#45;&gt;QA</title>
<path fill="none" stroke="#94a3b8" stroke-width="1.4" d="M124.45,-103.61C121.05,-88.98 115.64,-65.64 111.67,-48.52"/>
<polygon fill="#94a3b8" stroke="#94a3b8" stroke-width="1.4" points="113.73,-48.11 110.33,-42.74 109.64,-49.06 113.73,-48.11"/>
</g>
<!-- CMD -->
<g id="node21" class="node">
<title>CMD</title>
<path fill="#f0fdf4" stroke="#16a34a" stroke-width="1.4" d="M225.35,-43.58C225.35,-43.58 183.91,-43.58 183.91,-43.58 177.98,-43.58 172.05,-37.65 172.05,-31.72 172.05,-31.72 172.05,-19.86 172.05,-19.86 172.05,-13.93 177.98,-8 183.91,-8 183.91,-8 225.35,-8 225.35,-8 231.28,-8 237.21,-13.93 237.21,-19.86 237.21,-19.86 237.21,-31.72 237.21,-31.72 237.21,-37.65 231.28,-43.58 225.35,-43.58"/>
<text text-anchor="middle" x="204.63" y="-29.04" font-family="Segoe UI" font-size="10.00" fill="#14532d">Command</text>
<text text-anchor="middle" x="204.63" y="-16.29" font-family="Segoe UI" font-size="10.00" fill="#14532d">Center</text>
</g>
<!-- PG&#45;&gt;CMD -->
<g id="edge28" class="edge">
<title>PG&#45;&gt;CMD</title>
<path fill="none" stroke="#94a3b8" stroke-width="1.4" d="M139.33,-103.61C151.47,-89.33 170.67,-66.75 185.11,-49.75"/>
<polygon fill="#94a3b8" stroke="#94a3b8" stroke-width="1.4" points="186.54,-51.32 188.83,-45.39 183.34,-48.6 186.54,-51.32"/>
</g>
<!-- GDPR -->
<g id="node22" class="node">
<title>GDPR</title>
<path fill="#fef2f2" stroke="#dc2626" stroke-width="1.4" d="M87.03,-329.43C87.03,-329.43 52.23,-329.43 52.23,-329.43 47.43,-329.43 42.63,-324.63 42.63,-319.83 42.63,-319.83 42.63,-310.23 42.63,-310.23 42.63,-305.43 47.43,-300.63 52.23,-300.63 52.23,-300.63 87.03,-300.63 87.03,-300.63 91.83,-300.63 96.63,-305.43 96.63,-310.23 96.63,-310.23 96.63,-319.83 96.63,-319.83 96.63,-324.63 91.83,-329.43 87.03,-329.43"/>
<text text-anchor="middle" x="69.63" y="-312.11" font-family="Segoe UI" font-size="9.00" fill="#7f1d1d">GDPR</text>
</g>
<!-- GDPR&#45;&gt;MON -->
<g id="edge29" class="edge">
<title>GDPR&#45;&gt;MON</title>
<path fill="none" stroke="#94a3b8" stroke-width="1.4" stroke-dasharray="5,2" d="M74.7,-300.41C78.62,-289.99 84.22,-275.29 89.38,-262.49 92.91,-253.75 96.93,-244.18 100.46,-235.91"/>
<polygon fill="#94a3b8" stroke="#94a3b8" stroke-width="1.4" points="102.39,-236.74 102.82,-230.4 98.53,-235.08 102.39,-236.74"/>
<text text-anchor="middle" x="104.76" y="-264.64" font-family="Segoe UI" font-size="8.00" fill="#64748b">Consent</text>
</g>
<!-- GDPR&#45;&gt;PG -->
<g id="edge30" class="edge">
<title>GDPR&#45;&gt;PG</title>
<path fill="none" stroke="#94a3b8" stroke-width="1.4" stroke-dasharray="5,2" d="M59,-300.27C50.81,-288.76 40.15,-271.52 35.63,-254.49 28.96,-229.33 24.58,-219.48 35.63,-195.91 47.6,-170.39 72.72,-150.42 93.69,-137.29"/>
<polygon fill="#94a3b8" stroke="#94a3b8" stroke-width="1.4" points="94.76,-139.1 98.81,-134.2 92.59,-135.5 94.76,-139.1"/>
<text text-anchor="middle" x="46.13" y="-210.97" font-family="Segoe UI" font-size="8.00" fill="#64748b">Audit</text>
</g>
</g>
</svg>
