<?xml version="1.0" encoding="UTF-8" standalone="no"?>
<!DOCTYPE svg PUBLIC "-//W3C//DTD SVG 1.1//EN"
 "http://www.w3.org/Graphics/SVG/1.1/DTD/svg11.dtd">
<!-- Generated by graphviz version 11.0.0 (20240428.1522)
 -->
<!-- Title: tocFlow Pages: 1 -->
<svg width="909pt" height="264pt"
 viewBox="20.16 20.16 661.61 178.14" xmlns="http://www.w3.org/2000/svg" xmlns:xlink="http://www.w3.org/1999/xlink">
<g id="graph0" class="graph" transform="scale(1.33333 1.33333) rotate(0) translate(81.36 116.94)">
<title>tocFlow</title>
<polygon fill="white" stroke="none" points="-61.2,61.2 -61.2,-96.78 580.25,-96.78 580.25,61.2 -61.2,61.2"/>
<!-- a -->
<g id="node1" class="node">
<title>a</title>
<path fill="#fef2f2" stroke="#dc2626" stroke-width="1.4" d="M69.05,-35.58C69.05,-35.58 11.86,-35.58 11.86,-35.58 5.93,-35.58 0,-29.65 0,-23.72 0,-23.72 0,-11.86 0,-11.86 0,-5.93 5.93,0 11.86,0 11.86,0 69.05,0 69.05,0 74.98,0 80.91,-5.93 80.91,-11.86 80.91,-11.86 80.91,-23.72 80.91,-23.72 80.91,-29.65 74.98,-35.58 69.05,-35.58"/>
<text text-anchor="middle" x="40.46" y="-21.04" font-family="Segoe UI" font-size="10.00" fill="#7f1d1d">1. Identifikuoti</text>
<text text-anchor="middle" x="40.46" y="-8.29" font-family="Segoe UI" font-size="10.00" fill="#7f1d1d">Bottleneck</text>
</g>
<!-- b -->
<g id="node2" class="node">
<title>b</title>
<path fill="#f0fdfa" stroke="#0f766e" stroke-width="1.4" d="M171.46,-35.58C171.46,-35.58 124.77,-35.58 124.77,-35.58 118.84,-35.58 112.91,-29.65 112.91,-23.72 112.91,-23.72 112.91,-11.86 112.91,-11.86 112.91,-5.93 118.84,0 124.77,0 124.77,0 171.46,0 171.46,0 177.39,0 183.32,-5.93 183.32,-11.86 183.32,-11.86 183.32,-23.72 183.32,-23.72 183.32,-29.65 177.39,-35.58 171.46,-35.58"/>
<text text-anchor="middle" x="148.12" y="-21.04" font-family="Segoe UI" font-size="10.00" fill="#134e4a">2. Išnaudoti</text>
<text text-anchor="middle" x="148.12" y="-8.29" font-family="Segoe UI" font-size="10.00" fill="#134e4a">Bottleneck</text>
</g>
<!-- a&#45;&gt;b -->
<g id="edge1" class="edge">
<title>a&#45;&gt;b</title>
<path fill="none" stroke="#94a3b8" stroke-width="1.4" d="M81.4,-17.79C89.11,-17.79 97.22,-17.79 105,-17.79"/>
<polygon fill="#94a3b8" stroke="#94a3b8" stroke-width="1.4" points="104.53,-19.89 110.53,-17.79 104.53,-15.69 104.53,-19.89"/>
</g>
<!-- c -->
<g id="node3" class="node">
<title>c</title>
<path fill="#f0fdfa" stroke="#0f766e" stroke-width="1.4" d="M290.37,-35.58C290.37,-35.58 227.18,-35.58 227.18,-35.58 221.25,-35.58 215.32,-29.65 215.32,-23.72 215.32,-23.72 215.32,-11.86 215.32,-11.86 215.32,-5.93 221.25,0 227.18,0 227.18,0 290.37,0 290.37,0 296.3,0 302.23,-5.93 302.23,-11.86 302.23,-11.86 302.23,-23.72 302.23,-23.72 302.23,-29.65 296.3,-35.58 290.37,-35.58"/>
<text text-anchor="middle" x="258.77" y="-21.04" font-family="Segoe UI" font-size="10.00" fill="#134e4a">3. Subordinuoti</text>
<text text-anchor="middle" x="258.77" y="-8.29" font-family="Segoe UI" font-size="10.00" fill="#134e4a">sistemą</text>
</g>
<!-- b&#45;&gt;c -->
<g id="edge2" class="edge">
<title>b&#45;&gt;c</title>
<path fill="none" stroke="#94a3b8" stroke-width="1.4" d="M183.79,-17.79C191.25,-17.79 199.27,-17.79 207.19,-17.79"/>
<polygon fill="#94a3b8" stroke="#94a3b8" stroke-width="1.4" points="206.93,-19.89 212.93,-17.79 206.93,-15.69 206.93,-19.89"/>
</g>
<!-- d -->
<g id="node4" class="node">
<title>d</title>
<path fill="#ecfdf5" stroke="#059669" stroke-width="1.4" d="M392.03,-35.58C392.03,-35.58 346.09,-35.58 346.09,-35.58 340.16,-35.58 334.23,-29.65 334.23,-23.72 334.23,-23.72 334.23,-11.86 334.23,-11.86 334.23,-5.93 340.16,0 346.09,0 346.09,0 392.03,0 392.03,0 397.96,0 403.89,-5.93 403.89,-11.86 403.89,-11.86 403.89,-23.72 403.89,-23.72 403.89,-29.65 397.96,-35.58 392.03,-35.58"/>
<text text-anchor="middle" x="369.06" y="-21.04" font-family="Segoe UI" font-size="10.00" fill="#064e3b">4. Pakelti</text>
<text text-anchor="middle" x="369.06" y="-8.29" font-family="Segoe UI" font-size="10.00" fill="#064e3b">pralaidumą</text>
</g>
<!-- c&#45;&gt;d -->
<g id="edge3" class="edge">
<title>c&#45;&gt;d</title>
<path fill="none" stroke="#94a3b8" stroke-width="1.4" d="M302.57,-17.79C310.21,-17.79 318.17,-17.79 325.8,-17.79"/>
<polygon fill="#94a3b8" stroke="#94a3b8" stroke-width="1.4" points="325.79,-19.89 331.79,-17.79 325.79,-15.69 325.79,-19.89"/>
</g>
<!-- e -->
<g id="node5" class="node">
<title>e</title>
<path fill="#f9fafb" stroke="#6b7280" stroke-width="1.4" d="M507.19,-35.58C507.19,-35.58 447.75,-35.58 447.75,-35.58 441.82,-35.58 435.89,-29.65 435.89,-23.72 435.89,-23.72 435.89,-11.86 435.89,-11.86 435.89,-5.93 441.82,0 447.75,0 447.75,0 507.19,0 507.19,0 513.12,0 519.05,-5.93 519.05,-11.86 519.05,-11.86 519.05,-23.72 519.05,-23.72 519.05,-29.65 513.12,-35.58 507.19,-35.58"/>
<text text-anchor="middle" x="477.47" y="-21.04" font-family="Segoe UI" font-size="10.00" fill="#1f2937">5. Kartoti</text>
<text text-anchor="middle" x="477.47" y="-8.29" font-family="Segoe UI" font-size="10.00" fill="#1f2937">ciklą (grįžti į 1)</text>
</g>
<!-- d&#45;&gt;e -->
<g id="edge4" class="edge">
<title>d&#45;&gt;e</title>
<path fill="none" stroke="#94a3b8" stroke-width="1.4" d="M404.31,-17.79C411.79,-17.79 419.83,-17.79 427.75,-17.79"/>
<polygon fill="#94a3b8" stroke="#94a3b8" stroke-width="1.4" points="427.47,-19.89 433.47,-17.79 427.47,-15.69 427.47,-19.89"/>
</g>
</g>
</svg>
