<?xml version="1.0" encoding="UTF-8" standalone="no"?>
<!DOCTYPE svg PUBLIC "-//W3C//DTD SVG 1.1//EN"
 "http://www.w3.org/Graphics/SVG/1.1/DTD/svg11.dtd">
<!-- Generated by graphviz version 11.0.0 (20240428.1522)
 -->
<!-- Title: tocWeek Pages: 1 -->
<svg width="363pt" height="625pt"
 viewBox="20.16 20.16 251.97 448.46" xmlns="http://www.w3.org/2000/svg" xmlns:xlink="http://www.w3.org/1999/xlink">
<g id="graph0" class="graph" transform="scale(1.33333 1.33333) rotate(0) translate(81.36 387.26)">
<title>tocWeek</title>
<polygon fill="white" stroke="none" points="-61.2,61.2 -61.2,-367.1 170.61,-367.1 170.61,61.2 -61.2,61.2"/>
<!-- sr -->
<g id="node1" class="node">
<title>sr</title>
<path fill="#fef2f2" stroke="#dc2626" stroke-width="1.4" d="M79.17,-305.9C79.17,-305.9 30.24,-305.9 30.24,-305.9 24.31,-305.9 18.38,-299.97 18.38,-294.04 18.38,-294.04 18.38,-282.18 18.38,-282.18 18.38,-276.25 24.31,-270.32 30.24,-270.32 30.24,-270.32 79.17,-270.32 79.17,-270.32 85.1,-270.32 91.03,-276.25 91.03,-282.18 91.03,-282.18 91.03,-294.04 91.03,-294.04 91.03,-299.97 85.1,-305.9 79.17,-305.9"/>
<text text-anchor="middle" x="54.71" y="-291.36" font-family="Segoe UI" font-size="10.00" fill="#7f1d1d">Stop rule —</text>
<text text-anchor="middle" x="54.71" y="-278.61" font-family="Segoe UI" font-size="10.00" fill="#7f1d1d">neatitikimas</text>
</g>
<!-- f -->
<g id="node2" class="node">
<title>f</title>
<path fill="#fef2f2" stroke="#dc2626" stroke-width="1.4" d="M79.17,-238.32C79.17,-238.32 30.23,-238.32 30.23,-238.32 24.3,-238.32 18.38,-232.39 18.38,-226.46 18.38,-226.46 18.38,-214.6 18.38,-214.6 18.38,-208.67 24.31,-202.74 30.24,-202.74 30.24,-202.74 79.18,-202.74 79.18,-202.74 85.11,-202.74 91.03,-208.67 91.03,-214.6 91.03,-214.6 91.03,-226.46 91.03,-226.46 91.03,-232.39 85.11,-238.32 79.17,-238.32"/>
<text text-anchor="middle" x="54.71" y="-223.78" font-family="Segoe UI" font-size="10.00" fill="#7f1d1d">Vienas focal</text>
<text text-anchor="middle" x="54.71" y="-211.03" font-family="Segoe UI" font-size="10.00" fill="#7f1d1d">bottleneck</text>
</g>
<!-- sr&#45;&gt;f -->
<g id="edge1" class="edge">
<title>sr&#45;&gt;f</title>
<path fill="none" stroke="#94a3b8" stroke-width="1.4" d="M54.71,-269.88C54.71,-262.59 54.71,-253.97 54.71,-246.04"/>
<polygon fill="#94a3b8" stroke="#94a3b8" stroke-width="1.4" points="56.81,-246.54 54.71,-240.54 52.61,-246.54 56.81,-246.54"/>
</g>
<!-- t -->
<g id="node3" class="node">
<title>t</title>
<path fill="#f0fdfa" stroke="#0f766e" stroke-width="1.4" d="M73.55,-170.74C73.55,-170.74 35.86,-170.74 35.86,-170.74 29.93,-170.74 24,-164.81 24,-158.88 24,-158.88 24,-147.02 24,-147.02 24,-141.09 29.93,-135.16 35.86,-135.16 35.86,-135.16 73.55,-135.16 73.55,-135.16 79.48,-135.16 85.41,-141.09 85.41,-147.02 85.41,-147.02 85.41,-158.88 85.41,-158.88 85.41,-164.81 79.48,-170.74 73.55,-170.74"/>
<text text-anchor="middle" x="54.71" y="-156.2" font-family="Segoe UI" font-size="10.00" fill="#134e4a">Visi dirba</text>
<text text-anchor="middle" x="54.71" y="-143.45" font-family="Segoe UI" font-size="10.00" fill="#134e4a">tik su juo</text>
</g>
<!-- f&#45;&gt;t -->
<g id="edge2" class="edge">
<title>f&#45;&gt;t</title>
<path fill="none" stroke="#94a3b8" stroke-width="1.4" d="M54.71,-202.3C54.71,-195.01 54.71,-186.39 54.71,-178.46"/>
<polygon fill="#94a3b8" stroke="#94a3b8" stroke-width="1.4" points="56.81,-178.96 54.71,-172.96 52.61,-178.96 56.81,-178.96"/>
</g>
<!-- r -->
<g id="node4" class="node">
<title>r</title>
<path fill="#f5f3ff" stroke="#7c3aed" stroke-width="1.4" d="M90.8,-103.16C90.8,-103.16 18.61,-103.16 18.61,-103.16 12.68,-103.16 6.75,-97.23 6.75,-91.3 6.75,-91.3 6.75,-79.44 6.75,-79.44 6.75,-73.51 12.68,-67.58 18.61,-67.58 18.61,-67.58 90.8,-67.58 90.8,-67.58 96.73,-67.58 102.66,-73.51 102.66,-79.44 102.66,-79.44 102.66,-91.3 102.66,-91.3 102.66,-97.23 96.73,-103.16 90.8,-103.16"/>
<text text-anchor="middle" x="54.71" y="-88.62" font-family="Segoe UI" font-size="10.00" fill="#4c1d95">RAG + Constraint</text>
<text text-anchor="middle" x="54.71" y="-75.87" font-family="Segoe UI" font-size="10.00" fill="#4c1d95">review</text>
</g>
<!-- t&#45;&gt;r -->
<g id="edge3" class="edge">
<title>t&#45;&gt;r</title>
<path fill="none" stroke="#94a3b8" stroke-width="1.4" d="M54.71,-134.72C54.71,-127.43 54.71,-118.81 54.71,-110.88"/>
<polygon fill="#94a3b8" stroke="#94a3b8" stroke-width="1.4" points="56.81,-111.38 54.71,-105.38 52.61,-111.38 56.81,-111.38"/>
</g>
<!-- kpi -->
<g id="node5" class="node">
<title>kpi</title>
<path fill="#ecfdf5" stroke="#059669" stroke-width="1.4" d="M97.55,-35.58C97.55,-35.58 11.86,-35.58 11.86,-35.58 5.93,-35.58 0,-29.65 0,-23.72 0,-23.72 0,-11.86 0,-11.86 0,-5.93 5.93,0 11.86,0 11.86,0 97.55,0 97.55,0 103.48,0 109.41,-5.93 109.41,-11.86 109.41,-11.86 109.41,-23.72 109.41,-23.72 109.41,-29.65 103.48,-35.58 97.55,-35.58"/>
<text text-anchor="middle" x="54.71" y="-21.04" font-family="Segoe UI" font-size="10.00" fill="#064e3b">Throughput Won/wk</text>
<text text-anchor="middle" x="54.71" y="-8.29" font-family="Segoe UI" font-size="10.00" fill="#064e3b">Buffer ROI · NPS</text>
</g>
<!-- r&#45;&gt;kpi -->
<g id="edge4" class="edge">
<title>r&#45;&gt;kpi</title>
<path fill="none" stroke="#94a3b8" stroke-width="1.4" d="M54.71,-67.14C54.71,-59.85 54.71,-51.23 54.71,-43.3"/>
<polygon fill="#94a3b8" stroke="#94a3b8" stroke-width="1.4" points="56.81,-43.8 54.71,-37.8 52.61,-43.8 56.81,-43.8"/>
</g>
</g>
</svg>
