<?xml version="1.0" encoding="UTF-8" standalone="no"?>
<!DOCTYPE svg PUBLIC "-//W3C//DTD SVG 1.1//EN"
 "http://www.w3.org/Graphics/SVG/1.1/DTD/svg11.dtd">
<!-- Generated by graphviz version 11.0.0 (20240428.1522)
 -->
<!-- Title: weekly Pages: 1 -->
<svg width="1898pt" height="314pt"
 viewBox="20.16 20.16 1403.41 215.56" xmlns="http://www.w3.org/2000/svg" xmlns:xlink="http://www.w3.org/1999/xlink">
<g id="graph0" class="graph" transform="scale(1.33333 1.33333) rotate(0) translate(81.36 154.36)">
<title>weekly</title>
<polygon fill="white" stroke="none" points="-61.2,61.2 -61.2,-134.2 1322.05,-134.2 1322.05,61.2 -61.2,61.2"/>
<g id="clust1" class="cluster">
<title>cluster_before</title>
<path fill="white" stroke="#fca5a5" stroke-dasharray="5,2" d="M20,-8C20,-8 445.64,-8 445.64,-8 451.64,-8 457.64,-14 457.64,-20 457.64,-20 457.64,-53 457.64,-53 457.64,-59 451.64,-65 445.64,-65 445.64,-65 20,-65 20,-65 14,-65 8,-59 8,-53 8,-53 8,-20 8,-20 8,-14 14,-8 20,-8"/>
<text text-anchor="middle" x="232.82" y="-51.5" font-family="Segoe UI" font-size="10.00" fill="#991b1b">PRIEŠ DIPA OS</text>
</g>
<g id="clust2" class="cluster">
<title>cluster_after</title>
<path fill="white" stroke="#86efac" stroke-dasharray="5,2" d="M575.14,-8C575.14,-8 1240.85,-8 1240.85,-8 1246.85,-8 1252.85,-14 1252.85,-20 1252.85,-20 1252.85,-53 1252.85,-53 1252.85,-59 1246.85,-65 1240.85,-65 1240.85,-65 575.14,-65 575.14,-65 569.14,-65 563.14,-59 563.14,-53 563.14,-53 563.14,-20 563.14,-20 563.14,-14 569.14,-8 575.14,-8"/>
<text text-anchor="middle" x="908" y="-51.5" font-family="Segoe UI" font-size="10.00" fill="#14532d">SU DIPA OS</text>
</g>
<!-- b1 -->
<g id="node1" class="node">
<title>b1</title>
<path fill="#fef2f2" stroke="#ef4444" stroke-width="1.4" d="M81.56,-44.4C81.56,-44.4 17.6,-44.4 17.6,-44.4 12.8,-44.4 8,-39.6 8,-34.8 8,-34.8 8,-25.2 8,-25.2 8,-20.4 12.8,-15.6 17.6,-15.6 17.6,-15.6 81.56,-15.6 81.56,-15.6 86.36,-15.6 91.16,-20.4 91.16,-25.2 91.16,-25.2 91.16,-34.8 91.16,-34.8 91.16,-39.6 86.36,-44.4 81.56,-44.4"/>
<text text-anchor="middle" x="49.58" y="-26.88" font-family="Segoe UI" font-size="10.00" fill="#991b1b">Excel formulės</text>
</g>
<!-- b2 -->
<g id="node2" class="node">
<title>b2</title>
<path fill="#fef2f2" stroke="#ef4444" stroke-width="1.4" d="M192.21,-43.79C192.21,-43.79 153.02,-43.79 153.02,-43.79 147.09,-43.79 141.16,-37.86 141.16,-31.93 141.16,-31.93 141.16,-20.07 141.16,-20.07 141.16,-14.14 147.09,-8.21 153.02,-8.21 153.02,-8.21 192.21,-8.21 192.21,-8.21 198.14,-8.21 204.07,-14.14 204.07,-20.07 204.07,-20.07 204.07,-31.93 204.07,-31.93 204.07,-37.86 198.14,-43.79 192.21,-43.79"/>
<text text-anchor="middle" x="172.61" y="-29.25" font-family="Segoe UI" font-size="10.00" fill="#991b1b">Ginčai dėl</text>
<text text-anchor="middle" x="172.61" y="-16.5" font-family="Segoe UI" font-size="10.00" fill="#991b1b">ROI sesijų</text>
</g>
<!-- b1&#45;&gt;b2 -->
<g id="edge1" class="edge">
<title>b1&#45;&gt;b2</title>
<path fill="none" stroke="#94a3b8" stroke-width="1.4" d="M91.56,-28.65C104.96,-28.2 119.8,-27.71 133.02,-27.28"/>
<polygon fill="#94a3b8" stroke="#94a3b8" stroke-width="1.4" points="132.97,-29.38 138.9,-27.08 132.83,-25.18 132.97,-29.38"/>
</g>
<!-- b3 -->
<g id="node3" class="node">
<title>b3</title>
<path fill="#fef2f2" stroke="#ef4444" stroke-width="1.4" d="M332.88,-44.4C332.88,-44.4 263.67,-44.4 263.67,-44.4 258.87,-44.4 254.07,-39.6 254.07,-34.8 254.07,-34.8 254.07,-25.2 254.07,-25.2 254.07,-20.4 258.87,-15.6 263.67,-15.6 263.67,-15.6 332.88,-15.6 332.88,-15.6 337.68,-15.6 342.48,-20.4 342.48,-25.2 342.48,-25.2 342.48,-34.8 342.48,-34.8 342.48,-39.6 337.68,-44.4 332.88,-44.4"/>
<text text-anchor="middle" x="298.27" y="-26.88" font-family="Segoe UI" font-size="10.00" fill="#991b1b">Neaiškūs leadai</text>
</g>
<!-- b2&#45;&gt;b3 -->
<g id="edge2" class="edge">
<title>b2&#45;&gt;b3</title>
<path fill="none" stroke="#94a3b8" stroke-width="1.4" d="M204.5,-27C217.06,-27.41 231.9,-27.89 246,-28.34"/>
<polygon fill="#94a3b8" stroke="#94a3b8" stroke-width="1.4" points="245.55,-30.43 251.61,-28.52 245.68,-26.23 245.55,-30.43"/>
</g>
<!-- b4 -->
<g id="node4" class="node">
<title>b4</title>
<path fill="#fef2f2" stroke="#ef4444" stroke-width="1.4" d="M445.78,-43.79C445.78,-43.79 404.34,-43.79 404.34,-43.79 398.41,-43.79 392.48,-37.86 392.48,-31.93 392.48,-31.93 392.48,-20.07 392.48,-20.07 392.48,-14.14 398.41,-8.21 404.34,-8.21 404.34,-8.21 445.78,-8.21 445.78,-8.21 451.71,-8.21 457.64,-14.14 457.64,-20.07 457.64,-20.07 457.64,-31.93 457.64,-31.93 457.64,-37.86 451.71,-43.79 445.78,-43.79"/>
<text text-anchor="middle" x="425.06" y="-29.25" font-family="Segoe UI" font-size="10.00" fill="#991b1b">45&#45;60 min</text>
<text text-anchor="middle" x="425.06" y="-16.5" font-family="Segoe UI" font-size="10.00" fill="#991b1b">meetingas</text>
</g>
<!-- b3&#45;&gt;b4 -->
<g id="edge3" class="edge">
<title>b3&#45;&gt;b4</title>
<path fill="none" stroke="#94a3b8" stroke-width="1.4" d="M342.92,-28.6C356.31,-28.17 370.96,-27.7 384.09,-27.28"/>
<polygon fill="#94a3b8" stroke="#94a3b8" stroke-width="1.4" points="383.99,-29.39 389.92,-27.09 383.86,-25.19 383.99,-29.39"/>
</g>
<!-- a1 -->
<g id="node5" class="node">
<title>a1</title>
<path fill="#f0fdf4" stroke="#16a34a" stroke-width="1.4" d="M609.69,-43.79C609.69,-43.79 575,-43.79 575,-43.79 569.07,-43.79 563.14,-37.86 563.14,-31.93 563.14,-31.93 563.14,-20.07 563.14,-20.07 563.14,-14.14 569.07,-8.21 575,-8.21 575,-8.21 609.69,-8.21 609.69,-8.21 615.62,-8.21 621.55,-14.14 621.55,-20.07 621.55,-20.07 621.55,-31.93 621.55,-31.93 621.55,-37.86 615.62,-43.79 609.69,-43.79"/>
<text text-anchor="middle" x="592.35" y="-29.25" font-family="Segoe UI" font-size="10.00" fill="#14532d">14:55 AI</text>
<text text-anchor="middle" x="592.35" y="-16.5" font-family="Segoe UI" font-size="10.00" fill="#14532d">ataskaita</text>
</g>
<!-- b4&#45;&gt;a1 -->
<g id="edge4" class="edge">
<title>b4&#45;&gt;a1</title>
<path fill="none" stroke="#0f766e" stroke-width="2" d="M457.93,-26C485.35,-26 524.96,-26 553.89,-26"/>
<polygon fill="#0f766e" stroke="#0f766e" stroke-width="2" points="553.86,-28.1 559.86,-26 553.86,-23.9 553.86,-28.1"/>
<text text-anchor="middle" x="510.39" y="-28.15" font-family="Segoe UI" font-size="8.00" fill="#64748b">Transformacija</text>
</g>
<!-- a2 -->
<g id="node6" class="node">
<title>a2</title>
<path fill="#f0fdf4" stroke="#16a34a" stroke-width="1.4" d="M756.35,-43.79C756.35,-43.79 683.41,-43.79 683.41,-43.79 677.48,-43.79 671.55,-37.86 671.55,-31.93 671.55,-31.93 671.55,-20.07 671.55,-20.07 671.55,-14.14 677.48,-8.21 683.41,-8.21 683.41,-8.21 756.35,-8.21 756.35,-8.21 762.28,-8.21 768.21,-14.14 768.21,-20.07 768.21,-20.07 768.21,-31.93 768.21,-31.93 768.21,-37.86 762.28,-43.79 756.35,-43.79"/>
<text text-anchor="middle" x="719.88" y="-29.25" font-family="Segoe UI" font-size="10.00" fill="#14532d">15:00</text>
<text text-anchor="middle" x="719.88" y="-16.5" font-family="Segoe UI" font-size="10.00" fill="#14532d">Command Center</text>
</g>
<!-- a1&#45;&gt;a2 -->
<g id="edge5" class="edge">
<title>a1&#45;&gt;a2</title>
<path fill="none" stroke="#94a3b8" stroke-width="1.4" d="M621.83,-26C634.16,-26 649.04,-26 663.4,-26"/>
<polygon fill="#94a3b8" stroke="#94a3b8" stroke-width="1.4" points="663.18,-28.1 669.18,-26 663.18,-23.9 663.18,-28.1"/>
</g>
<!-- a3 -->
<g id="node7" class="node">
<title>a3</title>
<path fill="#f0fdf4" stroke="#16a34a" stroke-width="1.4" d="M882.76,-43.79C882.76,-43.79 830.07,-43.79 830.07,-43.79 824.14,-43.79 818.21,-37.86 818.21,-31.93 818.21,-31.93 818.21,-20.07 818.21,-20.07 818.21,-14.14 824.14,-8.21 830.07,-8.21 830.07,-8.21 882.76,-8.21 882.76,-8.21 888.69,-8.21 894.62,-14.14 894.62,-20.07 894.62,-20.07 894.62,-31.93 894.62,-31.93 894.62,-37.86 888.69,-43.79 882.76,-43.79"/>
<text text-anchor="middle" x="856.42" y="-29.25" font-family="Segoe UI" font-size="10.00" fill="#14532d">15:05 Marija:</text>
<text text-anchor="middle" x="856.42" y="-16.5" font-family="Segoe UI" font-size="10.00" fill="#14532d">Review</text>
</g>
<!-- a2&#45;&gt;a3 -->
<g id="edge6" class="edge">
<title>a2&#45;&gt;a3</title>
<path fill="none" stroke="#94a3b8" stroke-width="1.4" d="M768.69,-26C782.08,-26 796.58,-26 809.84,-26"/>
<polygon fill="#94a3b8" stroke="#94a3b8" stroke-width="1.4" points="809.78,-28.1 815.78,-26 809.78,-23.9 809.78,-28.1"/>
</g>
<!-- a4 -->
<g id="node8" class="node">
<title>a4</title>
<path fill="#f0fdf4" stroke="#16a34a" stroke-width="1.4" d="M1005.42,-43.79C1005.42,-43.79 956.48,-43.79 956.48,-43.79 950.55,-43.79 944.62,-37.86 944.62,-31.93 944.62,-31.93 944.62,-20.07 944.62,-20.07 944.62,-14.14 950.55,-8.21 956.48,-8.21 956.48,-8.21 1005.42,-8.21 1005.42,-8.21 1011.35,-8.21 1017.28,-14.14 1017.28,-20.07 1017.28,-20.07 1017.28,-31.93 1017.28,-31.93 1017.28,-37.86 1011.35,-43.79 1005.42,-43.79"/>
<text text-anchor="middle" x="980.95" y="-29.25" font-family="Segoe UI" font-size="10.00" fill="#14532d">15:10 Greta:</text>
<text text-anchor="middle" x="980.95" y="-16.5" font-family="Segoe UI" font-size="10.00" fill="#14532d">CAC/ROAS</text>
</g>
<!-- a3&#45;&gt;a4 -->
<g id="edge7" class="edge">
<title>a3&#45;&gt;a4</title>
<path fill="none" stroke="#94a3b8" stroke-width="1.4" d="M894.85,-26C908.02,-26 922.95,-26 936.57,-26"/>
<polygon fill="#94a3b8" stroke="#94a3b8" stroke-width="1.4" points="936.31,-28.1 942.31,-26 936.31,-23.9 936.31,-28.1"/>
</g>
<!-- a5 -->
<g id="node9" class="node">
<title>a5</title>
<path fill="#f0fdf4" stroke="#16a34a" stroke-width="1.4" d="M1117.58,-43.79C1117.58,-43.79 1079.14,-43.79 1079.14,-43.79 1073.21,-43.79 1067.28,-37.86 1067.28,-31.93 1067.28,-31.93 1067.28,-20.07 1067.28,-20.07 1067.28,-14.14 1073.21,-8.21 1079.14,-8.21 1079.14,-8.21 1117.58,-8.21 1117.58,-8.21 1123.51,-8.21 1129.44,-14.14 1129.44,-20.07 1129.44,-20.07 1129.44,-31.93 1129.44,-31.93 1129.44,-37.86 1123.51,-43.79 1117.58,-43.79"/>
<text text-anchor="middle" x="1098.36" y="-29.25" font-family="Segoe UI" font-size="10.00" fill="#14532d">15:20 Call</text>
<text text-anchor="middle" x="1098.36" y="-16.5" font-family="Segoe UI" font-size="10.00" fill="#14532d">Audit</text>
</g>
<!-- a4&#45;&gt;a5 -->
<g id="edge8" class="edge">
<title>a4&#45;&gt;a5</title>
<path fill="none" stroke="#94a3b8" stroke-width="1.4" d="M1017.52,-26C1030.68,-26 1045.66,-26 1059.05,-26"/>
<polygon fill="#94a3b8" stroke="#94a3b8" stroke-width="1.4" points="1059.04,-28.1 1065.04,-26 1059.04,-23.9 1059.04,-28.1"/>
</g>
<!-- a6 -->
<g id="node10" class="node">
<title>a6</title>
<path fill="#ecfdf5" stroke="#059669" stroke-width="1.4" d="M1243.25,-44.4C1243.25,-44.4 1189.04,-44.4 1189.04,-44.4 1184.24,-44.4 1179.44,-39.6 1179.44,-34.8 1179.44,-34.8 1179.44,-25.2 1179.44,-25.2 1179.44,-20.4 1184.24,-15.6 1189.04,-15.6 1189.04,-15.6 1243.25,-15.6 1243.25,-15.6 1248.05,-15.6 1252.85,-20.4 1252.85,-25.2 1252.85,-25.2 1252.85,-34.8 1252.85,-34.8 1252.85,-39.6 1248.05,-44.4 1243.25,-44.4"/>
<text text-anchor="middle" x="1216.15" y="-26.88" font-family="Segoe UI" font-size="10.00" fill="#064e3b">15:30 Baigta</text>
</g>
<!-- a5&#45;&gt;a6 -->
<g id="edge9" class="edge">
<title>a5&#45;&gt;a6</title>
<path fill="none" stroke="#94a3b8" stroke-width="1.4" d="M1129.78,-27.05C1142.44,-27.49 1157.38,-28 1171.19,-28.48"/>
<polygon fill="#94a3b8" stroke="#94a3b8" stroke-width="1.4" points="1170.98,-30.58 1177.05,-28.68 1171.13,-26.38 1170.98,-30.58"/>
</g>
</g>
</svg>
