<?xml version="1.0" encoding="UTF-8" standalone="no"?>
<!DOCTYPE svg PUBLIC "-//W3C//DTD SVG 1.1//EN"
 "http://www.w3.org/Graphics/SVG/1.1/DTD/svg11.dtd">
<!-- Generated by graphviz version 11.0.0 (20240428.1522)
 -->
<!-- Title: wf1 Pages: 1 -->
<svg width="771pt" height="701pt"
 viewBox="20.16 20.16 557.76 505.45" xmlns="http://www.w3.org/2000/svg" xmlns:xlink="http://www.w3.org/1999/xlink">
<g id="graph0" class="graph" transform="scale(1.33333 1.33333) rotate(0) translate(81.36 444.25)">
<title>wf1</title>
<polygon fill="white" stroke="none" points="-61.2,61.2 -61.2,-424.09 476.4,-424.09 476.4,61.2 -61.2,61.2"/>
<!-- new -->
<g id="node1" class="node">
<title>new</title>
<path fill="#eff6ff" stroke="#3b82f6" stroke-width="1.4" d="M264.69,-362.89C264.69,-362.89 209.72,-362.89 209.72,-362.89 204.93,-362.89 200.12,-358.09 200.12,-353.29 200.12,-353.29 200.12,-343.69 200.12,-343.69 200.12,-338.89 204.92,-334.09 209.72,-334.09 209.72,-334.09 264.69,-334.09 264.69,-334.09 269.48,-334.09 274.28,-338.89 274.28,-343.69 274.28,-343.69 274.28,-353.29 274.28,-353.29 274.28,-358.09 269.48,-362.89 264.69,-362.89"/>
<text text-anchor="middle" x="237.2" y="-345.37" font-family="Segoe UI" font-size="10.00" fill="#1e3a5f">Naujas Lead</text>
</g>
<!-- enr -->
<g id="node2" class="node">
<title>enr</title>
<path fill="#f0fdfa" stroke="#0f766e" stroke-width="1.4" d="M274.42,-302.09C274.42,-302.09 199.99,-302.09 199.99,-302.09 194.06,-302.09 188.12,-296.16 188.12,-290.23 188.12,-290.23 188.12,-278.37 188.12,-278.37 188.12,-272.44 194.06,-266.51 199.99,-266.51 199.99,-266.51 274.42,-266.51 274.42,-266.51 280.35,-266.51 286.28,-272.44 286.28,-278.37 286.28,-278.37 286.28,-290.23 286.28,-290.23 286.28,-296.16 280.35,-302.09 274.42,-302.09"/>
<text text-anchor="middle" x="237.2" y="-287.55" font-family="Segoe UI" font-size="10.00" fill="#134e4a">API Enrichment</text>
<text text-anchor="middle" x="237.2" y="-274.8" font-family="Segoe UI" font-size="10.00" fill="#134e4a">Rekvizitai / Apollo</text>
</g>
<!-- new&#45;&gt;enr -->
<g id="edge1" class="edge">
<title>new&#45;&gt;enr</title>
<path fill="none" stroke="#94a3b8" stroke-width="1.4" d="M237.2,-333.69C237.2,-326.78 237.2,-318.21 237.2,-310.21"/>
<polygon fill="#94a3b8" stroke="#94a3b8" stroke-width="1.4" points="239.31,-310.28 237.21,-304.28 235.11,-310.28 239.31,-310.28"/>
</g>
<!-- fmt -->
<g id="node3" class="node">
<title>fmt</title>
<path fill="#f9fafb" stroke="#6b7280" stroke-width="1.4" d="M281.56,-234.51C281.56,-234.51 192.85,-234.51 192.85,-234.51 188.05,-234.51 183.25,-229.71 183.25,-224.91 183.25,-224.91 183.25,-215.31 183.25,-215.31 183.25,-210.51 188.05,-205.71 192.85,-205.71 192.85,-205.71 281.56,-205.71 281.56,-205.71 286.36,-205.71 291.16,-210.51 291.16,-215.31 291.16,-215.31 291.16,-224.91 291.16,-224.91 291.16,-229.71 286.36,-234.51 281.56,-234.51"/>
<text text-anchor="middle" x="237.2" y="-216.98" font-family="Segoe UI" font-size="10.00" fill="#1f2937">JSON Formatavimas</text>
</g>
<!-- enr&#45;&gt;fmt -->
<g id="edge2" class="edge">
<title>enr&#45;&gt;fmt</title>
<path fill="none" stroke="#94a3b8" stroke-width="1.4" d="M237.2,-266.31C237.2,-259.02 237.2,-250.42 237.2,-242.68"/>
<polygon fill="#94a3b8" stroke="#94a3b8" stroke-width="1.4" points="239.31,-242.86 237.21,-236.86 235.11,-242.86 239.31,-242.86"/>
</g>
<!-- scr -->
<g id="node4" class="node">
<title>scr</title>
<path fill="#f5f3ff" stroke="#7c3aed" stroke-width="1.4" d="M262.8,-173.71C262.8,-173.71 211.61,-173.71 211.61,-173.71 205.68,-173.71 199.75,-167.78 199.75,-161.85 199.75,-161.85 199.75,-149.99 199.75,-149.99 199.75,-144.06 205.68,-138.13 211.61,-138.13 211.61,-138.13 262.8,-138.13 262.8,-138.13 268.73,-138.13 274.66,-144.06 274.66,-149.99 274.66,-149.99 274.66,-161.85 274.66,-161.85 274.66,-167.78 268.73,-173.71 262.8,-173.71"/>
<text text-anchor="middle" x="237.2" y="-159.17" font-family="Segoe UI" font-size="10.00" fill="#4c1d95">RAG Scoring</text>
<text text-anchor="middle" x="237.2" y="-146.42" font-family="Segoe UI" font-size="10.00" fill="#4c1d95">A / B / C / D</text>
</g>
<!-- fmt&#45;&gt;scr -->
<g id="edge3" class="edge">
<title>fmt&#45;&gt;scr</title>
<path fill="none" stroke="#94a3b8" stroke-width="1.4" d="M237.2,-205.31C237.2,-198.4 237.2,-189.83 237.2,-181.83"/>
<polygon fill="#94a3b8" stroke="#94a3b8" stroke-width="1.4" points="239.31,-181.9 237.21,-175.9 235.11,-181.9 239.31,-181.9"/>
</g>
<!-- upd -->
<g id="node5" class="node">
<title>upd</title>
<path fill="#fff7ed" stroke="#ea580c" stroke-width="1.4" d="M102.81,-92.99C102.81,-92.99 9.6,-92.99 9.6,-92.99 4.8,-92.99 0,-88.19 0,-83.39 0,-83.39 0,-73.79 0,-73.79 0,-68.99 4.8,-64.19 9.6,-64.19 9.6,-64.19 102.81,-64.19 102.81,-64.19 107.61,-64.19 112.41,-68.99 112.41,-73.79 112.41,-73.79 112.41,-83.39 112.41,-83.39 112.41,-88.19 107.61,-92.99 102.81,-92.99"/>
<text text-anchor="middle" x="56.2" y="-75.47" font-family="Segoe UI" font-size="10.00" fill="#7c2d12">Monday.com Update</text>
</g>
<!-- scr&#45;&gt;upd -->
<g id="edge4" class="edge">
<title>scr&#45;&gt;upd</title>
<path fill="none" stroke="#94a3b8" stroke-width="1.4" d="M199.26,-139.13C169.22,-126.63 127.36,-109.21 96.69,-96.44"/>
<polygon fill="#94a3b8" stroke="#94a3b8" stroke-width="1.4" points="97.84,-94.64 91.49,-94.28 96.22,-98.52 97.84,-94.64"/>
</g>
<!-- ab -->
<g id="node7" class="node">
<title>ab</title>
<path fill="#ecfdf5" stroke="#059669" stroke-width="1.4" d="M213.55,-96.38C213.55,-96.38 148.86,-96.38 148.86,-96.38 142.93,-96.38 137,-90.45 137,-84.52 137,-84.52 137,-72.66 137,-72.66 137,-66.73 142.93,-60.8 148.86,-60.8 148.86,-60.8 213.55,-60.8 213.55,-60.8 219.48,-60.8 225.41,-66.73 225.41,-72.66 225.41,-72.66 225.41,-84.52 225.41,-84.52 225.41,-90.45 219.48,-96.38 213.55,-96.38"/>
<text text-anchor="middle" x="181.2" y="-81.84" font-family="Segoe UI" font-size="10.00" fill="#064e3b">Priskirti</text>
<text text-anchor="middle" x="181.2" y="-69.09" font-family="Segoe UI" font-size="10.00" fill="#064e3b">Lauriui / Marijai</text>
</g>
<!-- scr&#45;&gt;ab -->
<g id="edge6" class="edge">
<title>scr&#45;&gt;ab</title>
<path fill="none" stroke="#94a3b8" stroke-width="1.4" d="M224.5,-137.83C216.89,-127.59 207.11,-114.44 198.77,-103.22"/>
<polygon fill="#94a3b8" stroke="#94a3b8" stroke-width="1.4" points="200.58,-102.14 195.32,-98.58 197.21,-104.65 200.58,-102.14"/>
<text text-anchor="middle" x="219.95" y="-114.53" font-family="Segoe UI" font-size="8.00" fill="#64748b">A/B</text>
</g>
<!-- c -->
<g id="node8" class="node">
<title>c</title>
<path fill="#f5f3ff" stroke="#7c3aed" stroke-width="1.4" d="M326.31,-92.99C326.31,-92.99 260.1,-92.99 260.1,-92.99 255.3,-92.99 250.5,-88.19 250.5,-83.39 250.5,-83.39 250.5,-73.79 250.5,-73.79 250.5,-68.99 255.3,-64.19 260.1,-64.19 260.1,-64.19 326.31,-64.19 326.31,-64.19 331.11,-64.19 335.91,-68.99 335.91,-73.79 335.91,-73.79 335.91,-83.39 335.91,-83.39 335.91,-88.19 331.11,-92.99 326.31,-92.99"/>
<text text-anchor="middle" x="293.2" y="-75.47" font-family="Segoe UI" font-size="10.00" fill="#4c1d95">Perduoti Newo</text>
</g>
<!-- scr&#45;&gt;c -->
<g id="edge7" class="edge">
<title>scr&#45;&gt;c</title>
<path fill="none" stroke="#94a3b8" stroke-width="1.4" d="M249.91,-137.83C258.41,-126.4 269.61,-111.33 278.49,-99.38"/>
<polygon fill="#94a3b8" stroke="#94a3b8" stroke-width="1.4" points="280,-100.88 281.89,-94.81 276.63,-98.37 280,-100.88"/>
<text text-anchor="middle" x="271.83" y="-114.53" font-family="Segoe UI" font-size="8.00" fill="#64748b">C</text>
</g>
<!-- d -->
<g id="node9" class="node">
<title>d</title>
<path fill="#f9fafb" stroke="#6b7280" stroke-width="1.4" d="M405.6,-92.99C405.6,-92.99 370.81,-92.99 370.81,-92.99 366,-92.99 361.2,-88.19 361.2,-83.39 361.2,-83.39 361.2,-73.79 361.2,-73.79 361.2,-68.99 366,-64.19 370.81,-64.19 370.81,-64.19 405.6,-64.19 405.6,-64.19 410.4,-64.19 415.2,-68.99 415.2,-73.79 415.2,-73.79 415.2,-83.39 415.2,-83.39 415.2,-88.19 410.4,-92.99 405.6,-92.99"/>
<text text-anchor="middle" x="388.2" y="-75.47" font-family="Segoe UI" font-size="10.00" fill="#1f2937">Nurture</text>
</g>
<!-- scr&#45;&gt;d -->
<g id="edge8" class="edge">
<title>scr&#45;&gt;d</title>
<path fill="none" stroke="#94a3b8" stroke-width="1.4" d="M271.85,-137.64C296.41,-125.38 329.24,-109.01 353.76,-96.77"/>
<polygon fill="#94a3b8" stroke="#94a3b8" stroke-width="1.4" points="354.44,-98.78 358.87,-94.22 352.56,-95.02 354.44,-98.78"/>
<text text-anchor="middle" x="324.2" y="-114.53" font-family="Segoe UI" font-size="8.00" fill="#64748b">D</text>
</g>
<!-- dsh -->
<g id="node6" class="node">
<title>dsh</title>
<path fill="#f0fdf4" stroke="#16a34a" stroke-width="1.4" d="M92.31,-28.8C92.31,-28.8 20.1,-28.8 20.1,-28.8 15.3,-28.8 10.5,-24 10.5,-19.2 10.5,-19.2 10.5,-9.6 10.5,-9.6 10.5,-4.8 15.3,0 20.1,0 20.1,0 92.31,0 92.31,0 97.11,0 101.91,-4.8 101.91,-9.6 101.91,-9.6 101.91,-19.2 101.91,-19.2 101.91,-24 97.11,-28.8 92.31,-28.8"/>
<text text-anchor="middle" x="56.2" y="-11.27" font-family="Segoe UI" font-size="10.00" fill="#14532d">Dashboard Sync</text>
</g>
<!-- upd&#45;&gt;dsh -->
<g id="edge5" class="edge">
<title>upd&#45;&gt;dsh</title>
<path fill="none" stroke="#94a3b8" stroke-width="1.4" d="M56.2,-63.79C56.2,-55.98 56.2,-46.03 56.2,-37.19"/>
<polygon fill="#94a3b8" stroke="#94a3b8" stroke-width="1.4" points="58.31,-37.28 56.21,-31.28 54.11,-37.28 58.31,-37.28"/>
</g>
</g>
</svg>
