<?xml version="1.0" encoding="UTF-8" standalone="no"?>
<!DOCTYPE svg PUBLIC "-//W3C//DTD SVG 1.1//EN"
 "http://www.w3.org/Graphics/SVG/1.1/DTD/svg11.dtd">
<!-- Generated by graphviz version 11.0.0 (20240428.1522)
 -->
<!-- Title: wf3 Pages: 1 -->
<svg width="871pt" height="598pt"
 viewBox="20.16 20.16 633.22 428.12" xmlns="http://www.w3.org/2000/svg" xmlns:xlink="http://www.w3.org/1999/xlink">
<g id="graph0" class="graph" transform="scale(1.33333 1.33333) rotate(0) translate(81.36 366.92)">
<title>wf3</title>
<polygon fill="white" stroke="none" points="-61.2,61.2 -61.2,-346.76 551.86,-346.76 551.86,61.2 -61.2,61.2"/>
<!-- au -->
<g id="node1" class="node">
<title>au</title>
<path fill="#eff6ff" stroke="#3b82f6" stroke-width="1.4" d="M268.94,-285.56C268.94,-285.56 215.47,-285.56 215.47,-285.56 210.67,-285.56 205.88,-280.76 205.88,-275.96 205.88,-275.96 205.88,-266.36 205.88,-266.36 205.88,-261.56 210.67,-256.76 215.47,-256.76 215.47,-256.76 268.94,-256.76 268.94,-256.76 273.74,-256.76 278.53,-261.56 278.53,-266.36 278.53,-266.36 278.53,-275.96 278.53,-275.96 278.53,-280.76 273.73,-285.56 268.94,-285.56"/>
<text text-anchor="middle" x="242.2" y="-268.04" font-family="Segoe UI" font-size="10.00" fill="#1e3a5f">Plaud Audio</text>
</g>
<!-- tr -->
<g id="node2" class="node">
<title>tr</title>
<path fill="#f5f3ff" stroke="#7c3aed" stroke-width="1.4" d="M290.68,-224.76C290.68,-224.76 193.73,-224.76 193.73,-224.76 188.93,-224.76 184.12,-219.96 184.12,-215.16 184.12,-215.16 184.12,-205.56 184.12,-205.56 184.12,-200.76 188.93,-195.96 193.72,-195.96 193.72,-195.96 290.68,-195.96 290.68,-195.96 295.48,-195.96 300.28,-200.76 300.28,-205.56 300.28,-205.56 300.28,-215.16 300.28,-215.16 300.28,-219.96 295.48,-224.76 290.68,-224.76"/>
<text text-anchor="middle" x="242.2" y="-207.24" font-family="Segoe UI" font-size="10.00" fill="#4c1d95">Whisper: Transkripcija</text>
</g>
<!-- au&#45;&gt;tr -->
<g id="edge1" class="edge">
<title>au&#45;&gt;tr</title>
<path fill="none" stroke="#94a3b8" stroke-width="1.4" d="M242.2,-256.52C242.2,-249.55 242.2,-240.89 242.2,-233.03"/>
<polygon fill="#94a3b8" stroke="#94a3b8" stroke-width="1.4" points="244.31,-233.04 242.21,-227.04 240.11,-233.04 244.31,-233.04"/>
</g>
<!-- an -->
<g id="node3" class="node">
<title>an</title>
<path fill="#f5f3ff" stroke="#7c3aed" stroke-width="1.4" d="M273.42,-163.96C273.42,-163.96 210.99,-163.96 210.99,-163.96 205.06,-163.96 199.12,-158.03 199.12,-152.1 199.12,-152.1 199.12,-140.24 199.12,-140.24 199.12,-134.31 205.06,-128.38 210.98,-128.38 210.98,-128.38 273.42,-128.38 273.42,-128.38 279.35,-128.38 285.28,-134.31 285.28,-140.24 285.28,-140.24 285.28,-152.1 285.28,-152.1 285.28,-158.03 279.35,-163.96 273.42,-163.96"/>
<text text-anchor="middle" x="242.2" y="-149.42" font-family="Segoe UI" font-size="10.00" fill="#4c1d95">Gemini 2.5 Pro:</text>
<text text-anchor="middle" x="242.2" y="-136.67" font-family="Segoe UI" font-size="10.00" fill="#4c1d95">QA Scorecard</text>
</g>
<!-- tr&#45;&gt;an -->
<g id="edge2" class="edge">
<title>tr&#45;&gt;an</title>
<path fill="none" stroke="#94a3b8" stroke-width="1.4" d="M242.2,-195.56C242.2,-188.65 242.2,-180.08 242.2,-172.08"/>
<polygon fill="#94a3b8" stroke="#94a3b8" stroke-width="1.4" points="244.31,-172.15 242.21,-166.15 240.11,-172.15 244.31,-172.15"/>
</g>
<!-- js -->
<g id="node4" class="node">
<title>js</title>
<path fill="#f9fafb" stroke="#6b7280" stroke-width="1.4" d="M292.55,-96.38C292.55,-96.38 191.86,-96.38 191.86,-96.38 185.93,-96.38 180,-90.45 180,-84.52 180,-84.52 180,-72.66 180,-72.66 180,-66.73 185.93,-60.8 191.86,-60.8 191.86,-60.8 292.55,-60.8 292.55,-60.8 298.48,-60.8 304.41,-66.73 304.41,-72.66 304.41,-72.66 304.41,-84.52 304.41,-84.52 304.41,-90.45 298.48,-96.38 292.55,-96.38"/>
<text text-anchor="middle" x="242.2" y="-81.84" font-family="Segoe UI" font-size="10.00" fill="#1f2937">JSON Output</text>
<text text-anchor="middle" x="242.2" y="-69.09" font-family="Segoe UI" font-size="10.00" fill="#1f2937">summary · BANT · score</text>
</g>
<!-- an&#45;&gt;js -->
<g id="edge3" class="edge">
<title>an&#45;&gt;js</title>
<path fill="none" stroke="#94a3b8" stroke-width="1.4" d="M242.2,-127.94C242.2,-120.65 242.2,-112.03 242.2,-104.1"/>
<polygon fill="#94a3b8" stroke="#94a3b8" stroke-width="1.4" points="244.31,-104.6 242.21,-98.6 240.11,-104.6 244.31,-104.6"/>
</g>
<!-- crm -->
<g id="node5" class="node">
<title>crm</title>
<path fill="#fff7ed" stroke="#ea580c" stroke-width="1.4" d="M102.81,-28.8C102.81,-28.8 9.6,-28.8 9.6,-28.8 4.8,-28.8 0,-24 0,-19.2 0,-19.2 0,-9.6 0,-9.6 0,-4.8 4.8,0 9.6,0 9.6,0 102.81,0 102.81,0 107.61,0 112.41,-4.8 112.41,-9.6 112.41,-9.6 112.41,-19.2 112.41,-19.2 112.41,-24 107.61,-28.8 102.81,-28.8"/>
<text text-anchor="middle" x="56.2" y="-11.27" font-family="Segoe UI" font-size="10.00" fill="#7c2d12">Monday.com Update</text>
</g>
<!-- js&#45;&gt;crm -->
<g id="edge4" class="edge">
<title>js&#45;&gt;crm</title>
<path fill="none" stroke="#94a3b8" stroke-width="1.4" d="M190.89,-60.43C164.17,-51.5 131.66,-40.63 105.28,-31.81"/>
<polygon fill="#94a3b8" stroke="#94a3b8" stroke-width="1.4" points="106.02,-29.84 99.67,-29.93 104.69,-33.83 106.02,-29.84"/>
</g>
<!-- db -->
<g id="node6" class="node">
<title>db</title>
<path fill="#fff7ed" stroke="#ea580c" stroke-width="1.4" d="M217.56,-28.8C217.56,-28.8 146.85,-28.8 146.85,-28.8 142.05,-28.8 137.25,-24 137.25,-19.2 137.25,-19.2 137.25,-9.6 137.25,-9.6 137.25,-4.8 142.05,0 146.85,0 146.85,0 217.56,0 217.56,0 222.36,0 227.16,-4.8 227.16,-9.6 227.16,-9.6 227.16,-19.2 227.16,-19.2 227.16,-24 222.36,-28.8 217.56,-28.8"/>
<text text-anchor="middle" x="182.2" y="-11.27" font-family="Segoe UI" font-size="10.00" fill="#7c2d12">PostgreSQL: QA</text>
</g>
<!-- js&#45;&gt;db -->
<g id="edge5" class="edge">
<title>js&#45;&gt;db</title>
<path fill="none" stroke="#94a3b8" stroke-width="1.4" d="M225.81,-60.6C218.03,-52.53 208.7,-42.86 200.67,-34.54"/>
<polygon fill="#94a3b8" stroke="#94a3b8" stroke-width="1.4" points="202.5,-33.41 196.82,-30.55 199.48,-36.33 202.5,-33.41"/>
</g>
<!-- em -->
<g id="node7" class="node">
<title>em</title>
<path fill="#ecfdf5" stroke="#059669" stroke-width="1.4" d="M344.93,-28.8C344.93,-28.8 261.48,-28.8 261.48,-28.8 256.68,-28.8 251.88,-24 251.88,-19.2 251.88,-19.2 251.88,-9.6 251.88,-9.6 251.88,-4.8 256.68,0 261.48,0 261.48,0 344.93,0 344.93,0 349.73,0 354.53,-4.8 354.53,-9.6 354.53,-9.6 354.53,-19.2 354.53,-19.2 354.53,-24 349.73,-28.8 344.93,-28.8"/>
<text text-anchor="middle" x="303.2" y="-11.27" font-family="Segoe UI" font-size="10.00" fill="#064e3b">Outlook: Follow&#45;up</text>
</g>
<!-- js&#45;&gt;em -->
<g id="edge6" class="edge">
<title>js&#45;&gt;em</title>
<path fill="none" stroke="#94a3b8" stroke-width="1.4" d="M258.87,-60.6C266.78,-52.53 276.27,-42.86 284.43,-34.54"/>
<polygon fill="#94a3b8" stroke="#94a3b8" stroke-width="1.4" points="285.65,-36.3 288.35,-30.54 282.65,-33.35 285.65,-36.3"/>
</g>
<!-- da -->
<g id="node8" class="node">
<title>da</title>
<path fill="#f0fdf4" stroke="#16a34a" stroke-width="1.4" d="M481.06,-28.8C481.06,-28.8 389.35,-28.8 389.35,-28.8 384.55,-28.8 379.75,-24 379.75,-19.2 379.75,-19.2 379.75,-9.6 379.75,-9.6 379.75,-4.8 384.55,0 389.35,0 389.35,0 481.06,0 481.06,0 485.86,0 490.66,-4.8 490.66,-9.6 490.66,-9.6 490.66,-19.2 490.66,-19.2 490.66,-24 485.86,-28.8 481.06,-28.8"/>
<text text-anchor="middle" x="435.2" y="-11.27" font-family="Segoe UI" font-size="10.00" fill="#14532d">Dashboard: QA View</text>
</g>
<!-- js&#45;&gt;da -->
<g id="edge7" class="edge">
<title>js&#45;&gt;da</title>
<path fill="none" stroke="#94a3b8" stroke-width="1.4" d="M295.71,-60.35C323.55,-51.38 357.39,-40.48 384.76,-31.65"/>
<polygon fill="#94a3b8" stroke="#94a3b8" stroke-width="1.4" points="385.22,-33.71 390.29,-29.87 383.93,-29.72 385.22,-33.71"/>
</g>
</g>
</svg>
