<?xml version="1.0" encoding="UTF-8" standalone="no"?>
<!DOCTYPE svg PUBLIC "-//W3C//DTD SVG 1.1//EN"
 "http://www.w3.org/Graphics/SVG/1.1/DTD/svg11.dtd">
<!-- Generated by graphviz version 11.0.0 (20240428.1522)
 -->
<!-- Title: wf2 Pages: 1 -->
<svg width="632pt" height="706pt"
 viewBox="20.16 20.16 453.97 509.11" xmlns="http://www.w3.org/2000/svg" xmlns:xlink="http://www.w3.org/1999/xlink">
<g id="graph0" class="graph" transform="scale(1.33333 1.33333) rotate(0) translate(81.36 447.91)">
<title>wf2</title>
<polygon fill="white" stroke="none" points="-61.2,61.2 -61.2,-427.75 372.61,-427.75 372.61,61.2 -61.2,61.2"/>
<!-- cron -->
<g id="node1" class="node">
<title>cron</title>
<path fill="#f0fdfa" stroke="#0f766e" stroke-width="1.4" d="M69.06,-363.16C69.06,-363.16 9.6,-363.16 9.6,-363.16 4.8,-363.16 0,-358.36 0,-353.56 0,-353.56 0,-343.96 0,-343.96 0,-339.16 4.8,-334.36 9.6,-334.36 9.6,-334.36 69.06,-334.36 69.06,-334.36 73.86,-334.36 78.66,-339.16 78.66,-343.96 78.66,-343.96 78.66,-353.56 78.66,-353.56 78.66,-358.36 73.86,-363.16 69.06,-363.16"/>
<text text-anchor="middle" x="39.33" y="-345.63" font-family="Segoe UI" font-size="10.00" fill="#134e4a">Naktinis Cron</text>
</g>
<!-- rag -->
<g id="node2" class="node">
<title>rag</title>
<path fill="#f5f3ff" stroke="#7c3aed" stroke-width="1.4" d="M64.17,-274.74C64.17,-274.74 14.48,-274.74 14.48,-274.74 8.55,-274.74 2.62,-268.81 2.62,-262.88 2.62,-262.88 2.62,-251.02 2.62,-251.02 2.62,-245.09 8.55,-239.16 14.48,-239.16 14.48,-239.16 64.17,-239.16 64.17,-239.16 70.1,-239.16 76.03,-245.09 76.03,-251.02 76.03,-251.02 76.03,-262.88 76.03,-262.88 76.03,-268.81 70.1,-274.74 64.17,-274.74"/>
<text text-anchor="middle" x="39.33" y="-260.2" font-family="Segoe UI" font-size="10.00" fill="#4c1d95">RAG: Sukurti</text>
<text text-anchor="middle" x="39.33" y="-247.45" font-family="Segoe UI" font-size="10.00" fill="#4c1d95">pirminį Brief</text>
</g>
<!-- cron&#45;&gt;rag -->
<g id="edge1" class="edge">
<title>cron&#45;&gt;rag</title>
<path fill="none" stroke="#94a3b8" stroke-width="1.4" d="M39.33,-334.12C39.33,-320.54 39.33,-299.39 39.33,-282.82"/>
<polygon fill="#94a3b8" stroke="#94a3b8" stroke-width="1.4" points="41.43,-283.22 39.33,-277.22 37.23,-283.22 41.43,-283.22"/>
</g>
<!-- store -->
<g id="node3" class="node">
<title>store</title>
<path fill="#fff7ed" stroke="#ea580c" stroke-width="1.4" d="M66.81,-169.79C66.81,-169.79 11.85,-169.79 11.85,-169.79 7.05,-169.79 2.25,-164.99 2.25,-160.19 2.25,-160.19 2.25,-150.59 2.25,-150.59 2.25,-145.79 7.05,-140.99 11.85,-140.99 11.85,-140.99 66.81,-140.99 66.81,-140.99 71.61,-140.99 76.41,-145.79 76.41,-150.59 76.41,-150.59 76.41,-160.19 76.41,-160.19 76.41,-164.99 71.61,-169.79 66.81,-169.79"/>
<text text-anchor="middle" x="39.33" y="-152.26" font-family="Segoe UI" font-size="10.00" fill="#7c2d12">Išsaugoti DB</text>
</g>
<!-- rag&#45;&gt;store -->
<g id="edge2" class="edge">
<title>rag&#45;&gt;store</title>
<path fill="none" stroke="#94a3b8" stroke-width="1.4" d="M39.33,-239.06C39.33,-222.22 39.33,-196.3 39.33,-177.97"/>
<polygon fill="#94a3b8" stroke="#94a3b8" stroke-width="1.4" points="41.43,-178.27 39.33,-172.27 37.23,-178.27 41.43,-178.27"/>
</g>
<!-- ev -->
<g id="node4" class="node">
<title>ev</title>
<path fill="#eff6ff" stroke="#3b82f6" stroke-width="1.4" d="M204.92,-366.55C204.92,-366.55 147.74,-366.55 147.74,-366.55 141.81,-366.55 135.88,-360.62 135.88,-354.69 135.88,-354.69 135.88,-342.83 135.88,-342.83 135.88,-336.9 141.81,-330.97 147.74,-330.97 147.74,-330.97 204.92,-330.97 204.92,-330.97 210.85,-330.97 216.78,-336.9 216.78,-342.83 216.78,-342.83 216.78,-354.69 216.78,-354.69 216.78,-360.62 210.85,-366.55 204.92,-366.55"/>
<text text-anchor="middle" x="176.33" y="-352.01" font-family="Segoe UI" font-size="10.00" fill="#1e3a5f">Outlook Event</text>
<text text-anchor="middle" x="176.33" y="-339.26" font-family="Segoe UI" font-size="10.00" fill="#1e3a5f">T−15 min</text>
</g>
<!-- chk -->
<g id="node5" class="node">
<title>chk</title>
<path fill="#fefce8" stroke="#ca8a04" stroke-width="1.4" d="M165.77,-285.27C165.77,-285.27 123.86,-262.65 123.86,-262.65 118.58,-259.8 118.58,-254.1 123.86,-251.25 123.86,-251.25 165.77,-228.63 165.77,-228.63 171.05,-225.78 181.61,-225.78 186.89,-228.63 186.89,-228.63 228.8,-251.25 228.8,-251.25 234.08,-254.1 234.08,-259.8 228.8,-262.65 228.8,-262.65 186.89,-285.27 186.89,-285.27 181.61,-288.12 171.05,-288.12 165.77,-285.27"/>
<text text-anchor="middle" x="176.33" y="-259.65" font-family="Segoe UI" font-size="9.00" fill="#713f12">Nauji</text>
<text text-anchor="middle" x="176.33" y="-248.4" font-family="Segoe UI" font-size="9.00" fill="#713f12">duomenys?</text>
</g>
<!-- ev&#45;&gt;chk -->
<g id="edge3" class="edge">
<title>ev&#45;&gt;chk</title>
<path fill="none" stroke="#94a3b8" stroke-width="1.4" d="M176.33,-330.87C176.33,-321.95 176.33,-310.59 176.33,-299.5"/>
<polygon fill="#94a3b8" stroke="#94a3b8" stroke-width="1.4" points="178.43,-299.63 176.33,-293.63 174.23,-299.63 178.43,-299.63"/>
</g>
<!-- ref -->
<g id="node6" class="node">
<title>ref</title>
<path fill="#f5f3ff" stroke="#7c3aed" stroke-width="1.4" d="M188.67,-173.18C188.67,-173.18 129.98,-173.18 129.98,-173.18 124.05,-173.18 118.12,-167.25 118.12,-161.32 118.12,-161.32 118.12,-149.46 118.12,-149.46 118.12,-143.53 124.05,-137.6 129.98,-137.6 129.98,-137.6 188.67,-137.6 188.67,-137.6 194.6,-137.6 200.53,-143.53 200.53,-149.46 200.53,-149.46 200.53,-161.32 200.53,-161.32 200.53,-167.25 194.6,-173.18 188.67,-173.18"/>
<text text-anchor="middle" x="159.33" y="-158.64" font-family="Segoe UI" font-size="10.00" fill="#4c1d95">Atnaujinti Brief</text>
<text text-anchor="middle" x="159.33" y="-145.89" font-family="Segoe UI" font-size="10.00" fill="#4c1d95">RAG + Gemini</text>
</g>
<!-- chk&#45;&gt;ref -->
<g id="edge4" class="edge">
<title>chk&#45;&gt;ref</title>
<path fill="none" stroke="#94a3b8" stroke-width="1.4" d="M171.09,-225.27C168.68,-211.17 165.86,-194.66 163.59,-181.34"/>
<polygon fill="#94a3b8" stroke="#94a3b8" stroke-width="1.4" points="165.69,-181.16 162.61,-175.59 161.55,-181.86 165.69,-181.16"/>
<text text-anchor="middle" x="175.2" y="-195.33" font-family="Segoe UI" font-size="8.00" fill="#64748b">Taip</text>
</g>
<!-- use -->
<g id="node7" class="node">
<title>use</title>
<path fill="#f9fafb" stroke="#6b7280" stroke-width="1.4" d="M299.55,-173.18C299.55,-173.18 237.11,-173.18 237.11,-173.18 231.18,-173.18 225.25,-167.25 225.25,-161.32 225.25,-161.32 225.25,-149.46 225.25,-149.46 225.25,-143.53 231.18,-137.6 237.11,-137.6 237.11,-137.6 299.55,-137.6 299.55,-137.6 305.48,-137.6 311.41,-143.53 311.41,-149.46 311.41,-149.46 311.41,-161.32 311.41,-161.32 311.41,-167.25 305.48,-173.18 299.55,-173.18"/>
<text text-anchor="middle" x="268.33" y="-158.64" font-family="Segoe UI" font-size="10.00" fill="#1f2937">Naudoti naktinį</text>
<text text-anchor="middle" x="268.33" y="-145.89" font-family="Segoe UI" font-size="10.00" fill="#1f2937">Brief</text>
</g>
<!-- chk&#45;&gt;use -->
<g id="edge5" class="edge">
<title>chk&#45;&gt;use</title>
<path fill="none" stroke="#94a3b8" stroke-width="1.4" d="M196.75,-233.85C211.74,-217.63 232.05,-195.65 247.21,-179.25"/>
<polygon fill="#94a3b8" stroke="#94a3b8" stroke-width="1.4" points="248.57,-180.87 251.1,-175.04 245.49,-178.02 248.57,-180.87"/>
<text text-anchor="middle" x="237.58" y="-195.33" font-family="Segoe UI" font-size="8.00" fill="#64748b">Ne</text>
</g>
<!-- del -->
<g id="node8" class="node">
<title>del</title>
<path fill="#ecfdf5" stroke="#059669" stroke-width="1.4" d="M232.19,-97.6C232.19,-97.6 194.47,-97.6 194.47,-97.6 189.67,-97.6 184.87,-92.8 184.87,-88 184.87,-88 184.87,-78.4 184.87,-78.4 184.87,-73.6 189.67,-68.8 194.47,-68.8 194.47,-68.8 232.19,-68.8 232.19,-68.8 236.98,-68.8 241.78,-73.6 241.78,-78.4 241.78,-78.4 241.78,-88 241.78,-88 241.78,-92.8 236.98,-97.6 232.19,-97.6"/>
<text text-anchor="middle" x="213.33" y="-80.07" font-family="Segoe UI" font-size="10.00" fill="#064e3b">Pristatyti</text>
</g>
<!-- ref&#45;&gt;del -->
<g id="edge6" class="edge">
<title>ref&#45;&gt;del</title>
<path fill="none" stroke="#94a3b8" stroke-width="1.4" d="M172.4,-137.4C180.16,-127.32 190.02,-114.5 198.12,-103.96"/>
<polygon fill="#94a3b8" stroke="#94a3b8" stroke-width="1.4" points="199.62,-105.46 201.61,-99.43 196.29,-102.9 199.62,-105.46"/>
</g>
<!-- use&#45;&gt;del -->
<g id="edge7" class="edge">
<title>use&#45;&gt;del</title>
<path fill="none" stroke="#94a3b8" stroke-width="1.4" d="M255.02,-137.4C247.12,-127.32 237.07,-114.5 228.82,-103.96"/>
<polygon fill="#94a3b8" stroke="#94a3b8" stroke-width="1.4" points="230.61,-102.84 225.25,-99.42 227.3,-105.43 230.61,-102.84"/>
</g>
<!-- sl -->
<g id="node9" class="node">
<title>sl</title>
<path fill="#f0fdf4" stroke="#16a34a" stroke-width="1.4" d="M187.73,-28.8C187.73,-28.8 152.93,-28.8 152.93,-28.8 148.13,-28.8 143.33,-24 143.33,-19.2 143.33,-19.2 143.33,-9.6 143.33,-9.6 143.33,-4.8 148.13,0 152.93,0 152.93,0 187.73,0 187.73,0 192.53,0 197.33,-4.8 197.33,-9.6 197.33,-9.6 197.33,-19.2 197.33,-19.2 197.33,-24 192.53,-28.8 187.73,-28.8"/>
<text text-anchor="middle" x="170.33" y="-11.27" font-family="Segoe UI" font-size="10.00" fill="#14532d">Slack</text>
</g>
<!-- del&#45;&gt;sl -->
<g id="edge8" class="edge">
<title>del&#45;&gt;sl</title>
<path fill="none" stroke="#94a3b8" stroke-width="1.4" d="M204.42,-68.36C198.37,-58.95 190.26,-46.36 183.47,-35.81"/>
<polygon fill="#94a3b8" stroke="#94a3b8" stroke-width="1.4" points="185.39,-34.91 180.38,-31 181.86,-37.19 185.39,-34.91"/>
</g>
<!-- da -->
<g id="node10" class="node">
<title>da</title>
<path fill="#f0fdf4" stroke="#16a34a" stroke-width="1.4" d="M281.18,-28.8C281.18,-28.8 231.47,-28.8 231.47,-28.8 226.68,-28.8 221.88,-24 221.88,-19.2 221.88,-19.2 221.88,-9.6 221.88,-9.6 221.88,-4.8 226.68,0 231.47,0 231.47,0 281.18,0 281.18,0 285.98,0 290.78,-4.8 290.78,-9.6 290.78,-9.6 290.78,-19.2 290.78,-19.2 290.78,-24 285.98,-28.8 281.18,-28.8"/>
<text text-anchor="middle" x="256.33" y="-11.27" font-family="Segoe UI" font-size="10.00" fill="#14532d">Dashboard</text>
</g>
<!-- del&#45;&gt;da -->
<g id="edge9" class="edge">
<title>del&#45;&gt;da</title>
<path fill="none" stroke="#94a3b8" stroke-width="1.4" d="M222.24,-68.36C228.29,-58.95 236.4,-46.36 243.19,-35.81"/>
<polygon fill="#94a3b8" stroke="#94a3b8" stroke-width="1.4" points="244.8,-37.19 246.28,-31 241.27,-34.91 244.8,-37.19"/>
</g>
</g>
</svg>
