<?xml version="1.0" encoding="UTF-8" standalone="no"?>
<!DOCTYPE svg PUBLIC "-//W3C//DTD SVG 1.1//EN"
 "http://www.w3.org/Graphics/SVG/1.1/DTD/svg11.dtd">
<!-- Generated by graphviz version 11.0.0 (20240428.1522)
 -->
<!-- Title: wf5 Pages: 1 -->
<svg width="600pt" height="723pt"
 viewBox="20.16 20.16 429.97 522.19" xmlns="http://www.w3.org/2000/svg" xmlns:xlink="http://www.w3.org/1999/xlink">
<g id="graph0" class="graph" transform="scale(1.33333 1.33333) rotate(0) translate(81.36 460.99)">
<title>wf5</title>
<polygon fill="white" stroke="none" points="-61.2,61.2 -61.2,-440.83 348.61,-440.83 348.61,61.2 -61.2,61.2"/>
<!-- cr -->
<g id="node1" class="node">
<title>cr</title>
<path fill="#f0fdfa" stroke="#0f766e" stroke-width="1.4" d="M219.43,-379.63C219.43,-379.63 133.72,-379.63 133.72,-379.63 128.92,-379.63 124.12,-374.83 124.12,-370.03 124.12,-370.03 124.12,-360.43 124.12,-360.43 124.12,-355.63 128.92,-350.83 133.72,-350.83 133.72,-350.83 219.44,-350.83 219.44,-350.83 224.23,-350.83 229.03,-355.63 229.03,-360.43 229.03,-360.43 229.03,-370.03 229.03,-370.03 229.03,-374.83 224.23,-379.63 219.43,-379.63"/>
<text text-anchor="middle" x="176.58" y="-362.11" font-family="Segoe UI" font-size="10.00" fill="#134e4a">Naktinis Cron 02:00</text>
</g>
<!-- pull -->
<g id="node2" class="node">
<title>pull</title>
<path fill="#fff7ed" stroke="#ea580c" stroke-width="1.4" d="M221.67,-318.83C221.67,-318.83 131.49,-318.83 131.49,-318.83 125.55,-318.83 119.62,-312.9 119.62,-306.97 119.62,-306.97 119.62,-295.11 119.62,-295.11 119.62,-289.18 125.55,-283.25 131.49,-283.25 131.49,-283.25 221.67,-283.25 221.67,-283.25 227.6,-283.25 233.53,-289.18 233.53,-295.11 233.53,-295.11 233.53,-306.97 233.53,-306.97 233.53,-312.9 227.6,-318.83 221.67,-318.83"/>
<text text-anchor="middle" x="176.58" y="-304.29" font-family="Segoe UI" font-size="10.00" fill="#7c2d12">Ištraukti Monday.com</text>
<text text-anchor="middle" x="176.58" y="-291.54" font-family="Segoe UI" font-size="10.00" fill="#7c2d12">Deal būsenas</text>
</g>
<!-- cr&#45;&gt;pull -->
<g id="edge1" class="edge">
<title>cr&#45;&gt;pull</title>
<path fill="none" stroke="#94a3b8" stroke-width="1.4" d="M176.58,-350.43C176.58,-343.52 176.58,-334.95 176.58,-326.95"/>
<polygon fill="#94a3b8" stroke="#94a3b8" stroke-width="1.4" points="178.68,-327.02 176.58,-321.02 174.48,-327.02 178.68,-327.02"/>
</g>
<!-- cmp -->
<g id="node3" class="node">
<title>cmp</title>
<path fill="#f9fafb" stroke="#6b7280" stroke-width="1.4" d="M200.3,-251.25C200.3,-251.25 152.86,-251.25 152.86,-251.25 146.93,-251.25 141,-245.32 141,-239.39 141,-239.39 141,-227.53 141,-227.53 141,-221.6 146.93,-215.67 152.86,-215.67 152.86,-215.67 200.3,-215.67 200.3,-215.67 206.23,-215.67 212.16,-221.6 212.16,-227.53 212.16,-227.53 212.16,-239.39 212.16,-239.39 212.16,-245.32 206.23,-251.25 200.3,-251.25"/>
<text text-anchor="middle" x="176.58" y="-236.71" font-family="Segoe UI" font-size="10.00" fill="#1f2937">Palyginti su</text>
<text text-anchor="middle" x="176.58" y="-223.96" font-family="Segoe UI" font-size="10.00" fill="#1f2937">PostgreSQL</text>
</g>
<!-- pull&#45;&gt;cmp -->
<g id="edge2" class="edge">
<title>pull&#45;&gt;cmp</title>
<path fill="none" stroke="#94a3b8" stroke-width="1.4" d="M176.58,-282.81C176.58,-275.52 176.58,-266.9 176.58,-258.97"/>
<polygon fill="#94a3b8" stroke="#94a3b8" stroke-width="1.4" points="178.68,-259.47 176.58,-253.47 174.48,-259.47 178.68,-259.47"/>
</g>
<!-- diff -->
<g id="node4" class="node">
<title>diff</title>
<path fill="#fefce8" stroke="#ca8a04" stroke-width="1.4" d="M165.21,-179.84C165.21,-179.84 120.42,-164.73 120.42,-164.73 114.74,-162.82 114.74,-158.98 120.42,-157.07 120.42,-157.07 165.21,-141.96 165.21,-141.96 170.89,-140.05 182.27,-140.05 187.95,-141.96 187.95,-141.96 232.74,-157.07 232.74,-157.07 238.42,-158.98 238.42,-162.82 232.74,-164.73 232.74,-164.73 187.95,-179.84 187.95,-179.84 182.27,-181.75 170.89,-181.75 165.21,-179.84"/>
<text text-anchor="middle" x="176.58" y="-157.97" font-family="Segoe UI" font-size="9.00" fill="#713f12">Neatitikimų?</text>
</g>
<!-- cmp&#45;&gt;diff -->
<g id="edge3" class="edge">
<title>cmp&#45;&gt;diff</title>
<path fill="none" stroke="#94a3b8" stroke-width="1.4" d="M176.58,-215.38C176.58,-208.42 176.58,-200.15 176.58,-192.23"/>
<polygon fill="#94a3b8" stroke="#94a3b8" stroke-width="1.4" points="178.68,-192.28 176.58,-186.28 174.48,-192.28 178.68,-192.28"/>
</g>
<!-- flag -->
<g id="node5" class="node">
<title>flag</title>
<path fill="#fef2f2" stroke="#dc2626" stroke-width="1.4" d="M159.18,-96.38C159.18,-96.38 65.97,-96.38 65.97,-96.38 61.17,-96.38 56.37,-91.58 56.37,-86.78 56.37,-86.78 56.37,-77.18 56.37,-77.18 56.37,-72.38 61.17,-67.58 65.97,-67.58 65.97,-67.58 159.18,-67.58 159.18,-67.58 163.98,-67.58 168.78,-72.38 168.78,-77.18 168.78,-77.18 168.78,-86.78 168.78,-86.78 168.78,-91.58 163.98,-96.38 159.18,-96.38"/>
<text text-anchor="middle" x="112.58" y="-78.85" font-family="Segoe UI" font-size="10.00" fill="#7f1d1d">Pažymėti neatitikimus</text>
</g>
<!-- diff&#45;&gt;flag -->
<g id="edge4" class="edge">
<title>diff&#45;&gt;flag</title>
<path fill="none" stroke="#94a3b8" stroke-width="1.4" d="M162.38,-142.83C152.47,-130.92 139.22,-115 128.88,-102.57"/>
<polygon fill="#94a3b8" stroke="#94a3b8" stroke-width="1.4" points="130.58,-101.33 125.12,-98.06 127.35,-104.01 130.58,-101.33"/>
<text text-anchor="middle" x="152.45" y="-114.53" font-family="Segoe UI" font-size="8.00" fill="#64748b">Taip</text>
</g>
<!-- ok -->
<g id="node8" class="node">
<title>ok</title>
<path fill="#ecfdf5" stroke="#059669" stroke-width="1.4" d="M277.81,-96.38C277.81,-96.38 203.35,-96.38 203.35,-96.38 198.55,-96.38 193.75,-91.58 193.75,-86.78 193.75,-86.78 193.75,-77.18 193.75,-77.18 193.75,-72.38 198.55,-67.58 203.35,-67.58 203.35,-67.58 277.81,-67.58 277.81,-67.58 282.61,-67.58 287.41,-72.38 287.41,-77.18 287.41,-77.18 287.41,-86.78 287.41,-86.78 287.41,-91.58 282.61,-96.38 277.81,-96.38"/>
<text text-anchor="middle" x="240.58" y="-78.85" font-family="Segoe UI" font-size="10.00" fill="#064e3b">Viskas synced ✓</text>
</g>
<!-- diff&#45;&gt;ok -->
<g id="edge5" class="edge">
<title>diff&#45;&gt;ok</title>
<path fill="none" stroke="#94a3b8" stroke-width="1.4" d="M190.78,-142.83C200.69,-130.92 213.94,-115 224.28,-102.57"/>
<polygon fill="#94a3b8" stroke="#94a3b8" stroke-width="1.4" points="225.81,-104.01 228.04,-98.06 222.58,-101.33 225.81,-104.01"/>
<text text-anchor="middle" x="218.83" y="-114.53" font-family="Segoe UI" font-size="8.00" fill="#64748b">Ne</text>
</g>
<!-- alert -->
<g id="node6" class="node">
<title>alert</title>
<path fill="#fef2f2" stroke="#dc2626" stroke-width="1.4" d="M89.3,-35.58C89.3,-35.58 11.86,-35.58 11.86,-35.58 5.93,-35.58 0,-29.65 0,-23.72 0,-23.72 0,-11.86 0,-11.86 0,-5.93 5.93,0 11.86,0 11.86,0 89.3,0 89.3,0 95.23,0 101.16,-5.93 101.16,-11.86 101.16,-11.86 101.16,-23.72 101.16,-23.72 101.16,-29.65 95.23,-35.58 89.3,-35.58"/>
<text text-anchor="middle" x="50.58" y="-21.04" font-family="Segoe UI" font-size="10.00" fill="#7f1d1d">Slack Alert →</text>
<text text-anchor="middle" x="50.58" y="-8.29" font-family="Segoe UI" font-size="10.00" fill="#7f1d1d">Eimantas / Mantas</text>
</g>
<!-- flag&#45;&gt;alert -->
<g id="edge6" class="edge">
<title>flag&#45;&gt;alert</title>
<path fill="none" stroke="#94a3b8" stroke-width="1.4" d="M98.82,-67.18C91.14,-59.47 81.39,-49.69 72.66,-40.94"/>
<polygon fill="#94a3b8" stroke="#94a3b8" stroke-width="1.4" points="74.61,-39.92 68.89,-37.16 71.64,-42.89 74.61,-39.92"/>
</g>
<!-- log -->
<g id="node7" class="node">
<title>log</title>
<path fill="#fff7ed" stroke="#ea580c" stroke-width="1.4" d="M215.81,-32.19C215.81,-32.19 135.35,-32.19 135.35,-32.19 130.55,-32.19 125.75,-27.39 125.75,-22.59 125.75,-22.59 125.75,-12.99 125.75,-12.99 125.75,-8.19 130.55,-3.39 135.35,-3.39 135.35,-3.39 215.81,-3.39 215.81,-3.39 220.61,-3.39 225.41,-8.19 225.41,-12.99 225.41,-12.99 225.41,-22.59 225.41,-22.59 225.41,-27.39 220.61,-32.19 215.81,-32.19"/>
<text text-anchor="middle" x="175.58" y="-14.66" font-family="Segoe UI" font-size="10.00" fill="#7c2d12">Reconciliation Log</text>
</g>
<!-- flag&#45;&gt;log -->
<g id="edge7" class="edge">
<title>flag&#45;&gt;log</title>
<path fill="none" stroke="#94a3b8" stroke-width="1.4" d="M126.56,-67.18C135.21,-58.64 146.43,-47.56 155.96,-38.15"/>
<polygon fill="#94a3b8" stroke="#94a3b8" stroke-width="1.4" points="157.33,-39.75 160.13,-34.04 154.38,-36.76 157.33,-39.75"/>
</g>
</g>
</svg>
