<?xml version="1.0" encoding="UTF-8" standalone="no"?>
<!DOCTYPE svg PUBLIC "-//W3C//DTD SVG 1.1//EN"
 "http://www.w3.org/Graphics/SVG/1.1/DTD/svg11.dtd">
<!-- Generated by graphviz version 11.0.0 (20240428.1522)
 -->
<!-- Title: wf4 Pages: 1 -->
<svg width="591pt" height="517pt"
 viewBox="20.16 20.16 423.34 367.32" xmlns="http://www.w3.org/2000/svg" xmlns:xlink="http://www.w3.org/1999/xlink">
<g id="graph0" class="graph" transform="scale(1.33333 1.33333) rotate(0) translate(81.36 306.12)">
<title>wf4</title>
<polygon fill="white" stroke="none" points="-61.2,61.2 -61.2,-285.96 341.98,-285.96 341.98,61.2 -61.2,61.2"/>
<!-- rec -->
<g id="node1" class="node">
<title>rec</title>
<path fill="#eff6ff" stroke="#3b82f6" stroke-width="1.4" d="M186.56,-224.76C186.56,-224.76 113.6,-224.76 113.6,-224.76 108.8,-224.76 104,-219.96 104,-215.16 104,-215.16 104,-205.56 104,-205.56 104,-200.76 108.8,-195.96 113.6,-195.96 113.6,-195.96 186.56,-195.96 186.56,-195.96 191.36,-195.96 196.16,-200.76 196.16,-205.56 196.16,-205.56 196.16,-215.16 196.16,-215.16 196.16,-219.96 191.36,-224.76 186.56,-224.76"/>
<text text-anchor="middle" x="150.08" y="-207.24" font-family="Segoe UI" font-size="10.00" fill="#1e3a5f">Susitikimo Įrašas</text>
</g>
<!-- tr -->
<g id="node2" class="node">
<title>tr</title>
<path fill="#f5f3ff" stroke="#7c3aed" stroke-width="1.4" d="M177.93,-163.96C177.93,-163.96 122.22,-163.96 122.22,-163.96 117.42,-163.96 112.62,-159.16 112.62,-154.36 112.62,-154.36 112.62,-144.76 112.62,-144.76 112.62,-139.96 117.42,-135.16 122.22,-135.16 122.22,-135.16 177.93,-135.16 177.93,-135.16 182.73,-135.16 187.53,-139.96 187.53,-144.76 187.53,-144.76 187.53,-154.36 187.53,-154.36 187.53,-159.16 182.73,-163.96 177.93,-163.96"/>
<text text-anchor="middle" x="150.08" y="-146.44" font-family="Segoe UI" font-size="10.00" fill="#4c1d95">Transkripcija</text>
</g>
<!-- rec&#45;&gt;tr -->
<g id="edge1" class="edge">
<title>rec&#45;&gt;tr</title>
<path fill="none" stroke="#94a3b8" stroke-width="1.4" d="M150.08,-195.72C150.08,-188.75 150.08,-180.09 150.08,-172.23"/>
<polygon fill="#94a3b8" stroke="#94a3b8" stroke-width="1.4" points="152.18,-172.24 150.08,-166.24 147.98,-172.24 152.18,-172.24"/>
</g>
<!-- ex -->
<g id="node3" class="node">
<title>ex</title>
<path fill="#f5f3ff" stroke="#7c3aed" stroke-width="1.4" d="M192.55,-103.16C192.55,-103.16 107.61,-103.16 107.61,-103.16 101.68,-103.16 95.75,-97.23 95.75,-91.3 95.75,-91.3 95.75,-79.44 95.75,-79.44 95.75,-73.51 101.68,-67.58 107.61,-67.58 107.61,-67.58 192.55,-67.58 192.55,-67.58 198.48,-67.58 204.41,-73.51 204.41,-79.44 204.41,-79.44 204.41,-91.3 204.41,-91.3 204.41,-97.23 198.48,-103.16 192.55,-103.16"/>
<text text-anchor="middle" x="150.08" y="-88.62" font-family="Segoe UI" font-size="10.00" fill="#4c1d95">Gemini: Action Items</text>
<text text-anchor="middle" x="150.08" y="-75.87" font-family="Segoe UI" font-size="10.00" fill="#4c1d95">+ Sprendimai</text>
</g>
<!-- tr&#45;&gt;ex -->
<g id="edge2" class="edge">
<title>tr&#45;&gt;ex</title>
<path fill="none" stroke="#94a3b8" stroke-width="1.4" d="M150.08,-134.76C150.08,-127.85 150.08,-119.28 150.08,-111.28"/>
<polygon fill="#94a3b8" stroke="#94a3b8" stroke-width="1.4" points="152.18,-111.35 150.08,-105.35 147.98,-111.35 152.18,-111.35"/>
</g>
<!-- vec -->
<g id="node4" class="node">
<title>vec</title>
<path fill="#f5f3ff" stroke="#7c3aed" stroke-width="1.4" d="M74.3,-35.58C74.3,-35.58 11.86,-35.58 11.86,-35.58 5.93,-35.58 0,-29.65 0,-23.72 0,-23.72 0,-11.86 0,-11.86 0,-5.93 5.93,0 11.86,0 11.86,0 74.3,0 74.3,0 80.23,0 86.16,-5.93 86.16,-11.86 86.16,-11.86 86.16,-23.72 86.16,-23.72 86.16,-29.65 80.23,-35.58 74.3,-35.58"/>
<text text-anchor="middle" x="43.08" y="-21.04" font-family="Segoe UI" font-size="10.00" fill="#4c1d95">Embeddings →</text>
<text text-anchor="middle" x="43.08" y="-8.29" font-family="Segoe UI" font-size="10.00" fill="#4c1d95">Vertex AI RAG</text>
</g>
<!-- ex&#45;&gt;vec -->
<g id="edge3" class="edge">
<title>ex&#45;&gt;vec</title>
<path fill="none" stroke="#94a3b8" stroke-width="1.4" d="M121.97,-67.14C108.45,-58.86 92.12,-48.85 77.83,-40.09"/>
<polygon fill="#94a3b8" stroke="#94a3b8" stroke-width="1.4" points="79.02,-38.36 72.81,-37.01 76.83,-41.94 79.02,-38.36"/>
</g>
<!-- tasks -->
<g id="node5" class="node">
<title>tasks</title>
<path fill="#fff7ed" stroke="#ea580c" stroke-width="1.4" d="M176.8,-35.58C176.8,-35.58 123.36,-35.58 123.36,-35.58 117.43,-35.58 111.5,-29.65 111.5,-23.72 111.5,-23.72 111.5,-11.86 111.5,-11.86 111.5,-5.93 117.43,0 123.36,0 123.36,0 176.8,0 176.8,0 182.73,0 188.66,-5.93 188.66,-11.86 188.66,-11.86 188.66,-23.72 188.66,-23.72 188.66,-29.65 182.73,-35.58 176.8,-35.58"/>
<text text-anchor="middle" x="150.08" y="-21.04" font-family="Segoe UI" font-size="10.00" fill="#7c2d12">Monday.com</text>
<text text-anchor="middle" x="150.08" y="-8.29" font-family="Segoe UI" font-size="10.00" fill="#7c2d12">Užduotys</text>
</g>
<!-- ex&#45;&gt;tasks -->
<g id="edge4" class="edge">
<title>ex&#45;&gt;tasks</title>
<path fill="none" stroke="#94a3b8" stroke-width="1.4" d="M150.08,-67.14C150.08,-59.85 150.08,-51.23 150.08,-43.3"/>
<polygon fill="#94a3b8" stroke="#94a3b8" stroke-width="1.4" points="152.18,-43.8 150.08,-37.8 147.98,-43.8 152.18,-43.8"/>
</g>
<!-- arch -->
<g id="node6" class="node">
<title>arch</title>
<path fill="#ecfdf5" stroke="#059669" stroke-width="1.4" d="M268.92,-35.58C268.92,-35.58 225.24,-35.58 225.24,-35.58 219.31,-35.58 213.38,-29.65 213.38,-23.72 213.38,-23.72 213.38,-11.86 213.38,-11.86 213.38,-5.93 219.31,0 225.24,0 225.24,0 268.92,0 268.92,0 274.85,0 280.78,-5.93 280.78,-11.86 280.78,-11.86 280.78,-23.72 280.78,-23.72 280.78,-29.65 274.85,-35.58 268.92,-35.58"/>
<text text-anchor="middle" x="247.08" y="-21.04" font-family="Segoe UI" font-size="10.00" fill="#064e3b">Sprendimų</text>
<text text-anchor="middle" x="247.08" y="-8.29" font-family="Segoe UI" font-size="10.00" fill="#064e3b">Archyvas</text>
</g>
<!-- ex&#45;&gt;arch -->
<g id="edge5" class="edge">
<title>ex&#45;&gt;arch</title>
<path fill="none" stroke="#94a3b8" stroke-width="1.4" d="M175.57,-67.14C187.71,-58.93 202.35,-49.03 215.22,-40.33"/>
<polygon fill="#94a3b8" stroke="#94a3b8" stroke-width="1.4" points="216.21,-42.19 220.01,-37.09 213.86,-38.71 216.21,-42.19"/>
</g>
</g>
</svg>
