<?xml version="1.0" encoding="UTF-8" standalone="no"?>
<!DOCTYPE svg PUBLIC "-//W3C//DTD SVG 1.1//EN"
 "http://www.w3.org/Graphics/SVG/1.1/DTD/svg11.dtd">
<!-- Generated by graphviz version 11.0.0 (20240428.1522)
 -->
<!-- Title: dipa_arch Pages: 1 -->
<svg width="1080pt" height="642pt"
 viewBox="0.00 0.00 1079.66 642.00" xmlns="http://www.w3.org/2000/svg" xmlns:xlink="http://www.w3.org/1999/xlink">
<g id="graph0" class="graph" transform="scale(1 1) rotate(0) translate(18 624)">
<title>dipa_arch</title>
<text text-anchor="middle" x="521.83" y="-586.8" font-family="Segoe UI" font-size="16.00">DIPA OS Architecture (diagram&#45;as&#45;code)</text>
<g id="clust1" class="cluster">
<title>cluster_sources</title>
<path fill="#f8fafc" stroke="#d6d3d1" d="M106.66,-454.5C106.66,-454.5 620.66,-454.5 620.66,-454.5 626.66,-454.5 632.66,-460.5 632.66,-466.5 632.66,-466.5 632.66,-555.5 632.66,-555.5 632.66,-561.5 626.66,-567.5 620.66,-567.5 620.66,-567.5 106.66,-567.5 106.66,-567.5 100.66,-567.5 94.66,-561.5 94.66,-555.5 94.66,-555.5 94.66,-466.5 94.66,-466.5 94.66,-460.5 100.66,-454.5 106.66,-454.5"/>
<text text-anchor="middle" x="363.66" y="-548.3" font-family="Segoe UI" font-size="16.00">Sources</text>
</g>
<g id="clust2" class="cluster">
<title>cluster_wf</title>
<path fill="#f8fafc" stroke="#d6d3d1" d="M67.66,-313.5C67.66,-313.5 757.66,-313.5 757.66,-313.5 763.66,-313.5 769.66,-319.5 769.66,-325.5 769.66,-325.5 769.66,-414.5 769.66,-414.5 769.66,-420.5 763.66,-426.5 757.66,-426.5 757.66,-426.5 67.66,-426.5 67.66,-426.5 61.66,-426.5 55.66,-420.5 55.66,-414.5 55.66,-414.5 55.66,-325.5 55.66,-325.5 55.66,-319.5 61.66,-313.5 67.66,-313.5"/>
<text text-anchor="middle" x="412.66" y="-407.3" font-family="Segoe UI" font-size="16.00">Orchestration (n8n)</text>
</g>
<g id="clust3" class="cluster">
<title>cluster_ai</title>
<path fill="#f8fafc" stroke="#d6d3d1" d="M258.66,-8C258.66,-8 540.66,-8 540.66,-8 546.66,-8 552.66,-14 552.66,-20 552.66,-20 552.66,-261.75 552.66,-261.75 552.66,-267.75 546.66,-273.75 540.66,-273.75 540.66,-273.75 258.66,-273.75 258.66,-273.75 252.66,-273.75 246.66,-267.75 246.66,-261.75 246.66,-261.75 246.66,-20 246.66,-20 246.66,-14 252.66,-8 258.66,-8"/>
<text text-anchor="middle" x="399.66" y="-254.55" font-family="Segoe UI" font-size="16.00">AI Layer</text>
</g>
<g id="clust4" class="cluster">
<title>cluster_data</title>
<path fill="#f8fafc" stroke="#d6d3d1" d="M584.66,-160.75C584.66,-160.75 764.66,-160.75 764.66,-160.75 770.66,-160.75 776.66,-166.75 776.66,-172.75 776.66,-172.75 776.66,-261.75 776.66,-261.75 776.66,-267.75 770.66,-273.75 764.66,-273.75 764.66,-273.75 584.66,-273.75 584.66,-273.75 578.66,-273.75 572.66,-267.75 572.66,-261.75 572.66,-261.75 572.66,-172.75 572.66,-172.75 572.66,-166.75 578.66,-160.75 584.66,-160.75"/>
<text text-anchor="middle" x="674.66" y="-254.55" font-family="Segoe UI" font-size="16.00">Data / CRM</text>
</g>
<g id="clust5" class="cluster">
<title>cluster_app</title>
<path fill="#f8fafc" stroke="#d6d3d1" d="M572.66,-8C572.66,-8 980.66,-8 980.66,-8 986.66,-8 992.66,-14 992.66,-20 992.66,-20 992.66,-109 992.66,-109 992.66,-115 986.66,-121 980.66,-121 980.66,-121 572.66,-121 572.66,-121 566.66,-121 560.66,-115 560.66,-109 560.66,-109 560.66,-20 560.66,-20 560.66,-14 566.66,-8 572.66,-8"/>
<text text-anchor="middle" x="776.66" y="-101.8" font-family="Segoe UI" font-size="16.00">DIPA OS App</text>
</g>
<g id="clust6" class="cluster">
<title>cluster_compliance</title>
<path fill="#f8fafc" stroke="#d6d3d1" d="M861.66,-313.5C861.66,-313.5 1023.66,-313.5 1023.66,-313.5 1029.66,-313.5 1035.66,-319.5 1035.66,-325.5 1035.66,-325.5 1035.66,-414.5 1035.66,-414.5 1035.66,-420.5 1029.66,-426.5 1023.66,-426.5 1023.66,-426.5 861.66,-426.5 861.66,-426.5 855.66,-426.5 849.66,-420.5 849.66,-414.5 849.66,-414.5 849.66,-325.5 849.66,-325.5 849.66,-319.5 855.66,-313.5 861.66,-313.5"/>
<text text-anchor="middle" x="942.66" y="-407.3" font-family="Segoe UI" font-size="16.00">Compliance</text>
</g>
<!-- ads -->
<g id="node1" class="node">
<title>ads</title>
<path fill="#ffffff" stroke="#0f766e" stroke-width="1.2" d="M229.05,-498.5C229.05,-498.5 114.27,-498.5 114.27,-498.5 108.27,-498.5 102.27,-492.5 102.27,-486.5 102.27,-486.5 102.27,-474.5 102.27,-474.5 102.27,-468.5 108.27,-462.5 114.27,-462.5 114.27,-462.5 229.05,-462.5 229.05,-462.5 235.05,-462.5 241.05,-468.5 241.05,-474.5 241.05,-474.5 241.05,-486.5 241.05,-486.5 241.05,-492.5 235.05,-498.5 229.05,-498.5"/>
<text text-anchor="middle" x="171.66" y="-477.55" font-family="Segoe UI" font-size="11.00">Facebook / LinkedIn Ads</text>
</g>
<!-- wf1 -->
<g id="node6" class="node">
<title>wf1</title>
<path fill="#ecfdf5" stroke="#0f766e" stroke-width="1.2" d="M166.05,-357.5C166.05,-357.5 75.27,-357.5 75.27,-357.5 69.27,-357.5 63.27,-351.5 63.27,-345.5 63.27,-345.5 63.27,-333.5 63.27,-333.5 63.27,-327.5 69.27,-321.5 75.27,-321.5 75.27,-321.5 166.05,-321.5 166.05,-321.5 172.05,-321.5 178.05,-327.5 178.05,-333.5 178.05,-333.5 178.05,-345.5 178.05,-345.5 178.05,-351.5 172.05,-357.5 166.05,-357.5"/>
<text text-anchor="middle" x="120.66" y="-336.55" font-family="Segoe UI" font-size="11.00">WF1 Lead Ingestion</text>
</g>
<!-- ads&#45;&gt;wf1 -->
<g id="edge1" class="edge">
<title>ads&#45;&gt;wf1</title>
<path fill="none" stroke="#78716c" stroke-width="1.1" d="M165.3,-462.18C156.39,-437.91 140.15,-393.63 129.9,-365.71"/>
<polygon fill="#78716c" stroke="#78716c" stroke-width="1.1" points="132.22,-364.9 127.5,-359.17 127.62,-366.58 132.22,-364.9"/>
</g>
<!-- outlook -->
<g id="node2" class="node">
<title>outlook</title>
<path fill="#ffffff" stroke="#0f766e" stroke-width="1.2" d="M318.17,-498.5C318.17,-498.5 285.14,-498.5 285.14,-498.5 279.14,-498.5 273.14,-492.5 273.14,-486.5 273.14,-486.5 273.14,-474.5 273.14,-474.5 273.14,-468.5 279.14,-462.5 285.14,-462.5 285.14,-462.5 318.17,-462.5 318.17,-462.5 324.17,-462.5 330.17,-468.5 330.17,-474.5 330.17,-474.5 330.17,-486.5 330.17,-486.5 330.17,-492.5 324.17,-498.5 318.17,-498.5"/>
<text text-anchor="middle" x="301.66" y="-477.55" font-family="Segoe UI" font-size="11.00">Outlook</text>
</g>
<!-- wf2 -->
<g id="node7" class="node">
<title>wf2</title>
<path fill="#ecfdf5" stroke="#0f766e" stroke-width="1.2" d="M305.3,-357.5C305.3,-357.5 222.02,-357.5 222.02,-357.5 216.02,-357.5 210.02,-351.5 210.02,-345.5 210.02,-345.5 210.02,-333.5 210.02,-333.5 210.02,-327.5 216.02,-321.5 222.02,-321.5 222.02,-321.5 305.3,-321.5 305.3,-321.5 311.3,-321.5 317.3,-327.5 317.3,-333.5 317.3,-333.5 317.3,-345.5 317.3,-345.5 317.3,-351.5 311.3,-357.5 305.3,-357.5"/>
<text text-anchor="middle" x="263.66" y="-336.55" font-family="Segoe UI" font-size="11.00">WF2 Pre&#45;Call Brief</text>
</g>
<!-- outlook&#45;&gt;wf2 -->
<g id="edge2" class="edge">
<title>outlook&#45;&gt;wf2</title>
<path fill="none" stroke="#78716c" stroke-width="1.1" d="M296.92,-462.18C290.28,-437.91 278.18,-393.63 270.55,-365.71"/>
<polygon fill="#78716c" stroke="#78716c" stroke-width="1.1" points="272.98,-365.32 268.77,-359.21 268.25,-366.61 272.98,-365.32"/>
</g>
<!-- plaud -->
<g id="node3" class="node">
<title>plaud</title>
<path fill="#ffffff" stroke="#0f766e" stroke-width="1.2" d="M428.67,-498.5C428.67,-498.5 374.64,-498.5 374.64,-498.5 368.64,-498.5 362.64,-492.5 362.64,-486.5 362.64,-486.5 362.64,-474.5 362.64,-474.5 362.64,-468.5 368.64,-462.5 374.64,-462.5 374.64,-462.5 428.67,-462.5 428.67,-462.5 434.67,-462.5 440.67,-468.5 440.67,-474.5 440.67,-474.5 440.67,-486.5 440.67,-486.5 440.67,-492.5 434.67,-498.5 428.67,-498.5"/>
<text text-anchor="middle" x="401.66" y="-477.55" font-family="Segoe UI" font-size="11.00">Plaud Audio</text>
</g>
<!-- wf3 -->
<g id="node8" class="node">
<title>wf3</title>
<path fill="#ecfdf5" stroke="#0f766e" stroke-width="1.2" d="M442.17,-357.5C442.17,-357.5 361.14,-357.5 361.14,-357.5 355.14,-357.5 349.14,-351.5 349.14,-345.5 349.14,-345.5 349.14,-333.5 349.14,-333.5 349.14,-327.5 355.14,-321.5 361.14,-321.5 361.14,-321.5 442.17,-321.5 442.17,-321.5 448.17,-321.5 454.17,-327.5 454.17,-333.5 454.17,-333.5 454.17,-345.5 454.17,-345.5 454.17,-351.5 448.17,-357.5 442.17,-357.5"/>
<text text-anchor="middle" x="401.66" y="-336.55" font-family="Segoe UI" font-size="11.00">WF3 Post&#45;Call QA</text>
</g>
<!-- plaud&#45;&gt;wf3 -->
<g id="edge3" class="edge">
<title>plaud&#45;&gt;wf3</title>
<path fill="none" stroke="#78716c" stroke-width="1.1" d="M401.66,-462.18C401.66,-438.01 401.66,-394.01 401.66,-366.07"/>
<polygon fill="#78716c" stroke="#78716c" stroke-width="1.1" points="404.11,-366.27 401.66,-359.27 399.21,-366.27 404.11,-366.27"/>
</g>
<!-- meetings -->
<g id="node4" class="node">
<title>meetings</title>
<path fill="#ffffff" stroke="#0f766e" stroke-width="1.2" d="M524.17,-498.5C524.17,-498.5 485.14,-498.5 485.14,-498.5 479.14,-498.5 473.14,-492.5 473.14,-486.5 473.14,-486.5 473.14,-474.5 473.14,-474.5 473.14,-468.5 479.14,-462.5 485.14,-462.5 485.14,-462.5 524.17,-462.5 524.17,-462.5 530.17,-462.5 536.17,-468.5 536.17,-474.5 536.17,-474.5 536.17,-486.5 536.17,-486.5 536.17,-492.5 530.17,-498.5 524.17,-498.5"/>
<text text-anchor="middle" x="504.66" y="-477.55" font-family="Segoe UI" font-size="11.00">Meetings</text>
</g>
<!-- wf4 -->
<g id="node9" class="node">
<title>wf4</title>
<path fill="#ecfdf5" stroke="#0f766e" stroke-width="1.2" d="M604.92,-357.5C604.92,-357.5 498.39,-357.5 498.39,-357.5 492.39,-357.5 486.39,-351.5 486.39,-345.5 486.39,-345.5 486.39,-333.5 486.39,-333.5 486.39,-327.5 492.39,-321.5 498.39,-321.5 498.39,-321.5 604.92,-321.5 604.92,-321.5 610.92,-321.5 616.92,-327.5 616.92,-333.5 616.92,-333.5 616.92,-345.5 616.92,-345.5 616.92,-351.5 610.92,-357.5 604.92,-357.5"/>
<text text-anchor="middle" x="551.66" y="-336.55" font-family="Segoe UI" font-size="11.00">WF4 Strategic Memory</text>
</g>
<!-- meetings&#45;&gt;wf4 -->
<g id="edge4" class="edge">
<title>meetings&#45;&gt;wf4</title>
<path fill="none" stroke="#78716c" stroke-width="1.1" d="M510.51,-462.18C518.72,-437.91 533.69,-393.63 543.13,-365.71"/>
<polygon fill="#78716c" stroke="#78716c" stroke-width="1.1" points="545.42,-366.6 545.34,-359.18 540.78,-365.03 545.42,-366.6"/>
</g>
<!-- clockify -->
<g id="node5" class="node">
<title>clockify</title>
<path fill="#ffffff" stroke="#0f766e" stroke-width="1.2" d="M612.8,-498.5C612.8,-498.5 580.52,-498.5 580.52,-498.5 574.52,-498.5 568.52,-492.5 568.52,-486.5 568.52,-486.5 568.52,-474.5 568.52,-474.5 568.52,-468.5 574.52,-462.5 580.52,-462.5 580.52,-462.5 612.8,-462.5 612.8,-462.5 618.8,-462.5 624.8,-468.5 624.8,-474.5 624.8,-474.5 624.8,-486.5 624.8,-486.5 624.8,-492.5 618.8,-498.5 612.8,-498.5"/>
<text text-anchor="middle" x="596.66" y="-477.55" font-family="Segoe UI" font-size="11.00">Clockify</text>
</g>
<!-- pg -->
<g id="node16" class="node">
<title>pg</title>
<path fill="#fffbeb" stroke="#0f766e" stroke-width="1.2" d="M756.8,-204.75C756.8,-204.75 706.52,-204.75 706.52,-204.75 700.52,-204.75 694.52,-198.75 694.52,-192.75 694.52,-192.75 694.52,-180.75 694.52,-180.75 694.52,-174.75 700.52,-168.75 706.52,-168.75 706.52,-168.75 756.8,-168.75 756.8,-168.75 762.8,-168.75 768.8,-174.75 768.8,-180.75 768.8,-180.75 768.8,-192.75 768.8,-192.75 768.8,-198.75 762.8,-204.75 756.8,-204.75"/>
<text text-anchor="middle" x="731.66" y="-183.8" font-family="Segoe UI" font-size="11.00">PostgreSQL</text>
</g>
<!-- clockify&#45;&gt;pg -->
<g id="edge5" class="edge">
<title>clockify&#45;&gt;pg</title>
<path fill="none" stroke="#78716c" stroke-width="1.1" d="M625.01,-475.36C671.18,-467.99 759.3,-451 777.66,-426.5 826.44,-361.38 775.67,-258.96 747.62,-212.33"/>
<polygon fill="#78716c" stroke="#78716c" stroke-width="1.1" points="749.79,-211.18 744.04,-206.5 745.61,-213.75 749.79,-211.18"/>
</g>
<!-- rag -->
<g id="node11" class="node">
<title>rag</title>
<path fill="#f0f9ff" stroke="#0f766e" stroke-width="1.2" d="M330.17,-204.75C330.17,-204.75 267.14,-204.75 267.14,-204.75 261.14,-204.75 255.14,-198.75 255.14,-192.75 255.14,-192.75 255.14,-180.75 255.14,-180.75 255.14,-174.75 261.14,-168.75 267.14,-168.75 267.14,-168.75 330.17,-168.75 330.17,-168.75 336.17,-168.75 342.17,-174.75 342.17,-180.75 342.17,-180.75 342.17,-192.75 342.17,-192.75 342.17,-198.75 336.17,-204.75 330.17,-204.75"/>
<text text-anchor="middle" x="298.66" y="-183.8" font-family="Segoe UI" font-size="11.00">Vertex AI RAG</text>
</g>
<!-- wf1&#45;&gt;rag -->
<g id="edge10" class="edge">
<title>wf1&#45;&gt;rag</title>
<path fill="none" stroke="#78716c" stroke-width="1.1" stroke-dasharray="5,2" d="M101.88,-321.02C91.08,-308.89 81.56,-292.97 92.16,-281.75 102.74,-270.54 216.98,-280.86 230.66,-273.75 256.26,-260.43 275.39,-232.72 286.73,-212.34"/>
<polygon fill="#78716c" stroke="#78716c" stroke-width="1.1" points="288.77,-213.72 289.91,-206.4 284.45,-211.41 288.77,-213.72"/>
<text text-anchor="middle" x="111.91" y="-285" font-family="Segoe UI" font-size="10.00">new facts</text>
</g>
<!-- newo -->
<g id="node14" class="node">
<title>newo</title>
<path fill="#f0f9ff" stroke="#0f766e" stroke-width="1.2" d="M422.67,-204.75C422.67,-204.75 386.64,-204.75 386.64,-204.75 380.64,-204.75 374.64,-198.75 374.64,-192.75 374.64,-192.75 374.64,-180.75 374.64,-180.75 374.64,-174.75 380.64,-168.75 386.64,-168.75 386.64,-168.75 422.67,-168.75 422.67,-168.75 428.67,-168.75 434.67,-174.75 434.67,-180.75 434.67,-180.75 434.67,-192.75 434.67,-192.75 434.67,-198.75 428.67,-204.75 422.67,-204.75"/>
<text text-anchor="middle" x="404.66" y="-183.8" font-family="Segoe UI" font-size="11.00">Newo AI</text>
</g>
<!-- wf1&#45;&gt;newo -->
<g id="edge7" class="edge">
<title>wf1&#45;&gt;newo</title>
<path fill="none" stroke="#78716c" stroke-width="1.1" d="M130.13,-321.2C138.52,-307.8 152.11,-290.14 169.41,-281.75 188.34,-272.56 340.83,-284.95 358.66,-273.75 379.98,-260.35 392.06,-233.49 398.43,-213.33"/>
<polygon fill="#78716c" stroke="#78716c" stroke-width="1.1" points="400.74,-214.17 400.35,-206.76 396.03,-212.79 400.74,-214.17"/>
<text text-anchor="middle" x="184.78" y="-285" font-family="Segoe UI" font-size="10.00">C leads</text>
</g>
<!-- monday -->
<g id="node15" class="node">
<title>monday</title>
<path fill="#fffbeb" stroke="#0f766e" stroke-width="1.2" d="M650.55,-204.75C650.55,-204.75 592.77,-204.75 592.77,-204.75 586.77,-204.75 580.77,-198.75 580.77,-192.75 580.77,-192.75 580.77,-180.75 580.77,-180.75 580.77,-174.75 586.77,-168.75 592.77,-168.75 592.77,-168.75 650.55,-168.75 650.55,-168.75 656.55,-168.75 662.55,-174.75 662.55,-180.75 662.55,-180.75 662.55,-192.75 662.55,-192.75 662.55,-198.75 656.55,-204.75 650.55,-204.75"/>
<text text-anchor="middle" x="621.66" y="-183.8" font-family="Segoe UI" font-size="11.00">Monday.com</text>
</g>
<!-- wf1&#45;&gt;monday -->
<g id="edge6" class="edge">
<title>wf1&#45;&gt;monday</title>
<path fill="none" stroke="#78716c" stroke-width="1.1" d="M168.69,-321.09C176.96,-318.37 185.51,-315.72 193.66,-313.5 261.07,-295.09 278.28,-290.15 347.66,-281.75 371.17,-278.9 539.82,-285.01 560.66,-273.75 584.96,-260.61 601.81,-233.06 611.55,-212.67"/>
<polygon fill="#78716c" stroke="#78716c" stroke-width="1.1" points="613.69,-213.87 614.36,-206.49 609.23,-211.84 613.69,-213.87"/>
</g>
<!-- gemini -->
<g id="node12" class="node">
<title>gemini</title>
<path fill="#f0f9ff" stroke="#0f766e" stroke-width="1.2" d="M400.3,-52C400.3,-52 335.02,-52 335.02,-52 329.02,-52 323.02,-46 323.02,-40 323.02,-40 323.02,-28 323.02,-28 323.02,-22 329.02,-16 335.02,-16 335.02,-16 400.3,-16 400.3,-16 406.3,-16 412.3,-22 412.3,-28 412.3,-28 412.3,-40 412.3,-40 412.3,-46 406.3,-52 400.3,-52"/>
<text text-anchor="middle" x="367.66" y="-31.05" font-family="Segoe UI" font-size="11.00">Gemini 2.5 Pro</text>
</g>
<!-- wf2&#45;&gt;gemini -->
<g id="edge12" class="edge">
<title>wf2&#45;&gt;gemini</title>
<path fill="none" stroke="#78716c" stroke-width="1.1" d="M257.8,-321.17C253.83,-309.83 248.3,-294.76 242.66,-281.75 241.07,-278.1 239.57,-277.62 238.66,-273.75 227.12,-224.87 219.14,-207.03 238.66,-160.75 257.58,-115.87 301.21,-79.06 332.49,-57.11"/>
<polygon fill="#78716c" stroke="#78716c" stroke-width="1.1" points="333.61,-59.32 337.99,-53.33 330.83,-55.28 333.61,-59.32"/>
</g>
<!-- wf2&#45;&gt;monday -->
<g id="edge13" class="edge">
<title>wf2&#45;&gt;monday</title>
<path fill="none" stroke="#78716c" stroke-width="1.1" d="M294.6,-321.01C320.05,-307.59 357.53,-290.01 392.66,-281.75 410.85,-277.47 544.26,-282.72 560.66,-273.75 584.9,-260.48 601.76,-232.96 611.52,-212.6"/>
<polygon fill="#78716c" stroke="#78716c" stroke-width="1.1" points="613.65,-213.83 614.34,-206.44 609.2,-211.79 613.65,-213.83"/>
</g>
<!-- whisper -->
<g id="node13" class="node">
<title>whisper</title>
<path fill="#f0f9ff" stroke="#0f766e" stroke-width="1.2" d="M533.05,-204.75C533.05,-204.75 478.27,-204.75 478.27,-204.75 472.27,-204.75 466.27,-198.75 466.27,-192.75 466.27,-192.75 466.27,-180.75 466.27,-180.75 466.27,-174.75 472.27,-168.75 478.27,-168.75 478.27,-168.75 533.05,-168.75 533.05,-168.75 539.05,-168.75 545.05,-174.75 545.05,-180.75 545.05,-180.75 545.05,-192.75 545.05,-192.75 545.05,-198.75 539.05,-204.75 533.05,-204.75"/>
<text text-anchor="middle" x="505.66" y="-183.8" font-family="Segoe UI" font-size="11.00">Whisper STT</text>
</g>
<!-- wf3&#45;&gt;whisper -->
<g id="edge14" class="edge">
<title>wf3&#45;&gt;whisper</title>
<path fill="none" stroke="#78716c" stroke-width="1.1" d="M415.35,-321.19C425.39,-308.3 439.21,-290.18 450.66,-273.75 464.84,-253.39 479.96,-229.58 490.75,-212.18"/>
<polygon fill="#78716c" stroke="#78716c" stroke-width="1.1" points="492.62,-213.8 494.22,-206.56 488.45,-211.23 492.62,-213.8"/>
</g>
<!-- wf3&#45;&gt;monday -->
<g id="edge17" class="edge">
<title>wf3&#45;&gt;monday</title>
<path fill="none" stroke="#78716c" stroke-width="1.1" d="M431.24,-321.24C454.13,-308.58 487,-291.89 517.66,-281.75 536.11,-275.64 544.28,-284.22 560.66,-273.75 583.56,-259.1 600.42,-232.5 610.54,-212.75"/>
<polygon fill="#78716c" stroke="#78716c" stroke-width="1.1" points="612.72,-213.88 613.6,-206.52 608.32,-211.72 612.72,-213.88"/>
</g>
<!-- wf4&#45;&gt;rag -->
<g id="edge18" class="edge">
<title>wf4&#45;&gt;rag</title>
<path fill="none" stroke="#78716c" stroke-width="1.1" d="M544.22,-321.05C537.54,-307.74 526.35,-290.3 510.66,-281.75 480.95,-265.57 388.22,-290.18 358.66,-273.75 334.63,-260.4 318.08,-232.89 308.54,-212.56"/>
<polygon fill="#78716c" stroke="#78716c" stroke-width="1.1" points="310.88,-211.81 305.79,-206.42 306.41,-213.81 310.88,-211.81"/>
</g>
<!-- wf4&#45;&gt;monday -->
<g id="edge19" class="edge">
<title>wf4&#45;&gt;monday</title>
<path fill="none" stroke="#78716c" stroke-width="1.1" d="M559.69,-321.21C572.08,-294.51 595.93,-243.16 610.15,-212.53"/>
<polygon fill="#78716c" stroke="#78716c" stroke-width="1.1" points="612.29,-213.73 613.02,-206.35 607.85,-211.67 612.29,-213.73"/>
</g>
<!-- wf5 -->
<g id="node10" class="node">
<title>wf5</title>
<path fill="#ecfdf5" stroke="#0f766e" stroke-width="1.2" d="M749.92,-357.5C749.92,-357.5 661.39,-357.5 661.39,-357.5 655.39,-357.5 649.39,-351.5 649.39,-345.5 649.39,-345.5 649.39,-333.5 649.39,-333.5 649.39,-327.5 655.39,-321.5 661.39,-321.5 661.39,-321.5 749.92,-321.5 749.92,-321.5 755.92,-321.5 761.92,-327.5 761.92,-333.5 761.92,-333.5 761.92,-345.5 761.92,-345.5 761.92,-351.5 755.92,-357.5 749.92,-357.5"/>
<text text-anchor="middle" x="705.66" y="-336.55" font-family="Segoe UI" font-size="11.00">WF5 Reconciliation</text>
</g>
<!-- wf5&#45;&gt;pg -->
<g id="edge22" class="edge">
<title>wf5&#45;&gt;pg</title>
<path fill="none" stroke="#78716c" stroke-width="1.1" d="M708.64,-321.21C713.2,-294.74 721.95,-244.03 727.25,-213.31"/>
<polygon fill="#78716c" stroke="#78716c" stroke-width="1.1" points="729.65,-213.8 728.42,-206.48 724.82,-212.96 729.65,-213.8"/>
<text text-anchor="middle" x="735.28" y="-285" font-family="Segoe UI" font-size="10.00">log + diff</text>
</g>
<!-- alerts -->
<g id="node22" class="node">
<title>alerts</title>
<path fill="#ffffff" stroke="#0f766e" stroke-width="1.2" d="M899.66,-357.5C899.66,-357.5 869.66,-357.5 869.66,-357.5 863.66,-357.5 857.66,-351.5 857.66,-345.5 857.66,-345.5 857.66,-333.5 857.66,-333.5 857.66,-327.5 863.66,-321.5 869.66,-321.5 869.66,-321.5 899.66,-321.5 899.66,-321.5 905.66,-321.5 911.66,-327.5 911.66,-333.5 911.66,-333.5 911.66,-345.5 911.66,-345.5 911.66,-351.5 905.66,-357.5 899.66,-357.5"/>
<text text-anchor="middle" x="884.66" y="-336.55" font-family="Segoe UI" font-size="11.00">Alerts</text>
</g>
<!-- wf5&#45;&gt;alerts -->
<g id="edge23" class="edge">
<title>wf5&#45;&gt;alerts</title>
<path fill="none" stroke="#78716c" stroke-width="1.1" d="M719.88,-357.76C734.34,-374.69 758.44,-398.75 785.66,-408.92 805.64,-416.38 814.62,-418.55 833.66,-408.92 851.66,-399.8 864.85,-381.02 873.3,-365.28"/>
<polygon fill="#78716c" stroke="#78716c" stroke-width="1.1" points="875.33,-366.69 876.32,-359.34 870.96,-364.47 875.33,-366.69"/>
</g>
<!-- rag&#45;&gt;wf1 -->
<g id="edge9" class="edge">
<title>rag&#45;&gt;wf1</title>
<path fill="none" stroke="#78716c" stroke-width="1.1" stroke-dasharray="5,2" d="M290.75,-205.03C280.28,-225.61 259.69,-259.05 230.66,-273.75 208.44,-285 23.95,-263.83 6.66,-281.75 -14.11,-303.27 18.9,-317.89 54.65,-326.9"/>
<polygon fill="#78716c" stroke="#78716c" stroke-width="1.1" points="53.79,-329.21 61.17,-328.46 54.93,-324.45 53.79,-329.21"/>
<text text-anchor="middle" x="30.66" y="-285" font-family="Segoe UI" font-size="10.00">enrichment</text>
</g>
<!-- rag&#45;&gt;gemini -->
<g id="edge11" class="edge">
<title>rag&#45;&gt;gemini</title>
<path fill="none" stroke="#78716c" stroke-width="1.1" stroke-dasharray="5,2" d="M306.57,-168.46C318.79,-141.76 342.29,-90.41 356.32,-59.78"/>
<polygon fill="#78716c" stroke="#78716c" stroke-width="1.1" points="358.45,-60.99 359.14,-53.61 354,-58.95 358.45,-60.99"/>
<text text-anchor="middle" x="338.41" y="-132.25" font-family="Segoe UI" font-size="10.00">context</text>
</g>
<!-- copilot -->
<g id="node17" class="node">
<title>copilot</title>
<path fill="#ffffff" stroke="#0f766e" stroke-width="1.2" d="M614.55,-52C614.55,-52 580.77,-52 580.77,-52 574.77,-52 568.77,-46 568.77,-40 568.77,-40 568.77,-28 568.77,-28 568.77,-22 574.77,-16 580.77,-16 580.77,-16 614.55,-16 614.55,-16 620.55,-16 626.55,-22 626.55,-28 626.55,-28 626.55,-40 626.55,-40 626.55,-46 620.55,-52 614.55,-52"/>
<text text-anchor="middle" x="597.66" y="-31.05" font-family="Segoe UI" font-size="11.00">Co&#45;Pilot</text>
</g>
<!-- rag&#45;&gt;copilot -->
<g id="edge24" class="edge">
<title>rag&#45;&gt;copilot</title>
<path fill="none" stroke="#78716c" stroke-width="1.1" d="M336.92,-168.28C344.04,-165.47 351.5,-162.81 358.66,-160.75 408.02,-146.56 422.3,-151.87 472.66,-141.75 482.5,-139.77 552.96,-127.46 560.66,-121 578.8,-105.78 588.27,-80.03 593.07,-60.67"/>
<polygon fill="#78716c" stroke="#78716c" stroke-width="1.1" points="595.45,-61.27 594.59,-53.9 590.67,-60.19 595.45,-61.27"/>
</g>
<!-- gemini&#45;&gt;pg -->
<g id="edge16" class="edge">
<title>gemini&#45;&gt;pg</title>
<path fill="none" stroke="#78716c" stroke-width="1.1" d="M401.52,-52.36C438.18,-70.77 498.67,-100.04 552.66,-121 607.39,-142.25 623.98,-139.34 678.66,-160.75 681.91,-162.02 685.24,-163.4 688.57,-164.84"/>
<polygon fill="#78716c" stroke="#78716c" stroke-width="1.1" points="687.39,-167 694.79,-167.6 689.38,-162.52 687.39,-167"/>
<text text-anchor="middle" x="637.91" y="-132.25" font-family="Segoe UI" font-size="10.00">QA JSON</text>
</g>
<!-- whisper&#45;&gt;gemini -->
<g id="edge15" class="edge">
<title>whisper&#45;&gt;gemini</title>
<path fill="none" stroke="#78716c" stroke-width="1.1" d="M489.83,-168.46C464.97,-141.31 416.77,-88.65 388.92,-58.23"/>
<polygon fill="#78716c" stroke="#78716c" stroke-width="1.1" points="390.96,-56.83 384.43,-53.32 387.34,-60.14 390.96,-56.83"/>
</g>
<!-- newo&#45;&gt;wf3 -->
<g id="edge8" class="edge">
<title>newo&#45;&gt;wf3</title>
<path fill="none" stroke="#78716c" stroke-width="1.1" d="M403.82,-205.07C402.95,-223.93 401.65,-254.97 401.16,-281.75 401.05,-287.42 401.12,-288.83 401.16,-294.5 401.19,-300.45 401.25,-306.86 401.32,-312.89"/>
<polygon fill="#78716c" stroke="#78716c" stroke-width="1.1" points="398.86,-312.73 401.4,-319.7 403.76,-312.67 398.86,-312.73"/>
<text text-anchor="middle" x="414.91" y="-285" font-family="Segoe UI" font-size="10.00">results</text>
</g>
<!-- monday&#45;&gt;wf5 -->
<g id="edge20" class="edge">
<title>monday&#45;&gt;wf5</title>
<path fill="none" stroke="#78716c" stroke-width="1.1" d="M631.18,-204.84C646.05,-231.52 674.84,-283.19 691.94,-313.88"/>
<polygon fill="#78716c" stroke="#78716c" stroke-width="1.1" points="689.66,-314.83 695.21,-319.75 693.94,-312.45 689.66,-314.83"/>
</g>
<!-- pg&#45;&gt;wf5 -->
<g id="edge21" class="edge">
<title>pg&#45;&gt;wf5</title>
<path fill="none" stroke="#78716c" stroke-width="1.1" d="M726,-205.19C720.22,-223.9 711.56,-254.57 707.66,-281.75 706.22,-291.76 705.61,-302.86 705.4,-312.57"/>
<polygon fill="#78716c" stroke="#78716c" stroke-width="1.1" points="702.95,-312.34 705.32,-319.36 707.85,-312.39 702.95,-312.34"/>
</g>
<!-- cockpit -->
<g id="node18" class="node">
<title>cockpit</title>
<path fill="#ffffff" stroke="#0f766e" stroke-width="1.2" d="M866.3,-52C866.3,-52 807.02,-52 807.02,-52 801.02,-52 795.02,-46 795.02,-40 795.02,-40 795.02,-28 795.02,-28 795.02,-22 801.02,-16 807.02,-16 807.02,-16 866.3,-16 866.3,-16 872.3,-16 878.3,-22 878.3,-28 878.3,-28 878.3,-40 878.3,-40 878.3,-46 872.3,-52 866.3,-52"/>
<text text-anchor="middle" x="836.66" y="-31.05" font-family="Segoe UI" font-size="11.00">Sales Cockpit</text>
</g>
<!-- pg&#45;&gt;cockpit -->
<g id="edge25" class="edge">
<title>pg&#45;&gt;cockpit</title>
<path fill="none" stroke="#78716c" stroke-width="1.1" d="M744.59,-168.28C754.12,-155.31 767.35,-137.16 778.66,-121 793.11,-100.34 809.1,-76.56 820.63,-59.25"/>
<polygon fill="#78716c" stroke="#78716c" stroke-width="1.1" points="822.52,-60.82 824.35,-53.64 818.44,-58.11 822.52,-60.82"/>
</g>
<!-- qa -->
<g id="node19" class="node">
<title>qa</title>
<path fill="#ffffff" stroke="#0f766e" stroke-width="1.2" d="M972.8,-52C972.8,-52 922.52,-52 922.52,-52 916.52,-52 910.52,-46 910.52,-40 910.52,-40 910.52,-28 910.52,-28 910.52,-22 916.52,-16 922.52,-16 922.52,-16 972.8,-16 972.8,-16 978.8,-16 984.8,-22 984.8,-28 984.8,-28 984.8,-40 984.8,-40 984.8,-46 978.8,-52 972.8,-52"/>
<text text-anchor="middle" x="947.66" y="-31.05" font-family="Segoe UI" font-size="11.00">QA Module</text>
</g>
<!-- pg&#45;&gt;qa -->
<g id="edge26" class="edge">
<title>pg&#45;&gt;qa</title>
<path fill="none" stroke="#78716c" stroke-width="1.1" d="M769.17,-178.06C804.69,-169.24 857.92,-151.83 894.66,-121 914.17,-104.62 928.6,-79.14 937.44,-60.16"/>
<polygon fill="#78716c" stroke="#78716c" stroke-width="1.1" points="939.57,-61.38 940.2,-53.99 935.1,-59.38 939.57,-61.38"/>
</g>
<!-- cmd -->
<g id="node20" class="node">
<title>cmd</title>
<path fill="#ffffff" stroke="#0f766e" stroke-width="1.2" d="M750.8,-52C750.8,-52 670.52,-52 670.52,-52 664.52,-52 658.52,-46 658.52,-40 658.52,-40 658.52,-28 658.52,-28 658.52,-22 664.52,-16 670.52,-16 670.52,-16 750.8,-16 750.8,-16 756.8,-16 762.8,-22 762.8,-28 762.8,-28 762.8,-40 762.8,-40 762.8,-46 756.8,-52 750.8,-52"/>
<text text-anchor="middle" x="710.66" y="-31.05" font-family="Segoe UI" font-size="11.00">Command Center</text>
</g>
<!-- pg&#45;&gt;cmd -->
<g id="edge27" class="edge">
<title>pg&#45;&gt;cmd</title>
<path fill="none" stroke="#78716c" stroke-width="1.1" d="M729.25,-168.46C725.56,-141.99 718.5,-91.28 714.22,-60.56"/>
<polygon fill="#78716c" stroke="#78716c" stroke-width="1.1" points="716.66,-60.34 713.27,-53.74 711.81,-61.01 716.66,-60.34"/>
</g>
<!-- gdpr -->
<g id="node21" class="node">
<title>gdpr</title>
<path fill="#ffffff" stroke="#0f766e" stroke-width="1.2" d="M1015.3,-357.5C1015.3,-357.5 956.02,-357.5 956.02,-357.5 950.02,-357.5 944.02,-351.5 944.02,-345.5 944.02,-345.5 944.02,-333.5 944.02,-333.5 944.02,-327.5 950.02,-321.5 956.02,-321.5 956.02,-321.5 1015.3,-321.5 1015.3,-321.5 1021.3,-321.5 1027.3,-327.5 1027.3,-333.5 1027.3,-333.5 1027.3,-345.5 1027.3,-345.5 1027.3,-351.5 1021.3,-357.5 1015.3,-357.5"/>
<text text-anchor="middle" x="985.66" y="-336.55" font-family="Segoe UI" font-size="11.00">GDPR / Audit</text>
</g>
<!-- gdpr&#45;&gt;monday -->
<g id="edge28" class="edge">
<title>gdpr&#45;&gt;monday</title>
<path fill="none" stroke="#78716c" stroke-width="1.1" stroke-dasharray="5,2" d="M948.35,-321.02C941.56,-318.25 934.47,-315.6 927.66,-313.5 856.71,-291.62 837.14,-292.3 763.66,-281.75 744.88,-279.05 694.93,-283.5 678.66,-273.75 655.7,-260 640.12,-233 631.13,-212.91"/>
<polygon fill="#78716c" stroke="#78716c" stroke-width="1.1" points="633.43,-212.06 628.44,-206.58 628.92,-213.98 633.43,-212.06"/>
<text text-anchor="middle" x="868.53" y="-285" font-family="Segoe UI" font-size="10.00">consent</text>
</g>
<!-- gdpr&#45;&gt;pg -->
<g id="edge29" class="edge">
<title>gdpr&#45;&gt;pg</title>
<path fill="none" stroke="#78716c" stroke-width="1.1" stroke-dasharray="5,2" d="M974.4,-321.06C965.79,-308.81 952.99,-292.7 938.66,-281.75 888.92,-243.73 821.34,-216.73 777.13,-201.7"/>
<polygon fill="#78716c" stroke="#78716c" stroke-width="1.1" points="778.15,-199.46 770.73,-199.56 776.59,-204.1 778.15,-199.46"/>
<text text-anchor="middle" x="962.53" y="-285" font-family="Segoe UI" font-size="10.00">audit</text>
</g>
</g>
</svg>
